<svg width="545" height="404" fill="none" xmlns="http://www.w3.org/2000/svg"><path d="M336.964 198.473c0 33.72-10.874 64.898-29.321 90.234 0 0 0 .018-.018.018-27.914 38.318-73.121 63.239-124.152 63.239C98.703 351.964 30 283.243 30 198.491c0-50.761 24.632-95.752 62.608-123.702C118.052 56.072 149.482 45 183.491 45c4.202 0 8.385.162 12.514.505a152.336 152.336 0 0167.153 21.765 153.666 153.666 0 0140.987 36.335 155.282 155.282 0 019.575 13.614c14.715 23.569 23.244 51.429 23.244 81.254z" fill="#EBEBEB"/><path d="M216.616 270.927c-1.93 5.157 1.298 5.373 1.497 7.519.216 2.146 0 6.239-6.24 12.461-6.239 6.239-16.553 4.94-18.699 7.519-2.146 2.579-5.806 13.542-10.964 17.203-5.157 3.66-6.022 1.497-13.326 3.011-7.303 1.497-12.893 10.964-15.039 15.472-2.145 4.508.433 12.046-4.724 12.244-5.157.216-7.519-10.964-12.244-16.987-4.724-6.022-6.239-11.396-7.736-18.483-1.496-7.086.866-21.927 0-27.733-.865-5.807-16.337-16.121-21.927-23.208s-13.326-21.278-12.893-26.003c.433-4.724 3.877-9.881 6.455-11.829 2.579-1.929 1.497-3.011 1.93-4.724.433-1.713 2.578-2.146 3.011-4.292.433-2.146-1.298-8.601-3.444-9.665-2.146-1.082-3.66 2.578-4.94 1.929-1.3-.649-5.158-5.157-6.673-5.59-1.496-.432-1.082 2.795-3.227-1.298-2.146-4.075-3.228-14.408-4.941-16.121-1.713-1.713-3.012 3.011-7.087 0-4.075-3.011-5.806-8.818-7.52-9.665-1.713-.866-4.075.216-5.842-3.228-1.767-3.444 1.55-9.665 0-9.034-1.55.649-4.905 5.59-5.752.865-.866-4.724 4.291-20.629 3.444-29.23-.866-8.601 2.146-17.618 8.168-24.939 0 0 .866-4.724 1.713-7.736.866-3.011 19.35-15.038 21.495-18.483.902-1.442 1.19-3.696 1.515-6.113C118.069 56.072 149.5 45 183.509 45c4.201 0 8.385.162 12.514.505.144.198.289.379.433.577 1.857 2.362 3.877 3.877 9.323 5.879 5.445 2.001 6.726 4.58 5.59 6.726-1.155 2.145-3.012 2.578-5.158 2.722-2.146.145-4.165-1.01-6.455.433-2.29 1.425-4.58 9.179-7.592 9.593-3.011.433-8.313-6.87-9.467-9.034-1.154-2.146 2.579-6.744.83-8.89-1.768-2.146-4.833-1.713-9.702-2.146-4.868-.432-16.193 1.443-15.76 3.3.433 1.858 16.626-.288 17.059 3.444.432 3.733-11.884 10.026-14.048 9.467-2.145-.577-5.013-4.291-8.168-4.724-3.156-.433-5.734 2.146-7.718 2.434-1.984.289-4.328-2.145-7.339-1.569-3.012.578-3.733 3.156-5.302 4.166-1.569 1.01-5.301 1.01-5.734 3.3-.433 2.29 4.724 3.588 6.023 5.013 1.298 1.424-1.587 6.311-.289 7.303 1.299 1.01 9.323-6.023 11.325-7.736 2.001-1.713 3.714-9.178 8.024-9.034 4.292.144 5.734 7.447 7.159 8.169 1.424.72 4.58-1.713 9.323-.722 4.724 1.01 8.024 11.325 8.889 14.48.866 3.156 2.868 6.311 1.154 7.592-1.713 1.298-9.466-.866-10.458-2.867-1.01-2.002 5.157-5.013 4.724-5.735-.433-.72-4.021-1.713-5.878-.595-1.858 1.118-2.723 3.463-4.725 4.04-2.001.577-7.303-5.446-8.745-3.733-1.443 1.713 1.424 7.159 2.867 8.457 1.442 1.298 6.744 2.002 7.159 3.444.432 1.425-3.589 4.58-8.458 4.292-4.868-.289-8.89-4.021-10.747-2.434-1.857 1.568-.865 5.734-2.146 7.158-1.298 1.425-8.313.433-11.757 4.148-3.444 3.732-5.013 9.322-8.457 12.46-3.444 3.156-5.013-.865-9.593 3.589-4.58 4.436-5.302 14.335-5.446 17.761-.144 3.445 0 6.167-1.136 5.735-1.154-.433-2.723-3.445-3.156-5.302-.432-1.857 1.01-5.013 1.01-6.167s-6.6-7.033-10.459-7.592c-3.876-.577-7.303 2.579-10.17 4.869-2.867 2.29-8.024 1.858-9.881 3.733-1.858 1.857-3.3 18.339-1.858 22.216 1.443 3.877 3.3 3.877 7.88 1.857 4.58-2.002 2.002-5.878 4.725-5.013 2.723.866 4.147 3.733 4.147 6.023 0 2.29-5.445 7.736-4.724 9.323.721 1.586 5.445-.289 7.736.432 2.29.722 3.444 2.146 2.723 8.025-.722 5.878-.289 10.458 3.155 12.388 3.444 1.929 5.374-2.795 6.871-2.146 1.496.649 3.66 4.093 5.806 3.877 2.146-.216 1.082-2.146 5.157-3.444s2.579-2.146 3.444-4.725c.866-2.578 3.444-4.724 6.239-3.444 2.795 1.299.866 3.228 1.082 5.374.217 2.146 5.158 2.362 9.035 3.66 3.877 1.299 6.022 0 13.758 2.579 7.736 2.579 8.169 10.314 11.397 11.613 3.227 1.298 13.975-.866 21.711 4.724 7.735 5.59 5.59 15.905 9.467 18.916 3.876 3.012 18.266 7.087 23.856 8.169 5.59 1.082 6.456-2.795 10.964-1.713 4.508 1.082 7.087 2.362 8.601 8.601 1.209 5.464-15.598 16.969-17.527 22.126z" fill="#DBDBDB"/><path d="M101.119 161.002c.145 1.208 3.733 1.713 8.025 4.147 4.291 2.435 5.878 9.594 8.168 9.467 2.29-.144 1.569-3.444 2.435-4.291.865-.866 2.29-2.723 0-4.581-2.29-1.857-4.526-5.878-8.71-6.455-4.183-.577-4.905-2.29-6.762-2.146-1.875.144-3.444 1.425-3.156 3.859zm23.64 12.045c-.631 1.75 0 3.012 4.58 4.148 4.58 1.154 8.89-1.154 7.448-2.074-1.425-.938-3.589-.505-2.723-2.074.865-1.568.559-3.876-3.156-3.444-3.715.433-5.572 1.858-6.149 3.444zm16.05.487c-1.569.235-2.435 2.958-.866 4.671s1.569 1.424 3.444 0c1.858-1.425 4.725-2.146 4.021-3.589-.721-1.424-5.013-1.316-6.599-1.082zm12.477 5.861c.703-2.146 4.292-.036 5.879 2.254 1.568 2.29.865 5.59 0 8.024-.866 2.434-1.425 5.302-3.445 4.147-2.001-1.154.145-4.58-.144-6.599-.288-2.002-2.867-6.077-2.29-7.826zM215.047 59.84c-.757 1.804 2.723 2.435 4.724 3.589 2.002 1.154 3.589 1.857 4.725 0 1.154-1.857-.433-4.021-2.002-4.436-1.569-.45-6.744-.884-7.447.848zm27.084 16.753c1.317 1.388 3.589 1.154 5.158 3.155 1.568 2.002 1.009 5.446 3.011 6.456 2.002 1.01 3.444 0 3.588-1.425.145-1.424-2.867-5.013-2.578-5.734.288-.721 4.147 1.01 5.013 3.156.865 2.146-.866 5.157 1.154 5.734 2.001.577 1.569-2.002 2.434-2.579.866-.577 2.723-.288 2.579-2.001-.144-1.713-2.435-5.446-4.292-6.744-1.857-1.299-3.3-2.723-6.455-3.445-3.156-.72-6.167-.144-7.736 1.155-1.587 1.28-2.687 1.424-1.876 2.272zm61.996 27.012c-.18.721-.433 1.244-.811 1.515-3.012 2.145-6.6-5.302-10.748-6.726-4.165-1.443-6.022-6.745-6.87-5.59-.866 1.136-.577 2.722-1.857 4.58-1.299 1.857-3.156 1.442-4.003 5.013-.866 3.588 4.003 10.17 2.867 12.334-1.154 2.146-2.579 1.424-4.869 1.298-2.29-.144-1.857 1.858-4.869 1.01-3.011-.866-.433-4.58-5.157-9.034-4.725-4.436-6.311-5.302-5.302-7.303 1.01-2.002-.432-4.869 1.714-5.157 2.145-.289 3.876 2.867 5.301 3.732 1.425.866 3.3-1.713 3.444-4.021.144-2.29-5.013-5.446-6.87-7.231-1.857-1.785-2.002-8.259-1.298-9.54.703-1.28 2.867-.865 3.444-4.002.342-1.858-2.597-4.941-5.067-7.177 15.706 9.539 29.591 21.873 40.951 36.299zm21.404 128.48c.432-4.58-1.858-4.869.432-13.326 2.291-8.457-2.434-17.491-4.147-19.348-1.713-1.858-5.446-1.299-8.457.577-3.012 1.857-.866 3.3-2.867 4.003-2.002.721-4.003-.433-5.879-.289-1.857.145-3.588 4.869-7.591 4.725-4.004-.144-6.582-5.879-9.594-9.954-3.011-4.075-9.178-6.672-11.18-11.685-2.001-5.013 1.858-12.749 1.01-18.627-.865-5.879-4.724-4.581-5.446-7.88-.721-3.3.577-1.714 1.587-4.869 1.01-3.156-1.154-4.869.866-10.315 2.001-5.445 5.59-8.168 4.724-10.603-.865-2.434-3.588-6.455-3.732-9.304-.145-2.849 2.722-2.723 8.168-6.744 5.446-4.004 6.871-3.715 11.036-2.291 4.165 1.425 6.744 2.146 9.178 2.579 2.435.433 5.735 6.744 6.745 6.456 1.009-.289 1.154-2.146 1.586-4.869.181-1.154.956-2.236 1.786-3.084 14.732 23.569 23.243 51.411 23.243 81.254 0 33.72-10.873 64.898-29.32 90.234 14.588-22.324 17.419-52.06 17.852-56.64z" fill="#DBDBDB"/><path d="M91.201 110.944s.595-.18 1.713-.505" stroke="#C7C7C7" stroke-width=".75" stroke-miterlimit="10"/><path d="M96.43 109.465c24.759-6.509 131.654-29.68 198.211 35.344" stroke="#C7C7C7" stroke-width=".75" stroke-miterlimit="10" stroke-dasharray="2.03 2.03"/><path d="M295.94 146.107c.433.433.847.848 1.262 1.28m-171.018 56.297c-.09-.342-.108-.955-.09-1.785" stroke="#C7C7C7" stroke-width=".75" stroke-miterlimit="10"/><path d="M126.292 198.419c1.01-15.454 4.202-59.182-32.17-85.455" stroke="#C7C7C7" stroke-width=".75" stroke-miterlimit="10" stroke-dasharray="1.93 1.93"/><path d="M92.698 111.954a43.493 43.493 0 00-1.497-1.01m36.66 87.529s.415-.469 1.245-1.299" stroke="#C7C7C7" stroke-width=".75" stroke-miterlimit="10"/><path d="M131.721 194.632c14.768-13.885 71.408-59.958 161.876-47.75" stroke="#C7C7C7" stroke-width=".75" stroke-miterlimit="10" stroke-dasharray="2.03 2.03"/><path d="M295.436 147.117l1.785.27m-118.743 76.439s.108-.631.234-1.785" stroke="#C7C7C7" stroke-width=".75" stroke-miterlimit="10"/><path d="M179.019 218.525c1.118-18.592-1.605-80.947-84.374-106.553" stroke="#C7C7C7" stroke-width=".75" stroke-miterlimit="10" stroke-dasharray="1.97 1.97"/><path d="M92.932 111.449a62.73 62.73 0 00-1.73-.505m206.018 36.443s-.613.109-1.749.379" stroke="#C7C7C7" stroke-width=".75" stroke-miterlimit="10"/><path d="M291.937 148.65c-23.19 6.167-115.786 37.85-134.106 153.761" stroke="#C7C7C7" stroke-width=".75" stroke-miterlimit="10" stroke-dasharray="2.01 2.01"/><path d="M157.561 304.214l-.271 1.785" stroke="#C7C7C7" stroke-width=".75" stroke-miterlimit="10"/><path d="M126.184 203.684s46.83 45.892 31.106 102.315" stroke="#C7C7C7" stroke-width=".75" stroke-miterlimit="10" stroke-dasharray="2 2"/><path d="M100.813 94.895c-.487-4.814-3.787-9.593-9.63-9.593-5.824 0-9.142 4.797-9.61 9.593-.74 7.43 4.273 14.156 9.61 20.287 5.356-6.131 10.369-12.857 9.63-20.287zm-9.612 5.338a5.272 5.272 0 01-5.265-5.265 5.272 5.272 0 015.265-5.266c2.922 0 5.284 2.362 5.284 5.266 0 2.903-2.38 5.265-5.284 5.265zm95.103 107.022c-.487-4.815-3.787-9.594-9.629-9.594-5.825 0-9.143 4.797-9.611 9.594-.74 7.429 4.273 14.155 9.611 20.286 5.355-6.131 10.368-12.857 9.629-20.286zm-9.629 5.337a5.271 5.271 0 01-5.266-5.265 5.272 5.272 0 015.266-5.266c2.921 0 5.283 2.362 5.283 5.266 0 2.903-2.362 5.265-5.283 5.265zm-42.502-26.219c-.487-4.814-3.787-9.593-9.63-9.593-5.824 0-9.142 4.797-9.611 9.593-.739 7.43 4.274 14.156 9.611 20.287 5.356-6.131 10.369-12.857 9.63-20.287zm-9.63 5.338a5.271 5.271 0 01-5.265-5.266 5.271 5.271 0 015.265-5.265c2.922 0 5.284 2.362 5.284 5.265 0 2.904-2.362 5.266-5.284 5.266zm182.289-58.749c-.487-4.815-3.787-9.594-9.629-9.594-5.825 0-9.143 4.797-9.612 9.594-.739 7.429 4.274 14.155 9.612 20.286 5.355-6.131 10.368-12.857 9.629-20.286zm-9.611 5.337a5.271 5.271 0 01-5.266-5.265 5.272 5.272 0 015.266-5.266c2.921 0 5.283 2.363 5.283 5.266s-2.38 5.265-5.283 5.265zM166.92 293.521c-.487-4.814-3.787-9.593-9.63-9.593-5.824 0-9.142 4.797-9.611 9.593-.739 7.43 4.274 14.156 9.611 20.287 5.356-6.131 10.369-12.875 9.63-20.287zm-9.63 5.338a5.271 5.271 0 01-5.265-5.266 5.271 5.271 0 015.265-5.265c2.922 0 5.284 2.362 5.284 5.265 0 2.904-2.362 5.266-5.284 5.266z" fill="#A6A6A6"/><path d="M353.67 398.58l-132.86-.61c-15.98-.07-28.88-13.08-28.81-29.06l1.41-333.09C193.48 19.83 206.5 6.93 222.49 7l132.86.61c15.98.07 28.88 13.08 28.81 29.06l-1.41 333.09c-.07 15.99-13.09 28.89-29.08 28.82z" fill="#000"/><path d="M355.16 19.1l-25.76-.12c-3.45-.02-6.27 2.9-6.28 6.51l-.02 4.67c-.01 3.61-2.83 6.53-6.28 6.51l-50.21-.23c-3.45-.02-6.24-2.96-6.23-6.57l.02-4.67c.01-3.61-2.77-6.55-6.23-6.57l-9.06-.04-22.55-.1c-11.2-.05-20.31 8.99-20.36 20.18l-1.37 325.12c-.05 11.19 8.98 20.3 20.18 20.36l132.6.61c11.2.05 20.31-8.99 20.36-20.18l1.37-325.12c.04-11.2-8.99-20.31-20.18-20.36z" fill="#FAFAFA"/><path d="M358.06 51.1c0 .07-1.26.13-3.33.17-2.07.05-4.95.08-8.19.08h-.22l-.03-.22c-.06-.43-.13-.89-.19-1.36-.56-3.98-1.02-7.54-1.28-9.84l.16.14c-1.87-.04-2.959-.1-2.959-.17 0-.06 1.089-.12 2.959-.16h.14l.021.15c.38 2.29.91 5.84 1.47 9.82.06.46.13.92.19 1.36l-.261-.22c3.24.01 6.12.04 8.19.08 2.07.04 3.33.1 3.33.17z" fill="#263238"/><path d="M346.211 48.71c0-.03.31-.06.89-.08.67-.02 1.49-.04 2.46-.07 2.1-.04 5.07-.08 8.5-.09l-.25.21c.25-1.44.52-2.98.8-4.58.15-.82.29-1.63.43-2.4l.25.3c-3.98-.01-7.5-.04-10.02-.09-1.18-.03-2.17-.06-2.97-.08-.7-.03-1.08-.06-1.08-.09s.38-.06 1.08-.09c.8-.02 1.78-.05 2.97-.08 2.52-.05 6.03-.08 10.02-.09h.31l-.05.3c-.14.77-.28 1.58-.42 2.4-.29 1.6-.56 3.14-.82 4.58l-.04.21h-.21c-3.43-.02-6.39-.05-8.5-.09-.98-.03-1.8-.05-2.46-.07-.58-.04-.89-.07-.89-.1zm3.21 5.52c-.08.02-.09-.45-.57-.77a.996.996 0 00-.9-.09c-.32.12-.58.46-.58.86 0 .39.26.73.58.86a1 1 0 00.9-.09c.49-.32.49-.79.57-.77.03 0 .08.1.06.31-.02.2-.12.5-.41.76-.28.25-.78.42-1.28.25-.5-.15-.94-.68-.94-1.31-.01-.62.44-1.15.94-1.31.5-.17 1-.01 1.28.25.29.25.39.56.41.76.02.18-.02.29-.06.29zm7.409 0c-.08.02-.09-.45-.57-.77a.996.996 0 00-.9-.09c-.32.12-.58.46-.58.86 0 .39.26.73.58.86a1 1 0 00.9-.09c.49-.32.49-.79.57-.77.03 0 .08.1.06.31-.02.2-.12.5-.41.76-.28.25-.78.42-1.28.25-.5-.15-.94-.68-.94-1.31-.01-.62.44-1.15.94-1.31.5-.17 1-.01 1.28.25.29.25.39.56.41.76.02.18-.02.29-.06.29zm-116.91-1.91c0 .14-4.44.26-9.91.26s-9.91-.12-9.91-.26 4.44-.26 9.91-.26 9.91.11 9.91.26zm0-3.75c0 .14-4.44.26-9.91.26s-9.91-.12-9.91-.26 4.44-.26 9.91-.26 9.91.12 9.91.26zm0-3.74c0 .14-4.44.26-9.91.26s-9.91-.12-9.91-.26 4.44-.26 9.91-.26 9.91.12 9.91.26z" fill="#263238"/><path d="M272.95 105.59s-13.31-.18-16.23 4.17-15.04 31.42-15.04 31.42l18.86 9.83 4.07-11.61 6.62 24.26c-7.58 6.02-18.32 60.63-16.18 83.64l70.88.23s.49-63.84-18.68-84.83l4.5-25.35 4.32 12.37 20.02-8.3-15.06-27.07c-2.56-4.6-7.39-7.46-12.65-7.49l-4.91-.03s-2.07 18.12-15.24 17.77c-13.18-.36-15.28-19.01-15.28-19.01z" fill="#E24949"/><path d="M341.13 191.67c-.01 0-.02-.11-.04-.32-.02-.24-.04-.55-.07-.94-.02-.41-.06-.92-.18-1.52-.1-.6-.19-1.29-.42-2.04-.36-1.53-1.08-3.33-2.21-5.24-1.14-1.9-2.78-3.88-5.02-5.56-2.23-1.67-5.03-3.08-8.27-3.65-3.21-.55-6.84-.45-10.29.87-1.74.6-3.41 1.52-4.95 2.67-.8.55-1.49 1.23-2.22 1.89-.66.73-1.35 1.44-1.92 2.27-2.41 3.2-3.77 7.32-3.81 11.57.03 2.12.37 4.21 1.01 6.18.61 1.98 1.63 3.78 2.8 5.4.57.83 1.26 1.54 1.92 2.27.73.66 1.42 1.34 2.22 1.89 1.54 1.15 3.22 2.07 4.95 2.67 3.45 1.31 7.08 1.42 10.3.87 3.24-.57 6.04-1.99 8.27-3.65 2.23-1.68 3.87-3.67 5.02-5.57 1.13-1.91 1.85-3.71 2.21-5.24.23-.75.33-1.44.42-2.04.12-.59.16-1.1.18-1.52.03-.39.05-.7.07-.94.01-.21.02-.32.03-.32.01 0 .01.11.01.32-.01.24-.01.55-.02.95 0 .42-.03.93-.13 1.53-.08.6-.16 1.3-.38 2.07-.33 1.55-1.03 3.38-2.16 5.33a19.727 19.727 0 01-5.04 5.71c-2.25 1.72-5.11 3.18-8.41 3.78-3.28.58-6.99.49-10.54-.84-1.78-.61-3.51-1.54-5.09-2.72-.82-.56-1.53-1.26-2.28-1.93-.68-.75-1.39-1.48-1.97-2.33-1.2-1.66-2.24-3.5-2.88-5.53-.66-2.02-1.01-4.16-1.04-6.34.04-4.36 1.44-8.59 3.92-11.87.58-.85 1.29-1.58 1.97-2.32.75-.67 1.46-1.37 2.28-1.93 1.58-1.18 3.3-2.11 5.09-2.72 3.54-1.33 7.26-1.42 10.54-.84 3.3.6 6.16 2.07 8.41 3.78 2.26 1.73 3.91 3.77 5.04 5.71 1.13 1.95 1.83 3.79 2.16 5.34.22.76.3 1.46.38 2.07.1.6.13 1.12.13 1.53.01.39.02.7.02.95 0 .19 0 .3-.01.3zm-62.45-44.54c-.08.01.01-1.31-.56-3.55-.56-2.2-2.03-5.44-5.34-7.95-1.64-1.22-3.71-2.26-6.09-2.68-2.37-.4-5.04-.32-7.58.64-1.28.45-2.51 1.12-3.64 1.97-1.15.83-2.19 1.86-3.04 3.06-1.77 2.36-2.77 5.39-2.8 8.51.03 3.12 1.03 6.15 2.8 8.51.86 1.2 1.9 2.23 3.04 3.06 1.13.85 2.37 1.52 3.64 1.97 2.54.97 5.21 1.05 7.58.64 2.38-.42 4.45-1.46 6.09-2.68 3.31-2.51 4.78-5.75 5.34-7.95.57-2.24.48-3.56.56-3.55.01 0 .01.08.01.24 0 .19-.01.42-.01.7 0 .31-.02.69-.09 1.13-.06.45-.12.97-.28 1.53-.24 1.15-.76 2.51-1.59 3.96-.84 1.44-2.06 2.95-3.73 4.24-1.67 1.27-3.78 2.36-6.24 2.81-2.43.43-5.19.37-7.82-.62-1.32-.45-2.6-1.14-3.78-2.02-1.19-.86-2.27-1.92-3.16-3.16-1.84-2.44-2.88-5.58-2.91-8.82.03-3.23 1.07-6.38 2.91-8.81.89-1.24 1.97-2.3 3.16-3.16 1.17-.87 2.45-1.56 3.78-2.02 2.63-.99 5.39-1.05 7.82-.62 2.45.45 4.57 1.54 6.24 2.81 1.67 1.29 2.89 2.8 3.73 4.24.83 1.45 1.35 2.81 1.59 3.96.16.57.22 1.08.28 1.53.07.45.09.83.09 1.13 0 .28.01.51.01.7 0 .17 0 .25-.01.25zm-.01 86.31c-.05 0-.05-.4-.24-1.07-.19-.66-.65-1.62-1.65-2.35-.96-.73-2.54-1.14-4.05-.57-1.5.52-2.8 2.13-2.78 3.99-.02 1.87 1.28 3.47 2.78 3.99 1.52.57 3.09.17 4.05-.57 1-.73 1.46-1.69 1.65-2.35.19-.67.19-1.07.24-1.07.02 0 .03.1.04.29.01.19-.01.47-.08.83-.14.7-.57 1.76-1.62 2.6-1.01.84-2.74 1.34-4.44.73-1.69-.55-3.16-2.34-3.14-4.44-.02-2.1 1.46-3.89 3.14-4.44 1.7-.61 3.43-.11 4.44.73 1.05.84 1.48 1.89 1.62 2.6.07.36.09.64.08.83-.01.18-.02.27-.04.27zm-7.79-115.14c-.05 0-.05-.4-.24-1.07-.19-.66-.65-1.62-1.65-2.35-.96-.74-2.54-1.14-4.05-.57-1.5.52-2.8 2.13-2.78 3.99-.02 1.87 1.28 3.47 2.78 3.99 1.52.57 3.09.17 4.05-.57 1-.73 1.46-1.69 1.65-2.35.19-.67.19-1.07.24-1.07.02 0 .03.1.04.29.01.19-.01.47-.08.83-.14.7-.57 1.76-1.62 2.6-1.01.84-2.74 1.34-4.44.73-1.69-.55-3.16-2.34-3.14-4.44-.02-2.1 1.46-3.89 3.14-4.44 1.7-.61 3.43-.11 4.44.73 1.05.84 1.48 1.89 1.62 2.6.07.36.09.64.08.83-.01.17-.03.27-.04.27zm14.64 93.61c-.01-.01-.04-.15-.09-.43-.06-.31-.13-.71-.22-1.2-.19-1.09-.44-2.6-.77-4.5-.64-3.89-1.54-9.36-2.62-15.91l.26.19c-6.42 1.02-13.99 2.22-22.06 3.51-.05.06.41-.56.22-.29v.04l.01.05.01.09.03.19.06.38.12.75c.08.5.16 1 .23 1.5.16.99.31 1.98.46 2.95.3 1.95.6 3.85.89 5.71.57 3.7 1.11 7.2 1.61 10.41l-.26-.19c6.56-.99 12.05-1.81 15.94-2.39 1.91-.28 3.43-.49 4.52-.65.5-.07.9-.12 1.21-.16.29-.04.44-.05.45-.05.01.01-.12.04-.38.08-.3.05-.68.12-1.16.21-1.07.18-2.57.44-4.45.76-3.92.65-9.44 1.55-16.05 2.64l-.22.04-.04-.22c-.51-3.21-1.07-6.7-1.66-10.41-.29-1.85-.6-3.76-.9-5.7-.15-.97-.31-1.96-.47-2.95l-.24-1.5-.12-.75-.06-.38-.03-.19-.01-.09-.01-.05v-.04c-.19.26.26-.37.22-.3 8.08-1.26 15.64-2.44 22.07-3.44l.22-.03.03.22c.99 6.62 1.82 12.16 2.41 16.09.27 1.89.49 3.39.64 4.47.06.48.12.86.16 1.16.05.26.06.39.05.38zm26.97-57.72c0-.01.08-.16.26-.44.19-.3.44-.71.76-1.21.69-1.08 1.66-2.61 2.88-4.53 2.5-3.89 6.04-9.39 10.27-15.98l.07.31c-6.42-4.17-13.99-9.09-22.06-14.33-.08.01.68-.14.36-.07v.01l-.01.01-.02.02-.03.05-.06.09-.12.19-.25.38-.49.75c-.33.5-.65 1-.97 1.49-.65.99-1.29 1.97-1.92 2.95-1.27 1.94-2.51 3.85-3.72 5.69-2.42 3.69-4.7 7.18-6.8 10.38l-.07-.31c6.54 4.32 12 7.92 15.86 10.47 1.9 1.27 3.4 2.27 4.47 2.98.49.34.89.6 1.18.8.26.19.4.29.41.3 0 .01-.13-.07-.4-.23-.3-.18-.68-.43-1.18-.73-1.07-.68-2.58-1.64-4.49-2.85-3.92-2.52-9.47-6.08-16.1-10.35l-.19-.12.12-.19c2.08-3.21 4.35-6.71 6.75-10.41 1.2-1.85 2.44-3.76 3.71-5.7.63-.97 1.27-1.96 1.92-2.95.32-.5.65-.99.97-1.5l.49-.75.25-.38.12-.19.06-.09.03-.05.02-.02.01-.01v-.01c-.32.07.44-.1.36-.08 8.06 5.27 15.61 10.2 22.02 14.39l.19.12-.12.19c-4.35 6.59-7.98 12.09-10.55 15.98-1.25 1.88-2.25 3.37-2.95 4.43-.33.48-.58.86-.78 1.15-.17.24-.26.36-.26.35zm-14.9 67.3c0 .01-.03.06-.09.17-.07.13-.15.28-.25.46-.24.43-.57 1.01-.98 1.75-.87 1.54-2.09 3.73-3.63 6.47-3.07 5.46-7.54 13.24-12.75 22.31l-.21-.37c5.54 0 11.6-.01 17.92-.01 6.32.01 12.38.01 17.92.01l-.21.37c-5.21-9.07-9.68-16.85-12.76-22.31-1.54-2.74-2.77-4.93-3.63-6.47-.41-.74-.74-1.32-.98-1.75-.1-.18-.18-.34-.25-.46-.07-.11-.1-.16-.1-.17 0-.01.12.17.34.55.25.41.58.97 1 1.67.9 1.52 2.18 3.67 3.78 6.38 3.27 5.53 7.76 13.27 13.01 22.32l.21.37h-.43c-5.54 0-11.6.01-17.92.01-6.31-.01-12.37-.01-17.92-.01h-.43l.21-.37c5.25-9.04 9.74-16.79 13.01-22.32l3.78-6.38c.42-.71.75-1.26 1-1.67.24-.38.36-.57.36-.55zm-14.21-57.18c.01.01.05.15.13.4.09.3.19.65.32 1.09.29.99.68 2.34 1.16 4 .97 3.35 2.29 8.21 3.83 13.88l-.41-.11c2.2-2.21 4.6-4.61 7.1-7.12 2.51-2.5 4.92-4.9 7.12-7.1l.11.41c-5.67-1.54-10.53-2.86-13.88-3.83-1.66-.48-3.01-.87-4-1.16-.44-.13-.8-.23-1.09-.32a3 3 0 01-.39-.14c-.01-.01.11.01.34.07.28.07.63.15 1.05.25 1 .25 2.36.58 4.04.99 3.53.87 8.39 2.16 14.06 3.66l.41.11-.3.3c-2.2 2.21-4.6 4.61-7.1 7.12-2.51 2.5-4.92 4.9-7.12 7.1l-.3.3-.11-.41c-1.5-5.67-2.78-10.53-3.66-14.06-.41-1.68-.75-3.04-.99-4.04-.1-.42-.18-.77-.25-1.05-.06-.23-.08-.35-.07-.34z" fill="#FAFAFA"/><path d="M307.65 162.79c0 .14-8.04.46-17.96.7-9.92.24-17.97.32-17.97.18s8.04-.46 17.96-.7c9.92-.24 17.97-.32 17.97-.18zm-48.93-39.82c.14-.05 1.64 3.9 3.35 8.83 1.72 4.92 3 8.95 2.86 9-.14.05-1.64-3.9-3.35-8.83-1.72-4.93-3-8.96-2.86-9zm54.95 1.23c.07.01 0 1.11-.19 2.88-.19 1.77-.51 4.21-.94 6.88-.43 2.68-.89 5.09-1.26 6.83-.37 1.74-.65 2.8-.72 2.79-.07-.01.08-1.1.36-2.86.31-1.92.69-4.26 1.11-6.85.41-2.59.78-4.93 1.09-6.85.28-1.74.47-2.83.55-2.82z" fill="#263238"/><path d="M275.54 175.52c-.06.01-.28-.7-.38-1.9-.11-1.19-.05-2.88.39-4.67.45-1.79 1.18-3.3 1.83-4.31.65-1.01 1.18-1.54 1.23-1.5.14.09-1.71 2.44-2.55 5.93-.9 3.49-.35 6.43-.52 6.45zm5.39-5.6c-.13.04-.59-1.4-.56-3.25.02-1.84.53-3.27.66-3.23.15.04-.12 1.46-.14 3.24-.04 1.78.19 3.21.04 3.24zm31.06 60.87c-.01.02-.21-.07-.6-.26-.38-.2-.97-.43-1.66-.86-1.42-.78-3.39-2.11-5.55-4.06-2.17-1.94-4.45-4.59-6.53-7.83s-3.91-7.09-5.3-11.31c-2.71-8.48-3.35-16.56-3.72-22.33-.17-2.89-.26-5.24-.3-6.86-.02-.77-.03-1.38-.04-1.87 0-.43 0-.65.02-.65s.05.22.08.65c.03.48.08 1.1.14 1.86.11 1.68.27 4 .47 6.84.47 5.75 1.16 13.79 3.85 22.19 1.37 4.18 3.17 7.99 5.21 11.21 2.04 3.22 4.26 5.86 6.38 7.82 2.11 1.97 4.02 3.32 5.4 4.15 1.37.86 2.17 1.27 2.15 1.31z" fill="#263238"/><path opacity=".2" d="M289.02 181.65c1.36 10.24 6.84 19.87 14.96 26.26 2.97 2.34 6.47 4.51 7.73 8.08 1.01 2.89.3 6.12-.95 8.91-.5 1.12-1.21 2.32-2.4 2.63-1.22.32-2.45-.4-3.45-1.16-6.57-4.94-10.8-12.49-13.16-20.37-2.36-7.88-3.02-16.15-3.62-24.35" fill="#000"/><path d="M328.31 277.22c0 .14-16.89.26-37.73.26-20.84 0-37.73-.12-37.73-.26s16.89-.26 37.73-.26c20.83 0 37.73.12 37.73.26zm0-198.92c0 .14-16.89.26-37.73.26-20.84 0-37.73-.12-37.73-.26s16.89-.26 37.73-.26c20.83 0 37.73.11 37.73.26zm0 205.15c0 .14-16.89.26-37.73.26-20.84 0-37.73-.12-37.73-.26s16.89-.26 37.73-.26c20.83 0 37.73.12 37.73.26z" fill="#263238"/><path d="M312.19 269.26c0 .14-9.35.26-20.89.26-11.54 0-20.89-.12-20.89-.26s9.35-.26 20.89-.26c11.54 0 20.89.12 20.89.26zm40.076 60.065c7.695-3.188 11.349-12.009 8.161-19.704-3.187-7.694-12.008-11.348-19.703-8.161-7.695 3.187-11.349 12.009-8.161 19.704 3.187 7.694 12.009 11.348 19.703 8.161z" fill="#E24949"/><path d="M342.67 323.85c-.02-.03.27-.29.83-.75.55-.45 1.37-1.1 2.38-1.88 2.02-1.57 4.84-3.71 7.96-6.04v.41l-.01-.01-.02-.01-.04-.03-.07-.05-.15-.11-.29-.22-.57-.43c-.38-.29-.75-.57-1.12-.84-.73-.55-1.44-1.09-2.12-1.6-1.32-1.01-2.52-1.93-3.57-2.73-1.01-.78-1.82-1.43-2.38-1.88-.55-.45-.85-.72-.83-.75.02-.03.36.18.95.58.68.48 1.5 1.06 2.48 1.75 1.07.78 2.29 1.67 3.63 2.65.68.51 1.4 1.03 2.14 1.58.37.27.75.55 1.13.84l.58.43.29.22.15.11.07.05.04.03.02.01.01.01v.42c-3.13 2.34-5.98 4.43-8.06 5.92-.97.69-1.8 1.27-2.48 1.75-.59.39-.92.6-.95.57z" fill="#FAFAFA"/><path d="M247.217 317.814c1.334-8.221-4.249-15.967-12.47-17.301-8.221-1.335-15.967 4.248-17.301 12.469-1.335 8.221 4.248 15.967 12.469 17.302 8.221 1.334 15.967-4.249 17.302-12.47z" fill="#E24949"/><path d="M236.13 306.93c.02.03-.28.29-.83.75-.55.45-1.37 1.1-2.38 1.88a553.86 553.86 0 01-7.96 6.04v-.41l.01.01.02.01.04.03.07.05.15.11.29.22.57.43c.38.29.75.57 1.12.84.73.55 1.44 1.09 2.12 1.6 1.32 1.01 2.52 1.93 3.57 2.73 1.01.78 1.82 1.43 2.38 1.88.55.45.85.72.83.75-.02.03-.36-.18-.95-.58-.68-.48-1.5-1.06-2.48-1.75-1.07-.78-2.29-1.67-3.63-2.64-.68-.51-1.4-1.03-2.14-1.58-.37-.27-.75-.55-1.13-.84l-.58-.43-.29-.22-.15-.11-.07-.05-.04-.03-.02-.01-.01-.01v-.42c3.13-2.34 5.98-4.43 8.06-5.92.97-.69 1.8-1.27 2.48-1.75.59-.4.93-.61.95-.58z" fill="#FAFAFA"/><path d="M251.9 341.09h-30.129v30.13H251.9v-30.13zm38.22 0h-30.13v30.13h30.13v-30.13zm38.23 0h-30.13v30.13h30.13v-30.13zm38.22 0h-30.13v30.13h30.13v-30.13z" fill="#E0E0E0"/><path d="M318.04 67.84h-56.22v3.2h56.22v-3.2zm-19.193 258.916l-21.135-8.603a2.196 2.196 0 01-1.203-2.853l5.199-12.777a2.197 2.197 0 012.854-1.203l21.135 8.603a2.196 2.196 0 011.203 2.853l-5.199 12.776a2.183 2.183 0 01-2.854 1.204z" fill="#E24949"/><path opacity=".4" d="M298.847 326.756l-21.135-8.603a2.196 2.196 0 01-1.203-2.853l5.199-12.777a2.197 2.197 0 012.854-1.203l21.135 8.603a2.196 2.196 0 011.203 2.853l-5.199 12.776a2.183 2.183 0 01-2.854 1.204z" fill="#000"/><path d="M299.611 311.071c-.012-.006.037-.116.134-.323.11-.239.257-.532.428-.899.361-.782.923-1.906 1.344-3.378.41-1.455.63-3.361-.11-5.237a5.325 5.325 0 00-1.918-2.395c-.886-.629-1.943-1.1-3.019-1.54-2.15-.867-4.448-1.307-6.372-.708a5.933 5.933 0 00-2.408 1.441 8.595 8.595 0 00-1.497 1.974c-.739 1.338-1.1 2.548-1.368 3.361l-.3.947c-.073.214-.11.33-.122.323-.012 0 .012-.122.061-.342.049-.22.128-.55.245-.965.232-.831.556-2.053 1.289-3.434.372-.684.849-1.405 1.509-2.059a6.119 6.119 0 012.505-1.534c.996-.317 2.114-.372 3.232-.226 1.118.147 2.243.477 3.343.917 1.093.446 2.156.922 3.085 1.582.929.654 1.638 1.564 2.01 2.542.764 1.974.501 3.935.055 5.407-.458 1.491-1.051 2.603-1.448 3.367-.201.379-.366.672-.482.874-.123.208-.19.312-.196.305z" fill="#263238"/><path d="M295.707 325.369l-21.135-8.603a2.196 2.196 0 01-1.203-2.853l5.199-12.777a2.197 2.197 0 012.854-1.203l21.134 8.603a2.195 2.195 0 011.204 2.853l-5.199 12.776a2.187 2.187 0 01-2.854 1.204z" fill="#E24949"/><path opacity=".7" d="M276.258 306.813s3.343 2.15 5.2 2.908c1.857.758.122 1.247 3.159.892 3.03-.354 3.293-.336 3.978.208.678.55.983 1.35 1.503 1.625.519.281 1.454.636 1.454.636s2.212.922 2.713 1.063c3.568.99 4.375.134 5.395 1.631 1.014 1.497 1.674 1.583 1.674 1.583l.691-1.699-3.227-1.314s-1.484-1.234-1.912-1.503c-.434-.269-.629-.886-1.393-.568-.764.324-1.479.299-1.925.299-.452 0-2.053-.274-2.053-.274l-1.393-.569-.312-1.228-1.264-.874-.685-.097-1.723-.428-2.389-.342-2.456-.617-1.393-.569-2.108-.134-1.534-.629zm-.501 3.226l3.63 2.829 1.808 1.546s2.426 1.35 3.251 1.326c.825-.025 2.138.507 2.138.507l1.21 1.014 1.705.69 1.888.245 1.692.049 1.473.598 1.937.789 1.778.727 1.081.44.275.739.624-1.54-5.047-3.428-3.789-.439-3.134-1.277-1.436-1.687-2.536-.201-2.37-.605-2.567-1.228-2.706-1.1-.905.006zm-1.508 1.711l1.631 4.203 1.387 1.913 4.411 1.796-2.737-4.356-2.132-1.412-1.742-2.15-.544-.673-.274.679zm6.861 3.983l2.951 2.738.483 2.358 2.865 1.161 3.324 1.357 2.194-.954 2.731-.287 1.167.025-2.242-.911-2.768.135-2.139-.287-2.206-1.888-2.48-1.009-.703-1.142-1.191-.85-1.986-.446zm-2.817-11.609l4.216.721 3.501-.831 2.426-.635 2.646 1.705 3.073 1.429 3.807.74 2.419.262 1.882 1.577.868 2.969.055.758-.342.843-2.12-3.214s-1.497-1.423-1.73-1.515c-.232-.092-1.301-.801-1.778-.727-.482.073-1.955-.074-3.067-.44-1.112-.367-3.092-.898-3.092-.898l-1.863-1.118-1.082-.44-2.621.012-1.491.568-1.356.678-2.243-.916-3.238-1.008.477-1.18.653.66zm4.772-3.226l-4.845 1.1-.367.886 2.78.03 2.627-.226 1.723-1.008-1.918-.782z" fill="#fff"/><path d="M295.707 325.369c.006-.024.287.134.861.128a2.165 2.165 0 001.925-1.338c.825-2.059 2.01-5.01 3.464-8.652.367-.91.752-1.869 1.155-2.865.196-.495.422-1.015.599-1.516a2.062 2.062 0 00-.177-1.552c-.263-.488-.715-.824-1.277-1.014-.556-.226-1.118-.452-1.687-.684-1.142-.465-2.315-.941-3.525-1.43-4.821-1.961-10.118-4.112-15.679-6.367a2.054 2.054 0 00-1.973.245 1.961 1.961 0 00-.642.788c-.14.336-.281.678-.415 1.008a796.629 796.629 0 01-1.632 3.996c-1.069 2.621-2.101 5.151-3.085 7.558-.129.306-.239.581-.257.886a2.056 2.056 0 001.32 2.09c1.143.464 2.248.923 3.318 1.356 2.138.88 4.13 1.699 5.951 2.444 3.623 1.497 6.562 2.713 8.615 3.563l2.334.983c.257.11.452.196.605.263.135.073.202.104.202.11a1.18 1.18 0 01-.214-.067c-.153-.061-.361-.135-.617-.232l-2.359-.929c-2.059-.825-5.01-2.01-8.652-3.465-1.827-.739-3.825-1.545-5.969-2.407-1.076-.434-2.181-.88-3.324-1.344a2.334 2.334 0 01-1.503-2.371c.018-.342.153-.678.275-.971.977-2.414 2.004-4.943 3.067-7.565.532-1.313 1.075-2.645 1.625-4.002.141-.342.269-.672.422-1.026.165-.361.415-.678.739-.911a2.363 2.363 0 012.279-.287c5.561 2.267 10.852 4.424 15.673 6.391 1.203.495 2.377.972 3.519 1.442.568.232 1.13.465 1.686.691.569.189 1.131.592 1.412 1.142a2.31 2.31 0 01.195 1.748c-.195.55-.415 1.032-.617 1.54-.409.989-.8 1.949-1.173 2.859l-3.562 8.615a2.228 2.228 0 01-2.035 1.357c-.598-.025-.867-.208-.867-.208zm178.813 16.907c-.02 0-.04-.2-.05-.59-.01-.45-.03-1.01-.05-1.7-.02-1.55-.05-3.67-.08-6.26l-.03-4.32c0-.78-.01-1.58-.01-2.41 0-.82-.04-1.68.08-2.58.21-1.79 1.09-3.57 2.48-4.96 1.39-1.38 3.34-2.29 5.42-2.43 2.08-.17 4.14.49 5.7 1.66a8.504 8.504 0 013.15 4.56c.27.86.31 1.75.32 2.59 0 .83-.01 1.63-.01 2.41l-.03 4.32c-.03 2.59-.06 4.71-.08 6.26-.02.69-.04 1.26-.05 1.7-.02.39-.03.59-.05.59-.02 0-.04-.2-.05-.59-.01-.45-.03-1.01-.05-1.7-.02-1.55-.05-3.67-.08-6.26l-.03-4.32c-.06-1.55.15-3.24-.34-4.86a7.998 7.998 0 00-2.99-4.28c-1.48-1.1-3.41-1.71-5.36-1.55-1.95.13-3.78.98-5.09 2.28-1.31 1.3-2.14 2.97-2.36 4.66-.12.83-.09 1.68-.1 2.51 0 .83-.01 1.63-.01 2.41l-.03 4.32c-.03 2.59-.06 4.71-.08 6.26-.02.69-.04 1.26-.05 1.7-.06.38-.07.58-.09.58z" fill="#263238"/><path d="M484.841 342.276c-.02 0-.04-.2-.05-.59-.01-.45-.03-1.01-.05-1.7-.02-1.55-.05-3.67-.08-6.26l-.03-4.32c0-.78-.01-1.58-.01-2.41 0-.82-.04-1.68.08-2.58.21-1.79 1.09-3.57 2.48-4.96 1.39-1.38 3.34-2.29 5.42-2.43 2.08-.17 4.14.49 5.7 1.66a8.504 8.504 0 013.15 4.56c.27.86.31 1.75.32 2.59 0 .83-.01 1.63-.01 2.41l-.03 4.32c-.03 2.59-.06 4.71-.08 6.26-.02.69-.04 1.26-.05 1.7-.02.39-.03.59-.05.59-.02 0-.04-.2-.05-.59-.01-.45-.03-1.01-.05-1.7-.02-1.55-.05-3.67-.08-6.26l-.03-4.32c-.06-1.55.15-3.24-.34-4.86a7.998 7.998 0 00-2.99-4.28c-1.48-1.1-3.41-1.71-5.36-1.55-1.95.13-3.78.98-5.09 2.28-1.31 1.3-2.14 2.97-2.36 4.66-.12.83-.09 1.68-.1 2.51 0 .83-.01 1.63-.01 2.41l-.03 4.32c-.03 2.59-.06 4.71-.08 6.26-.02.69-.04 1.26-.05 1.7-.06.38-.07.58-.09.58z" fill="#263238"/><path d="M462.011 337.876l-6.95 61.39h47.72l6.02-61.39h-46.79z" fill="#E24949"/><path d="M508.801 337.876h9.97l8.42 61.39h-24.41l6.02-61.39z" fill="#E24949"/><path opacity=".4" d="M508.801 337.876h9.97l8.42 61.39h-24.41l6.02-61.39z" fill="#000"/><path d="M460.051 355.146l45.86 12.21-2.33 23.79-46.27-11.76 2.74-24.24z" fill="#FAFAFA"/><path d="M387.831 242.79c-2.05 6.03-2.17 12.7-.33 18.79 1.13 3.75 3 7.49 2.43 11.37-.47 3.16-2.52 5.92-2.92 9.09-.82 6.44 5.3 12.54 3.65 18.82-.76 2.89-3.13 5.18-5.87 6.36-2.74 1.18-5.82 1.36-8.8 1.11-4.39-.38-9.14-2.05-11.17-5.96-1.62-3.12-1.11-6.86-.55-10.33 2.48-15.32 5.34-30.75 11.56-44.97" fill="#263238"/><path d="M389.78 290.14s-.17.08-.51.17c-.34.09-.87.16-1.54.13-.67-.05-1.5-.22-2.36-.68a5.26 5.26 0 01-2.26-2.31c-.55-1.09-.77-2.48-.45-3.89.17-.7.47-1.4.93-2.01.46-.62 1.04-1.15 1.67-1.64 1.26-.98 2.74-1.77 3.96-2.95 1.22-1.18 1.98-2.85 2.22-4.63.25-1.78.06-3.57-.38-5.22s-1.09-3.18-1.74-4.62c-1.32-2.86-2.56-5.47-3.03-7.85-.5-2.36-.36-4.36.02-5.65.37-1.3.82-1.91.82-1.91.04.02-.38.65-.7 1.94-.34 1.28-.45 3.25.07 5.58.49 2.34 1.74 4.91 3.07 7.78.66 1.44 1.32 2.98 1.77 4.66.44 1.68.65 3.5.39 5.34-.25 1.83-1.04 3.58-2.31 4.8-1.27 1.22-2.76 2-4 2.96-1.26.93-2.23 2.13-2.53 3.49a5.66 5.66 0 00.39 3.74c.51 1.06 1.34 1.8 2.15 2.26.82.46 1.63.64 2.28.71 1.35.08 2.06-.25 2.07-.2z" fill="#263238"/><path d="M329.311 388.78l-2.5 9.57-25.75-.24s1.89-4.51 15.97-4.3l1.04-5.04h11.24v.01z" fill="#FFA982"/><path d="M423.061 245.15c-.25.49-6.78 34.09-6.78 34.09l15.41.72 5.97-28.89-14.6-5.92z" fill="#455A64"/><path d="M416.271 279.24l-1.76-.75 6.67-33.12 2.09-.14-7 34.01zm12.98-26.75a.8.8 0 00.69.89.8.8 0 00.89-.69.8.8 0 00-.69-.89.79.79 0 00-.89.69z" fill="#263238"/><path d="M432.431 276.08l.23-4.4-6.58-2.71 2.57-6.1a5.31 5.31 0 017.39-2.53c.88.48 1.8.98 2.64 1.43a7.563 7.563 0 013.75 4.87c.86 3.59 1.61 11.08 1.53 10.74" fill="#FFA982"/><path d="M450.051 388.07s27.08 7.5 28.17 7.88c1.63.57 1.36 6.55-1.18 6.46-1.2-.04-20.801.73-23.281.58-2.48-.15-9.949-3.1-9.949-3.1l6.24-11.82z" fill="#42A9D1"/><path d="M461.331 398.41c.14.02.32-1.41 1.19-2.91.85-1.51 2-2.38 1.91-2.49-.05-.1-1.39.66-2.31 2.27-.92 1.59-.9 3.14-.79 3.13zm-2.82-1.28c.13.02.41-1.26 1.13-2.67.71-1.42 1.57-2.4 1.47-2.5-.07-.09-1.13.8-1.88 2.29s-.83 2.87-.72 2.88zm-2.651-.71c.14-.01.03-1.36.63-2.86.58-1.51 1.57-2.43 1.47-2.53-.05-.1-1.27.73-1.9 2.37-.63 1.62-.31 3.06-.2 3.02z" fill="#263238"/><path d="M456.341 392.92c.05.01.29-.74.29-2.02a9.609 9.609 0 00-.67-3.47c-.09-.21-.19-.46-.43-.66-.25-.23-.71-.18-.93.05-.25.22-.33.52-.36.77a5.9 5.9 0 00-.04.72c.01.47.07.91.17 1.33.2.83.52 1.52.83 2.07.63 1.1 1.18 1.66 1.22 1.63.06-.04-.39-.67-.93-1.78-.27-.55-.54-1.23-.71-2.01-.08-.39-.13-.81-.13-1.24.01-.42.01-.94.25-1.14.13-.11.25-.11.36-.03.12.09.22.28.3.47.17.4.3.81.41 1.19.21.78.32 1.5.36 2.11.06 1.23-.06 2 .01 2.01z" fill="#263238"/><path d="M456.311 392.64c.01-.05-.64-.27-1.75-.28-.55 0-1.21.06-1.92.24-.35.09-.73.19-1.11.41-.37.19-.76.7-.61 1.24.12.5.55.86.98.97.43.12.85.08 1.21 0 .74-.17 1.32-.54 1.76-.87.87-.68 1.29-1.2 1.26-1.24-.05-.06-.56.39-1.44.98-.44.28-1 .59-1.66.72-.33.06-.68.08-1-.01-.32-.09-.58-.33-.66-.64-.08-.3.11-.58.4-.76.29-.18.65-.28.98-.38.67-.19 1.3-.28 1.82-.32 1.06-.09 1.73.02 1.74-.06zm9.19 6.06c.13-.02 0-1.17.53-2.44.51-1.28 1.41-2.02 1.33-2.12-.04-.11-1.18.53-1.75 1.95-.58 1.4-.22 2.66-.11 2.61zm-18.9 1.25c-.01.03.36.2 1.05.49.7.26 1.71.63 3.01.93 2.59.65 6.28 1.02 10.34.98 4.06-.04 7.72-.23 10.37-.34 1.26-.07 2.31-.12 3.14-.17.74-.05 1.15-.09 1.15-.12s-.41-.05-1.15-.05c-.83.01-1.89.01-3.14.02-2.74.05-6.36.12-10.36.2-4.04.04-7.69-.27-10.27-.84-2.6-.52-4.11-1.19-4.14-1.1z" fill="#263238"/><path d="M445.801 400.56c.04.06.78-.37 2.03-.92 1.24-.53 3.09-1.17 5.12-.85 2.04.31 3.49 1.68 4.43 2.63.95.99 1.51 1.64 1.56 1.59.04-.03-.42-.75-1.33-1.81-.46-.52-1.04-1.13-1.8-1.68-.75-.55-1.72-1.02-2.8-1.19-2.18-.33-4.11.4-5.33 1.01-1.23.65-1.91 1.18-1.88 1.22z" fill="#263238"/><path d="M421.311 380.6s-25.63 16.78-26.55 17.47c-1.38 1.04.2 6.01 2.59 5.15 1.13-.41 22.63-6.39 24.95-7.29 2.31-.9 8.54-5.97 8.54-5.97l-9.53-9.36z" fill="#42A9D1"/><path d="M413.7 393.87c.11-.02-.34-1.5-1.71-2.74-1.36-1.25-2.87-1.57-2.89-1.46-.05.13 1.31.62 2.58 1.79 1.28 1.16 1.89 2.47 2.02 2.41zm2.301-2.08c.11-.04-.39-1.33-1.56-2.52-1.17-1.2-2.44-1.72-2.49-1.61-.06.12 1.06.79 2.16 1.93 1.12 1.13 1.77 2.26 1.89 2.2zm2.309-1.48c.12 0-.01-1.47-1.12-2.82-1.09-1.37-2.51-1.79-2.53-1.68-.06.12 1.17.7 2.17 1.96 1.03 1.25 1.34 2.57 1.48 2.54z" fill="#263238"/><path d="M416.791 387.12c.07-.03-.28-.73-.58-1.92-.15-.6-.27-1.32-.3-2.12-.02-.4-.01-.83.03-1.26.01-.21.05-.42.14-.54.08-.11.19-.14.35-.08.29.12.44.61.58 1.01.13.41.21.82.25 1.22.08.8.02 1.53-.07 2.13-.18 1.22-.42 1.96-.35 1.98.05.02.4-.68.66-1.92.13-.62.23-1.38.17-2.23-.03-.42-.11-.87-.24-1.31a6.07 6.07 0 00-.25-.67c-.11-.22-.27-.49-.58-.62-.28-.15-.73-.05-.9.24-.17.27-.19.53-.21.76-.03.46-.03.9 0 1.32.06.84.22 1.58.41 2.19.39 1.2.84 1.85.89 1.82z" fill="#263238"/><path d="M416.731 386.85c.03.07.629-.24 1.669-.49.52-.12 1.141-.23 1.841-.25.35-.01.72-.02 1.05.07.34.08.589.29.609.6.02.32-.16.63-.43.81-.28.19-.62.28-.95.32-.67.08-1.29-.05-1.8-.18-1.02-.29-1.639-.56-1.669-.49-.02.05.539.41 1.579.8.52.18 1.18.35 1.94.29.37-.03.781-.12 1.161-.37.37-.24.68-.7.64-1.22-.02-.55-.551-.93-.961-.99-.43-.1-.819-.07-1.179-.05-.73.05-1.381.19-1.901.36-1.07.34-1.619.75-1.599.79zm-16.111 15.43c.03.04.43-.26.63-.99.21-.72.08-1.82-.48-2.78-.27-.49-.58-.91-.86-1.28s-.57-.71-.87-.93c-.3-.23-.61-.33-.82-.34-.21-.01-.32.04-.32.07 0 .07.46.04.93.52.24.23.48.55.74.93s.55.8.8 1.25c.52.9.67 1.84.56 2.5-.09.66-.37 1.01-.31 1.05zm9.201-6.87c.12.01.08-1.29-.9-2.46-.97-1.18-2.25-1.45-2.26-1.33-.05.13 1.04.55 1.91 1.62.89 1.05 1.12 2.2 1.25 2.17z" fill="#263238"/><path d="M428.2 390.86c-.02-.03-.41.26-1.13.77-.72.5-1.78 1.2-3.16 1.94-1.379.74-3.08 1.51-5.02 2.23-1.94.72-4.12 1.41-6.42 2.07-4.61 1.33-8.779 2.54-11.799 3.45-1.44.44-2.64.81-3.56 1.09-.84.27-1.301.43-1.291.46.01.03.48-.08 1.34-.29.93-.25 2.14-.57 3.6-.95 3.04-.83 7.22-1.99 11.83-3.32 2.31-.67 4.49-1.37 6.44-2.12 1.95-.75 3.651-1.56 5.031-2.34 1.37-.78 2.42-1.53 3.11-2.08.7-.55 1.049-.89 1.029-.91z" fill="#263238"/><path d="M429.151 391.21c.01-.05-.79-.35-2.17-.58-1.35-.21-3.41-.32-5.39.66-.98.49-1.76 1.23-2.31 1.98-.56.75-.92 1.51-1.2 2.15-.54 1.28-.76 2.11-.71 2.13.07.03.4-.77 1-1.99.61-1.19 1.57-2.94 3.42-3.86 1.84-.92 3.8-.87 5.14-.74 1.37.13 2.21.32 2.22.25z" fill="#263238"/><path d="M359.851 280.63l21.02 1.98 8.54 2.42c3.65 1.03 6.99 2.95 9.72 5.57l27.51 26.41 5.02-41.02 13.74 1.2-2.29 52.8a15.743 15.743 0 01-14.98 10.95c-4.12.01-8.06-1.73-11.07-4.55l-19.59-18.41-.59 26.31 13.6 11.04-52.41 29.2s-2.84-11.15-1.55-36.01c.24-4.56-8.12-18.4-8.76-22.47-2.45-15.65-2.07-38.54-2.07-38.54l14.16-6.88z" fill="#42A9D1"/><path d="M346.941 287.01s-10.63 3.94-13.2 12.27c-2.28 7.38-9.89 48.91-9.89 48.91l-7.55 43.95 15.8.6 18.2-74.9-3.36-30.83z" fill="#42A9D1"/><path d="M346.231 335.55c.03.01.14-.31.32-.89.18-.58.42-1.43.7-2.48.57-2.1 1.3-5.02 2.03-8.27.73-3.24 1.32-6.2 1.71-8.34.19-1.07.34-1.94.43-2.54.09-.6.12-.94.09-.95-.03-.01-.12.32-.27.91-.16.69-.35 1.53-.57 2.51-.49 2.23-1.13 5.11-1.83 8.3-.73 3.18-1.39 6.06-1.9 8.29-.22.99-.41 1.83-.56 2.52-.12.6-.18.94-.15.94zm96.74-54.42c.12.01.3-.92.4-2.07.1-1.16.08-2.1-.05-2.11-.12-.01-.3.92-.4 2.07-.09 1.15-.07 2.1.05 2.11zm-4.02.12c.12.01.28-.98.34-2.21s.01-2.22-.11-2.23c-.12-.01-.28.98-.34 2.21s-.01 2.23.11 2.23zm-3.99-.25c.12.01.29-1.09.36-2.46.08-1.36.04-2.48-.09-2.48-.12-.01-.29 1.09-.36 2.46-.08 1.36-.04 2.47.09 2.48zm-7.73 42.31c.12-.01.06-1.64-.15-3.63s-.47-3.6-.6-3.59c-.12.01-.06 1.64.15 3.63.2 2 .47 3.6.6 3.59zm-97.72 64.86c-.12-.02-.4.97-.61 2.2-.21 1.24-.29 2.26-.16 2.28.12.02.4-.97.61-2.2.21-1.24.28-2.26.16-2.28zm-5.2-.01c-.12-.02-.38.87-.56 2-.19 1.12-.24 2.05-.11 2.07.12.02.38-.87.56-2 .18-1.12.23-2.05.11-2.07zm-4.93-.5c-.13-.01-.31 1.01-.52 2.26-.21 1.25-.37 2.27-.25 2.3.12.03.48-.95.7-2.23.21-1.27.19-2.32.07-2.33zm19.03-95.53c0 .08 1.1.02 2.82.38 1.7.35 4.02 1.23 6.03 2.98 2.01 1.75 3.19 3.93 3.76 5.57.59 1.65.67 2.75.75 2.74.03 0 .04-.28-.01-.77-.05-.5-.17-1.21-.43-2.07-.51-1.7-1.69-3.99-3.77-5.81-2.08-1.82-4.51-2.68-6.27-2.95-.88-.14-1.61-.17-2.11-.15-.5.01-.77.06-.77.08zm56.77 37.09c-.09-.03.41-1.3.91-3.41.5-2.11.92-5.1.75-8.41-.18-3.31-.91-6.24-1.64-8.28-.72-2.05-1.35-3.25-1.26-3.29.03-.02.21.27.51.81.31.53.69 1.34 1.1 2.36.82 2.04 1.63 5.02 1.81 8.39.17 3.37-.31 6.41-.91 8.53-.3 1.06-.59 1.9-.84 2.46-.25.55-.4.85-.43.84zm1.34 14.51c0 .04-.32.06-.91.06-.59.01-1.43-.02-2.48-.11-2.09-.16-4.96-.6-8.04-1.48a42.4 42.4 0 01-7.61-3c-.93-.48-1.67-.9-2.16-1.22-.49-.31-.76-.5-.74-.53.04-.07 1.17.55 3.06 1.42 1.88.88 4.54 1.96 7.59 2.83 3.04.87 5.88 1.36 7.94 1.61 2.07.26 3.36.33 3.35.42z" fill="#263238"/><path opacity=".2" d="M373.321 336.41c1.64 1.47 4.2 1.69 6.4 1.65 2.21-.04 4.4-.48 6.61-.44 2.21.04 4.54.63 6.02 2.27.45.5.82 1.13.85 1.8.03.68-.35 1.4-1 1.61-.4.13-.84.04-1.26-.04-6.18-1.28-12.83-2.73-17.62-6.85zm-20.25 1.96c1.63-.47 1.9-2.38 2.06-4.07.66-6.95-.72-14.09-3.93-20.29-.77 4.6-2.05 9.38-2.96 14.06l4.83 10.3z" fill="#000"/><path d="M350.221 319.23c-.04.06-.41-.4-1.34-.6-.9-.21-2.38 0-3.69 1.06-1.34 1.04-2.08 3.04-2.49 5.26-.44 2.19-.66 4.88-2.35 7.11-.84 1.1-2.12 1.81-3.39 2.03-1.27.24-2.48.2-3.61.26-2.27.03-4.15 1.01-5.35 2.2a8.123 8.123 0 00-2.11 3.38c-.29.91-.32 1.45-.37 1.45-.02 0-.02-.14-.01-.39.01-.26.06-.64.18-1.11.24-.94.8-2.31 2.05-3.58.62-.63 1.4-1.23 2.36-1.67.95-.46 2.07-.69 3.23-.75 1.15-.08 2.36-.05 3.54-.29 1.19-.22 2.3-.85 3.08-1.85.78-1 1.24-2.21 1.56-3.38.32-1.18.49-2.37.73-3.5.44-2.24 1.24-4.35 2.73-5.45 1.43-1.1 3.02-1.26 3.97-.97.49.13.81.35 1.02.51.18.17.27.26.26.28zm59.4-19.35s-.28.84-1.32 2.03c-1.02 1.15-2.95 2.62-5.76 3.09-1.39.21-2.99.2-4.57-.36-1.59-.55-3.05-1.61-4.46-2.78-1.42-1.15-2.85-2.47-4.59-3.33-.87-.43-1.82-.72-2.82-.77-.99-.07-2.01.08-3 .38-1.99.59-3.74 1.69-5.39 2.8-1.65 1.11-3.25 2.22-4.96 2.98-1.71.75-3.49 1.1-5.15 1.09-1.66 0-3.19-.3-4.52-.75-2.67-.92-4.48-2.41-5.53-3.54-.52-.59-.89-1.06-1.1-1.42-.22-.35-.33-.53-.32-.54.05-.04.49.71 1.56 1.82a13.97 13.97 0 005.5 3.33c2.58.84 6.05 1.08 9.35-.43 1.65-.74 3.22-1.85 4.87-2.96 1.65-1.12 3.44-2.26 5.53-2.87 1.04-.3 2.12-.47 3.18-.39 1.07.06 2.09.38 3.01.83 1.84.92 3.27 2.27 4.68 3.42 1.39 1.17 2.8 2.2 4.3 2.74 1.49.55 3.03.59 4.37.41 2.72-.4 4.63-1.78 5.67-2.86 1.07-1.15 1.42-1.96 1.47-1.92zm25.89 39.63c-.04.01-.17-.66-.41-1.85-.25-1.18-.57-2.93-1.44-4.9-.44-.98-1.04-2-1.88-2.93-.84-.93-1.94-1.75-3.27-2.16-1.33-.43-2.84-.46-4.39-.44-1.56.01-3.22.09-4.89-.35-1.67-.43-3.08-1.41-4.27-2.45-1.19-1.05-2.2-2.2-3.18-3.24-1.92-2.11-3.96-3.8-6.05-4.3-2.08-.5-3.88.05-4.84.73-.98.69-1.24 1.37-1.29 1.33-.02-.01.06-.16.21-.45.19-.26.46-.67.97-1.04.97-.76 2.84-1.4 5.04-.92 2.22.48 4.36 2.23 6.31 4.33 1 1.05 2 2.17 3.16 3.19 1.16 1.01 2.5 1.93 4.07 2.33 3.14.79 6.43-.14 9.3.83 1.42.46 2.58 1.35 3.44 2.33.87.98 1.47 2.05 1.9 3.07.84 2.04 1.1 3.82 1.3 5.01.09.6.15 1.07.18 1.39.04.32.05.49.03.49zm-39.02-15.16c0 .02-.17.04-.51.08-.34.03-.85.04-1.49-.05-1.3-.14-3.06-.86-5.12-1.84-1.04-.48-2.17-1-3.45-1.34-1.27-.36-2.7-.41-4.16-.14-2.93.57-5.78 2.45-8.28 4.82-2.51 2.4-4.69 4.96-7.12 6.83-2.4 1.92-5.07 2.95-7.35 3.3-2.29.37-4.19.18-5.44-.07-.63-.12-1.11-.26-1.43-.37-.32-.11-.49-.17-.48-.19.01-.05.69.17 1.95.36 1.25.19 3.12.32 5.35-.09 2.23-.39 4.79-1.42 7.12-3.32 2.37-1.85 4.52-4.4 7.06-6.83 2.54-2.41 5.48-4.34 8.55-4.91 1.52-.27 3.04-.2 4.36.19 1.32.37 2.47.92 3.5 1.42 2.05 1.03 3.73 1.78 4.99 1.98 1.24.22 1.95.11 1.95.17zm-9.18 17.62c-.01.15-1.05.08-1.98.83-.96.71-1.16 1.73-1.31 1.71-.06-.01-.12-.28 0-.71.11-.43.44-.99.99-1.41.54-.42 1.17-.59 1.61-.59.45-.02.7.1.69.17zm8.57-4.08c.13.04-.26 1.5-1.28 3.02-1.02 1.53-2.21 2.45-2.3 2.35-.1-.11.89-1.16 1.86-2.64.99-1.46 1.58-2.78 1.72-2.73zm-34.94 14.13c-.05.14-1.13-.16-2.47-.16-1.35-.02-2.43.27-2.48.12-.06-.12 1.02-.66 2.48-.64 1.45.01 2.53.56 2.47.68zm-28.7-48.54c.03-.04.23.12.66.24.42.11 1.08.13 1.81-.16.74-.27 1.46-.9 2.11-1.75.65-.84 1.3-1.88 2.22-2.78 1.83-1.82 4.05-2.75 5.67-3.11.82-.18 1.49-.23 1.95-.25.47 0 .72.03.72.06 0 .09-1.02.1-2.58.54-1.55.43-3.64 1.39-5.39 3.12-.88.86-1.51 1.85-2.22 2.71-.69.86-1.52 1.54-2.36 1.79-.82.27-1.56.19-2 0-.45-.18-.61-.4-.59-.41zm53.5-19.72c.04.04-.31.61-1.13 1.31-.81.71-2.12 1.5-3.72 1.92-1.61.42-3.14.37-4.19.15-1.06-.22-1.65-.54-1.63-.59.03-.08.66.11 1.69.23 1.03.12 2.47.11 4-.29 1.52-.4 2.79-1.1 3.63-1.71.83-.6 1.29-1.08 1.35-1.02zm-44.88 74.55c0 .05-.42.04-1.15.2-.72.16-1.75.55-2.8 1.36-1.07.8-2.12 2.01-2.99 3.54-.9 1.53-1.64 3.34-2.59 5.2-.95 1.85-2.11 3.54-3.56 4.68-1.43 1.18-3.15 1.64-4.54 1.54-1.4-.07-2.46-.6-3.04-1.12-.3-.25-.49-.48-.6-.65-.11-.17-.16-.26-.15-.27.04-.03.28.33.87.77.58.44 1.61.89 2.92.91 1.32.04 2.89-.42 4.23-1.55 1.36-1.1 2.47-2.73 3.4-4.54.93-1.82 1.7-3.65 2.64-5.2.92-1.56 2.05-2.81 3.18-3.6 1.13-.8 2.22-1.16 2.98-1.26.38-.06.68-.06.88-.05.22.01.32.02.32.04z" fill="#FAFAFA"/><path opacity=".3" d="M426.191 316.47c-1.79 2.13-2.48 5.14-1.8 7.84.11.44.31.94.75 1.07.36.11.75-.09.98-.38.23-.29.33-.66.42-1.03.59-2.53.54-5.21-.13-7.72" fill="#000"/><path d="M444.92 293.36c.07.08-1.26.92-2.52 3.03-.63 1.04-1.24 2.37-1.81 3.89-.58 1.52-1.13 3.23-1.93 4.96-.8 1.72-1.82 3.29-3.11 4.38-1.29 1.08-2.75 1.65-4.01 1.81-1.26.16-2.3-.07-2.94-.38-.32-.16-.55-.29-.7-.41-.15-.11-.22-.18-.21-.19.03-.05.34.18.98.41.63.23 1.62.4 2.81.2 1.18-.2 2.55-.78 3.75-1.81 1.2-1.04 2.17-2.56 2.95-4.24.78-1.69 1.35-3.39 1.96-4.92.6-1.52 1.26-2.87 1.95-3.91s1.4-1.79 1.93-2.23c.54-.44.89-.61.9-.59zm.84-11.11c.04.04-.56.72-1.75 1.53-1.19.82-3.03 1.71-5.21 2.15-2.18.43-4.22.3-5.63 0-1.42-.3-2.23-.7-2.21-.75.03-.08.87.19 2.27.39 1.39.21 3.36.27 5.47-.14 2.11-.42 3.9-1.23 5.11-1.95 1.21-.72 1.89-1.3 1.95-1.23z" fill="#FAFAFA"/><path d="M453.131 387.76s-62.85-41.22-65.42-42.08c-2.57-.86-8.79-4.93-15.01-3.22-6.22 1.72-11.79 7.29-14.58 15.44-2.79 8.15-3 26.38-3 26.38s4.93 14.37 14.58 17.37c.8.25 1.65.46 2.51.63 11.78 2.34 23.76-3.08 30.35-13.12l1.4-2.13s41.11 15.1 41.75 14.89l7.42-14.16z" fill="#263238"/><path d="M474.56 339.68s7.69 2.74 7.72 11.37c.06 16.51-33.36 34.71-33.36 34.71l-44.48-29.47v-3.1s57.26-20.59 70.12-13.51z" fill="#263238"/><path d="M375.381 376.41s.11.06.34.15c.25.1.59.23 1.03.41.93.36 2.27.87 3.98 1.53 3.5 1.32 8.54 3.22 14.81 5.58 6.29 2.35 13.82 5.14 22.28 8.21 8.45 3.07 17.82 6.45 27.83 9.83l.18.06.09-.17c1.57-3 3.23-6.16 4.91-9.38.86-1.64 1.71-3.26 2.5-4.78l.1-.18-.17-.11c-18.87-11.98-35.75-22.7-47.94-30.43-6.08-3.84-10.99-6.93-14.4-9.08-1.69-1.05-3-1.87-3.91-2.44-.44-.27-.78-.47-1.02-.62-.23-.14-.36-.2-.36-.2s.11.09.33.24c.24.16.57.38 1 .66.9.58 2.2 1.43 3.87 2.51 3.39 2.18 8.27 5.31 14.32 9.2 12.16 7.76 29.02 18.52 47.86 30.55l-.08-.29c-.79 1.52-1.65 3.14-2.5 4.78l-4.91 9.38.27-.11c-10-3.38-19.37-6.74-27.83-9.78-8.45-3.07-15.99-5.82-22.31-8.12-6.29-2.31-11.35-4.16-14.85-5.45-1.73-.63-3.08-1.12-4.01-1.46l-1.04-.37c-.24-.08-.37-.12-.37-.12z" fill="#455A64"/><path d="M426.97 371.17c.02.02.43-.26 1.16-.79s1.77-1.31 3.04-2.3c2.55-1.97 6.01-4.76 9.74-7.96 3.73-3.2 7.011-6.21 9.341-8.43a117.61 117.61 0 002.729-2.66c.63-.64.971-1 .951-1.03-.021-.02-.401.3-1.071.9-.73.66-1.68 1.52-2.83 2.55-2.38 2.16-5.7 5.12-9.42 8.32-3.72 3.19-7.15 6.02-9.64 8.05l-2.95 2.41c-.69.59-1.07.91-1.05.94zm35.041-25.32c.02-.11-1.97-.3-4.29.39-2.32.68-3.89 1.92-3.81 2 .07.12 1.7-.92 3.94-1.57 2.23-.67 4.16-.68 4.16-.82z" fill="#455A64"/><path d="M458.171 343.25c-.04-.11-1.47.52-2.64 1.98-1.18 1.45-1.5 2.98-1.38 3 .13.04.62-1.34 1.74-2.71 1.1-1.39 2.36-2.16 2.28-2.27z" fill="#455A64"/><path d="M477.011 395.53c.02-.05-.53-.16-1.15.35-.61.48-1.12 1.45-1.29 2.58a5.06 5.06 0 00.41 2.85c.31.68.66.99.7.96.06-.04-.18-.42-.4-1.08-.23-.65-.41-1.62-.25-2.66.15-1.04.58-1.93 1.05-2.41.47-.5.94-.52.93-.59zM348.23 248.37a6.386 6.386 0 00-4.69-1.79c-1.72.07-3.39.89-4.51 2.19-1.32 1.53-1.82 3.58-2.12 5.58-.3 1.99-.43 4.04-1.16 5.92s-2.22 3.61-4.2 3.98c-1.5.28-3.28-.19-4.42.82-.98.86-.96 2.47-.26 3.58.69 1.1 1.89 1.78 3.08 2.31.47.21 1.03.51 1.04 1.03.01.67-.85.92-1.47 1.18-1.86.79-2.4 3.44-1.37 5.18 1.03 1.74 3.17 2.58 5.19 2.59 2.02.01 3.98-.67 5.88-1.35-.74.76-.71 2.07-.06 2.9.65.83 1.79 1.19 2.83 1.06 1.05-.13 2-.7 2.77-1.43 1.5-1.42 2.33-3.42 2.71-5.45.38-2.03.35-4.1.36-6.17.03-7.36.55-14.72 1.57-22.01" fill="#263238"/><path d="M369.47 234.17c8.11.38 14.49 7.06 14.5 15.17.01 6.29-.09 13.13-.49 17.19-.93 9.44-8.03 11.05-8.03 11.05s.23 5.86.54 11.43c.3 5.3-4.05 9.97-9.71 10.42-5.61.45-10.42-3.4-10.8-8.64l-1.9-40.73c-.42-8.93 6.95-16.3 15.89-15.89z" fill="#FFA982"/><path d="M381.82 253.47c.06.63-.43 1.2-1.08 1.28-.66.07-1.24-.38-1.3-1.01-.06-.63.43-1.2 1.08-1.28.66-.07 1.24.38 1.3 1.01zm-.03-1.86c-.14.17-1.09-.45-2.38-.37-1.29.06-2.2.78-2.35.63-.07-.07.06-.36.46-.68.39-.32 1.06-.65 1.87-.7.8-.04 1.5.21 1.9.49.42.29.57.56.5.63zm-13.41 2.57c.06.63-.43 1.2-1.08 1.28-.66.07-1.24-.38-1.3-1.01-.06-.63.43-1.2 1.08-1.28.66-.08 1.24.38 1.3 1.01zm-.03-1.3c-.14.17-1.09-.45-2.38-.37-1.29.06-2.2.78-2.35.63-.07-.07.06-.36.46-.68.39-.32 1.06-.65 1.87-.7.8-.04 1.5.21 1.9.49.42.28.57.56.5.63zm5.26 9.3c-.01-.07.78-.26 2.07-.5.33-.05.64-.14.68-.37.06-.24-.1-.59-.28-.96-.36-.78-.73-1.6-1.12-2.45-1.57-3.49-2.72-6.37-2.58-6.43.14-.06 1.52 2.72 3.09 6.21.38.86.74 1.68 1.08 2.47.15.37.39.78.25 1.28-.07.25-.31.44-.51.51-.21.08-.39.09-.56.11-1.3.14-2.12.2-2.12.13z" fill="#263238"/><path d="M375.49 277.6s-6.36.57-12.81-2.81c0 0 3.49 6.72 12.89 5.5l-.08-2.69z" fill="#995037"/><path d="M364.1 249.29c.16.23 1.09-.16 2.27-.42 1.17-.27 2.18-.32 2.23-.59.06-.25-1.06-.66-2.44-.35-1.39.31-2.22 1.16-2.06 1.36zm12.78-2.32c.06.27 1.12.23 2.39.25 1.27.01 2.33.08 2.4-.19.07-.25-.98-.76-2.39-.78-1.41-.02-2.47.47-2.4.72z" fill="#263238"/><path d="M355.98 285.91c-.09-1.94 2.08-10.36 2.94-15.53.86-5.17-2.52-6.01-3.05-9.06-.54-3.05.99-5.95.99-5.95 4.94 1.77 6.89-1.75 9.59-3.83 2.87-2.21 3.49-4.93 4.67-8.36 1.17-3.43 2.54-5.57 6.14-5.9 0 0 3.53 1.78 4.8 5.51 1.1 3.21 1.98 15.73 1.98 15.73.5-6.01 5.37-8.53 4.05-17.36-.57-3.82-3.73-9.03-8.61-9.79-1.41-.22-4.09-.39-4.09-.39-2.92-2.62-4.34-2.55-7.13-3.78-6.02-2.67-13.25 2.1-17.25 7.33-3.07 4.02-4.57 9.47-5.4 14.59-.58 3.55-.57 7.16-.23 10.74.2 2.13-.06 4.84-2.16 6.47-2.99 2.33-3.78 6.77-1.71 12.7 2.07 5.92-5.56 15.99-5.56 15.99s3.7-3.03 6.8-4.61c3.09-1.59 13.23-4.5 13.23-4.5z" fill="#263238"/><path d="M372.05 265.26c-.42-.48-1.12-.71-1.78-.59-.46.08-.91.34-1.17.74-.25.4-.27.94.01 1.28.32.38.93.43 1.43.25.5-.18.91-.55 1.31-.92.11-.1.22-.21.28-.34.06-.13.07-.3-.03-.4" fill="#995037"/><path d="M369.22 263.62c.17-.02.26 1.14 1.32 1.89 1.05.75 2.28.53 2.3.69.02.07-.26.25-.78.3a2.88 2.88 0 01-1.92-.51c-.64-.46-.96-1.11-1.03-1.59-.08-.48.03-.78.11-.78zm-40.79-2.64c.03 0-.04.47.1 1.3.07.41.21.91.49 1.43.28.51.73 1.04 1.4 1.36.65.32 1.52.46 2.3.11.79-.34 1.33-1.17 1.54-2.12.23-.95.21-2 .17-3.09-.04-1.09-.1-2.22-.11-3.38-.03-2.31.3-4.59 1.26-6.4.91-1.82 2.47-3.09 3.99-3.44 1.5-.41 2.8-.11 3.56.28.77.4 1.05.8 1.05.8-.02.03-.34-.34-1.1-.69-.75-.34-2.01-.59-3.45-.17-1.45.37-2.92 1.59-3.79 3.36-.92 1.76-1.23 3.98-1.21 6.27 0 1.15.07 2.28.1 3.37.04 1.09.06 2.17-.19 3.17-.22.99-.83 1.92-1.71 2.29-.88.37-1.81.2-2.5-.15-.71-.35-1.17-.93-1.46-1.47a4.71 4.71 0 01-.46-1.49c-.11-.88.02-1.34.02-1.34z" fill="#263238"/><path d="M342.221 281.26s-.2-.13-.49-.49c-.28-.36-.61-.98-.73-1.85-.12-.86-.01-1.98.55-3.09.54-1.13 1.48-2.21 2.59-3.27 1.1-1.08 2.42-2.17 3.4-3.67 1.01-1.49 1.3-3.47 1.16-5.48-.11-2.02-.6-4.14-.49-6.39.06-1.12.26-2.27.78-3.34.52-1.06 1.4-1.96 2.44-2.54 2.1-1.19 4.44-1.52 6.37-2.58 1.95-1.03 3.2-2.87 4.12-4.65.92-1.81 1.58-3.64 2.43-5.26.83-1.62 1.89-3.02 3.15-3.95 1.24-.95 2.67-1.42 3.92-1.34 1.25.07 2.26.6 2.91 1.17.67.57.98 1.21 1.13 1.64.07.22.11.39.12.51.02.12.02.18.02.18-.03.01-.03-.24-.2-.66-.16-.42-.48-1.02-1.15-1.56a4.842 4.842 0 00-2.84-1.09c-1.2-.05-2.58.41-3.78 1.35-1.22.92-2.24 2.29-3.06 3.9-.83 1.6-1.48 3.43-2.41 5.27-.92 1.81-2.2 3.71-4.23 4.79-1.98 1.1-4.34 1.43-6.35 2.58a5.614 5.614 0 00-2.32 2.41c-.49 1.01-.7 2.12-.75 3.21-.12 2.2.36 4.31.47 6.36.14 2.04-.17 4.1-1.23 5.64-1.02 1.54-2.36 2.63-3.46 3.69-1.12 1.05-2.05 2.1-2.59 3.19a5.41 5.41 0 00-.58 3c.22 1.7 1.17 2.3 1.1 2.32z" fill="#455A64"/><path d="M344.7 252.88c-.12.07-.73-1.3-.36-3.04.35-1.74 1.47-2.75 1.55-2.64.12.1-.72 1.16-1.04 2.75-.35 1.58 0 2.89-.15 2.93z" fill="#FAFAFA"/><path d="M347.971 281.73c-.71 4.96.34 10.16 2.91 14.46.92 1.54 2.06 2.99 3.57 3.95 1.51.96 3.45 1.35 5.13.73 1.68-.63 2.94-2.42 2.66-4.19-.4-2.51-3.49-4.07-3.5-6.61 1.12.67 2.64 1.33 3.62.46.67-.59.7-1.64.37-2.46-.34-.82-.96-1.48-1.51-2.17-2.27-2.88-3.29-6.72-2.73-10.35.16-1.01.43-4.13.44-5.16.01-1.03-.27 0-1.05-.67-.76-.66-1.88-.79-2.85-.52-.97.27-1.81.88-2.53 1.59-2.35 2.28-3.65 5.61-3.48 8.88m160.59-62.53s.01-.22.05-.65c.05-.45.12-1.08.21-1.91.04-.42.12-.89.139-1.4.011-.52.011-1.09.021-1.7 0-.62.04-1.28 0-1.99-.06-.71-.12-1.46-.19-2.25-.36-3.16-1.1-7.05-2.98-11.2a36.324 36.324 0 00-9.041-12.32l-1.629-1.42c-.58-.44-1.19-.86-1.8-1.29-1.18-.92-2.55-1.6-3.89-2.39-2.78-1.38-5.79-2.64-9.08-3.29-1.62-.44-3.33-.57-5.04-.79-.86-.09-1.74-.05-2.61-.09l-1.32-.03c-.44.01-.88.07-1.33.1-3.57.16-7.18 1.02-10.69 2.36-7.06 2.61-13.52 7.85-17.88 14.77-2.21 3.45-3.74 7.4-4.63 11.52-.98 4.11-1.1 8.48-.52 12.77.08.55.17 1.1.27 1.65l.02.11-.06.09c-4.02 5.59-7.96 11.06-11.77 16.36l-.25-.4c5.99-.93 11.8-1.82 17.38-2.69l.16-.02.09.13c3.52 5.24 8.25 9.34 13.41 12.03 2.58 1.34 5.27 2.34 7.95 3.01 1.34.34 2.69.61 4.03.75.67.08 1.34.16 2 .25.66.08 1.32.05 1.98.08 5.25.14 10.19-.87 14.44-2.58 4.27-1.7 7.85-4.08 10.74-6.61l2.05-1.93c.6-.69 1.19-1.35 1.76-2 .6-.62 1.05-1.33 1.53-1.98.46-.67.97-1.27 1.34-1.93 1.58-2.57 2.68-4.92 3.39-6.9.34-.99.639-1.87.899-2.64.18-.78.341-1.44.471-1.98.13-.52.22-.92.29-1.21.04-.25.09-.39.09-.39s-.02.14-.07.42c-.06.29-.14.69-.25 1.22-.12.54-.26 1.21-.43 1.99-.25.77-.54 1.66-.86 2.66-.69 1.99-1.77 4.37-3.34 6.97-.37.67-.87 1.27-1.33 1.95-.48.66-.93 1.37-1.53 2.01-.57.66-1.15 1.33-1.76 2.03-.67.63-1.35 1.29-2.06 1.95-2.9 2.57-6.51 4.99-10.81 6.73a36.586 36.586 0 01-14.59 2.66c-.66-.03-1.33.01-2-.07l-2.02-.24c-1.36-.14-2.72-.4-4.08-.74-2.72-.68-5.44-1.68-8.06-3.03-5.23-2.72-10.03-6.87-13.61-12.17l.24.11c-5.58.87-11.39 1.77-17.38 2.7l-.61.09.36-.5c3.81-5.3 7.75-10.78 11.77-16.36l-.04.2c-.1-.55-.19-1.11-.27-1.67-.6-4.36-.47-8.78.52-12.95.9-4.18 2.46-8.19 4.7-11.68 4.43-7.02 10.98-12.31 18.14-14.95 3.56-1.35 7.22-2.21 10.84-2.37.45-.03.9-.08 1.35-.1l1.34.03c.89.04 1.77 0 2.64.1 1.74.23 3.459.36 5.099.81 3.33.67 6.371 1.95 9.181 3.36 1.35.8 2.73 1.5 3.92 2.43.61.44 1.22.87 1.81 1.31.55.49 1.1.97 1.64 1.44 4.3 3.84 7.23 8.29 9.06 12.47 1.87 4.19 2.59 8.11 2.92 11.29.06.8.12 1.56.17 2.27.03.71-.02 1.38-.03 1.99-.02.62-.03 1.19-.05 1.71-.02.52-.12.99-.16 1.41-.11.82-.2 1.46-.26 1.9-.06.41-.1.62-.1.62z" fill="#263238"/><path d="M485.41 196.85l4.39 33.25h-32.52l4.74-33.25h23.39z" fill="#42A9D1"/><path d="M464.661 201.67c.08-.03.369 1.36 1.659 3.14.65.87 1.571 1.82 2.831 2.5 1.25.69 2.82 1.08 4.48 1.08 1.66.02 3.24-.32 4.5-.99 1.27-.65 2.18-1.63 2.79-2.52 1.22-1.83 1.41-3.24 1.5-3.21.03 0 .02.36-.13.97-.16.61-.45 1.48-1.06 2.45-.6.95-1.53 2.02-2.87 2.74-1.33.74-3 1.1-4.74 1.09-1.73 0-3.4-.42-4.71-1.18a8.682 8.682 0 01-2.9-2.71c-.63-.94-.98-1.8-1.17-2.4-.18-.6-.21-.95-.18-.96z" fill="#fff"/><path d="M513.703 207.312a.443.443 0 00.252-.109 87.605 87.605 0 003.92-3.62.433.433 0 000-.621.458.458 0 00-.635.003 88.263 88.263 0 01-3.881 3.586.432.432 0 00-.038.619.454.454 0 00.382.142zm7.568-7.429a.46.46 0 00.291-.147 88.098 88.098 0 003.444-4.056.431.431 0 00-.078-.615.457.457 0 00-.631.08 90.87 90.87 0 01-3.407 4.017.432.432 0 00.038.619.47.47 0 00.343.102zm6.588-8.273a.465.465 0 00.328-.191 75.695 75.695 0 002.879-4.461.43.43 0 00-.161-.598.456.456 0 00-.613.16 76.655 76.655 0 01-2.844 4.409.43.43 0 00.118.608c.085.06.192.083.293.073zm5.381-9.059a.448.448 0 00.359-.248 63.48 63.48 0 002.153-4.838.434.434 0 00-.257-.566.455.455 0 00-.581.254 63.31 63.31 0 01-2.124 4.773.432.432 0 00.21.584.47.47 0 00.24.041zm3.855-9.766a.454.454 0 00.387-.317 57.83 57.83 0 001.268-5.127.438.438 0 00-.357-.513.451.451 0 00-.526.351 57.106 57.106 0 01-1.247 5.049.436.436 0 00.307.543c.054.014.113.019.168.014zm2.029-10.269a.449.449 0 00.403-.394c.174-1.746.265-3.518.27-5.267a.441.441 0 00-.448-.437.444.444 0 00-.45.44 54.189 54.189 0 01-.267 5.183.439.439 0 00.402.479.864.864 0 00.09-.004zm.028-10.445a.445.445 0 00.402-.48c-.016-.155-.029-.31-.045-.462a55.272 55.272 0 00-.706-4.752.445.445 0 00-.525-.347.44.44 0 00-.358.515 53.926 53.926 0 01.739 5.133.442.442 0 00.49.394l.003-.001zm-1.983-10.256a.41.41 0 00.08-.017.44.44 0 00.308-.544 57.561 57.561 0 00-1.718-4.986.45.45 0 00-.583-.247.436.436 0 00-.256.57 55.878 55.878 0 011.694 4.912.446.446 0 00.475.312zm-37.78 3.893c1.22-.126 2.45-.331 3.661-.607a.444.444 0 00.339-.528.45.45 0 00-.539-.328 29.562 29.562 0 01-5.219.712.443.443 0 00-.431.46c.01.241.22.43.466.419a28.514 28.514 0 001.723-.128zm-7.035-.141a.451.451 0 00.399-.369.434.434 0 00-.373-.499 23.574 23.574 0 01-5.058-1.332.454.454 0 00-.584.246.43.43 0 00.248.569 24.646 24.646 0 005.254 1.383.543.543 0 00.114.002zm15.734-2.085a.39.39 0 00.128-.033 33.408 33.408 0 004.807-2.477.431.431 0 00.138-.607.454.454 0 00-.62-.132 32.22 32.22 0 01-4.677 2.41.438.438 0 00-.24.577.458.458 0 00.464.262zm-25.547-1.799a.46.46 0 00.315-.175.434.434 0 00-.087-.615 17.023 17.023 0 01-3.649-3.598.456.456 0 00-.628-.095.434.434 0 00-.1.614 17.965 17.965 0 003.837 3.784.443.443 0 00.312.085zm34.565-3.802a.437.437 0 00.251-.109 36.344 36.344 0 003.779-3.808.432.432 0 00-.055-.618.457.457 0 00-.633.057 35.519 35.519 0 01-3.683 3.716.432.432 0 00-.041.619c.099.11.241.157.382.143zm16.205-5.792a.43.43 0 00.153-.044.436.436 0 00.204-.588 59.153 59.153 0 00-2.592-4.608.455.455 0 00-.619-.143.434.434 0 00-.15.604 60.21 60.21 0 012.556 4.541.451.451 0 00.448.238zm-9.332-2.212a.454.454 0 00.334-.205 42.68 42.68 0 002.574-4.657.432.432 0 00-.218-.581.456.456 0 00-.596.215 41.639 41.639 0 01-2.519 4.561.43.43 0 00.141.603.454.454 0 00.284.064zm-47.597 3.483a.454.454 0 00.094-.021.435.435 0 00.286-.554 17.582 17.582 0 01-.808-3.771 19.484 19.484 0 01-.087-1.238.445.445 0 00-.467-.418.446.446 0 00-.431.457c.016.434.049.866.094 1.295.142 1.371.426 2.703.847 3.954a.449.449 0 00.472.296zm51.384-10.184a.453.453 0 00.219-.083.43.43 0 00.097-.613 59.434 59.434 0 00-3.374-4.097.453.453 0 00-.633-.037.43.43 0 00-.041.619 58.693 58.693 0 013.324 4.037c.098.129.256.19.408.174zm.728-2.775a.446.446 0 00.38-.298 52.211 52.211 0 001.45-5.084.436.436 0 00-.337-.523.45.45 0 00-.537.332 51.837 51.837 0 01-1.427 4.999.435.435 0 00.285.554c.06.019.125.027.186.02zm-52.619 2.62a.45.45 0 00.397-.36 35.91 35.91 0 011.333-5 .432.432 0 00-.279-.555.452.452 0 00-.569.275 37.069 37.069 0 00-1.254 4.56c-.041.189-.077.378-.113.567a.436.436 0 00.362.509.422.422 0 00.123.004zm44.833-7.668a.454.454 0 00.28-.134.435.435 0 00-.015-.622 54.919 54.919 0 00-4.091-3.425.459.459 0 00-.631.08.431.431 0 00.079.615 53.735 53.735 0 014.024 3.369c.097.093.227.13.354.117zm10.179-5.141a.446.446 0 00.398-.377c.239-1.693.418-3.454.527-5.239a.44.44 0 00-.421-.463.448.448 0 00-.476.414 65.573 65.573 0 01-.523 5.17.439.439 0 00.384.492.381.381 0 00.111.003zm-51.489 2.967a.458.458 0 00.345-.221 20.19 20.19 0 013.13-4.102.43.43 0 00-.006-.62.454.454 0 00-.635.009c-1.224 1.223-2.323 2.663-3.269 4.281a.43.43 0 00.167.598.463.463 0 00.268.055zm32.856-4.188a.449.449 0 00.337-.209.43.43 0 00-.147-.603 43.236 43.236 0 00-4.771-2.471.456.456 0 00-.595.221.434.434 0 00.223.581 42.46 42.46 0 014.67 2.419c.09.05.191.071.283.062zm-9.742-4.222a.447.447 0 00.387-.322.436.436 0 00-.313-.54 28.304 28.304 0 00-5.35-.911.45.45 0 00-.483.406.44.44 0 00.413.469 27.25 27.25 0 015.176.884.524.524 0 00.17.014zm-15.644 1.079a.504.504 0 00.165-.049 17.39 17.39 0 014.917-1.663.442.442 0 00.361-.513.45.45 0 00-.524-.35 18.264 18.264 0 00-5.176 1.753.437.437 0 00-.189.595c.092.158.27.245.446.227zm44.69-6.065a.446.446 0 00.404-.44 88.866 88.866 0 00-.192-5.25.442.442 0 00-.477-.406.443.443 0 00-.418.467 89.69 89.69 0 01.192 5.199.442.442 0 00.454.434c.008-.004.023-.003.037-.004zm-.682-10.428l.009-.001a.44.44 0 00.392-.488 112.614 112.614 0 00-.752-5.197.444.444 0 00-.515-.36.444.444 0 00-.371.506c.295 1.74.544 3.473.748 5.155.028.239.247.41.489.385zm-1.735-10.317c.017-.002.032-.003.049-.008a.444.444 0 00.348-.523 99.477 99.477 0 00-1.241-5.103.449.449 0 00-.549-.31.44.44 0 00-.32.536 98.454 98.454 0 011.23 5.06.444.444 0 00.483.348zm-2.747-10.086a.37.37 0 00.094-.021.44.44 0 00.29-.554 92.734 92.734 0 00-1.802-4.94.452.452 0 00-.582-.247.439.439 0 00-.256.57 89.119 89.119 0 011.785 4.89.447.447 0 00.471.302zm-3.878-9.72a.44.44 0 00.364-.621 85.577 85.577 0 00-2.388-4.696.453.453 0 00-.608-.176.433.433 0 00-.183.594 83.933 83.933 0 012.363 4.649c.082.17.267.268.452.25zm-5.043-9.191a.445.445 0 00.192-.066.435.435 0 00.147-.604 82.12 82.12 0 00-2.973-4.366.455.455 0 00-.625-.1.433.433 0 00-.106.611 80.377 80.377 0 012.941 4.318c.089.15.257.224.424.207zm-6.197-8.487a.458.458 0 00.238-.096.432.432 0 00.064-.619 81.108 81.108 0 00-3.528-3.952.457.457 0 00-.635-.02.432.432 0 00-.023.62 78.827 78.827 0 013.488 3.909.46.46 0 00.396.158zm-7.272-7.63a.44.44 0 00.28-.137.432.432 0 00-.018-.622 84.261 84.261 0 00-4.023-3.471.458.458 0 00-.633.06.431.431 0 00.059.617 82.471 82.471 0 013.981 3.433.436.436 0 00.354.12zm-8.226-6.645a.446.446 0 00.317-.178.432.432 0 00-.099-.613 86.748 86.748 0 00-4.438-2.939.458.458 0 00-.621.136.433.433 0 00.135.606 84.95 84.95 0 014.391 2.91.48.48 0 00.315.078zm-122.45 9.9a.456.456 0 00.299-.156 63.223 63.223 0 013.588-3.848.432.432 0 000-.62.459.459 0 00-.636.003 63.316 63.316 0 00-3.637 3.902.43.43 0 00.055.617.435.435 0 00.331.103zM486.767 21.7a.451.451 0 00.347-.224.431.431 0 00-.175-.596 91.333 91.333 0 00-4.778-2.392.455.455 0 00-.6.208.432.432 0 00.21.584 90.23 90.23 0 014.728 2.368.483.483 0 00.268.052zm-105.899 8.033a.449.449 0 00.246-.105 69.894 69.894 0 014.173-3.24.43.43 0 00.097-.614.453.453 0 00-.628-.091 72.009 72.009 0 00-4.227 3.282.434.434 0 00-.049.62.46.46 0 00.388.148zm96.259-12.513a.456.456 0 00.371-.272.436.436 0 00-.246-.572 97.833 97.833 0 00-5.032-1.835.456.456 0 00-.573.272c-.081.23.044.48.277.558 1.68.56 3.356 1.172 4.983 1.818a.46.46 0 00.22.031zm-87.625 6.302a.453.453 0 00.192-.065 78.322 78.322 0 014.607-2.624.432.432 0 00.183-.595.452.452 0 00-.607-.176 80.417 80.417 0 00-4.66 2.656.434.434 0 00-.141.607.457.457 0 00.426.197zm77.51-9.677a.447.447 0 00.386-.319.431.431 0 00-.309-.54 101.375 101.375 0 00-5.211-1.279.449.449 0 00-.537.332.435.435 0 00.337.523c1.731.376 3.467.802 5.163 1.267.06.02.116.022.171.016zm-68.074 4.702a.5.5 0 00.139-.038 88.95 88.95 0 014.914-2.024.434.434 0 00.259-.567.447.447 0 00-.58-.25 90.816 90.816 0 00-4.965 2.046.433.433 0 00-.222.581.446.446 0 00.455.252zm57.638-6.976a.448.448 0 00.397-.362.437.437 0 00-.367-.506 103.052 103.052 0 00-5.323-.732.451.451 0 00-.5.388.438.438 0 00.395.486c1.761.195 3.537.441 5.276.725a.593.593 0 00.122.001zm-47.644 3.2a.562.562 0 00.092-.018 95.844 95.844 0 015.126-1.448.437.437 0 00.323-.535.445.445 0 00-.546-.313 95.9 95.9 0 00-5.174 1.462.436.436 0 00-.293.551.45.45 0 00.472.301zm37.015-4.386a.45.45 0 00.404-.409.444.444 0 00-.419-.466 104.913 104.913 0 00-5.371-.189.45.45 0 00-.457.435.442.442 0 00.443.443c1.769.019 3.561.08 5.325.188.023.003.049 0 .075-.002zm-26.639 1.758a103.348 103.348 0 015.3-.897.444.444 0 00.383-.498.446.446 0 00-.508-.371c-1.774.252-3.559.557-5.303.9a.442.442 0 00-.354.518c.04.22.251.372.482.348zm15.939-1.866a.448.448 0 00.404-.455.443.443 0 00-.466-.421c-1.784.07-3.588.19-5.365.351h-.006a.444.444 0 00-.403.478c.023.242.239.42.488.396a104.712 104.712 0 015.348-.35zM85.685 120.656a.563.563 0 00-.594-.652 37.85 37.85 0 00-3.421.373.568.568 0 00-.473.645c.047.307.338.52.645.473a36.682 36.682 0 013.32-.364.566.566 0 00.523-.475zm133.681 175.012a.565.565 0 00-1.049-.371 48.439 48.439 0 01-3.693 5.502.564.564 0 10.895.689 50.113 50.113 0 003.776-5.628.494.494 0 00.071-.192zm-8.15 10.608a.554.554 0 00-.162-.491.561.561 0 00-.798.005 54.221 54.221 0 01-4.946 4.419.564.564 0 10.7.887 55.776 55.776 0 005.049-4.509.593.593 0 00.157-.311zm-10.507 8.274a.565.565 0 00-.847-.575 50.884 50.884 0 01-5.885 3.039.566.566 0 00.451 1.036 52.061 52.061 0 006.018-3.106.563.563 0 00.263-.394zm-12.258 5.331a.565.565 0 00-.712-.631 49.364 49.364 0 01-6.477 1.375.563.563 0 00-.479.64c.043.31.33.526.64.479a50.486 50.486 0 006.623-1.407.57.57 0 00.405-.456zm-13.226 1.908a.564.564 0 00-.564-.655 54.855 54.855 0 01-6.62-.318.566.566 0 10-.121 1.126 56.25 56.25 0 006.756.324.568.568 0 00.549-.477zm-13.294-1.413a.568.568 0 00-.437-.642 69.16 69.16 0 01-6.41-1.751.565.565 0 00-.349 1.075 68.83 68.83 0 006.517 1.778.567.567 0 00.675-.431l.004-.029zm-12.741-4.113a.561.561 0 00-.339-.609 89.57 89.57 0 01-6.032-2.82.563.563 0 10-.515 1.003 92.11 92.11 0 006.108 2.859.568.568 0 00.778-.433zm-11.971-6.019a.563.563 0 00-.301-.591 64.032 64.032 0 00-6.166-2.772.564.564 0 00-.731.323.563.563 0 00.323.731 62.41 62.41 0 016.055 2.725.562.562 0 00.759-.245.55.55 0 00.061-.171zm-12.485-4.819a.565.565 0 00-.416-.635 58.916 58.916 0 00-5.695-1.205c-.31-.049-.624-.095-.934-.141a.567.567 0 00-.641.47l-.001.011a.56.56 0 00.478.638 57.047 57.047 0 016.501 1.318.57.57 0 00.692-.403c.01-.017.013-.035.016-.053zm-13.237-1.887a.567.567 0 00-.541-.656 57.176 57.176 0 00-6.762.243.562.562 0 00-.508.617c.027.311.305.54.616.509a55.768 55.768 0 016.628-.239.558.558 0 00.567-.474zm-8.24 46.136a.568.568 0 00-.458-.646.568.568 0 00-.656.457 52.581 52.581 0 01-1.56 6.44.566.566 0 101.079.339 53.048 53.048 0 001.594-6.583l.001-.007zm.785-6.653c.003-.018.006-.036.005-.055.137-2.22.16-4.496.06-6.761a.566.566 0 10-1.13.049 64.176 64.176 0 01-.06 6.643c-.02.31.218.581.529.597a.565.565 0 00.596-.473zm-4.83 19.39a.57.57 0 00-.308-.596.566.566 0 00-.758.26c-1.018 2.072-2.18 3.955-3.451 5.603a.565.565 0 00.895.689c1.317-1.703 2.519-3.654 3.57-5.795a.521.521 0 00.051-.161zm4.265-32.764a.504.504 0 00.001-.169 70.107 70.107 0 00-1.294-6.631.562.562 0 00-.685-.412.562.562 0 00-.412.684 68.49 68.49 0 011.275 6.524c.043.31.331.522.64.479a.573.573 0 00.475-.475zm-3.204-12.996a.568.568 0 00-.026-.278 70.554 70.554 0 00-2.548-6.254.565.565 0 10-1.025.476 68.256 68.256 0 012.508 6.155.564.564 0 001.091-.099zm-9.322 56.154a.572.572 0 00-.099-.422.568.568 0 00-.789-.125c-1.847 1.341-3.809 2.247-5.825 2.704a.57.57 0 00-.429.674c.07.303.372.496.675.426 2.169-.489 4.27-1.461 6.242-2.89a.556.556 0 00.225-.367zm7.234-67.998a.565.565 0 00-.68-.64 57.803 57.803 0 00-6.519 1.818.566.566 0 10.369 1.071 57.361 57.361 0 016.39-1.78.573.573 0 00.44-.469zm-3.55-.297a.573.573 0 00-.07-.373 72.47 72.47 0 00-3.68-5.659.565.565 0 10-.918.659 71.099 71.099 0 013.624 5.572.562.562 0 001.044-.199zm-16.357 71.045a.562.562 0 00-.43-.637c-1.973-.46-3.974-1.326-5.945-2.582a.566.566 0 10-.607.956c2.078 1.325 4.196 2.243 6.294 2.729a.566.566 0 00.688-.466zm7.254-66.41a.566.566 0 00-.806-.598 59.08 59.08 0 00-5.923 3.273.566.566 0 10.605.957 57.888 57.888 0 015.806-3.21.569.569 0 00.318-.422zm1.301-15.51a.573.573 0 00-.13-.46 77.328 77.328 0 00-4.636-4.903.566.566 0 00-.787.812 76.55 76.55 0 014.566 4.833c.203.236.56.263.796.057a.559.559 0 00.191-.339zm-19.86 75.04a.565.565 0 00-.159-.491 34.718 34.718 0 01-4.22-5.054.568.568 0 00-.785-.152.569.569 0 00-.151.785 35.687 35.687 0 004.356 5.221.565.565 0 00.958-.309zm7.252-52.378a.565.565 0 00-.916-.53 53.793 53.793 0 00-4.975 4.595.565.565 0 00.02.801.565.565 0 00.801-.019 53.076 53.076 0 014.87-4.498.575.575 0 00.2-.349zm3.005-31.989a.571.571 0 00-.2-.527 86.656 86.656 0 00-5.376-4.068.566.566 0 00-.647.927 84.78 84.78 0 015.306 4.017.566.566 0 00.916-.349zm-12.21 41.687a.564.564 0 00-1.015-.421 44.395 44.395 0 00-3.54 5.785.565.565 0 101.009.512 43.626 43.626 0 013.449-5.641.539.539 0 00.097-.235zm-5.471 31.632a.587.587 0 00-.03-.296 27.848 27.848 0 01-1.659-6.341.563.563 0 00-.636-.482.562.562 0 00-.482.636 29.035 29.035 0 001.725 6.599.565.565 0 001.082-.116zm-.535-19.718a.567.567 0 00-1.102-.25 33.933 33.933 0 00-1.32 6.675.565.565 0 001.125.102c.196-2.13.625-4.307 1.277-6.449.008-.028.016-.053.02-.078zm7.242-61.27a.562.562 0 00-.27-.575 102.877 102.877 0 00-5.906-3.241.568.568 0 00-.76.248.568.568 0 00.248.76c2 1.01 3.963 2.088 5.838 3.204a.56.56 0 00.774-.198.472.472 0 00.076-.198zm-11.812-6.318a.562.562 0 00-.277-.58 71.691 71.691 0 01-5.612-3.559.565.565 0 00-.65.923 72.62 72.62 0 005.7 3.613.566.566 0 00.839-.397zm21.364-147.725a.568.568 0 00-.735-.627 48.942 48.942 0 00-6.27 2.56.563.563 0 00-.258.757c.136.28.476.397.757.257a47.93 47.93 0 016.125-2.502.557.557 0 00.381-.445zM43.502 262.619a.56.56 0 00-.19-.518 62.353 62.353 0 01-4.79-4.595.564.564 0 00-.797-.024.568.568 0 00-.028.798 64.612 64.612 0 004.876 4.675.566.566 0 00.796-.058.516.516 0 00.133-.278zM63.78 128.433a.566.566 0 00-.867-.563 67.999 67.999 0 00-5.48 3.953.566.566 0 00.704.885 64.883 64.883 0 015.39-3.887.568.568 0 00.253-.388zm-10.476 8.335a.557.557 0 00-.15-.478.56.56 0 00-.798-.017 87.095 87.095 0 00-4.693 4.847.564.564 0 00.84.755 86.124 86.124 0 014.63-4.783.568.568 0 00.17-.324zM34.363 252.857a.567.567 0 00-.106-.427 60.709 60.709 0 01-3.68-5.519.566.566 0 00-.774-.201.566.566 0 00-.2.773 60.872 60.872 0 003.748 5.622.565.565 0 001.012-.248zm9.98-106.124a.565.565 0 00-1-.437 104.458 104.458 0 00-3.96 5.456.565.565 0 10.937.633 102.186 102.186 0 013.916-5.396.598.598 0 00.108-.256zm-16.778 94.604a.546.546 0 00-.044-.322 64.858 64.858 0 01-2.416-6.181.563.563 0 00-.715-.358.563.563 0 00-.358.715 65.212 65.212 0 002.457 6.291.57.57 0 00.75.283.57.57 0 00.326-.428zm9.257-83.515a.566.566 0 00-1.044-.377 111.556 111.556 0 00-3.25 5.901.56.56 0 00.244.759.564.564 0 00.76-.244 111.874 111.874 0 013.218-5.84.53.53 0 00.072-.199zm-13.488 70.823a.619.619 0 00-.006-.215 73.173 73.173 0 01-1.168-6.548.563.563 0 00-.635-.485.563.563 0 00-.486.635 75.505 75.505 0 001.184 6.65c.07.303.372.495.675.425a.558.558 0 00.436-.462zm7.37-58.901a.564.564 0 00-.331-.607.564.564 0 00-.744.288c-.904 2.05-1.76 4.148-2.54 6.24a.565.565 0 101.06.398 118.664 118.664 0 012.511-6.182.475.475 0 00.044-.137zm-9.14 45.627a.654.654 0 00.007-.117 85.96 85.96 0 01-.049-6.661.564.564 0 10-1.128-.036 88.224 88.224 0 00.05 6.75c.012.312.28.554.59.537a.558.558 0 00.53-.473zm4.458-33.069a.563.563 0 00-1.098-.253 108.144 108.144 0 00-1.776 6.502.567.567 0 00.415.684.567.567 0 00.683-.416 111.851 111.851 0 011.759-6.435.707.707 0 00.017-.082zm-4.053 19.673l.005-.032c.227-2.184.537-4.406.917-6.602a.564.564 0 00-.46-.654.564.564 0 00-.654.461c-.385 2.225-.7 4.472-.93 6.678a.563.563 0 00.504.619.56.56 0 00.618-.47zM223.07 286.19a.565.565 0 10-1.117-.179c-.156.977-.43 2.048-.819 3.19a.566.566 0 101.072.364c.406-1.203.698-2.338.864-3.375z" fill="#2E2E46"/></svg>