<svg width="635" height="441" fill="none" xmlns="http://www.w3.org/2000/svg"><path d="M126.398 529.602c-93.556-93.556-93.556-245.24 0-338.795 93.556-93.556 245.24-93.556 338.795 0 93.556 93.556 93.556 245.239 0 338.795-93.555 93.556-245.239 93.556-338.795 0z" fill="#FFA982"/><path d="M274.426 121.539c-.967.622-1.992 1.267-3.068 1.923-.098-.679-50.489 15.269-55.653 17.63-14.947 6.84-24.124 9.293-7.727 14.48-7.128-2.257-23.214 41.541-34.528 39.728-11.003-1.768-14.244 10.611-17.163 19.121-1.543 4.508-6.357 7.139-4.555 12.562.57 1.722 8.429 5.257 7.831 6.397-3.299 6.276-18.332 6.996-18.419 16.219 1.451 2.315 3.656 3.426 6.616 3.34 6.966 2.815.368 8.446-.968 12.804-3.224 10.52-13.294 19.864-20.583 7.894-7.329-12.033 9.448-23.813-.725-36.088-5.965-7.197-21.914 5.711-18.131-8.038 1.082-3.938 17.664-21.343 8.475-23.905-.443-.127-.754-1.025-.944-2.505 27.262-31.448 63.074-56.2 105.444-70.26 17.929-5.959 36.06-9.672 54.098-11.302zM82.56 250.998c1.164-2.268 13.001 10.761 15.454 12.114 8.971 4.946 10.934-4.813 18.459 5.493 1.324 1.814 14.941 19.898 15.016 17.872-.248 6.707 2.527 13.357-.703 19.8-2.896 5.775 3.915 11.008 3.501 17.1-.541 7.997 6.777 13.444 4.928 21.407-1.6 6.909-5.757 11.941-5.769 19.305-.017 11.711 2.108 17.042-7.3 25.431-6.051 5.395-13.922 24.032-24.551 13.53-1.951-1.929-21.366-17.48-20.22-18.695-6.892 7.324-.824 2.522-10.623 2.067-2.654-.126 1.98 67.387 6.034 65.838-.645.248-1.4.184-2.245-.149a243.503 243.503 0 01-6.132-16.45C47.353 372.19 54.314 306.167 82.56 250.998zm112.164 224.35c-.075-6.903 12.839-13.34 19.835-13.052 14.998.61 18.971-4.244 32.91-7.836 11.7-3.017 9.897-22.944 27.66-23.802 9.459-.461 27.296-26.18 36.623-18.488 6.173 5.09 18.062-8.573 22.207-8.625 9.569-.115 1.831 5.568 8.084-1.56 4.117-4.687 15.419 5.176 17.802 7.974 4.624 5.412 24.764-2.712 27.907-10.484 1.112-2.752-5.331-13.818-.535-21.695 1.842-3.028 15.183-.806 17.25-2.821 2.781-2.712-7.146-12.678-6.029-14.751 4.658-8.636 19.945 13.024 26.612-4.404 5.418-14.17-1.641-19.49-3.04-33.147-.656-6.425-11.596-9.569-16.899-7.243-8.503 3.737-7.363.253-13.806-.449-5.09-.553-10.496 5.216-15.407 6.063-5.793 1.002-1.826 17.255-7.29 21.147-3.172 2.257-3.097-21.861-3.304-22.443-3.466-9.776-18.615-8.889-21.033-17.1-5.959-20.226-19.668-18.712-36.249-25.851-7.906-3.403-27.453-7.353-32.398-15.102-9.218-14.452 15.01-36.008 21.331-46.193.075-.121 5.603 6.229 6.881 6.281 4.698.196 9.056-26.277 18.05-11.077 1.716 2.896 8.296 3.759 4.623 8.031-7.174 8.343 6.725 10.341 11.055 9.155 4.393-1.203 25.966-13.697 18.384-20.664-15.465-14.215-18.977-6.857-35.03-6.926-18.401-.081-19.069 17.221-34.286-1.284-4.209-5.119 23.29-19.749 17.86-26.238-19.207-22.949-29.778 28.017-36.981 36.86-10.525 12.926-17.301 6.109-16.466-8.158.397-6.719-13.905-12.978-14.884-20.232-.201-1.48 9.218-14.855 10.617-15.753 4.963-3.195 6.109-6.558 8.66-9.736 3.212-4.007 8.25 1.992 11.117-1.589 1.325-1.658 25.466-.731 28.04-.702 12.684-.484 26.882-.064 39.664.132 5.245-.202 33.002 13.363 33.739 2.263.363-5.505-6.235-15.171 5.55-10.709 3.772 1.428 6.155-.674 5.395-.829 8.136 1.658 23.347 7.335 29.865 13.184 3.61 3.242-5.038 4.739-5.631 7.52-1.14 5.36 12.367 15.338 15.39 18.81 10.744 12.379 10.26 28.851 24.735 40.89 16.714 13.905 17.646 34.24 17.808 53.396.08 9.298 8.049 13.213 3.017 23.733-4.296 8.976-12.281 13.277-13.611 24.176-.875 7.156 4.732 13.8 2.026 20.767-3.333 8.573-9.672 16.185-17.439 20.261-16.565 8.694-27.406 15.212-38.023 31.143-13.168 19.748-36.63 11.129-28.944 31.062 3.236 8.4 11.487 12.39 14.866 21.36 4.048 10.756-3.731 18.528-8.734 27.257-5.038 8.792-6.903 19.34-15.729 25.327-6.322 4.29-17.837 7.854-19.467 16.571-2.591 13.87 9.12 31.206 7.877 43.901-.841 8.545-.997 17.331-8.43 22.904-13.392 10.041-10.214-3.956-18.533-10.571-7.802-6.207-17.002-4.37-25.915-6.84-8.176-2.269 1.566-5.268-1.745-7.128-7.018-3.944-11.181 1.975-17.871-4.03-6.092-5.476-14.336-7.036-17.175-15.586-4.641-13.991-25.731-8.867-34.517-19.743-5.418-6.702-7.767-13.835-10.196-21.953-2.994-9.995-17.728-14.573-17.843-25.374-.081-7.226.075 7.22 0 0z" fill="#E24949"/><path d="M333.359 99.322c2.264 3.994 25 38.87 20.24 72.984l-24.743-8.862-11.308-45.982 15.811-18.14z" fill="#FFA982"/><path d="M234.553 85.027s15.205-27.002 52.208-19.54c37.008 7.467 57.201 59.922 47.168 163.824 0 0-58.793-23.147-135.235-4.49 0 .005 12.581-100.621 35.859-139.794z" fill="#42A9D1"/><path d="M206.328 74.116l26.013 25.719s66.689 17.846 85.207 17.631c18.523-.214 25.812-13.622 25.812-13.622s-15.634-24.52-47.265-35.608a93.201 93.201 0 00-9.334-2.744c-5.46-1.297-11.014-2.044-16.525-2.37-32.738-1.933-63.908 10.994-63.908 10.994z" fill="#42A9D1"/><path d="M206.329 74.116c-4.159 4.475 2.254 9.366 9.436 16.47 7.182 7.102 14.602 11.241 16.572 9.249 1.969-1.993-2.254-9.366-9.437-16.47-7.182-7.102-14.663-11.302-16.571-9.249z" fill="#2E2E46"/><path d="M228.879 99.938s.387-5.139-6.133-11.695c-3.924-3.949-8.894-6.53-12.227-7.962a3.812 3.812 0 00-5.058 2.114l-2.086 5.325 9.711 6.193 15.793 6.025z" fill="#FFA982"/><path d="M274.847 195.196s-80.251-43.07-109.012 3.916c-21.295 34.777 10.715 67.169 129.434 63.879 0 0 11.732-5.441 8.876-33.671-1.134-11.191-29.298-34.124-29.298-34.124z" fill="#000"/><path d="M274.847 195.197s106.879-43.36 128.029-16.255c24.305 31.151.999 84.045-111.663 65.135l-13.73-14.766-2.636-34.114z" fill="#000"/><path d="M304.826 237.081s19.699.794 28.948 5.288c9.255 4.494 4.312 15.466-14.476 15.172-18.789-.294-17.361-3.062-17.361-3.062s3.57-9.632 2.889-17.398z" fill="#2E2E46"/><path d="M295.395 263.169c13.179-9.315 9.011-33.653 8.964-33.895l-.023-.126-.121-.042-81.133-29.243-.154.42 81.011 29.201c.308 1.908 3.655 24.519-8.806 33.325l.262.36z" fill="#020202"/><path d="M279.611 197.259c6.525 0 11.882-1.633 16.227-4.881 8.204-6.132 9.73-15.905 8.54-22.41l-7.849-4.522c-.392-2.133-15.541 5.796-15.513 5.786-.07.024-7.229 2.077-32.061-10.491-17.286-8.75-25.999-21.164-26.633-37.955-.481-12.661 5.217-19.768 6.561-22.853.178-.41-8.353-8.881-8.111-9.744l-6.398-3.22c.205-.728-6.151-3.211-6.057-3.417l-4.938 4.163c-2.436 5.582-7.616 18.392-6.949 36.047.696 18.34 8.34 43.653 40.825 60.09 17.711 8.974 31.609 13.407 42.356 13.407z" fill="#FFA982"/><path d="M284.88 198.291h69.256a3.37 3.37 0 003.197-2.269l14.392-42.566c.723-2.142-.896-4.354-3.197-4.354h-66.6c-3.033 0-5.731 1.914-6.687 4.746l-13.553 40.088c-.728 2.142.896 4.355 3.192 4.355z" fill="#C4C4C4"/><path d="M289.225 198.291h69.256c1.451 0 2.739-.915 3.196-2.269l14.393-42.566c.723-2.142-.896-4.354-3.197-4.354h-66.6c-3.033 0-5.731 1.914-6.687 4.746l-13.553 40.088c-.723 2.142.896 4.355 3.192 4.355z" fill="#C4C4C4"/><path d="M337.755 172.306c0-1.615-1.88-2.273-3.528-2.273-1.642 0-4.326 1.773-4.307 4.037.018 2.445 1.946 2.763 3.589 2.763 1.642-.005 4.246-2.474 4.246-4.527z" fill="#DEEBE9"/><path d="M263.726 192.275h94.792v6.016h-96.752a2.025 2.025 0 01-2.026-2.026 3.987 3.987 0 013.986-3.99z" fill="#C4C4C4"/><path d="M294.149 170.621c.032-.126 3.43-12.745 5.632-16.665 2.17-3.864 4.84-4.63 4.868-4.639l-.117-.434c-.116.033-2.879.821-5.143 4.849-2.226 3.971-5.534 16.25-5.674 16.768l.434.121zm-10.235 21.878c2.567 0 3.206-1.125 3.23-1.171l.014-.033 5.399-15.965-.425-.145-5.39 15.942c-.07.107-.7.929-2.828.929v.443z" fill="#2E2E46"/><path d="M217.356 160.359c.397 0 .77-.094 1.106-.285 1.694-.98 1.648-4.13-.107-7.168-.812-1.41-1.872-2.567-2.978-3.272-1.194-.756-2.324-.9-3.178-.41-1.694.98-1.647 4.13.108 7.168 1.409 2.445 3.43 3.967 5.049 3.967zm-4.046-10.524c.462 0 1.013.187 1.591.555.99.626 1.937 1.676 2.679 2.959 1.456 2.52 1.657 5.246.434 5.946-1.218.704-3.477-.831-4.933-3.351s-1.652-5.246-.434-5.946c.192-.107.416-.163.663-.163z" fill="#F18C7E"/><path d="M269.667 63.056c4.55-.131 8.003-.598 10.617-3.645l8.101-9.436 2.357-2.75 13.865-16.151-7.28 18.887-4.373 11.335-1.382 3.589c-.938 2.436.304 3.57 1.177 6.422.354 1.152 2.744 8.26-3.482 8.302-7.756.056-17.561-8.872-19.717-16.581a.35.35 0 00.117.028z" fill="#FFA982"/><path d="M286.136 43.913s-15.265-14.528-6.459-26.793c8.806-12.264 11.009 19.685 11.009 19.685l-2.46 7.383-2.09-.276zm2.328 5.735a3.468 3.468 0 00-.074.327c-1.419 6.37 4.517 11.345 4.517 11.345l.051-.024 4.373-11.335c-1.857-1.377-4.592-3.043-6.585-2.735-1.04.163-1.876.863-2.282 2.422z" fill="#2E2E46"/><path d="M320.782 41.756c3.444-11.354-1.4-22.877-10.818-25.728-9.417-2.856-19.843 4.037-23.282 15.391-3.444 11.355 1.4 22.877 10.817 25.733 9.413 2.847 19.839-4.041 23.283-15.396z" fill="#FFA982"/><path d="M289.907 29.777s4.862 3.5 8.936.541c4.075-2.959 6.959-5.764 16.082-1.218 9.124 4.545 19.111 2.506 20.959-2.614 1.843-5.119-2.501-9.044-8.232-8.787-5.731.252 1.213-2.856-2.772-8.242-3.986-5.38-14.099.164-19.111-2.506-5.012-2.67-22.872-4.984-26.083 10.165l10.221 12.66z" fill="#2E2E46"/><path d="M286.089 32.81c1.171 1.792 3.421 2.394 5.021 1.349 1.601-1.046 1.951-3.351.775-5.143-1.171-1.792-3.421-2.394-5.021-1.349-1.596 1.05-1.946 3.35-.775 5.143z" fill="#FFA982"/><path d="M325.799 24.713c.34 0 .667-.037.98-.116 2.053-.514 2.627-1.582 2.483-2.404-.168-.947-1.326-1.857-3.155-1.67-2.721.275-4.21-.63-4.224-.64l-.354.56c.065.042 1.675 1.04 4.648.742 1.358-.135 2.319.476 2.431 1.125.117.677-.644 1.306-1.993 1.647-3.514.882-9.58-4.527-9.646-4.583l-.443.495c.243.215 5.441 4.844 9.273 4.844zm-15.76-12.684c3.701 0 7.028-1.587 7.318-1.918l-.5-.44.252.22-.233-.238c-.341.285-5.768 2.884-10.412 1.083-1.554-.602-2.916-1.316-4.232-2.007-2.698-1.414-5.031-2.632-7.691-2.119l.126.654c2.431-.472 4.671.7 7.257 2.058 1.334.7 2.711 1.419 4.302 2.035 1.237.485 2.548.672 3.813.672zm-25.752 4.302c.981 0 2.796-1.516 3.272-2.473.345-.705-.009-1.027-.182-1.13-1.335-.83-3.267 1.77-3.64 2.301l-.033.047-.014.056c-.219.808.126 1.069.35 1.158a.67.67 0 00.247.041zm2.511-3.098c.084 0 .159.018.224.06.033.061-.032.42-.709 1.097-.901.905-1.839 1.344-2.044 1.279.004-.005-.014-.089.037-.308.686-.948 1.834-2.128 2.492-2.128z" fill="#fff"/><path d="M179.102 226.207a7.481 7.481 0 003.752-.994c1.956-1.129 3.281-3.07 3.729-5.474.443-2.375-.023-4.914-1.316-7.154-2.683-4.648-8.129-6.543-12.143-4.223-4.013 2.319-5.096 7.984-2.413 12.628 1.293 2.24 3.262 3.915 5.54 4.718a8.558 8.558 0 002.851.499zm-2.221-17.944c2.879 0 5.875 1.755 7.616 4.765 1.185 2.054 1.615 4.378 1.209 6.543-.402 2.138-1.573 3.864-3.3 4.863-1.726.994-3.808 1.148-5.861.425-2.077-.733-3.874-2.268-5.059-4.322-2.436-4.219-1.498-9.333 2.086-11.405a6.597 6.597 0 013.309-.869z" fill="#2E2E46"/><path d="M307.15 37.145a.36.36 0 00.126-.672c-.102-.056-2.356-1.605-4.769.444a.363.363 0 00-.051.508c.126.155.331.14.508.052 1.788-.896 3.878-.42 3.962-.373.07.041.15.05.224.041zm-3.336 3.575c-.136.85.252 1.62.872 1.722.616.098 1.228-.508 1.363-1.362.135-.85-.252-1.62-.873-1.718-.616-.102-1.222.509-1.362 1.358zm15.956.957a.263.263 0 00.252-.084.435.435 0 00.074-.504c-.051-.089-1.101-2.263-3.528-1.139-.154.07-.252.271-.215.458.033.186.182.238.341.214 1.578-.256 2.889.868 2.931.943.037.06.089.098.145.112zm-4.527 2.016c-.453.733-.383 1.596.149 1.923.532.326 1.33-.005 1.783-.738.448-.732.382-1.596-.15-1.922-.536-.332-1.334 0-1.782.737z" fill="#060633"/><path d="M304.91 52.742c1.27 0 2.161-.22 2.184-.224a.253.253 0 10-.126-.49c-.247.065-6.127 1.484-9.021-3.58a.252.252 0 10-.438.252c1.95 3.407 5.227 4.042 7.401 4.042z" fill="#020202"/><path d="M296.995 49.583a.244.244 0 00.238-.173c.117-.35.458-.877 1.438-1.433a.468.468 0 01.074-.042.249.249 0 00.07-.35.248.248 0 00-.345-.07l-.047.028c-.896.509-1.456 1.087-1.661 1.713a.252.252 0 00.159.317c.023.01.046.01.074.01z" fill="#020202"/><path d="M292.711 88.163l.033-1.115c-19.885-.565-27.058-17.613-27.128-17.785l-1.036.42c.074.182 1.88 4.54 6.253 9.03 4.042 4.14 11.117 9.147 21.878 9.45z" fill="#2E2E46"/><path d="M283.242 97.711l.588-.947c-.102-.066-10.248-6.506-11.559-18.028l-1.111.126c1.372 12.068 11.975 18.78 12.082 18.85zm42.392 5.113l4.085 12.309-1.059.351-4.085-12.309 1.059-.351z" fill="#2E2E46"/><path d="M317.273 55.864c.242 0 .49-.018.742-.051 2.674-.36 5.45-2.6 7.434-5.997 3.225-5.526 3.369-12.456.322-15.447-1.13-1.106-2.572-1.582-4.172-1.368-2.674.36-5.451 2.6-7.435 5.997-3.224 5.526-3.369 12.456-.322 15.447.952.934 2.128 1.42 3.431 1.42zm5.058-22.158c1.106 0 2.105.41 2.912 1.2 2.819 2.767 2.619 9.282-.443 14.532-1.867 3.197-4.438 5.301-6.888 5.633-1.363.182-2.586-.22-3.547-1.158-2.819-2.767-2.618-9.286.443-14.532 1.867-3.197 4.439-5.301 6.889-5.633.214-.028.424-.042.634-.042z" fill="#E24949"/><path opacity=".3" d="M296.015 30.883c-2.608 5.497-1.89 12.18 1.61 14.934 3.501 2.753 8.452.527 11.061-4.966 2.609-5.497 1.89-12.18-1.61-14.934-3.5-2.753-8.452-.527-11.061 4.966zm17.888 8.563c-2.618 5.521-2.263 12.223.789 14.967 3.057 2.744 7.658.49 10.276-5.031 2.618-5.521 2.264-12.222-.789-14.967-3.056-2.744-7.658-.49-10.276 5.031z" fill="#fff"/><path d="M301.546 47.296a6.76 6.76 0 001.54-.182c2.795-.663 5.343-3 6.981-6.412 2.819-5.867 1.965-13.072-1.899-16.064-1.559-1.208-3.407-1.605-5.339-1.148-2.795.663-5.343 3.001-6.982 6.413-2.818 5.866-1.964 13.071 1.9 16.063 1.139.882 2.431 1.33 3.799 1.33zm2.814-23.236c1.204 0 2.342.396 3.346 1.171 3.603 2.786 4.359 9.581 1.685 15.144-1.517 3.16-3.939 5.404-6.478 6.006-1.703.401-3.332.056-4.709-1.008-3.603-2.786-4.359-9.58-1.685-15.144 1.517-3.16 3.939-5.404 6.478-6.006a5.754 5.754 0 011.363-.163z" fill="#E24949"/><path d="M314.347 41.798a.698.698 0 00.555-1.125c-.075-.097-1.895-2.398-5.778-2.496a.696.696 0 00-.718.681c-.01.388.294.71.681.719 3.183.08 4.644 1.88 4.704 1.955a.73.73 0 00.556.266z" fill="#E24949"/><path d="M345.505 136.407c.202 0 .4-.088.537-.26a87.776 87.776 0 012.578-3.137.683.683 0 10-1.034-.893 87.155 87.155 0 00-2.618 3.185.687.687 0 00.114.96.678.678 0 00.423.145zm93.287 304.448a.681.681 0 00.009-1.36 253.06 253.06 0 01-8.105-.211.681.681 0 00-.708.651.676.676 0 00.651.708c2.732.115 5.473.185 8.149.212h.004zm8.127-.062h.017a223.14 223.14 0 008.149-.348.682.682 0 00.638-.721.682.682 0 00-.722-.638c-2.657.163-5.381.281-8.096.347a.68.68 0 00.014 1.36zm-24.367-.62a.683.683 0 00.048-1.364 271.897 271.897 0 01-8.078-.709.68.68 0 10-.141 1.355 289.215 289.215 0 008.171.718zm40.593-.383c.022 0 .044 0 .071-.005 2.723-.272 5.447-.602 8.096-.981a.684.684 0 00.581-.77.686.686 0 00-.77-.581c-2.632.374-5.338.705-8.044.973a.687.687 0 00-.611.748c.035.356.33.616.677.616zm-56.763-1.263a.682.682 0 00.084-1.359 300.743 300.743 0 01-8.03-1.153.684.684 0 00-.779.567.682.682 0 00.568.779c2.692.422 5.407.81 8.065 1.157.03.009.061.009.092.009zm72.854-1.034c.04 0 .084-.004.128-.013a178.953 178.953 0 007.981-1.69.68.68 0 00-.312-1.324 175.14 175.14 0 01-7.92 1.676.685.685 0 00-.546.797.683.683 0 00.669.554zm-88.918-1.478a.68.68 0 00.119-1.351 340.278 340.278 0 01-7.964-1.553.678.678 0 00-.805.528.68.68 0 00.528.805c2.662.554 5.35 1.078 7.994 1.562.044.004.088.009.128.009zm104.731-2.262a.73.73 0 00.19-.026 158.59 158.59 0 007.779-2.464.682.682 0 10-.445-1.289 151.722 151.722 0 01-7.713 2.442.682.682 0 00.189 1.337zm-120.65-1.043a.683.683 0 00.154-1.346 371.849 371.849 0 01-7.885-1.923.69.69 0 00-.831.493.686.686 0 00.493.832c2.626.673 5.288 1.324 7.915 1.931a.85.85 0 00.154.013zm-15.752-4.03a.681.681 0 00.185-1.338 353.98 353.98 0 01-7.788-2.279.68.68 0 10-.396 1.303c2.583.787 5.214 1.557 7.819 2.288a.637.637 0 00.18.026zm151.758-.246a.706.706 0 00.26-.053 144.987 144.987 0 007.471-3.296.683.683 0 00-.59-1.232 143.82 143.82 0 01-7.401 3.265.685.685 0 00.26 1.316zm-167.316-4.497a.682.682 0 00.211-1.329c-2.6-.858-5.183-1.747-7.677-2.64a.68.68 0 00-.872.414.68.68 0 00.414.871c2.504.898 5.099 1.786 7.709 2.649a.636.636 0 00.215.035zm181.981-2.482a.67.67 0 00.326-.083 138.03 138.03 0 007.035-4.145.682.682 0 10-.73-1.153 137.043 137.043 0 01-6.965 4.105.68.68 0 00-.269.924.702.702 0 00.603.352zm13.741-8.667c.136 0 .277-.04.396-.128 2.2-1.58 4.378-3.252 6.481-4.968a.684.684 0 00.097-.959.684.684 0 00-.959-.097 134.053 134.053 0 01-6.415 4.92.681.681 0 00.4 1.232zm12.579-10.27c.167 0 .33-.061.462-.18a136.011 136.011 0 005.83-5.716.68.68 0 10-.985-.941 138.79 138.79 0 01-5.769 5.662.683.683 0 00-.039.964.702.702 0 00.501.211zm11.233-11.73a.695.695 0 00.524-.242 116.658 116.658 0 005.042-6.433.681.681 0 00-1.1-.801 117.834 117.834 0 01-4.98 6.358.68.68 0 00.514 1.118zm9.535-13.138a.677.677 0 00.581-.326 99.234 99.234 0 004.004-7.132.68.68 0 00-.3-.915.678.678 0 00-.915.299 98.579 98.579 0 01-3.951 7.035.68.68 0 00.581 1.039zm7.343-14.476a.69.69 0 00.634-.427 91.493 91.493 0 002.715-7.722.682.682 0 10-1.307-.391 90.422 90.422 0 01-2.671 7.603.683.683 0 00.629.937zm4.669-15.545a.685.685 0 00.668-.545 86.828 86.828 0 001.232-8.096.68.68 0 10-1.355-.141 85.959 85.959 0 01-1.214 7.968.682.682 0 00.532.805c.049.005.093.009.137.009zm1.676-16.139a.684.684 0 00.682-.677c0-.242.004-.484.004-.722 0-2.473-.11-4.981-.321-7.458a.682.682 0 10-1.359.119c.211 2.437.316 4.906.316 7.339 0 .238 0 .475-.004.713a.677.677 0 00.678.686h.004zm-1.386-16.17a.683.683 0 00.673-.805 91.644 91.644 0 00-1.812-7.981.68.68 0 00-.841-.475.68.68 0 00-.475.84 88.606 88.606 0 011.786 7.863c.062.33.348.558.669.558zm-57.604-.039c1.862 0 3.749-.119 5.619-.352a.686.686 0 00.594-.761.685.685 0 00-.761-.594c-2.662.33-5.359.422-7.986.264a.683.683 0 00-.084 1.364c.867.052 1.747.079 2.618.079zm-10.59-1.347a.686.686 0 00.66-.506.675.675 0 00-.484-.831 35.331 35.331 0 01-7.423-2.869.68.68 0 00-.92.286.68.68 0 00.286.92 36.84 36.84 0 007.709 2.979.778.778 0 00.172.021zm24.063-.699a.62.62 0 00.198-.031c2.6-.796 5.17-1.826 7.638-3.058a.677.677 0 00.304-.915.681.681 0 00-.915-.304 48.236 48.236 0 01-7.432 2.975.683.683 0 00-.453.853c.097.291.365.48.66.48zm-38.257-6.877a.685.685 0 00.466-1.184 26.313 26.313 0 01-4.941-6.146.683.683 0 10-1.179.686 27.746 27.746 0 005.196 6.463.66.66 0 00.458.181zm52.737-.335a.664.664 0 00.396-.127 55.516 55.516 0 006.296-5.28.681.681 0 10-.95-.977 54.138 54.138 0 01-6.138 5.152.683.683 0 00-.158.951.672.672 0 00.554.281zm25.352-6.353a.681.681 0 00.638-.92 93.248 93.248 0 00-3.19-7.537.683.683 0 10-1.232.59 94.29 94.29 0 013.146 7.427c.102.268.361.44.638.44zm-13.732-4.915a.677.677 0 00.537-.264 66.272 66.272 0 004.611-6.784.68.68 0 10-1.17-.696 64.257 64.257 0 01-4.515 6.644.68.68 0 00.537 1.1zm-72.348-2.248a.561.561 0 00.146-.018.676.676 0 00.519-.809 27.93 27.93 0 01-.629-5.958c0-.638.022-1.285.061-1.927a.68.68 0 10-1.359-.084 30.95 30.95 0 00-.062 2.016c0 2.142.22 4.246.66 6.247a.68.68 0 00.664.533zm79.111-7.502a.677.677 0 00.585-1.025 92.952 92.952 0 00-4.448-6.873.68.68 0 00-.951-.158.678.678 0 00-.158.95 91.057 91.057 0 014.382 6.772.686.686 0 00.59.334zm1.531-4.171c.26 0 .51-.15.62-.401a82.117 82.117 0 002.984-7.625.681.681 0 00-1.29-.435 81.034 81.034 0 01-2.934 7.497.683.683 0 00.62.964zm-79.788-4.387a.683.683 0 00.655-.493 56.564 56.564 0 012.794-7.515.679.679 0 10-1.236-.567 58.434 58.434 0 00-2.864 7.704.68.68 0 00.651.871zm68.832-4.664a.678.678 0 00.445-.163.687.687 0 00.074-.963 83.958 83.958 0 00-5.636-5.949.68.68 0 10-.941.986 82.361 82.361 0 015.543 5.852.665.665 0 00.515.237zm16.161-6.314a.68.68 0 00.66-.519 106.24 106.24 0 001.615-8.012.68.68 0 00-.563-.783.68.68 0 00-.783.563c-.44 2.701-.977 5.363-1.598 7.907a.682.682 0 00.502.822.569.569 0 00.167.022zM501.79 261.8a.683.683 0 00.554-.286c1.611-2.253 3.415-4.215 5.364-5.839a.679.679 0 00.088-.959.68.68 0 00-.959-.088c-2.037 1.694-3.921 3.744-5.601 6.094-.22.308-.15.73.158.95.119.084.26.128.396.128zm50.221-1.206a.68.68 0 00.413-1.223 65.465 65.465 0 00-6.811-4.585.683.683 0 00-.686 1.18 64.317 64.317 0 016.666 4.487.717.717 0 00.418.141zm-14.036-8.087a.684.684 0 00.246-1.32c-2.666-1.043-5.332-1.804-7.928-2.266a.683.683 0 00-.242 1.342c2.503.445 5.086 1.184 7.669 2.196a.76.76 0 00.255.048zm-23.768-.84a.748.748 0 00.255-.049c2.406-.972 4.989-1.57 7.678-1.782a.683.683 0 00-.11-1.359c-2.83.22-5.549.853-8.083 1.879a.682.682 0 00-.378.888c.114.26.369.423.638.423zm68.366-2.209a.682.682 0 00.677-.616c.251-2.644.431-5.381.533-8.144a.68.68 0 10-1.36-.049 142.184 142.184 0 01-.524 8.065.682.682 0 00.616.744c.014-.004.036 0 .058 0zm.602-16.227h.014a.675.675 0 00.668-.691 179.358 179.358 0 00-.321-8.153.68.68 0 10-1.359.084c.171 2.737.277 5.456.321 8.087a.68.68 0 00.677.673zm-1.003-16.222c.027 0 .049 0 .075-.005a.684.684 0 00.607-.752c-.29-2.719-.651-5.438-1.073-8.087a.683.683 0 00-1.347.211c.418 2.627.779 5.324 1.065 8.017.035.356.33.616.673.616zm-2.565-16.029a.554.554 0 00.145-.018.682.682 0 00.524-.809 148.044 148.044 0 00-1.945-7.925.683.683 0 00-1.316.365c.709 2.566 1.36 5.206 1.928 7.846.07.321.352.541.664.541zm-4.33-15.646a.686.686 0 00.647-.902 134.599 134.599 0 00-2.868-7.639.68.68 0 00-1.259.52 131.64 131.64 0 012.838 7.563.686.686 0 00.642.458zm-6.168-15.013a.683.683 0 00.616-.981 129.843 129.843 0 00-3.802-7.225.683.683 0 00-.928-.255.682.682 0 00-.255.928c1.32 2.324 2.587 4.73 3.762 7.146.11.246.352.387.607.387zm-8.021-14.111a.68.68 0 00.567-1.055 125.805 125.805 0 00-4.703-6.675.682.682 0 10-1.087.823 122.984 122.984 0 014.651 6.599.691.691 0 00.572.308zm-9.777-12.957a.684.684 0 00.515-1.131 130.054 130.054 0 00-5.526-6.01.681.681 0 10-.973.954 126.23 126.23 0 015.469 5.945.653.653 0 00.515.242zm-11.369-11.59a.667.667 0 00.506-.224.684.684 0 00-.053-.964 132.642 132.642 0 00-6.235-5.253.684.684 0 00-.959.11.684.684 0 00.11.959 130.422 130.422 0 016.169 5.201.717.717 0 00.462.171zm-186.271-4.329a.682.682 0 00.475-.194 96.082 96.082 0 016.015-5.372.682.682 0 00-.862-1.056 96.374 96.374 0 00-6.099 5.447.682.682 0 00-.013.964c.128.14.308.211.484.211zm173.551-5.738a.68.68 0 00.387-1.24 138.435 138.435 0 00-6.833-4.462.681.681 0 10-.713 1.162 134.922 134.922 0 016.763 4.417.716.716 0 00.396.123zm-161.011-4.562c.132 0 .268-.04.387-.124a105.209 105.209 0 016.802-4.338.677.677 0 00.242-.933.678.678 0 00-.932-.242 108.635 108.635 0 00-6.891 4.396.683.683 0 00-.171.95.692.692 0 00.563.291zm147.168-3.908c.242 0 .48-.132.603-.36a.685.685 0 00-.281-.924 146.099 146.099 0 00-7.304-3.643.684.684 0 00-.907.33.685.685 0 00.33.906 142.892 142.892 0 017.234 3.608.675.675 0 00.325.083zm-133.172-4.307a.668.668 0 00.299-.07 117.346 117.346 0 017.361-3.318.678.678 0 00.37-.889.68.68 0 00-.889-.369 120.049 120.049 0 00-7.445 3.357.682.682 0 00-.308.915.69.69 0 00.612.374zm118.441-2.53a.68.68 0 00.634-.431.677.677 0 00-.383-.885 152.324 152.324 0 00-7.66-2.811.68.68 0 00-.436 1.289c2.552.858 5.104 1.795 7.59 2.785a.6.6 0 00.255.053zm-103.429-3.648a.734.734 0 00.216-.035 132.421 132.421 0 017.731-2.341.675.675 0 00.479-.835.676.676 0 00-.836-.48 135.392 135.392 0 00-7.81 2.367.677.677 0 00-.426.862c.097.286.36.462.646.462zm88.043-1.54a.682.682 0 00.656-.497.683.683 0 00-.476-.84c-2.6-.726-5.262-1.395-7.915-1.984a.682.682 0 10-.295 1.333c2.627.585 5.267 1.249 7.845 1.966a.835.835 0 00.185.022zm-72.374-2.692a.787.787 0 00.14-.014c2.614-.54 5.289-1.02 7.96-1.416a.678.678 0 00.572-.775.678.678 0 00-.775-.572c-2.692.4-5.394.88-8.034 1.43a.677.677 0 00-.528.806.685.685 0 00.665.54zm56.525-.845a.689.689 0 00.674-.568.69.69 0 00-.559-.787c-2.667-.453-5.386-.84-8.074-1.153a.683.683 0 00-.158 1.355c2.666.313 5.359.695 8.003 1.144a.481.481 0 00.114.009zm-40.461-1.553c.022 0 .044 0 .066-.005 2.662-.246 5.376-.426 8.069-.532a.683.683 0 00-.053-1.364c-2.714.106-5.456.29-8.139.541a.682.682 0 00-.616.744.672.672 0 00.673.616zm24.336-.33a.687.687 0 00.682-.638.684.684 0 00-.638-.726 157.42 157.42 0 00-8.149-.317h-.009a.681.681 0 00-.009 1.364c2.68.035 5.399.14 8.079.317h.044zM327.469 418.323a.68.68 0 00.634-.431.685.685 0 00-.383-.885c-2.424-.955-3.753-1.531-3.766-1.535a.682.682 0 00-.546 1.249c.014.005 1.36.59 3.806 1.553a.659.659 0 00.255.049zm-36.467-273.607a.63.63 0 00.829-.533c.131-1.259.204-2.55.221-3.839a.634.634 0 00-.623-.639.634.634 0 00-.64.623 41.668 41.668 0 01-.213 3.725.63.63 0 00.426.663zM73.451 259.623a.63.63 0 00.603-1.087 54.366 54.366 0 01-5.379-5.087.63.63 0 10-.925.858c1.76 1.9 3.613 3.65 5.503 5.202a.56.56 0 00.198.114zm-10.18-10.942c.186.062.4.04.572-.087a.628.628 0 00.142-.881 60.614 60.614 0 01-3.954-6.267.631.631 0 10-1.107.608 62.474 62.474 0 004.034 6.397c.083.109.194.19.314.23zM56.1 235.574c.135.045.29.046.433-.009a.633.633 0 00.356-.818 56.687 56.687 0 01-2.259-7.046.632.632 0 00-1.225.306 58.262 58.262 0 002.31 7.205c.07.174.21.303.385.362zm-3.607-14.492a.63.63 0 00.827-.667 55.127 55.127 0 01-.316-7.39.63.63 0 00-.617-.647.628.628 0 00-.646.617c-.063 2.525.05 5.065.325 7.557.03.255.203.455.427.53zm.345-14.924a.63.63 0 00.826-.5c.368-2.396.9-4.831 1.576-7.235a.633.633 0 00-1.218-.341 62.85 62.85 0 00-1.608 7.383.636.636 0 00.424.693zm4.017-14.385a.636.636 0 00.788-.363 76.956 76.956 0 013.115-6.738.63.63 0 10-1.12-.583 76.994 76.994 0 00-3.165 6.85.633.633 0 00.35.823l.032.011zm6.889-13.277a.625.625 0 00.732-.261 100.306 100.306 0 014.224-6.124.63.63 0 10-1.01-.753 103.56 103.56 0 00-4.28 6.2.636.636 0 00.196.875.938.938 0 00.138.063zm8.845-12.076c.251.084.54.005.707-.222a71.28 71.28 0 004.195-6.281.63.63 0 00-.22-.865.629.629 0 00-.866.221 69.744 69.744 0 01-4.122 6.167.629.629 0 00.129.882.603.603 0 00.177.098zm7.619-12.863a.632.632 0 00.777-.341 65.542 65.542 0 002.38-6.052c.112-.332.222-.67.33-1.003a.634.634 0 00-.4-.793l-.012-.003a.626.626 0 00-.79.408c-.106.326-.213.656-.323.984a64.103 64.103 0 01-2.333 5.935.637.637 0 00.316.837c.016.015.035.021.055.028zm4.528-14.235c.027.009.054.019.083.024a.633.633 0 00.74-.499 63.81 63.81 0 00.983-7.495.628.628 0 00-.586-.674.628.628 0 00-.674.585 62.105 62.105 0 01-.964 7.347c-.061.31.12.612.418.712zM35.43 121.709a.635.635 0 00.796-.386.635.635 0 00-.381-.808 58.444 58.444 0 01-6.808-2.91.633.633 0 00-.573 1.127 59.471 59.471 0 006.966 2.977zm7.185 2.095a71.977 71.977 0 007.497 1.333.632.632 0 00.156-1.255 71.467 71.467 0 01-7.308-1.295.63.63 0 00-.757.473.631.631 0 00.412.744zm-20.47-8.91a.636.636 0 00.714-.228.634.634 0 00-.146-.884c-2.095-1.504-3.954-3.132-5.535-4.838a.63.63 0 10-.925.858c1.633 1.767 3.56 3.451 5.724 5.005a.582.582 0 00.169.087zm35.309 10.761a.58.58 0 00.186.033 77.923 77.923 0 007.545-.2.626.626 0 00.58-.677.628.628 0 00-.677-.581 76.69 76.69 0 01-7.423.198.63.63 0 00-.646.617.64.64 0 00.435.61zm14.911-1.125a.635.635 0 00.311.023 79.046 79.046 0 007.362-1.65.63.63 0 10-.334-1.218 76.276 76.276 0 01-7.246 1.625.63.63 0 00-.093 1.22zm-60.144-20.659a.642.642 0 00.484-.031.635.635 0 00.284-.846c-1.136-2.283-1.771-4.612-1.902-6.918a.636.636 0 00-.663-.597.63.63 0 00-.594.664c.137 2.48.82 4.976 2.029 7.412a.623.623 0 00.362.316zm73.58 20.55a.632.632 0 00.832-.632 64.471 64.471 0 00-.799-7.518.632.632 0 10-1.248.208 63.89 63.89 0 01.779 7.369.643.643 0 00.435.573zm.983-3.857a.643.643 0 00.424-.008 80.557 80.557 0 006.916-3.008.632.632 0 00-.556-1.133 79.482 79.482 0 01-6.81 2.962.629.629 0 00.026 1.187zM11.537 89.399a.628.628 0 00.781-.356c.871-2.089 2.196-4.133 3.945-6.072a.631.631 0 00-.048-.893.631.631 0 00-.893.047c-1.845 2.045-3.248 4.209-4.172 6.43a.633.633 0 00.341.825c.019.01.034.015.046.02zm71.825 20.279a.634.634 0 00.808-.778 66.063 66.063 0 00-2.51-7.131.632.632 0 00-1.167.489 64.734 64.734 0 012.463 6.991.634.634 0 00.406.429zm16.847 4.302c.17.058.365.041.532-.057a86.752 86.752 0 006.259-4.201.632.632 0 00-.749-1.018 85.438 85.438 0 01-6.17 4.137.629.629 0 00-.21.867c.08.134.203.227.338.272zm-79-35.764c.185.062.399.04.57-.083a38.813 38.813 0 016.349-3.715.635.635 0 00.312-.837.635.635 0 00-.837-.312 39.854 39.854 0 00-6.558 3.834.632.632 0 00.163 1.113zm56.365 17.68a.632.632 0 00.754-.912 60.157 60.157 0 00-4.143-6.33.631.631 0 00-.886-.126.631.631 0 00-.127.887 59.327 59.327 0 014.055 6.197c.082.14.208.238.347.285zm34.688 9.229a.64.64 0 00.618-.123 97.125 97.125 0 005.476-5.17.632.632 0 00-.902-.884 94.64 94.64 0 01-5.406 5.103.632.632 0 00.214 1.074zm-43.67-21.164a.631.631 0 00.651-1.04 49.584 49.584 0 00-5.718-4.97.631.631 0 10-.75 1.016 48.736 48.736 0 015.576 4.843c.067.07.153.12.242.15zM34.754 72.08a.657.657 0 00.333.022 31.092 31.092 0 017.293-.654.63.63 0 00.649-.612.629.629 0 00-.612-.648 32.432 32.432 0 00-7.59.679.63.63 0 00-.073 1.213zm21.824 3.058a.633.633 0 00.479-1.167 37.893 37.893 0 00-7.11-2.69.633.633 0 00-.77.45.628.628 0 00.45.771c2.31.61 4.63 1.485 6.869 2.6.03.015.055.027.082.037zm66.165 19.315a.63.63 0 00.683-.191 113.937 113.937 0 004.663-5.908.632.632 0 00-1.016-.75 108.192 108.192 0 01-4.609 5.84.627.627 0 00.074.889c.062.06.131.096.205.12zm9.146-11.846a.627.627 0 00.69-.198 80.125 80.125 0 014.96-5.524.631.631 0 00-.897-.887 81.286 81.286 0 00-5.036 5.61.634.634 0 00.283 1zm158.804 50.868a.635.635 0 00.827-.694 54.617 54.617 0 00-1.661-7.382.629.629 0 00-.786-.424.629.629 0 00-.424.786 53.4 53.4 0 011.624 7.211c.031.239.204.43.42.503zM142.397 71.978a.628.628 0 00.607-.115 69.754 69.754 0 015.948-4.426.633.633 0 00-.699-1.052 72.131 72.131 0 00-6.053 4.507.632.632 0 00-.084.888.575.575 0 00.281.198zm144.089 47.166a.611.611 0 00.45-.021.632.632 0 00.331-.83 75.837 75.837 0 00-3.341-6.77.632.632 0 10-1.105.613 72.539 72.539 0 013.285 6.656.637.637 0 00.38.352zm-7.244-13.085a.627.627 0 00.72-.952 97.038 97.038 0 00-4.472-6.068.63.63 0 00-.987.786 96.809 96.809 0 014.413 5.987.634.634 0 00.326.247zM154.844 63.715a.633.633 0 00.49-.038 67.57 67.57 0 016.762-3.034.633.633 0 00.364-.815.633.633 0 00-.815-.364 68.107 68.107 0 00-6.888 3.09.631.631 0 00-.269.852c.077.154.209.26.356.309zm115.076 30.63a.63.63 0 00.667-1.023 116.874 116.874 0 00-5.279-5.371.631.631 0 10-.871.915 113.834 113.834 0 015.221 5.312.666.666 0 00.262.166zM168.794 58.356a.607.607 0 00.362.01 72.545 72.545 0 017.257-1.518.629.629 0 00.527-.721.63.63 0 00-.722-.527c-2.496.39-4.983.907-7.385 1.543a.634.634 0 00-.039 1.213zm90.3 25.649a.63.63 0 00.684-.192.634.634 0 00-.075-.889 125.09 125.09 0 00-5.9-4.673.627.627 0 00-.882.129.628.628 0 00.129.882 125.378 125.378 0 015.838 4.626.59.59 0 00.206.117zM183.56 56.043a.693.693 0 00.238.033 81.808 81.808 0 017.43-.075.629.629 0 00.652-.61.63.63 0 00-.61-.653 84.367 84.367 0 00-7.545.075.63.63 0 00-.594.664c.012.27.19.485.429.566zm63.53 19.017a.631.631 0 00.551-1.126 130.615 130.615 0 00-6.404-3.953.633.633 0 00-.635 1.094 132.926 132.926 0 016.346 3.911.537.537 0 00.142.074zm-48.578-18.513a.75.75 0 00.128.03c2.422.291 4.893.689 7.347 1.18a.631.631 0 00.248-1.236 98.55 98.55 0 00-7.445-1.196.628.628 0 00-.701.551c-.041.3.145.578.423.672zm35.609 11.03a.631.631 0 00.482-1.162 121.052 121.052 0 00-6.835-3.16.633.633 0 00-.499 1.161c2.26.963 4.537 2.017 6.765 3.128.029.014.06.024.087.034zm-20.925-8.104l.035.012a110.1 110.1 0 017.104 2.232.63.63 0 00.805-.387.63.63 0 00-.386-.805 112.82 112.82 0 00-7.186-2.26.63.63 0 00-.776.44.628.628 0 00.404.768zM83.209 265.457a.63.63 0 00.8-.397.63.63 0 00-.397-.801c-1.047-.352-2.177-.853-3.363-1.493a.633.633 0 00-.599 1.115c1.25.67 2.447 1.201 3.559 1.576zm187.219-115.743h.051c1.428-.098 2.88-.192 4.322-.271a.72.72 0 10-.08-1.442c-1.446.079-2.907.172-4.34.275a.725.725 0 00-.672.77.717.717 0 00.719.668z" fill="#2E2E46"/><path d="M133.57 516.78c.602 0 1.21-.004 1.817-.012.402-.004.719-.299.71-.655-.005-.353-.332-.63-.724-.63h-.014a119.79 119.79 0 01-8.637-.183c-.401-.024-.742.245-.77.597-.028.353.275.659.677.684 2.298.133 4.629.199 6.941.199zm10.486-.452c.023 0 .047 0 .07-.004 2.873-.248 5.787-.601 8.674-1.048.392-.063.658-.394.588-.742-.07-.349-.444-.585-.836-.523-2.849.444-5.731.792-8.566 1.037-.397.033-.691.348-.649.7.037.332.355.58.719.58zm-26.017-.572c.351 0 .664-.228.715-.547.061-.352-.215-.68-.607-.729a114.322 114.322 0 01-8.473-1.459c-.388-.083-.78.132-.874.476-.093.344.15.693.538.775 2.825.597 5.717 1.095 8.594 1.48.037 0 .075.004.107.004zm43.159-2.002a.75.75 0 00.163-.016 176.15 176.15 0 008.455-1.944c.383-.1.607-.456.495-.796-.112-.34-.514-.539-.897-.439-2.737.7-5.558 1.351-8.38 1.927-.387.079-.635.423-.541.771.079.294.378.497.705.497zm-60.058-1.566c.304 0 .589-.17.687-.444.126-.336-.08-.7-.463-.812a112.025 112.025 0 01-8.08-2.703c-.37-.141-.794.012-.948.34-.154.327.014.705.383.841a114.649 114.649 0 008.192 2.74c.08.025.155.038.229.038zm76.756-2.72c.08 0 .159-.012.238-.037a162.847 162.847 0 008.156-2.785c.369-.137.541-.514.387-.842-.154-.327-.579-.481-.948-.344a158.676 158.676 0 01-8.076 2.757c-.378.116-.574.485-.444.82a.737.737 0 00.687.431zm-92.744-3.316c.262 0 .51-.124.64-.344.187-.315.051-.7-.304-.866a110.89 110.89 0 01-7.473-3.846c-.336-.191-.785-.104-1 .199-.215.298-.116.696.225.887a112.011 112.011 0 007.571 3.9c.112.046.224.07.341.07zm108.779-2.648a.777.777 0 00.318-.067 147.33 147.33 0 007.725-3.631c.346-.174.467-.567.271-.874-.196-.307-.64-.415-.985-.24a148.822 148.822 0 01-7.647 3.593c-.359.158-.509.543-.331.858.121.228.378.361.649.361zm-123.445-5.621c.22 0 .434-.087.579-.257.243-.282.177-.688-.14-.899a109.82 109.82 0 01-6.684-4.854.79.79 0 00-1.023.054c-.267.265-.239.671.06.908a109.167 109.167 0 006.773 4.916.793.793 0 00.435.132zm138.55-2.014a.808.808 0 00.398-.104 143.954 143.954 0 007.169-4.439c.323-.211.388-.614.15-.9-.238-.286-.692-.344-1.014-.132a143.65 143.65 0 01-7.1 4.393c-.336.195-.429.593-.21.887.14.195.374.295.607.295zm-151.55-8.211a.77.77 0 00.505-.179.591.591 0 00.019-.907 106.505 106.505 0 01-5.755-5.716c-.252-.274-.71-.311-1.018-.087a.594.594 0 00-.098.903c1.85 1.99 3.811 3.938 5.83 5.791.14.128.326.195.518.195zm165.502-.999a.79.79 0 00.467-.15 145.4 145.4 0 006.516-5.177.591.591 0 00.028-.907.794.794 0 00-1.023-.025 138.23 138.23 0 01-6.45 5.123c-.304.228-.346.634-.089.904.14.153.346.232.551.232zm12.607-10.632a.757.757 0 00.528-.203 141.654 141.654 0 005.782-5.82.59.59 0 00-.093-.903.785.785 0 00-1.019.083 144.096 144.096 0 01-5.726 5.765.595.595 0 00.033.908c.14.112.317.17.495.17zm-189.173-.261a.79.79 0 00.415-.116c.327-.203.407-.606.178-.896a98.044 98.044 0 01-4.685-6.445c-.206-.307-.65-.406-.99-.228-.346.182-.458.576-.257.879a96.236 96.236 0 004.75 6.528.73.73 0 00.589.278zm200.299-11.61a.763.763 0 00.584-.261 137.981 137.981 0 004.997-6.367c.22-.299.127-.696-.21-.891-.336-.195-.784-.112-1.004.186a136.197 136.197 0 01-4.951 6.309c-.238.286-.168.688.149.899a.832.832 0 00.435.125zm-209.142-1.675a.788.788 0 00.318-.066c.36-.154.51-.539.337-.858a86.873 86.873 0 01-3.457-7.026c-.145-.332-.565-.493-.934-.369-.374.129-.556.502-.416.829a87.42 87.42 0 003.503 7.125c.122.232.383.365.65.365zm218.68-11.245a.736.736 0 00.626-.323 122.605 122.605 0 004.138-6.844c.177-.319.033-.704-.327-.862-.36-.157-.794-.029-.972.29a120.193 120.193 0 01-4.101 6.773c-.2.307-.079.701.267.879a.855.855 0 00.369.087zm-224.943-3.142a.813.813 0 00.2-.025c.384-.099.608-.456.496-.796a75.352 75.352 0 01-2.018-7.448c-.075-.348-.453-.576-.845-.51-.393.066-.65.402-.575.75a76.385 76.385 0 002.05 7.561c.085.286.374.468.692.468zm-3.25-15.146c.022 0 .041 0 .064-.004.398-.033.692-.344.654-.696a64.308 64.308 0 01-.326-7.644c.004-.356-.313-.646-.71-.65h-.015c-.392 0-.719.282-.724.634-.004.377-.009.754-.009 1.131 0 2.189.117 4.423.341 6.649.037.327.355.58.724.58zm.298-15.407c.36 0 .668-.236.715-.559.373-2.541.92-5.065 1.62-7.498.098-.344-.135-.693-.523-.784-.387-.087-.78.12-.882.464a57.552 57.552 0 00-1.654 7.652c-.051.352.229.676.626.721.037 0 .065.004.098.004zm4.325-14.913c.29 0 .56-.154.673-.406a55.857 55.857 0 013.685-6.893c.196-.311.07-.701-.28-.875-.35-.174-.79-.062-.986.249a57.518 57.518 0 00-3.77 7.046c-.149.332.034.705.407.833a.885.885 0 00.271.046zm55.55-6.914c2.242 0 4.349-.303 6.269-.899.378-.116.574-.485.443-.817-.13-.336-.546-.51-.92-.394-2.443.759-5.245.995-8.267.701-.397-.042-.757.215-.799.568-.042.352.243.671.64.708.892.087 1.78.133 2.634.133zm-10.953-2.056c.29 0 .56-.153.673-.406.145-.332-.038-.705-.411-.833-2.457-.854-5.04-1.994-7.679-3.383-.346-.182-.79-.078-.99.224-.206.307-.089.701.252.879 2.71 1.422 5.362 2.591 7.89 3.469.088.034.177.05.265.05zm23.934-3.258a.766.766 0 00.574-.249c1.78-2.051 2.976-4.588 3.466-7.34.061-.353-.206-.68-.603-.734-.392-.054-.766.182-.826.535-.453 2.536-1.551 4.874-3.181 6.756-.243.282-.182.684.131.9a.754.754 0 00.439.132zm-60.086-1.223c.22 0 .44-.091.584-.261a63.246 63.246 0 015.553-5.828.591.591 0 00-.023-.907.79.79 0 00-1.023.02 65.105 65.105 0 00-5.675 5.953c-.238.286-.173.688.15.899a.829.829 0 00.434.124zm21.15-3.249c.22 0 .434-.087.579-.253.243-.282.177-.684-.14-.9a37.769 37.769 0 01-6.184-5.206.785.785 0 00-1.019-.07c-.303.232-.34.634-.08.904a39.613 39.613 0 006.414 5.396.783.783 0 00.43.129zm-9.15-7.88c.163 0 .322-.05.457-.145a106.365 106.365 0 016.899-4.613c.327-.203.411-.601.182-.896-.229-.29-.677-.364-1.009-.161a113.179 113.179 0 00-6.189 4.099c-.27.191-.537.386-.803.58-.308.224-.355.63-.098.904.145.153.35.232.56.232zm50.879-2.342a.844.844 0 00.201-.025c.383-.099.607-.451.495-.795a16.398 16.398 0 00-4.405-6.927.789.789 0 00-1.023-.02.591.591 0 00-.023.907 15.11 15.11 0 014.059 6.392c.093.286.383.468.696.468zm-53-1.397a.79.79 0 00.36-.087c.345-.174.467-.567.27-.874a47.67 47.67 0 01-3.657-6.889c-.145-.332-.56-.498-.934-.369-.374.128-.56.497-.416.829a48.752 48.752 0 003.756 7.063.715.715 0 00.62.327zm16.455-4.969a.79.79 0 00.346-.079c2.68-1.293 5.31-2.35 7.814-3.142.379-.12.575-.485.44-.821-.136-.336-.547-.51-.926-.389-2.573.812-5.273 1.894-8.02 3.22-.35.17-.48.56-.289.871.13.215.383.34.635.34zm24.975-4.274c.308 0 .598-.178.691-.456.117-.34-.098-.696-.48-.8-2.682-.725-5.685-.957-8.89-.68-.396.034-.69.349-.648.701.037.352.392.613.789.576 3.017-.257 5.83-.045 8.328.63.07.021.145.029.21.029zm-47.731-5.098a.603.603 0 00.173-.021c.387-.087.626-.435.528-.779a68.126 68.126 0 01-1.63-7.515c-.057-.352-.421-.593-.818-.547-.397.05-.673.373-.617.725.42 2.641.977 5.211 1.659 7.644.084.298.378.493.705.493zm-2.48-15.262h.042c.397-.021.705-.323.682-.676a90.365 90.365 0 01-.168-5.558c0-.7.009-1.405.023-2.114.01-.356-.308-.646-.71-.655-.411-.012-.729.274-.738.63-.014.717-.023 1.43-.023 2.139 0 1.898.056 3.793.168 5.629.023.34.34.605.724.605zm.313-15.427c.373 0 .686-.253.719-.589.238-2.499.57-5.069.98-7.635.057-.352-.219-.676-.611-.725-.397-.05-.761.194-.817.543a117.02 117.02 0 00-.99 7.709c-.033.352.26.663.658.692.019 0 .037.005.06.005zm2.452-15.287c.336 0 .64-.211.71-.518a141.341 141.341 0 011.892-7.507c.098-.344-.14-.692-.528-.779-.388-.087-.78.124-.878.468-.71 2.529-1.35 5.074-1.906 7.569-.08.348.177.684.57.754a.704.704 0 00.14.013zm4.194-14.988c.313 0 .598-.179.691-.46.818-2.429 1.71-4.896 2.658-7.325.131-.335-.07-.7-.448-.816-.378-.116-.79.062-.92.398a167.11 167.11 0 00-2.681 7.378c-.112.34.102.696.485.8.08.016.145.025.215.025zm5.69-14.595c.289 0 .56-.153.672-.406a180.407 180.407 0 013.335-7.104c.163-.324-.005-.705-.37-.846-.363-.141-.793.004-.952.327a176.666 176.666 0 00-3.358 7.155c-.145.331.037.704.41.833a.924.924 0 00.262.041zm7.006-14.138c.266 0 .527-.133.649-.361a197.645 197.645 0 013.947-6.856c.186-.31.056-.7-.3-.87-.35-.17-.789-.05-.98.261a201.101 201.101 0 00-3.975 6.897c-.173.319-.028.705.332.858.112.05.22.071.327.071zm8.21-13.616a.752.752 0 00.627-.32 212.84 212.84 0 014.512-6.573c.215-.299.112-.697-.224-.888-.337-.19-.785-.099-1 .199a210.792 210.792 0 00-4.54 6.616c-.2.307-.084.7.262.879a.795.795 0 00.364.087zm9.32-13.04a.754.754 0 00.597-.278 215.592 215.592 0 015.04-6.267c.238-.286.173-.688-.15-.9-.322-.211-.775-.153-1.013.133a219.803 219.803 0 00-5.073 6.304c-.224.295-.144.693.187.891.13.083.271.117.411.117zm10.364-12.402a.76.76 0 00.565-.241 224.532 224.532 0 015.535-5.927c.261-.269.224-.676-.08-.908a.795.795 0 00-1.022.067 218.232 218.232 0 00-5.568 5.964c-.248.278-.2.68.112.904.14.095.299.141.458.141zm11.341-11.71a.77.77 0 00.532-.207 223.84 223.84 0 016.002-5.558.592.592 0 00-.005-.908.789.789 0 00-1.023.004 226.394 226.394 0 00-6.034 5.592.592.592 0 00.042.907c.131.112.308.17.486.17zm12.256-10.959a.777.777 0 00.495-.174 230.545 230.545 0 016.436-5.161.596.596 0 00.07-.907.794.794 0 00-1.023-.063 236.688 236.688 0 00-6.473 5.194.589.589 0 00-.033.908.764.764 0 00.528.203zm13.116-10.143a.748.748 0 00.453-.145c2.237-1.608 4.535-3.2 6.838-4.733.317-.212.383-.618.145-.9-.239-.282-.696-.34-1.014-.128a246.634 246.634 0 00-6.876 4.762c-.312.224-.359.63-.107.904.14.162.35.24.561.24zm13.9-9.276a.764.764 0 00.411-.116 246.12 246.12 0 017.202-4.286c.337-.191.435-.589.215-.887-.215-.299-.663-.386-.999-.191a255.694 255.694 0 00-7.249 4.311c-.327.203-.407.605-.183.895.15.179.379.274.603.274zm14.624-8.361a.78.78 0 00.369-.091 250.504 250.504 0 017.534-3.813c.351-.17.481-.56.29-.871-.192-.31-.631-.426-.981-.257a250.962 250.962 0 00-7.576 3.835c-.346.182-.458.576-.252.878.126.208.369.319.616.319zm15.26-7.402a.795.795 0 00.322-.067 259.06 259.06 0 017.819-3.324c.365-.149.523-.531.355-.85-.168-.323-.598-.464-.957-.315a254.634 254.634 0 00-7.866 3.345c-.36.158-.5.543-.322.862a.753.753 0 00.649.349zm15.811-6.425a.787.787 0 00.275-.05 262.11 262.11 0 018.067-2.827c.373-.124.565-.493.425-.829-.14-.331-.556-.501-.934-.377a278.626 278.626 0 00-8.114 2.844c-.369.136-.541.513-.392.841a.745.745 0 00.673.398zm16.282-5.422a.862.862 0 00.229-.033 277.558 277.558 0 018.263-2.329c.383-.104.602-.461.486-.8-.117-.34-.519-.535-.902-.431a275.582 275.582 0 00-8.309 2.341c-.379.112-.584.477-.453.813.102.269.383.439.686.439zm16.661-4.422a.932.932 0 00.182-.021 291.13 291.13 0 018.422-1.832c.387-.079.635-.423.546-.771-.089-.344-.481-.564-.869-.485a294.77 294.77 0 00-8.468 1.844c-.387.092-.616.444-.514.784.085.29.379.481.701.481zm16.955-3.432a.82.82 0 00.14-.013 308.95 308.95 0 018.539-1.351c.397-.058.663-.386.598-.738-.066-.348-.43-.589-.832-.531-2.868.411-5.759.871-8.585 1.356-.392.066-.649.406-.57.754.066.311.369.523.71.523zm17.166-2.467c.032 0 .06 0 .093-.004 2.84-.327 5.74-.626 8.618-.879.397-.037.686-.348.649-.704-.042-.353-.397-.61-.794-.576-2.891.257-5.806.555-8.66.882-.397.046-.677.369-.626.722.047.323.36.559.72.559zm154.106 132.49c1.36 0 2.732-.049 4.083-.146a.514.514 0 00.475-.545.516.516 0 00-.545-.475 57.176 57.176 0 01-8.1-.005.507.507 0 00-.546.475.51.51 0 00.475.546 57.19 57.19 0 004.158.15zm-12.223-1.294a.517.517 0 00.502-.405.513.513 0 00-.396-.607 58.296 58.296 0 01-1.897-.436.512.512 0 10-.246.995c.642.158 1.289.308 1.927.44a.49.49 0 00.11.013zm24.358-.018a.46.46 0 00.11-.013 56.51 56.51 0 007.898-2.349.511.511 0 10-.365-.955 55.922 55.922 0 01-7.757 2.31.513.513 0 00-.392.607c.062.238.273.4.506.4zm15.237-5.777a.52.52 0 00.251-.066 56.913 56.913 0 006.894-4.532.51.51 0 10-.62-.814 56.483 56.483 0 01-6.767 4.449.512.512 0 00-.198.695.49.49 0 00.44.268zm12.949-9.917a.517.517 0 00.365-.154c1.91-1.954 3.7-4.07 5.333-6.288a.507.507 0 00-.11-.712.507.507 0 00-.713.11 57.9 57.9 0 01-5.24 6.177.509.509 0 00.365.867zm9.658-13.138a.51.51 0 00.449-.269 63.718 63.718 0 003.445-7.484.51.51 0 10-.955-.365 62.407 62.407 0 01-3.388 7.365.512.512 0 00.207.696.55.55 0 00.242.057zm5.86-15.224c.229 0 .44-.154.498-.387a70.86 70.86 0 001.491-8.1.511.511 0 10-1.016-.128 69.773 69.773 0 01-1.47 7.981.518.518 0 00.374.621c.04.004.079.013.123.013zm2.042-16.196a.513.513 0 00.51-.506 81.008 81.008 0 00-.299-8.224.51.51 0 00-.554-.466.515.515 0 00-.467.554 80.569 80.569 0 01.295 8.123.512.512 0 00.506.519h.009zm-1.377-16.284c.031 0 .061-.005.092-.009a.514.514 0 00.414-.594 98.322 98.322 0 00-.748-3.736 33.537 33.537 0 01-.673-4.267.52.52 0 00-.555-.467.516.516 0 00-.466.555c.123 1.399.356 2.877.695 4.399.273 1.232.524 2.478.744 3.696a.5.5 0 00.497.423zm-.775-16.113c.22 0 .427-.145.493-.369.731-2.539 1.976-4.765 3.811-6.807a.51.51 0 10-.762-.682c-1.936 2.16-3.256 4.519-4.03 7.207a.512.512 0 00.488.651zm10.287-12.047a.519.519 0 00.26-.07c2.072-1.219 4.466-2.358 7.308-3.476a.515.515 0 00.291-.664.514.514 0 00-.665-.291c-2.895 1.14-5.332 2.297-7.453 3.547a.51.51 0 00-.181.699.506.506 0 00.44.255zm15.123-6.182a.561.561 0 00.15-.022 284.115 284.115 0 017.858-2.279.51.51 0 10-.273-.985c-2.376.66-5.17 1.447-7.889 2.288a.512.512 0 00-.339.638c.075.22.277.36.493.36zm15.774-4.474a.55.55 0 00.141-.018 278.658 278.658 0 007.875-2.323.513.513 0 00-.308-.977 287.545 287.545 0 01-7.849 2.314.507.507 0 00-.352.63.52.52 0 00.493.374zm15.619-4.963a.522.522 0 00.181-.031 99.597 99.597 0 007.59-3.181.51.51 0 00.242-.682.508.508 0 00-.682-.242 97.124 97.124 0 01-7.511 3.15.51.51 0 00.18.986zm14.74-7.058a.5.5 0 00.269-.079c2.415-1.505 4.655-3.137 6.652-4.853a.514.514 0 00.057-.722.514.514 0 00-.721-.057 53.837 53.837 0 01-6.53 4.761.513.513 0 00-.162.704.51.51 0 00.435.246zm12.28-10.634c.15 0 .295-.067.396-.19a42.877 42.877 0 004.537-6.864.512.512 0 00-.902-.479 41.597 41.597 0 01-4.427 6.701.51.51 0 00.396.832zM335.884 130.39c.22 0 .426-.145.488-.369.77-2.618 1.593-5.236 2.455-7.779a.51.51 0 10-.968-.326 194.752 194.752 0 00-2.468 7.819.508.508 0 00.493.655zm218.535-.308c.215 0 .418-.14.488-.356a53.832 53.832 0 001.848-7.999.514.514 0 00-.427-.585.514.514 0 00-.585.427 53.034 53.034 0 01-1.813 7.845.515.515 0 00.489.668zm-213.282-15.179c.207 0 .4-.124.475-.326a177.37 177.37 0 013.12-7.537.51.51 0 00-.933-.414 181.482 181.482 0 00-3.137 7.577.508.508 0 00.29.66c.057.031.123.04.185.04zm215.838-.85c.277 0 .502-.22.511-.497.022-.77.035-1.553.035-2.332 0-1.9-.071-3.88-.203-5.891a.508.508 0 00-.545-.475.508.508 0 00-.475.545c.132 1.985.202 3.943.202 5.821 0 .77-.013 1.545-.035 2.301a.513.513 0 00.497.528h.013zm-82.754-4.47c1.51 0 3.036-.092 4.541-.277a.511.511 0 10-.127-1.016 36.27 36.27 0 01-8.052.088.507.507 0 00-.559.457.506.506 0 00.458.559 36.44 36.44 0 003.739.189zm-11.659-1.936a.513.513 0 00.167-.999 35.508 35.508 0 01-7.264-3.462.513.513 0 00-.704.162.513.513 0 00.162.704 36.5 36.5 0 007.476 3.56c.053.026.11.035.163.035zm24.08-.22a.47.47 0 00.172-.031 36.609 36.609 0 007.432-3.643.512.512 0 00-.555-.862 35.513 35.513 0 01-7.225 3.542.513.513 0 00-.308.655c.08.207.273.339.484.339zm-138.905-7.484a.514.514 0 00.458-.282 167.952 167.952 0 013.819-7.202.51.51 0 00-.889-.502 162.451 162.451 0 00-3.846 7.247.514.514 0 00.458.739zm101.128-.95a.51.51 0 00.378-.854c-1.852-2.046-3.238-4.325-4.114-6.776a.512.512 0 00-.963.348c.924 2.578 2.376 4.976 4.32 7.119a.526.526 0 00.379.163zm51.4-.357a.518.518 0 00.374-.158 31.177 31.177 0 004.848-6.728.509.509 0 00-.211-.69.51.51 0 00-.691.21 30.003 30.003 0 01-4.686 6.504.51.51 0 00.022.721.46.46 0 00.344.141zm55.663-.889c.026 0 .048 0 .075-.004.281-.04.475-.3.431-.58a131.94 131.94 0 00-1.443-8.088.512.512 0 10-1.003.211 133.002 133.002 0 011.43 8.021c.044.26.264.44.51.44zM355.771 85.7a.509.509 0 00.431-.237 147.465 147.465 0 014.554-6.758.512.512 0 00-.831-.594 152.047 152.047 0 00-4.585 6.806.512.512 0 00.431.783zm152.026-1.346a.516.516 0 00.502-.41 29.82 29.82 0 00.607-6.027c0-.74-.026-1.496-.079-2.244a.516.516 0 00-.546-.475.515.515 0 00-.475.545c.053.726.079 1.457.079 2.174 0 1.971-.198 3.929-.589 5.821a.507.507 0 00.396.603.43.43 0 00.105.013zm-64.318-.352a.513.513 0 00.511-.488c.105-2.517.624-5.157 1.544-7.85a.514.514 0 00-.321-.651.507.507 0 00-.647.321c-.95 2.785-1.487 5.526-1.597 8.14a.511.511 0 00.488.532c.005-.004.013-.004.022-.004zm109.109-2.262a.51.51 0 00.493-.647 108.196 108.196 0 00-2.464-7.836.512.512 0 00-.963.348 107.81 107.81 0 012.442 7.761.508.508 0 00.492.374zM365.284 72.4a.52.52 0 00.4-.19 133.203 133.203 0 015.298-6.19.509.509 0 00-.036-.722.508.508 0 00-.721.035 135.248 135.248 0 00-5.337 6.24.51.51 0 00.396.826zm83.202-3.802a.506.506 0 00.44-.255c1.307-2.236 2.869-4.47 4.633-6.644a.515.515 0 00-.074-.722.507.507 0 00-.718.075 54.236 54.236 0 00-4.721 6.771.514.514 0 00.181.7.474.474 0 00.259.075zm58.26-.392a.626.626 0 00.154-.022.514.514 0 00.334-.642c-.801-2.517-1.896-5.073-3.26-7.594a.514.514 0 00-.695-.207.517.517 0 00-.207.695c1.333 2.464 2.406 4.963 3.185 7.418a.515.515 0 00.489.352zm40.285-1.83a.513.513 0 00.462-.73 73.245 73.245 0 00-3.889-7.256.51.51 0 00-.704-.167.509.509 0 00-.167.704 71.963 71.963 0 013.836 7.15.508.508 0 00.462.299zm-170.747-6.068a.514.514 0 00.356-.145 128.247 128.247 0 016.023-5.482.51.51 0 10-.664-.779 129.905 129.905 0 00-6.076 5.526.508.508 0 00-.009.722.523.523 0 00.37.158zm82.437-4.426a.512.512 0 00.352-.14 73.17 73.17 0 016.177-5.28.513.513 0 00-.62-.815 74.449 74.449 0 00-6.266 5.355.513.513 0 00.357.88zm40.378-2.055a.513.513 0 00.409-.818 71.251 71.251 0 00-3.718-4.554 49.395 49.395 0 00-1.606-1.734.513.513 0 00-.722-.013.514.514 0 00-.013.722c.537.554 1.069 1.13 1.575 1.703a68.89 68.89 0 013.665 4.487.504.504 0 00.41.207zm39.33-1.31a.514.514 0 00.396-.84 50.291 50.291 0 00-5.75-5.92.51.51 0 00-.722.054.51.51 0 00.053.721 49.242 49.242 0 015.632 5.8.503.503 0 00.391.184zm-149.694-2.804c.106 0 .212-.03.304-.1a116.483 116.483 0 016.71-4.616.511.511 0 00-.546-.862 118.883 118.883 0 00-6.767 4.654.511.511 0 00-.105.718c.096.136.25.206.404.206zm82.961-3.753c.092 0 .18-.022.264-.075a73.385 73.385 0 017.172-3.823.513.513 0 00.251-.678.516.516 0 00-.678-.25 75.02 75.02 0 00-7.269 3.876.512.512 0 00-.171.704.497.497 0 00.431.246zm16.029-3.823a.511.511 0 00.312-.915 58.896 58.896 0 00-6.868-4.563.507.507 0 00-.695.193.507.507 0 00.193.696 57.43 57.43 0 016.75 4.483.468.468 0 00.308.106zm38.385-.242a.512.512 0 00.255-.955 41.994 41.994 0 00-7.515-3.44.513.513 0 00-.335.968 40.997 40.997 0 017.331 3.356.54.54 0 00.264.07zm-123.576-.955a.487.487 0 00.242-.062 104.637 104.637 0 017.312-3.577.51.51 0 00.26-.673.508.508 0 00-.673-.26 107.534 107.534 0 00-7.383 3.613.504.504 0 00-.207.69.5.5 0 00.449.269zm83.994-1.835a.491.491 0 00.158-.026 61.093 61.093 0 017.863-2.015.51.51 0 10-.185-1.004 62.148 62.148 0 00-7.99 2.05.513.513 0 00-.326.648.5.5 0 00.48.347zm24.213-2.503a.511.511 0 00.07-1.017 48.06 48.06 0 00-8.245-.431.508.508 0 00-.493.528c.009.282.26.506.528.493a46.873 46.873 0 018.069.422.364.364 0 00.071.005zm-93.257-2.266a.436.436 0 00.168-.031 96.186 96.186 0 017.788-2.358.513.513 0 00-.256-.995 96.522 96.522 0 00-7.867 2.385.505.505 0 00-.312.651c.07.216.268.348.479.348zm56.064-.264a.513.513 0 00.194-.986 66.325 66.325 0 00-7.828-2.587.512.512 0 00-.259.99 65.282 65.282 0 017.704 2.547.578.578 0 00.189.036zm-40.237-3.793c.026 0 .057 0 .084-.009a86.588 86.588 0 018.073-.937.513.513 0 00.476-.546.507.507 0 00-.546-.475 87.13 87.13 0 00-8.171.95.512.512 0 00.084 1.017zm24.45-.387a.511.511 0 00.071-1.017 77.198 77.198 0 00-8.202-.708.503.503 0 00-.528.493.51.51 0 00.493.528c2.728.088 5.452.325 8.092.7.026 0 .052.004.074.004z" fill="#2E2E46"/><path d="M560.607 378.866l-.683.293.146-.731.683-.293-.146.731z" fill="#4F2E16"/><path d="M590.696 345.9l-2.975-2.341-9.656-7.559-10.582 4.194-1.756.683-.195.097-1.609.634-11.509 4.584 8.778 6.925.878.683.146.146 1.414 1.122 1.415 1.122 9.46 7.461 11.412-4.584 1.658-.683.195-.097 1.707-.683 10.631-4.243-9.412-7.461z" fill="#FFDDA8"/><path d="M574.603 363.651l-3.463 24.043-9.46-7.413-.049-.049-1.658-1.316-.586-.439-.731-.537-.878-.731-8.778-6.828 3.462-24.188 9.705 7.656.732.537.536.438 1.707 1.366 9.461 7.461z" fill="#BC7C46"/><path d="M589.574 357.653l-.926.39-.683.244-.146.049-.195.048-1.658.634-11.412 4.584-3.462 24.043 11.411-4.536 1.951-.78.683-.292.926-.342 10.631-4.194 3.463-24.091-10.583 4.243z" fill="#DDA866"/><path d="M573.92 382.866l-.147.048.391-2.779.195-.098-.439 2.829z" fill="#4F2E16"/><path d="M574.895 380.427l-.146.147-.488-.439-.683.926-.097-.049.829-1.121.585.536zm.78 1.756l-.146.048.39-2.828.195-.049-.439 2.829z" fill="#4F2E16"/><path d="M576.651 379.696l-.147.195-.487-.439-.683.926-.146-.097.878-1.073.585.488zm-.293 2.292l-3.267 1.317c-.049 0-.098 0-.049-.049 0-.049.049-.098.098-.146l3.267-1.317c.049 0 .098 0 .049.049 0 .048-.049.146-.098.146z" fill="#4F2E16"/><path d="M576.212 382.768l-3.219 1.268c-.341.146-.585-.049-.536-.39l.488-3.414c.048-.341.39-.78.731-.878l3.219-1.268c.341-.146.585.049.536.39l-.487 3.414c-.049.341-.391.732-.732.878zm-2.536-3.267c-.244.097-.488.39-.488.633l-.487 3.414c-.049.244.146.39.39.293l3.219-1.268c.243-.098.487-.39.487-.634l.488-3.414c.049-.244-.146-.39-.39-.292l-3.219 1.268zm8.193 1.024l-3.316 1.316c-.341.147-.585-.048-.537-.439l.488-3.511c.049-.39.39-.78.732-.926l3.316-1.317c.341-.146.585.049.536.439l-.487 3.511c-.049.39-.391.78-.732.927zm-2.633-3.365c-.244.097-.488.39-.537.682l-.487 3.512c-.049.243.146.39.39.292l3.316-1.317c.244-.097.488-.39.536-.682l.488-3.512c.049-.243-.146-.39-.39-.292l-3.316 1.317z" fill="#4F2E16"/><path d="M580.357 380.232c-.048 0-.097 0-.097-.049l.341-2.536c0-.048.049-.097.098-.146.048 0 .097 0 .097.049l-.341 2.536c0 .048-.049.097-.098.146z" fill="#4F2E16"/><path d="M580.796 380.037l-.829.341c-.048 0-.097 0-.097-.049 0-.048.049-.097.097-.146l.829-.341c.049 0 .098 0 .098.048 0 .098-.049.147-.098.147zm.878-3.121l-.146 1.17c-.049.293-.342.683-.634.78l-.683.244c-.293.146-.488-.049-.439-.341l.146-1.171.342-.146-.195 1.268c0 .049.048.098.097.049.049 0 .098-.098.098-.146l.195-1.268 1.219-.439z" fill="#4F2E16"/><path d="M578.017 336.341l-24.921 9.949 21.556 16.874 24.871-9.852-21.506-16.971z" fill="#F9C98A"/><path d="M600.157 353.654v.195l-25.603 10.241.049-.195 25.554-10.241zm-12.241 4.681l-.195.049-22.14-17.41.195-.049 22.14 17.41z" fill="#BC7C46"/><path d="M587.868 358.335l-.049.391h-.195l.049-.293.195-.098z" fill="#BC7C46"/><path d="M589.574 357.653l-3.462 24.091-3.56 1.414 3.511-24.091 3.511-1.414z" fill="#9B7451"/><path d="M589.575 357.653l-1.659.682-.195.049-1.658.683-22.091-17.459 1.609-.634.195-.097 1.756-.683 22.043 17.459z" fill="#CAAF8F"/><path d="M565.142 356.19l-3.462 24.091-.049-.049-2.975-2.292 3.511-24.14 2.975 2.39z" fill="#9B7451"/><path d="M590.696 345.9l-25.554 10.29-1.414-1.122-.147-.146-1.267-.976-.147-.097 21.458-8.632 1.609-.683 2.439-.975 1.17.927.78.585 1.073.829z" fill="#CAAF8F"/><path d="M597.573 362.578l-7.413 2.975.878-5.852 7.364-2.975-.829 5.852z" fill="#E5E0DC"/><path d="M597.524 358.384l-5.999 2.39.098-.634 5.998-2.39-.097.634z" fill="#4F2E16"/><path d="M597.329 359.555l-5.95 2.438.049-.293 5.949-2.389-.048.244zm-.098.78l-5.998 2.389.048-.292 5.999-2.39-.049.293zm-.097.829l-5.999 2.39.049-.293 5.998-2.39-.048.293zm-.147.78l-5.95 2.39.049-.293 5.95-2.39-.049.293z" fill="#B2AEAB"/><path d="M550.993 91.301l-.319.671-.374-.645.319-.671.374.645z" fill="#4F2E16"/><path d="M551.76 46.674l-3.779.212-12.242.716-5.164 10.144-.866 1.674-.082.202-.787 1.54-5.602 11.05 11.165-.612 1.11-.068.206.013 1.803-.094 1.802-.094 12.031-.66 5.528-10.986.792-1.608.082-.202.829-1.641 5.168-10.214-11.994.628z" fill="#FFDDA8"/><path d="M551.429 70.633l13.303 20.323-11.999.697-.069-.004-2.114.109-.73.058-.903.081-1.142.032-11.1.684-13.4-20.433 12.343-.676.904-.08.692-.027 2.184-.104 12.031-.66z" fill="#BC7C46"/><path d="M558.692 56.232l-.437.905-.351.635-.078.133-.114.166-.824 1.572-5.528 10.985 13.303 20.324 5.56-10.949.947-1.875.319-.671.469-.87 5.201-10.176-13.336-20.36-5.131 10.18z" fill="#DDA866"/><path d="M563.624 85.497l-.078.133L562 83.287l.082-.202 1.542 2.412z" fill="#4F2E16"/><path d="M562.743 83.023l-.013.206-.656-.007.1 1.147-.105.028-.12-1.39.794.016zm1.746.8l-.078.134-1.578-2.38.115-.166 1.541 2.412z" fill="#4F2E16"/><path d="M563.576 81.313l.019.243-.656-.007.101 1.147-.175.023-.051-1.385.762-.021zm1.296 1.913l-1.58 3.148c-.036.032-.073.065-.069-.004-.032-.037-.027-.106-.023-.174l1.58-3.149c.036-.032.073-.064.069.005.032.036.06.141.023.174z" fill="#4F2E16"/><path d="M565.278 83.907l-1.575 3.08c-.16.336-.472.35-.661.062l-1.892-2.883c-.189-.288-.223-.843-.031-1.142l1.575-3.08c.16-.335.471-.35.661-.062l1.892 2.883c.189.288.191.807.031 1.142zm-4.063-.773c-.118.234-.107.615.054.798l1.892 2.883c.124.215.367.196.486-.039l1.576-3.08c.118-.234.107-.614-.054-.797l-1.892-2.883c-.124-.216-.368-.196-.486.038l-1.576 3.08zm6.823-4.651l-1.617 3.181c-.159.336-.471.35-.692.026l-1.957-2.957c-.221-.325-.223-.843-.064-1.178l1.617-3.181c.159-.336.471-.35.693-.026l1.956 2.957c.221.324.223.843.064 1.178zm-4.201-.782c-.118.234-.107.615.049.867l1.957 2.956c.124.215.368.196.486-.038l1.617-3.181c.118-.235.107-.615-.05-.867l-1.956-2.956c-.125-.216-.368-.196-.486.038l-1.617 3.18z" fill="#4F2E16"/><path d="M566.711 79.263c-.037.033-.074.065-.106.028l-1.421-2.127c-.032-.037-.028-.106-.023-.175.036-.032.073-.064.105-.028l1.421 2.128c.032.037.028.106.024.174z" fill="#4F2E16"/><path d="M566.911 78.827l-.396.804c-.037.032-.074.065-.106.028-.032-.036-.028-.105-.023-.174l.396-.805c.036-.032.073-.064.105-.027.065.073.06.142.024.174zm-1.406-2.922l.664.975c.157.252.196.738.041 1.005l-.351.634c-.123.303-.398.286-.555.034l-.664-.974.159-.336.692 1.08c.032.037.101.041.106-.028.036-.032.008-.138-.024-.174l-.692-1.08.624-1.136z" fill="#4F2E16"/><path d="M535.928 47.89l-12.113 23.943 27.328-1.599 12.14-23.837-27.355 1.493z" fill="#F9C98A"/><path d="M563.985 46.233l.129.147-12.432 24.614-.092-.179 12.395-24.581zm-6.086 11.607l-.114.166-28.121 1.583.114-.165 28.121-1.584z" fill="#BC7C46"/><path d="M557.863 57.872l.222.326-.147.129-.157-.252.082-.203z" fill="#BC7C46"/><path d="M558.692 56.232l13.335 20.36-1.735 3.415-13.299-20.392 1.699-3.383z" fill="#9B7451"/><path d="M558.691 56.232l-.792 1.608-.114.166-.792 1.608-28.117 1.515.788-1.54.082-.202.865-1.673 28.08-1.482z" fill="#CAAF8F"/><path d="M539.398 71.293l13.335 20.36-.069-.004-3.747.248-13.331-20.43 3.812-.174z" fill="#9B7451"/><path d="M551.76 46.674l-12.362 24.619-1.803.094-.206-.013-1.597.107-.174.023 10.387-20.665.755-1.577 1.184-2.344 1.491-.079.972-.077 1.353-.088z" fill="#CAAF8F"/><path d="M567.948 54.637l-3.593 7.134-3.211-4.97 3.556-7.102 3.248 4.938z" fill="#E5E0DC"/><path d="M565.138 51.523l-2.919 5.76-.347-.54 2.919-5.76.347.54z" fill="#4F2E16"/><path d="M565.765 52.53l-2.85 5.764-.157-.252 2.883-5.727.124.215zm.443.65l-2.919 5.76-.157-.252 2.919-5.76.157.252zm.476.687l-2.919 5.759-.157-.252 2.919-5.76.157.253zm.406.681l-2.883 5.728-.157-.252 2.883-5.727.157.252z" fill="#B2AEAB"/><path d="M108.918 380.87l-.319.671-.374-.645.319-.671.374.645z" fill="#4F2E16"/><path d="M109.685 336.243l-3.779.212-12.242.716-5.164 10.144-.866 1.673-.082.203-.787 1.54-5.602 11.049 11.165-.611 1.11-.068.206.013 1.803-.094 1.802-.094 12.031-.66 5.528-10.986.792-1.608.082-.202.829-1.641 5.168-10.214-11.994.628z" fill="#FFDDA8"/><path d="M109.354 360.201l13.303 20.324-11.999.697-.069-.004-2.114.108-.73.058-.903.082-1.142.032-11.1.684-13.4-20.434 12.343-.675.904-.081.692-.026 2.184-.104 12.031-.661z" fill="#BC7C46"/><path d="M116.617 345.801l-.437.905-.351.635-.078.133-.114.165-.824 1.573-5.528 10.985 13.303 20.324 5.56-10.949.947-1.876.319-.671.469-.868 5.201-10.177-13.336-20.36-5.131 10.181z" fill="#DDA866"/><path d="M121.549 375.066l-.078.133-1.545-2.343.081-.202 1.542 2.412z" fill="#4F2E16"/><path d="M120.668 372.591l-.013.207-.656-.007.1 1.147-.105.028-.12-1.39.794.015zm1.746.801l-.078.134-1.578-2.38.115-.166 1.541 2.412z" fill="#4F2E16"/><path d="M121.501 370.882l.019.243-.656-.007.101 1.147-.175.023-.051-1.385.762-.021zm1.296 1.913l-1.58 3.148c-.036.032-.073.065-.069-.004-.032-.037-.027-.106-.023-.174l1.58-3.149c.037-.032.073-.065.069.004.032.037.06.142.023.175z" fill="#4F2E16"/><path d="M123.203 373.476l-1.575 3.08c-.16.336-.472.35-.661.062l-1.892-2.883c-.189-.288-.223-.843-.031-1.142l1.575-3.08c.16-.335.472-.35.661-.062l1.892 2.883c.189.288.191.807.031 1.142zm-4.063-.773c-.118.234-.107.615.054.798l1.892 2.883c.124.215.367.196.486-.039l1.576-3.079c.118-.235.107-.616-.054-.799l-1.892-2.883c-.124-.215-.368-.196-.486.039l-1.576 3.08zm6.823-4.651l-1.617 3.181c-.159.336-.471.35-.692.026l-1.957-2.957c-.221-.325-.223-.843-.064-1.178l1.617-3.181c.159-.336.471-.351.693-.026l1.956 2.956c.221.325.223.844.064 1.179zm-4.201-.782c-.118.234-.107.615.05.867l1.956 2.956c.125.215.368.196.486-.039l1.617-3.18c.118-.235.107-.615-.05-.867l-1.956-2.956c-.125-.216-.368-.196-.486.038l-1.617 3.181z" fill="#4F2E16"/><path d="M124.636 368.832c-.037.033-.074.065-.106.028l-1.421-2.128c-.032-.036-.028-.105-.023-.174.036-.032.073-.064.105-.028l1.421 2.128c.032.037.028.106.024.174z" fill="#4F2E16"/><path d="M124.836 368.396l-.396.804c-.037.032-.074.065-.106.028-.032-.036-.028-.105-.023-.174l.396-.804c.036-.033.073-.065.105-.028.065.073.06.142.024.174zm-1.406-2.922l.664.975c.157.252.196.738.041 1.005l-.351.634c-.123.303-.398.286-.555.034l-.664-.975.159-.335.692 1.08c.032.037.101.041.106-.028.036-.032.008-.138-.024-.174l-.692-1.08.624-1.136z" fill="#4F2E16"/><path d="M93.853 337.459L81.74 361.402l27.328-1.599 12.14-23.837-27.355 1.493z" fill="#F9C98A"/><path d="M121.91 335.802l.129.147-12.432 24.614-.092-.179 12.395-24.582zm-6.086 11.607l-.114.166-28.12 1.583.113-.165 28.121-1.584z" fill="#BC7C46"/><path d="M115.788 347.441l.222.326-.147.129-.157-.252.082-.203z" fill="#BC7C46"/><path d="M116.617 345.801l13.335 20.36-1.735 3.415-13.299-20.392 1.699-3.383z" fill="#9B7451"/><path d="M116.616 345.801l-.792 1.608-.114.166-.792 1.608-28.117 1.515.788-1.54.082-.202.865-1.673 28.08-1.482z" fill="#CAAF8F"/><path d="M97.322 360.861l13.336 20.361-.069-.005-3.747.249-13.331-20.43 3.811-.175z" fill="#9B7451"/><path d="M109.685 336.243l-12.362 24.618-1.803.094-.206-.013-1.597.107-.174.024 10.387-20.665.755-1.577 1.184-2.344 1.491-.079.972-.077 1.353-.088z" fill="#CAAF8F"/><path d="M125.873 344.206l-3.593 7.133-3.211-4.97 3.556-7.101 3.248 4.938z" fill="#E5E0DC"/><path d="M123.063 341.092l-2.919 5.76-.346-.54 2.919-5.76.346.54z" fill="#4F2E16"/><path d="M123.691 342.099l-2.85 5.764-.157-.252 2.882-5.727.125.215zm.442.65l-2.918 5.759-.157-.252 2.919-5.759.156.252zm.476.686l-2.919 5.76-.157-.252 2.919-5.759.157.251zm.406.682l-2.883 5.727-.157-.251 2.883-5.727.157.251z" fill="#B2AEAB"/><path d="M51.218 188.831l-.743-.016.435-.606.743.016-.435.606z" fill="#4F2E16"/><path d="M92.243 171.25l-1.741-3.362-5.668-10.874-11.37-.555-1.88-.104-.219.008-1.727-.088-12.375-.583 5.13 9.934.518.985.072.193.825 1.606.824 1.606 5.53 10.705 12.286.543 1.792.063.218-.008 1.837.084 11.434.531-5.486-10.684z" fill="#FFDDA8"/><path d="M70.251 180.762l-13.09 20.461-5.551-10.661-.025-.064-.965-1.885-.352-.641-.444-.791-.497-1.029-5.17-9.845 13.15-20.595 5.672 10.984.445.79.307.622.99 1.949 5.53 10.705z" fill="#BC7C46"/><path d="M86.363 181.488l-1.005-.028-.722-.06-.153-.016-.198-.036-1.772-.108-12.286-.543-13.09 20.461 12.265.587 2.099.096.742.016.985.072 11.414.575 13.111-20.505-11.39-.511z" fill="#DDA866"/><path d="M61.687 197.975l-.154-.016 1.504-2.37.218-.008-1.569 2.394z" fill="#4F2E16"/><path d="M63.583 196.158l-.194.073-.263-.601-1.004.561-.069-.085 1.219-.678.31.73zm-.016 1.921l-.153-.016 1.524-2.414.198.036-1.569 2.394z" fill="#4F2E16"/><path d="M65.484 196.217l-.214.118-.263-.602-1.005.562-.092-.149 1.242-.615.332.686zm-1.214 1.967l-3.52-.152c-.044-.02-.088-.04-.024-.064.02-.045.085-.069.15-.093l3.519.151c.044.021.089.041.024.065-.02.044-.105.113-.15.093z" fill="#4F2E16"/><path d="M63.814 198.834l-3.455-.176c-.37-.008-.512-.286-.327-.577l1.855-2.907c.186-.291.678-.549 1.03-.497l3.454.176c.372.008.513.286.328.577l-1.856 2.907c-.185.29-.657.505-1.029.497zm-.958-4.024c-.263-.012-.605.154-.706.376l-1.855 2.907c-.146.202-.028.416.234.428l3.455.175c.262.012.605-.153.706-.375l1.855-2.907c.145-.202.028-.416-.234-.428l-3.455-.176zm7.037 4.319l-3.564-.171c-.371-.008-.512-.287-.307-.622l1.896-2.995c.205-.336.677-.55 1.049-.542l3.564.172c.371.008.512.286.307.621l-1.896 2.996c-.205.335-.677.549-1.049.541zm-1.007-4.152c-.262-.012-.605.153-.77.4l-1.896 2.995c-.145.202-.028.416.234.428l3.564.172c.263.012.606-.154.77-.4l1.896-2.996c.145-.202.028-.415-.234-.427l-3.564-.172z" fill="#4F2E16"/><path d="M68.638 198.238c-.045-.02-.09-.04-.069-.085l1.36-2.168c.02-.044.084-.068.148-.093.045.021.09.041.069.085l-1.359 2.168c-.02.044-.085.069-.15.093z" fill="#4F2E16"/><path d="M69.118 198.242l-.896-.032c-.044-.02-.088-.04-.068-.085.02-.044.084-.068.149-.093l.896.032c.044.02.089.04.069.085-.04.089-.105.113-.15.093zm2.089-2.479l-.617 1.005c-.165.246-.593.48-.9.448l-.722-.06c-.327.012-.424-.246-.258-.492l.617-1.005.37.007-.7 1.074c-.021.045.003.109.068.085.044.02.129-.048.15-.093l.7-1.074 1.292.105z" fill="#4F2E16"/><path d="M84.648 157.305l-26.803-1.242 12.652 24.275 26.72 1.31-12.569-24.343z" fill="#F9C98A"/><path d="M97.653 182.221l-.081.178-27.547-1.258.125-.157 27.503 1.237zm-13.082-.797l-.197-.036-12.965-25.005.198.036 12.964 25.005z" fill="#BC7C46"/><path d="M84.527 181.404l-.206.336-.178-.081.166-.247.218-.008z" fill="#BC7C46"/><path d="M86.363 181.488l-13.11 20.506-3.827-.184 13.155-20.486 3.782.164z" fill="#9B7451"/><path d="M86.364 181.488l-1.793-.064-.197-.036-1.792-.064-12.9-25.029 1.728.088.218-.008 1.88.104 12.856 25.009z" fill="#CAAF8F"/><path d="M64.72 170.057l-13.11 20.505-.025-.065-1.761-3.316 13.175-20.53 1.721 3.406z" fill="#9B7451"/><path d="M92.243 171.25l-27.522-1.193-.824-1.606-.073-.194-.752-1.412-.093-.15 23.107 1.01 1.748.044 2.623.119.683 1.328.469.855.634 1.199z" fill="#CAAF8F"/><path d="M91.61 189.279l-7.98-.355 3.219-4.966 7.935.335-3.174 4.986z" fill="#E5E0DC"/><path d="M93.299 185.44l-6.45-.304.351-.537 6.45.304-.351.537z" fill="#4F2E16"/><path d="M92.638 186.425l-6.426-.239.166-.246 6.405.283-.145.202zm-.411.67l-6.45-.304.165-.246 6.45.304-.165.246zm-.432.715l-6.45-.304.165-.246 6.45.303-.165.247zm-.455.649l-6.406-.283.165-.246 6.405.283-.165.246z" fill="#B2AEAB"/></svg>