<svg width="267" height="297" fill="none" xmlns="http://www.w3.org/2000/svg"><path d="M-21.032 300.032c-53.002-53.001-53.002-138.934 0-191.936 53.001-53.001 138.934-53.001 191.935 0 53.002 53.002 53.002 138.935 0 191.936-53.001 53.002-138.934 53.002-191.935 0z" fill="#FFA982"/><path d="M62.83 68.855a85.8 85.8 0 01-1.739 1.09c-.055-.386-28.603 8.65-31.529 9.987-8.467 3.875-13.666 5.264-4.377 8.203-4.038-1.278-13.151 23.534-19.56 22.507-6.234-1.002-8.07 6.011-9.724 10.832-.874 2.554-3.601 4.045-2.58 7.118.323.975 4.775 2.978 4.436 3.623-1.87 3.556-10.386 3.963-10.435 9.189.822 1.311 2.071 1.941 3.748 1.892 3.947 1.595.209 4.785-.548 7.254-1.827 5.959-7.531 11.253-11.661 4.472-4.152-6.817 5.353-13.491-.41-20.445-3.38-4.077-12.415 3.236-10.272-4.554.613-2.231 10.007-12.091 4.801-13.543-.251-.071-.427-.58-.535-1.418C-12.11 97.246 8.178 83.223 32.182 75.258a135.815 135.815 0 0130.648-6.403zM17.676 269.296c-.043-3.911 7.274-7.558 11.237-7.395 8.497.346 10.747-2.404 18.644-4.439 6.628-1.709 5.607-12.998 15.67-13.484 5.359-.261 15.464-14.832 20.748-10.474 3.497 2.884 10.232-4.857 12.58-4.886 5.422-.065 1.038 3.154 4.58-.884 2.333-2.655 8.736 2.932 10.086 4.518 2.619 3.066 14.029-1.537 15.81-5.94.629-1.559-3.021-7.828-.303-12.291 1.043-1.715 8.601-.456 9.772-1.598 1.575-1.536-4.048-7.182-3.415-8.357 2.639-4.892 11.299 7.379 15.076-2.495 3.069-8.027-.93-11.041-1.722-18.778-.372-3.64-6.57-5.421-9.574-4.103-4.817 2.116-4.172.143-7.822-.255-2.883-.313-5.946 2.955-8.728 3.435-3.282.567-1.034 9.775-4.13 11.98-1.797 1.279-1.754-12.385-1.872-12.714-1.963-5.539-10.545-5.036-11.915-9.688-3.376-11.458-11.142-10.6-20.536-14.645-4.479-1.928-15.553-4.165-18.355-8.556-5.222-8.187 8.504-20.399 12.085-26.169.043-.069 3.174 3.529 3.898 3.558 2.662.111 5.131-14.887 10.226-6.275.972 1.64 4.7 2.13 2.62 4.55-4.065 4.726 3.809 5.858 6.262 5.186 2.489-.682 14.711-7.76 10.415-11.706-8.761-8.054-10.751-3.885-19.845-3.924-10.425-.046-10.803 9.756-19.424-.728-2.385-2.9 13.194-11.188 10.118-14.864-10.881-13.001-16.87 15.872-20.95 20.882-5.963 7.323-9.802 3.461-9.33-4.622.226-3.806-7.877-7.352-8.431-11.462-.114-.838 5.222-8.415 6.015-8.924 2.811-1.81 3.46-3.715 4.906-5.516 1.82-2.27 4.674 1.129 6.298-.9.75-.94 14.427-.414 15.885-.398 7.186-.274 15.23-.036 22.47.075 2.972-.114 18.697 7.57 19.115 1.282.205-3.118-3.533-8.595 3.144-6.067 2.137.809 3.487-.382 3.056-.47 4.609.94 13.227 4.156 16.919 7.47 2.045 1.836-2.854 2.684-3.19 4.26-.646 3.037 7.007 8.689 8.719 10.656 6.087 7.013 5.813 16.345 14.013 23.165 9.469 7.878 9.997 19.398 10.089 30.25.045 5.268 4.56 7.486 1.709 13.445-2.434 5.086-6.958 7.522-7.711 13.697-.496 4.054 2.681 7.818 1.148 11.765-1.889 4.857-5.48 9.169-9.88 11.478-9.384 4.926-15.526 8.618-21.541 17.643-7.46 11.188-20.752 6.306-16.397 17.598 1.833 4.759 6.507 7.019 8.422 12.101 2.293 6.093-2.114 10.497-4.948 15.442-2.854 4.98-3.911 10.956-8.911 14.348-3.582 2.43-10.106 4.449-11.029 9.388-1.467 7.857 5.167 17.679 4.463 24.871-.477 4.84-.565 9.818-4.776 12.975-7.587 5.689-5.786-2.241-10.5-5.988-4.42-3.517-9.632-2.476-14.68-3.875-4.633-1.285.886-2.985-.99-4.038-3.975-2.235-6.334 1.118-10.124-2.284-3.45-3.102-8.122-3.986-9.73-8.829-2.629-7.927-14.577-5.024-19.554-11.185-3.07-3.797-4.4-7.838-5.777-12.437-1.696-5.663-10.043-8.256-10.108-14.375.042 4.09-.046-4.094 0 0z" fill="#E24949"/><path d="M96.216 56.268c1.282 2.263 14.163 22.02 11.466 41.347l-14.018-5.02-6.406-26.05 8.958-10.277z" fill="#FFA982"/><path d="M40.24 48.17s8.614-15.297 29.577-11.07c20.966 4.23 32.406 33.947 26.722 92.81 0 0-33.308-13.113-76.614-2.543 0 .002 7.128-57.005 20.315-79.197z" fill="#42A9D1"/><path d="M24.25 41.989l14.737 14.57s37.78 10.11 48.272 9.988c10.493-.121 14.623-7.717 14.623-7.717s-8.857-13.89-26.777-20.173a52.806 52.806 0 00-5.288-1.554c-3.093-.735-6.24-1.158-9.362-1.343-18.547-1.095-36.205 6.229-36.205 6.229z" fill="#42A9D1"/><path d="M24.25 41.988c-2.355 2.536 1.278 5.307 5.346 9.33 4.07 4.025 8.273 6.37 9.389 5.24 1.115-1.128-1.277-5.306-5.346-9.33-4.069-4.023-8.307-6.403-9.388-5.24z" fill="#2E2E46"/><path d="M37.026 56.617s.22-2.91-3.474-6.625c-2.224-2.237-5.04-3.7-6.927-4.51a2.16 2.16 0 00-2.866 1.197l-1.182 3.016 5.502 3.509 8.947 3.413z" fill="#FFA982"/><path d="M63.067 110.583s-45.463-24.4-61.757 2.219c-12.064 19.702 6.07 38.053 73.327 36.189 0 0 6.647-3.083 5.029-19.076-.643-6.34-16.599-19.332-16.599-19.332z" fill="#000"/><path d="M63.068 110.583s60.55-24.564 72.531-9.208c13.77 17.648.566 47.613-63.26 36.9l-7.777-8.365-1.494-19.327z" fill="#000"/><path d="M80.052 134.312s11.16.45 16.4 2.996c5.243 2.546 2.443 8.761-8.201 8.595-10.645-.167-9.836-1.735-9.836-1.735s2.023-5.456 1.637-9.856z" fill="#2E2E46"/><path d="M74.709 149.091c7.466-5.277 5.105-19.065 5.079-19.202l-.013-.071-.07-.024-45.963-16.567-.087.238 45.895 16.543c.174 1.081 2.07 13.891-4.99 18.88l.149.203z" fill="#020202"/><path d="M65.767 111.752c3.696 0 6.731-.925 9.193-2.765 4.647-3.474 5.512-9.01 4.838-12.696l-4.447-2.562c-.222-1.208-8.804 3.284-8.788 3.278-.04.013-4.096 1.177-18.164-5.943-9.793-4.957-14.729-11.99-15.088-21.503-.273-7.172 2.956-11.2 3.717-12.947.1-.232-4.733-5.03-4.595-5.52l-3.625-1.824c.117-.413-3.484-1.82-3.431-1.936l-2.798 2.359c-1.38 3.162-4.314 10.42-3.936 20.42.393 10.391 4.724 24.732 23.128 34.043 10.033 5.084 17.907 7.596 23.996 7.596z" fill="#FFA982"/><path d="M68.752 112.336h39.235c.822 0 1.549-.518 1.811-1.285l8.154-24.114c.409-1.214-.508-2.467-1.811-2.467h-37.73c-1.72 0-3.248 1.084-3.79 2.689l-7.677 22.711c-.413 1.213.507 2.466 1.808 2.466z" fill="#C4C4C4"/><path d="M71.213 112.336h39.235c.823 0 1.552-.518 1.811-1.285l8.154-24.114c.41-1.214-.508-2.467-1.811-2.467h-37.73c-1.72 0-3.247 1.084-3.79 2.689l-7.677 22.711c-.41 1.213.508 2.466 1.808 2.466z" fill="#C4C4C4"/><path d="M98.707 97.615c0-.914-1.065-1.287-1.999-1.287-.93 0-2.45 1.004-2.44 2.287.01 1.385 1.103 1.565 2.033 1.565.93-.003 2.406-1.401 2.406-2.565z" fill="#DEEBE9"/><path d="M56.768 108.928h53.702v3.408H55.657a1.146 1.146 0 01-1.147-1.147 2.26 2.26 0 012.258-2.261z" fill="#C4C4C4"/><path d="M74.002 96.66c.019-.07 1.944-7.22 3.192-9.44 1.229-2.19 2.741-2.623 2.757-2.628l-.066-.246c-.066.018-1.631.465-2.913 2.747-1.262 2.25-3.136 9.206-3.215 9.5l.245.068zm-5.797 12.395c1.454 0 1.816-.637 1.83-.663l.007-.019 3.06-9.044-.242-.082-3.053 9.031c-.04.061-.397.526-1.602.526v.251z" fill="#2E2E46"/><path d="M30.498 90.847c.225 0 .436-.053.627-.161.96-.556.933-2.34-.061-4.061-.46-.799-1.06-1.454-1.687-1.854-.677-.428-1.317-.51-1.8-.232-.96.555-.934 2.34.06 4.06.799 1.386 1.944 2.248 2.86 2.248zm-2.292-5.962c.261 0 .573.106.901.315.56.354 1.098.949 1.518 1.676.825 1.427.938 2.971.246 3.368-.69.4-1.97-.47-2.795-1.898s-.936-2.972-.246-3.368a.759.759 0 01.376-.093z" fill="#F18C7E"/><path d="M60.133 35.722c2.577-.074 4.534-.338 6.014-2.064l4.59-5.346 1.335-1.558 7.855-9.15-4.124 10.7-2.477 6.422-.783 2.033c-.532 1.38.172 2.022.666 3.638.201.653 1.555 4.68-1.972 4.703-4.394.032-9.949-5.026-11.17-9.393a.199.199 0 00.066.015z" fill="#FFA982"/><path d="M69.463 24.877s-8.648-8.23-3.659-15.178c4.99-6.948 6.237 11.152 6.237 11.152l-1.393 4.182-1.185-.156zm1.319 3.25c-.016.06-.032.121-.042.185-.804 3.609 2.559 6.427 2.559 6.427l.029-.013 2.477-6.422c-1.052-.78-2.601-1.724-3.73-1.55-.59.093-1.063.49-1.293 1.373z" fill="#2E2E46"/><path d="M89.091 23.656c1.952-6.433-.793-12.96-6.128-14.576-5.335-1.618-11.242 2.287-13.19 8.72-1.951 6.432.793 12.96 6.128 14.578 5.333 1.613 11.24-2.29 13.19-8.722z" fill="#FFA982"/><path d="M71.6 16.87s2.754 1.982 5.062.306c2.308-1.676 3.942-3.265 9.11-.69 5.17 2.575 10.828 1.42 11.874-1.48 1.045-2.901-1.417-5.125-4.663-4.98-3.247.144.687-1.617-1.57-4.668-2.259-3.049-7.988.092-10.827-1.42-2.84-1.512-12.958-2.824-14.777 5.758l5.79 7.173z" fill="#2E2E46"/><path d="M69.436 18.588c.664 1.015 1.938 1.356 2.845.764.907-.593 1.105-1.899.439-2.914-.664-1.015-1.938-1.356-2.845-.764-.904.595-1.103 1.898-.439 2.914z" fill="#FFA982"/><path d="M91.933 14c.193 0 .378-.02.555-.065 1.164-.291 1.489-.897 1.407-1.362-.095-.537-.751-1.052-1.787-.947-1.542.156-2.385-.356-2.393-.362l-.201.318c.037.023.949.59 2.633.42.77-.077 1.314.27 1.378.637.066.383-.365.74-1.13.933-1.99.5-5.427-2.564-5.464-2.596l-.251.28c.137.122 3.082 2.745 5.253 2.745zm-8.929-7.185c2.097 0 3.982-.9 4.146-1.087l-.283-.249.143.125-.132-.135c-.193.161-3.268 1.634-5.899.613-.88-.34-1.652-.745-2.398-1.137-1.528-.8-2.85-1.49-4.357-1.2l.072.37c1.377-.267 2.646.397 4.11 1.166.757.397 1.537.804 2.438 1.153.7.275 1.444.38 2.16.38zM68.416 9.252c.555 0 1.583-.859 1.853-1.401.196-.4-.005-.582-.103-.64-.756-.47-1.85 1.002-2.062 1.304l-.019.026-.008.032c-.124.457.072.605.199.655a.38.38 0 00.14.024zm1.422-1.755c.048 0 .09.01.127.034.019.034-.019.238-.402.621-.51.513-1.042.762-1.158.725.003-.003-.008-.05.021-.175.389-.536 1.04-1.205 1.412-1.205z" fill="#fff"/><path d="M8.826 128.152a4.25 4.25 0 002.126-.563c1.108-.64 1.858-1.74 2.112-3.102.251-1.345-.013-2.784-.745-4.053-1.52-2.633-4.606-3.706-6.88-2.392-2.273 1.314-2.887 4.523-1.367 7.154.733 1.269 1.849 2.218 3.139 2.673.54.19 1.084.283 1.615.283zm-1.258-10.166c1.63 0 3.328.994 4.315 2.7.671 1.163.914 2.48.684 3.706-.227 1.211-.89 2.189-1.869 2.755-.978.563-2.157.651-3.32.241-1.177-.415-2.195-1.285-2.867-2.448-1.38-2.39-.848-5.288 1.182-6.462a3.743 3.743 0 011.875-.492z" fill="#2E2E46"/><path d="M81.368 21.044a.205.205 0 00.071-.38c-.058-.033-1.335-.91-2.701.25a.206.206 0 00-.03.288c.072.088.188.08.289.03 1.012-.508 2.197-.238 2.244-.212.04.024.085.03.127.024zm-1.89 2.026c-.077.48.143.916.495.975.349.055.695-.289.772-.772.076-.482-.143-.918-.495-.973-.349-.059-.693.288-.772.77zm9.04.541c.048.01.1-.003.143-.047a.246.246 0 00.042-.286c-.029-.05-.624-1.282-1.999-.645-.087.04-.142.153-.121.259.018.106.103.135.193.122.894-.146 1.636.491 1.66.534.021.034.05.055.082.063zm-2.565 1.142c-.257.415-.217.904.084 1.09.302.184.754-.003 1.01-.418.254-.415.217-.905-.084-1.09-.304-.187-.756 0-1.01.418z" fill="#060633"/><path d="M80.1 29.88c.718 0 1.223-.125 1.237-.127a.144.144 0 00-.071-.278c-.14.037-3.472.84-5.111-2.028a.143.143 0 00-.196-.053.143.143 0 00-.053.196c1.105 1.93 2.961 2.29 4.193 2.29z" fill="#020202"/><path d="M75.615 28.09a.138.138 0 00.135-.098c.066-.198.26-.497.814-.812a.274.274 0 01.043-.024.141.141 0 00.04-.198.141.141 0 00-.196-.04l-.027.016c-.507.288-.825.616-.941.97a.143.143 0 00.09.18c.013.006.026.006.042.006z" fill="#020202"/><path d="M73.188 49.947l.019-.632c-11.266-.32-15.33-9.978-15.37-10.076l-.586.238c.042.103 1.065 2.572 3.543 5.116 2.29 2.345 6.297 5.182 12.394 5.353z" fill="#2E2E46"/><path d="M67.824 55.356l.333-.537c-.058-.037-5.806-3.686-6.55-10.213l-.628.071c.777 6.837 6.784 10.64 6.845 10.679zm24.016 2.896l2.314 6.974-.6.199-2.314-6.974.6-.199z" fill="#2E2E46"/><path d="M87.103 31.648c.137 0 .277-.01.42-.029 1.515-.203 3.088-1.472 4.212-3.397 1.826-3.13 1.909-7.056.182-8.751-.64-.627-1.457-.896-2.364-.775-1.514.204-3.088 1.473-4.211 3.397-1.827 3.13-1.91 7.057-.183 8.752.54.528 1.206.803 1.944.803zm2.866-12.553c.626 0 1.192.233 1.65.68 1.596 1.568 1.483 5.258-.252 8.233-1.057 1.81-2.514 3.003-3.902 3.19-.772.104-1.465-.123-2.01-.655-1.596-1.568-1.483-5.261.252-8.233 1.057-1.81 2.514-3.003 3.902-3.19a2.78 2.78 0 01.36-.025z" fill="#E24949"/><path opacity=".3" d="M75.06 17.496c-1.478 3.114-1.07 6.9.912 8.46 1.983 1.56 4.788.299 6.266-2.813 1.478-3.114 1.071-6.9-.912-8.46-1.983-1.56-4.788-.299-6.266 2.813zm10.134 4.851c-1.483 3.128-1.282 6.924.447 8.48 1.732 1.554 4.338.277 5.822-2.851 1.483-3.128 1.282-6.924-.447-8.479-1.732-1.554-4.339-.277-5.822 2.85z" fill="#fff"/><path d="M78.193 26.794c.286 0 .576-.034.873-.103 1.583-.375 3.027-1.7 3.955-3.633 1.597-3.323 1.113-7.405-1.076-9.1-.883-.684-1.93-.91-3.025-.65-1.584.375-3.027 1.7-3.955 3.633-1.597 3.323-1.113 7.405 1.076 9.1.645.5 1.377.753 2.152.753zm1.594-13.164a3.06 3.06 0 011.896.664c2.041 1.578 2.47 5.428.954 8.58-.859 1.79-2.23 3.061-3.67 3.402-.964.227-1.887.032-2.667-.571-2.04-1.578-2.47-5.428-.954-8.58.859-1.79 2.231-3.061 3.67-3.402.261-.064.518-.093.771-.093z" fill="#E24949"/><path d="M85.445 23.68a.395.395 0 00.315-.637c-.043-.056-1.074-1.36-3.273-1.415a.396.396 0 10-.021.793c1.803.045 2.63 1.066 2.665 1.108a.41.41 0 00.314.15z" fill="#E24949"/><path d="M101.232 102.51a.33.33 0 00.26-.126c.402-.513.821-1.023 1.247-1.517a.33.33 0 00-.5-.432c-.432.5-.858 1.019-1.267 1.541a.332.332 0 00.26.534zm45.118 147.245a.33.33 0 00.33-.326.327.327 0 00-.326-.332 124.082 124.082 0 01-3.92-.102.33.33 0 00-.027.657c1.321.056 2.647.09 3.941.103h.002zm3.93-.03h.009c1.321-.032 2.647-.09 3.941-.168a.33.33 0 00-.041-.658c-1.285.079-2.602.136-3.915.168a.331.331 0 00-.322.339.33.33 0 00.328.319zm-11.785-.3a.33.33 0 00.024-.66 133.367 133.367 0 01-3.907-.343.33.33 0 00-.068.656 142.035 142.035 0 003.951.347zm19.633-.185c.011 0 .021 0 .034-.003a94.384 94.384 0 003.916-.474.331.331 0 00.281-.373.332.332 0 00-.373-.28c-1.272.18-2.581.34-3.89.47a.333.333 0 00-.296.362.33.33 0 00.328.298zm-27.453-.611a.331.331 0 00.04-.658 144.553 144.553 0 01-3.883-.557.33.33 0 00-.102.651 160.561 160.561 0 003.945.564zm35.235-.5a.274.274 0 00.062-.007c1.3-.244 2.598-.519 3.86-.817a.33.33 0 10-.151-.64 85.553 85.553 0 01-3.83.81.33.33 0 00.059.654zm-43.004-.715a.33.33 0 00.057-.654 163.205 163.205 0 01-3.852-.751.328.328 0 00-.389.256.328.328 0 00.255.389c1.288.268 2.588.521 3.867.755a.444.444 0 00.062.005zm50.652-1.094c.03 0 .062-.004.092-.013a75.705 75.705 0 003.762-1.192.329.329 0 00.204-.419.329.329 0 00-.419-.204c-1.217.421-2.47.819-3.73 1.181a.33.33 0 00.091.647zm-58.352-.504a.332.332 0 00.322-.256.332.332 0 00-.247-.396 173.22 173.22 0 01-3.813-.93.334.334 0 00-.403.239.333.333 0 00.239.402c1.27.326 2.558.641 3.828.934a.442.442 0 00.074.007zm-7.618-1.95a.33.33 0 00.09-.647 168.232 168.232 0 01-3.767-1.102.33.33 0 10-.191.63c1.249.381 2.521.753 3.781 1.107a.315.315 0 00.087.012zm73.397-.119c.04 0 .083-.008.126-.025a70.67 70.67 0 003.613-1.594.33.33 0 00-.285-.596 69.968 69.968 0 01-3.58 1.579.33.33 0 00.126.636zm-80.921-2.175a.329.329 0 00.102-.642 156.92 156.92 0 01-3.714-1.277.329.329 0 00-.421.2.328.328 0 00.2.421c1.21.434 2.466.864 3.728 1.281a.307.307 0 00.105.017zm88.014-1.2a.327.327 0 00.157-.04 66.435 66.435 0 003.403-2.005.33.33 0 00-.353-.557 66.713 66.713 0 01-3.369 1.985.329.329 0 00-.13.447c.064.108.177.17.292.17zm6.645-4.192a.32.32 0 00.192-.062 64.198 64.198 0 003.134-2.402.33.33 0 00-.417-.511 64.182 64.182 0 01-3.102 2.379.33.33 0 00-.075.46.33.33 0 00.268.136zm6.084-4.967c.081 0 .16-.03.224-.087a66.737 66.737 0 002.819-2.764.329.329 0 10-.476-.456 67.675 67.675 0 01-2.79 2.739.33.33 0 00-.019.466.34.34 0 00.242.102zm5.433-5.673c.094 0 .187-.04.253-.117a56.338 56.338 0 002.439-3.111.33.33 0 00-.072-.46.33.33 0 00-.46.073 56.705 56.705 0 01-2.409 3.074.328.328 0 00.249.541zm4.612-6.354c.11 0 .219-.056.28-.158a47.554 47.554 0 001.937-3.449.33.33 0 10-.587-.298 47.859 47.859 0 01-1.911 3.403.329.329 0 00.281.502zm3.551-7.001c.13 0 .253-.079.307-.207a44.633 44.633 0 001.313-3.734.33.33 0 00-.632-.19 43.855 43.855 0 01-1.292 3.677.33.33 0 00.304.454zm2.258-7.519a.33.33 0 00.323-.263c.26-1.292.46-2.609.596-3.916a.33.33 0 00-.655-.068 41.743 41.743 0 01-.587 3.854.328.328 0 00.257.389c.023.002.045.004.066.004zm.811-7.805a.332.332 0 00.33-.328l.002-.349c0-1.196-.053-2.409-.156-3.607a.33.33 0 10-.657.058 41.33 41.33 0 01.153 3.549c0 .115 0 .23-.002.345a.328.328 0 00.328.332h.002zm-.671-7.82c.02 0 .039-.003.06-.007a.33.33 0 00.266-.383 44.337 44.337 0 00-.877-3.86.329.329 0 00-.406-.23.33.33 0 00-.23.407c.345 1.253.636 2.532.864 3.802a.33.33 0 00.323.271zm-27.859-.02c.9 0 1.813-.057 2.717-.17a.33.33 0 00-.081-.655 21.194 21.194 0 01-3.862.127.33.33 0 00-.041.66c.42.026.845.038 1.267.038zm-5.122-.651a.333.333 0 00.319-.244.328.328 0 00-.234-.403 17.081 17.081 0 01-3.59-1.387.329.329 0 10-.307.583 17.838 17.838 0 003.729 1.441c.027.006.055.01.083.01zm11.638-.338a.29.29 0 00.095-.015 24.077 24.077 0 003.695-1.479.328.328 0 00.146-.443.328.328 0 00-.442-.146 23.288 23.288 0 01-3.594 1.438.33.33 0 00-.22.413c.047.14.177.232.32.232zm-18.503-3.326a.331.331 0 00.225-.573 12.75 12.75 0 01-2.39-2.972.33.33 0 10-.57.332 13.47 13.47 0 002.513 3.126c.06.057.141.087.222.087zm25.506-.162a.316.316 0 00.191-.062 26.821 26.821 0 003.046-2.553.33.33 0 00-.46-.473 26.11 26.11 0 01-2.969 2.492.33.33 0 00-.076.46.327.327 0 00.268.136zm12.261-3.073a.33.33 0 00.309-.445 45.568 45.568 0 00-1.543-3.645.33.33 0 00-.596.285 45.676 45.676 0 011.522 3.592.33.33 0 00.308.213zm-6.641-2.377a.325.325 0 00.259-.127 32.13 32.13 0 002.231-3.282.33.33 0 00-.566-.336 31.223 31.223 0 01-2.184 3.213.328.328 0 00.26.532zm-34.991-1.087a.236.236 0 00.07-.009.327.327 0 00.252-.391 13.458 13.458 0 01-.305-2.882c0-.308.011-.621.03-.932a.33.33 0 00-.658-.04c-.021.326-.029.651-.029.975 0 1.036.106 2.053.319 3.021.034.154.17.258.321.258zm38.262-3.628a.329.329 0 00.283-.496 45.055 45.055 0 00-2.152-3.324.329.329 0 10-.536.383 43.816 43.816 0 012.119 3.275.333.333 0 00.286.162zm.74-2.018a.327.327 0 00.3-.193 39.91 39.91 0 001.443-3.688.329.329 0 10-.624-.211 39.246 39.246 0 01-1.419 3.626.33.33 0 00.3.466zm-38.589-2.121a.33.33 0 00.317-.239 27.489 27.489 0 011.351-3.634.33.33 0 00-.598-.275 28.37 28.37 0 00-1.385 3.726.33.33 0 00.315.422zm33.29-2.256a.332.332 0 00.252-.545 41.014 41.014 0 00-2.726-2.877.33.33 0 00-.456.477 39.68 39.68 0 012.681 2.83.32.32 0 00.249.115zm7.817-3.054a.329.329 0 00.319-.251c.302-1.247.566-2.549.781-3.875a.33.33 0 10-.651-.106 50.579 50.579 0 01-.773 3.824.33.33 0 00.324.408zm-37.792-1.774a.33.33 0 00.269-.139 15.066 15.066 0 012.594-2.824.329.329 0 10-.422-.506 15.712 15.712 0 00-2.709 2.947.329.329 0 00.268.522zm24.289-.584a.329.329 0 00.2-.591 31.352 31.352 0 00-3.294-2.217.33.33 0 10-.332.57 31.169 31.169 0 013.224 2.17.348.348 0 00.202.068zm-6.788-3.911a.33.33 0 00.119-.638 20.286 20.286 0 00-3.834-1.096.33.33 0 10-.117.649 19.6 19.6 0 013.709 1.062.365.365 0 00.123.023zm-11.495-.406c.04 0 .083-.009.123-.024a12.514 12.514 0 013.713-.861.331.331 0 00.303-.356.331.331 0 00-.356-.302 13.106 13.106 0 00-3.909.909.33.33 0 00-.183.429.34.34 0 00.309.205zm33.065-1.068a.33.33 0 00.327-.298c.122-1.279.209-2.603.258-3.939a.33.33 0 00-.658-.024 69.334 69.334 0 01-.253 3.901.33.33 0 00.298.36c.006-.003.017 0 .028 0zm.291-7.849h.006a.327.327 0 00.324-.334 86.583 86.583 0 00-.155-3.943.329.329 0 10-.658.041c.083 1.323.134 2.638.155 3.911a.328.328 0 00.328.325zm-.485-7.845c.013 0 .023 0 .036-.003a.332.332 0 00.294-.364 76.403 76.403 0 00-.52-3.911.33.33 0 00-.651.102c.202 1.271.377 2.575.515 3.878.017.172.16.298.326.298zm-1.241-7.753a.331.331 0 00.324-.4 71.42 71.42 0 00-.941-3.832.33.33 0 00-.636.176c.342 1.241.657 2.518.932 3.794a.33.33 0 00.321.262zm-2.094-7.567a.332.332 0 00.313-.436 65.7 65.7 0 00-1.387-3.694.329.329 0 10-.609.251 64.423 64.423 0 011.373 3.658.33.33 0 00.31.221zm-2.983-7.261a.33.33 0 00.298-.474 62.699 62.699 0 00-1.839-3.494.33.33 0 00-.449-.124.33.33 0 00-.123.449 61.69 61.69 0 011.819 3.456c.053.119.17.187.294.187zm-3.88-6.824a.33.33 0 00.275-.511 60.28 60.28 0 00-2.275-3.228.33.33 0 10-.525.398 59.496 59.496 0 012.249 3.192c.064.096.17.149.276.149zm-4.728-6.267a.33.33 0 00.249-.547 62.11 62.11 0 00-2.673-2.907.329.329 0 10-.47.462 61.32 61.32 0 012.645 2.875.315.315 0 00.249.117zm-5.499-5.605a.33.33 0 00.219-.575 64.028 64.028 0 00-3.015-2.54.331.331 0 00-.411.516 62.56 62.56 0 012.984 2.516.349.349 0 00.223.083zm-90.089-2.094a.332.332 0 00.23-.094 46.94 46.94 0 012.909-2.598.33.33 0 00-.417-.51 46.676 46.676 0 00-2.949 2.634.33.33 0 00-.007.466.317.317 0 00.234.102zm83.937-2.775a.329.329 0 00.188-.6 67.247 67.247 0 00-3.305-2.158.33.33 0 10-.345.562 65.493 65.493 0 013.271 2.136c.061.04.127.06.191.06zm-77.872-2.207c.064 0 .13-.02.188-.06a50.916 50.916 0 013.289-2.098.327.327 0 00.117-.45.327.327 0 00-.451-.118 52.58 52.58 0 00-3.332 2.126.33.33 0 00-.083.46c.066.091.168.14.272.14zm71.178-1.89a.33.33 0 00.155-.62 70.78 70.78 0 00-3.533-1.763.33.33 0 00-.438.16.33.33 0 00.16.438c1.183.55 2.36 1.136 3.498 1.745.051.028.104.04.158.04zm-64.409-2.083c.049 0 .098-.01.145-.034a56.592 56.592 0 013.56-1.604.328.328 0 10-.251-.61 58.146 58.146 0 00-3.6 1.625.33.33 0 00-.149.442.332.332 0 00.295.181zm57.284-1.224a.328.328 0 00.306-.208.326.326 0 00-.185-.428 73.223 73.223 0 00-3.705-1.36.33.33 0 00-.21.623c1.234.416 2.468.87 3.671 1.348a.29.29 0 00.123.025zm-50.023-1.764c.034 0 .07-.006.104-.017 1.22-.41 2.477-.791 3.739-1.132a.327.327 0 00.232-.404.327.327 0 00-.404-.232c-1.275.345-2.545.73-3.777 1.145a.329.329 0 00.106.64zm42.581-.744a.329.329 0 00.088-.647 73.855 73.855 0 00-3.829-.96.33.33 0 10-.142.645 75.59 75.59 0 013.794.951c.03.006.06.01.089.01zm-35.003-1.303a.39.39 0 00.068-.006 68.786 68.786 0 013.85-.685.328.328 0 00.276-.375.327.327 0 00-.374-.276 68.492 68.492 0 00-3.886.691.326.326 0 00-.255.39.33.33 0 00.321.261zm27.338-.408a.333.333 0 00.326-.275.333.333 0 00-.27-.38 75.368 75.368 0 00-3.905-.558.33.33 0 00-.077.656c1.29.15 2.592.335 3.871.552a.198.198 0 00.055.005zm-19.569-.752c.011 0 .022 0 .032-.002a74.06 74.06 0 013.903-.257.33.33 0 00-.026-.66c-1.313.051-2.638.14-3.936.262a.33.33 0 00-.298.36.324.324 0 00.325.297zm11.77-.16a.33.33 0 00.022-.66 76.16 76.16 0 00-3.942-.152h-.004a.33.33 0 00-.004.66c1.296.017 2.611.068 3.907.153h.021zM92.509 238.857a.329.329 0 00.121-.636c-1.172-.462-1.815-.741-1.822-.743a.33.33 0 00-.264.604c.007.003.658.286 1.841.752a.324.324 0 00.124.023zM72.22 81.985a.357.357 0 00.47-.302 24.4 24.4 0 00.125-2.175.36.36 0 00-.353-.362.36.36 0 00-.363.353 23.345 23.345 0 01-.12 2.11.357.357 0 00.24.376zm-123.248 65.098a.359.359 0 00.342-.616 30.858 30.858 0 01-3.047-2.882.357.357 0 00-.525.486 31.709 31.709 0 003.118 2.947.32.32 0 00.112.065zm-5.767-6.199a.354.354 0 00.324-.05.356.356 0 00.08-.499 34.275 34.275 0 01-2.24-3.55.358.358 0 00-.627.344 35.332 35.332 0 002.286 3.624.38.38 0 00.177.131zm-4.063-7.426a.358.358 0 00.447-.468 32.12 32.12 0 01-1.28-3.992.358.358 0 00-.693.173 33.01 33.01 0 001.308 4.082c.04.099.12.172.218.205zm-2.043-8.21c.048.017.1.022.153.018a.358.358 0 00.316-.396 31.228 31.228 0 01-.18-4.187.357.357 0 10-.715-.016 31.93 31.93 0 00.184 4.281.36.36 0 00.242.3zm.196-8.455c.02.007.04.011.06.016a.358.358 0 00.408-.299 34.65 34.65 0 01.892-4.099.36.36 0 00-.248-.442.36.36 0 00-.442.249 35.599 35.599 0 00-.91 4.183.36.36 0 00.24.392zm2.275-8.149a.361.361 0 00.446-.206 43.667 43.667 0 011.765-3.817.356.356 0 00-.152-.482.356.356 0 00-.482.152 43.62 43.62 0 00-1.793 3.88.36.36 0 00.198.467l.018.006zm3.903-7.522a.355.355 0 00.415-.147 56.736 56.736 0 012.393-3.47.357.357 0 00-.573-.427 58.641 58.641 0 00-2.424 3.513.36.36 0 00.189.531zm5.01-6.841a.355.355 0 00.401-.126c.86-1.153 1.66-2.35 2.377-3.558a.357.357 0 10-.615-.365 39.396 39.396 0 01-2.336 3.493.356.356 0 00.073.5.336.336 0 00.1.056zm4.317-7.288a.358.358 0 00.44-.192 37.102 37.102 0 001.535-3.998.359.359 0 00-.226-.448l-.007-.003a.355.355 0 00-.448.232c-.06.184-.12.371-.183.557a36.323 36.323 0 01-1.321 3.363.36.36 0 00.179.474c.01.008.02.012.031.015zm2.566-8.064l.046.014a.358.358 0 00.42-.283c.268-1.398.456-2.826.556-4.246a.356.356 0 00-.331-.382.356.356 0 00-.383.332 35.2 35.2 0 01-.545 4.162.354.354 0 00.236.403zm-27.934-9.978a.36.36 0 00.451-.219.36.36 0 00-.216-.457 33.142 33.142 0 01-3.856-1.649.359.359 0 00-.325.639 33.755 33.755 0 003.946 1.686zm4.07 1.187l.034.009c1.372.318 2.79.57 4.214.746a.358.358 0 10.088-.711 40.57 40.57 0 01-4.14-.733.358.358 0 00-.195.69zm-11.596-5.048a.36.36 0 00.404-.13.359.359 0 00-.082-.5 20.866 20.866 0 01-3.136-2.74.357.357 0 00-.524.486c.925 1 2.017 1.955 3.243 2.835.03.022.06.038.095.05zm20.003 6.097c.033.01.07.018.106.018a44.254 44.254 0 004.274-.113.355.355 0 00.33-.384.355.355 0 00-.385-.329 43.5 43.5 0 01-4.205.112.357.357 0 00-.366.35c0 .16.102.297.246.346zm8.448-.638a.355.355 0 00.176.013 44.632 44.632 0 004.17-.935.357.357 0 10-.189-.69 43.2 43.2 0 01-4.105.92.358.358 0 00-.052.692zm-34.073-11.704c.088.03.184.025.274-.017a.36.36 0 00.161-.48c-.644-1.293-1.003-2.612-1.078-3.919a.36.36 0 00-.375-.338.357.357 0 00-.337.376c.078 1.405.465 2.819 1.15 4.2a.352.352 0 00.205.178zm41.684 11.642a.358.358 0 00.471-.358 36.51 36.51 0 00-.452-4.259.358.358 0 10-.707.118 36.24 36.24 0 01.442 4.175c.009.154.11.279.246.324zm.558-2.185a.36.36 0 00.24-.004 45.831 45.831 0 003.918-1.704.357.357 0 10-.315-.642 44.977 44.977 0 01-3.858 1.678.356.356 0 00.015.672zm-42.63-17.655a.356.356 0 00.443-.202c.493-1.183 1.244-2.341 2.235-3.44a.357.357 0 00-.027-.506.357.357 0 00-.506.027c-1.045 1.158-1.84 2.384-2.364 3.643a.358.358 0 00.194.467c.01.006.019.009.025.01zm40.691 11.488a.359.359 0 00.458-.44 37.398 37.398 0 00-1.422-4.04.358.358 0 10-.661.277 36.677 36.677 0 011.395 3.96.36.36 0 00.23.243zm9.544 2.438a.363.363 0 00.301-.033 49.08 49.08 0 003.547-2.38.359.359 0 00-.425-.577 48.315 48.315 0 01-3.495 2.344.356.356 0 00-.12.491.354.354 0 00.192.155zM-80.625 44.31a.357.357 0 00.323-.047 21.987 21.987 0 013.598-2.105.36.36 0 00.176-.474.36.36 0 00-.474-.176 22.592 22.592 0 00-3.715 2.172.358.358 0 00.092.63zm31.933 10.017a.358.358 0 00.427-.516 34.07 34.07 0 00-2.347-3.587.358.358 0 00-.502-.072.358.358 0 00-.072.503 33.625 33.625 0 012.297 3.51.364.364 0 00.197.162zm19.652 5.228c.116.039.25.016.35-.07a55.064 55.064 0 003.102-2.929.358.358 0 00-.511-.5 53.657 53.657 0 01-3.063 2.89.358.358 0 00.122.609zm-24.74-11.99a.358.358 0 00.369-.59 28.091 28.091 0 00-3.24-2.815.357.357 0 10-.425.575 27.622 27.622 0 013.159 2.745.351.351 0 00.137.085zm-19.171-6.73c.06.02.123.024.188.012a17.615 17.615 0 014.132-.37.356.356 0 10.021-.715 18.376 18.376 0 00-4.3.385.357.357 0 00-.041.688zm12.364 1.732a.359.359 0 00.271-.661 21.462 21.462 0 00-4.028-1.524.358.358 0 00-.436.255c-.05.19.06.386.255.437a20.47 20.47 0 013.891 1.473c.017.008.031.015.047.02zm37.484 10.943c.135.045.29.007.387-.109a64.75 64.75 0 002.641-3.347.358.358 0 00-.575-.425 61.423 61.423 0 01-2.612 3.308.355.355 0 00.043.504.3.3 0 00.116.069zm5.181-6.712a.355.355 0 00.391-.112 45.349 45.349 0 012.81-3.13.357.357 0 00-.508-.502 45.996 45.996 0 00-2.853 3.179.36.36 0 00.16.566zm89.966 28.818a.36.36 0 00.468-.393 30.982 30.982 0 00-.94-4.182.356.356 0 00-.445-.24.356.356 0 00-.24.445 30.24 30.24 0 01.92 4.085.353.353 0 00.237.285zm-84.012-34.84a.355.355 0 00.343-.065 39.51 39.51 0 013.37-2.507.359.359 0 00-.396-.596 40.941 40.941 0 00-3.43 2.553.358.358 0 00-.047.503.328.328 0 00.16.112zm81.63 26.72a.358.358 0 00.442-.482 42.896 42.896 0 00-1.893-3.835.358.358 0 10-.626.347 41.004 41.004 0 011.86 3.771.36.36 0 00.217.2zm-4.105-7.412a.353.353 0 00.314-.043.355.355 0 00.095-.497 55.229 55.229 0 00-2.534-3.437.357.357 0 00-.559.445 54.748 54.748 0 012.5 3.392c.047.07.112.116.184.14zm-70.474-23.99c.088.03.19.026.278-.02a38.319 38.319 0 013.83-1.72.358.358 0 00-.255-.668 38.544 38.544 0 00-3.902 1.752.357.357 0 00.05.657zm65.193 17.353a.357.357 0 00.378-.58 65.936 65.936 0 00-2.99-3.042.357.357 0 10-.494.518c1.024.976 2.02 1.99 2.958 3.01a.38.38 0 00.148.094zM2.986 33.06a.343.343 0 00.205.006 41.12 41.12 0 014.112-.86.356.356 0 00.298-.408.356.356 0 00-.409-.299 41.33 41.33 0 00-4.184.875.36.36 0 00-.022.686zm51.157 14.531a.359.359 0 00.345-.612 70.703 70.703 0 00-3.342-2.647.356.356 0 10-.427.573 70.99 70.99 0 013.308 2.62.334.334 0 00.116.066zM11.352 31.75c.041.014.088.02.134.018a46.315 46.315 0 014.21-.042.357.357 0 00.37-.346.357.357 0 00-.347-.37 47.81 47.81 0 00-4.274.043.357.357 0 00-.336.376.353.353 0 00.242.32zm35.991 10.773c.15.05.323-.003.414-.143a.357.357 0 00-.102-.495 74.115 74.115 0 00-3.628-2.24.358.358 0 10-.36.62c1.211.7 2.42 1.446 3.595 2.216a.303.303 0 00.081.042zm-27.52-10.488a.424.424 0 00.072.018c1.372.164 2.772.39 4.162.667a.357.357 0 10.14-.7 55.854 55.854 0 00-4.217-.677.356.356 0 00-.398.312.353.353 0 00.24.38zm20.172 6.25a.357.357 0 00.273-.66 68.412 68.412 0 00-3.872-1.79.359.359 0 00-.47.188.359.359 0 00.188.47c1.28.545 2.57 1.143 3.832 1.772a.416.416 0 00.05.02zm-11.854-4.592l.02.006a61.87 61.87 0 014.024 1.265.357.357 0 00.457-.22.357.357 0 00-.22-.456 63.8 63.8 0 00-4.07-1.28.357.357 0 00-.44.25.356.356 0 00.229.435zm32.423 51.123h.03c.808-.055 1.63-.108 2.447-.153a.408.408 0 10-.044-.817c-.82.045-1.648.098-2.46.156a.41.41 0 00-.38.436.406.406 0 00.407.378z" fill="#2E2E46"/><path d="M-16.97 292.768c.342 0 .686-.002 1.03-.007.227-.002.407-.169.402-.371-.003-.199-.188-.357-.41-.357h-.008a68.01 68.01 0 01-4.893-.103c-.227-.014-.42.138-.436.338-.016.2.156.373.383.387a67.71 67.71 0 003.933.113zm5.941-.256c.013 0 .027 0 .04-.002a74.098 74.098 0 004.914-.594c.222-.035.373-.223.333-.421-.04-.197-.251-.331-.474-.295a72.278 72.278 0 01-4.853.587c-.225.018-.391.197-.367.396.02.188.2.329.407.329zm-14.739-.324c.198 0 .376-.129.405-.31.034-.199-.122-.385-.344-.413a64.214 64.214 0 01-4.8-.827c-.22-.047-.442.075-.495.27-.053.195.085.393.304.439 1.601.339 3.24.62 4.87.839l.06.002zm24.45-1.134a.419.419 0 00.093-.009c1.611-.329 3.223-.7 4.79-1.102.216-.056.343-.258.28-.451-.064-.192-.291-.305-.508-.249a99.04 99.04 0 01-4.747 1.092c-.22.045-.36.24-.307.437.045.167.214.282.4.282zm-34.024-.888c.172 0 .334-.096.39-.251.07-.19-.046-.397-.263-.46a63.436 63.436 0 01-4.577-1.531c-.21-.08-.45.007-.538.192-.087.186.008.4.217.477a65.191 65.191 0 004.642 1.552.43.43 0 00.13.021zm43.484-1.54c.045 0 .09-.007.135-.021a92.008 92.008 0 004.62-1.578c.21-.078.307-.291.22-.477-.087-.185-.328-.272-.537-.195a90.231 90.231 0 01-4.575 1.562c-.215.065-.326.274-.252.465.064.15.22.244.39.244zm-52.541-1.879c.148 0 .288-.07.362-.195.106-.178.03-.396-.172-.49a63.476 63.476 0 01-4.234-2.179.44.44 0 00-.566.112c-.122.169-.066.395.127.503a63.306 63.306 0 004.29 2.209c.063.026.126.04.193.04zm61.626-1.5c.06 0 .121-.012.18-.038a83.718 83.718 0 004.376-2.057c.196-.098.265-.322.154-.495-.111-.174-.363-.235-.559-.136a84.5 84.5 0 01-4.331 2.035c-.204.09-.289.308-.188.487a.412.412 0 00.367.204zm-69.935-3.184a.43.43 0 00.328-.146c.137-.16.1-.39-.08-.51a61.885 61.885 0 01-3.786-2.749.448.448 0 00-.58.03.336.336 0 00.035.514 61.049 61.049 0 003.837 2.785c.074.05.161.076.246.076zm78.492-1.142a.456.456 0 00.225-.058 81.79 81.79 0 004.062-2.515c.182-.12.22-.348.084-.51a.445.445 0 00-.574-.075c-1.307.862-2.66 1.7-4.022 2.489-.19.111-.243.336-.119.503.08.11.212.166.344.166zm-85.856-4.651a.439.439 0 00.285-.101.336.336 0 00.01-.515 60.109 60.109 0 01-3.26-3.238.447.447 0 00-.576-.049.337.337 0 00-.056.512 58.973 58.973 0 003.303 3.28c.08.073.185.111.294.111zm93.76-.566a.453.453 0 00.265-.085 82.137 82.137 0 003.691-2.933.335.335 0 00.016-.514.45.45 0 00-.58-.014 77.725 77.725 0 01-3.654 2.902.337.337 0 00-.05.512c.08.087.196.132.312.132zm7.142-6.024c.108 0 .22-.037.299-.115a80.039 80.039 0 003.276-3.296.335.335 0 00-.053-.512.443.443 0 00-.577.047 81.623 81.623 0 01-3.244 3.266.337.337 0 00.019.514c.079.064.18.096.28.096zm-107.171-.147a.45.45 0 00.235-.066c.185-.115.23-.343.1-.507a55.46 55.46 0 01-2.653-3.652.44.44 0 00-.561-.129c-.196.103-.26.326-.146.498a54.463 54.463 0 002.691 3.698.411.411 0 00.334.158zm113.474-6.578a.43.43 0 00.33-.148 77.687 77.687 0 002.832-3.607c.125-.169.072-.394-.119-.505a.443.443 0 00-.569.106 77.017 77.017 0 01-2.805 3.574c-.135.162-.095.39.085.51a.47.47 0 00.246.07zm-118.483-.949c.06 0 .121-.011.18-.037.203-.087.288-.305.19-.486a49.315 49.315 0 01-1.958-3.98c-.082-.188-.32-.28-.53-.209-.21.072-.314.284-.235.469a49.68 49.68 0 001.985 4.037.413.413 0 00.368.206zm123.886-6.37a.417.417 0 00.355-.183 69.651 69.651 0 002.345-3.877c.1-.181.018-.4-.186-.489-.203-.089-.45-.016-.55.165a68.88 68.88 0 01-2.323 3.837c-.114.173-.045.396.15.497.07.033.14.05.21.05zm-127.435-1.78a.492.492 0 00.114-.014c.217-.057.344-.259.28-.451a42.656 42.656 0 01-1.143-4.22c-.042-.197-.256-.326-.479-.289-.222.038-.367.228-.325.425a43.196 43.196 0 001.162 4.283c.047.162.211.266.391.266zm-1.841-8.581c.013 0 .023 0 .036-.002.225-.019.392-.195.371-.394a36.441 36.441 0 01-.19-3.701c0-.209.002-.421.005-.63.002-.202-.177-.366-.402-.368h-.008c-.223 0-.408.159-.41.359-.003.214-.006.427-.006.641 0 1.24.066 2.506.193 3.767.022.185.201.328.41.328zm.169-8.728c.204 0 .378-.134.405-.317a32.41 32.41 0 01.918-4.248c.056-.195-.077-.392-.296-.444-.22-.049-.442.068-.5.263a32.624 32.624 0 00-.937 4.335c-.03.2.13.383.354.409l.056.002zm2.45-8.449a.411.411 0 00.381-.23 31.727 31.727 0 012.088-3.905c.111-.176.04-.397-.159-.496-.198-.098-.447-.035-.558.141a32.58 32.58 0 00-2.135 3.992c-.085.188.018.4.23.472.05.017.103.026.153.026zm31.47-3.917c1.27 0 2.464-.171 3.552-.509.214-.066.325-.275.251-.463-.074-.19-.31-.289-.521-.223-1.384.43-2.972.564-4.684.397-.225-.024-.428.122-.452.322-.024.199.137.38.362.401.506.05 1.008.075 1.493.075zm-6.204-1.164a.411.411 0 00.38-.23c.083-.188-.02-.4-.232-.472a31.974 31.974 0 01-4.35-1.917c-.196-.103-.448-.044-.561.127-.117.174-.05.397.142.498 1.535.805 3.038 1.468 4.47 1.965.05.019.1.029.15.029zm13.558-1.846a.433.433 0 00.326-.141 8.646 8.646 0 001.963-4.159c.035-.199-.116-.385-.341-.415-.222-.031-.434.103-.469.303a7.976 7.976 0 01-1.802 3.827.339.339 0 00.075.51.431.431 0 00.248.075zm-34.04-.693a.434.434 0 00.331-.148 35.73 35.73 0 013.146-3.301.336.336 0 00-.013-.515.449.449 0 00-.58.012 37.056 37.056 0 00-3.214 3.372c-.135.162-.098.39.084.51a.47.47 0 00.246.07zm11.982-1.841a.433.433 0 00.328-.143c.138-.16.1-.387-.08-.51a21.373 21.373 0 01-3.503-2.949.444.444 0 00-.577-.04c-.172.132-.193.359-.044.512a22.41 22.41 0 003.633 3.057.443.443 0 00.243.073zm-5.184-4.464a.449.449 0 00.26-.082c.148-.108.296-.216.447-.322a60.696 60.696 0 013.461-2.292c.185-.115.233-.34.103-.507a.446.446 0 00-.571-.091 64.44 64.44 0 00-3.962 2.651.336.336 0 00-.055.512.434.434 0 00.317.131zm28.825-1.327a.458.458 0 00.114-.014c.217-.056.343-.256.28-.45a9.283 9.283 0 00-2.495-3.924.446.446 0 00-.58-.012.335.335 0 00-.013.514 8.551 8.551 0 012.3 3.621.407.407 0 00.394.265zm-30.026-.791c.069 0 .14-.016.204-.049.196-.099.264-.322.153-.496a27.03 27.03 0 01-2.072-3.902c-.082-.188-.317-.282-.529-.209-.212.072-.318.281-.235.469a27.638 27.638 0 002.127 4.002.406.406 0 00.352.185zm9.322-2.815a.442.442 0 00.196-.045 33.593 33.593 0 014.427-1.78c.214-.068.326-.275.249-.465-.077-.19-.31-.289-.524-.221a34.365 34.365 0 00-4.544 1.825c-.198.096-.272.317-.164.493a.423.423 0 00.36.193zm14.15-2.421c.174 0 .338-.101.39-.259.067-.192-.055-.394-.272-.453-1.519-.411-3.22-.542-5.035-.385-.225.019-.392.197-.368.397.021.199.222.347.447.326 1.71-.145 3.303-.026 4.718.357.04.012.082.017.12.017zm-27.042-2.889a.364.364 0 00.098-.011c.22-.05.355-.247.3-.442a38.582 38.582 0 01-.924-4.257c-.032-.2-.238-.336-.463-.31-.225.028-.381.211-.35.411.239 1.496.553 2.951.94 4.33.047.169.214.279.4.279zm-1.405-8.646h.024c.225-.012.4-.183.386-.383a51.206 51.206 0 01-.082-4.346c.006-.202-.174-.366-.402-.371-.233-.007-.413.155-.418.357a52.574 52.574 0 00.082 4.4c.013.193.193.343.41.343zm.178-8.74c.211 0 .389-.143.407-.333.135-1.416.323-2.872.556-4.326.031-.199-.125-.383-.347-.411-.225-.028-.431.111-.463.308a66.373 66.373 0 00-.561 4.368c-.019.199.148.375.373.392l.035.002zm1.389-8.66c.19 0 .362-.12.402-.294a79.78 79.78 0 011.072-4.252c.055-.195-.08-.392-.3-.442-.219-.049-.441.071-.497.266a81.429 81.429 0 00-1.08 4.287c-.044.198.101.388.323.428a.502.502 0 00.08.007zm2.376-8.491c.177 0 .339-.101.392-.261a93.363 93.363 0 011.505-4.149c.074-.19-.04-.397-.254-.463s-.447.035-.521.226a94.64 94.64 0 00-1.519 4.179c-.063.193.058.395.275.454a.6.6 0 00.122.014zm3.223-8.268a.41.41 0 00.381-.231 102.154 102.154 0 011.89-4.024c.092-.184-.003-.4-.21-.479-.206-.08-.45.002-.54.185a100.108 100.108 0 00-1.902 4.053c-.082.188.021.399.233.472a.53.53 0 00.148.024zm3.97-8.01c.15 0 .298-.075.367-.204a110.824 110.824 0 012.236-3.884c.106-.177.032-.397-.17-.494a.439.439 0 00-.555.148 113.19 113.19 0 00-2.252 3.908c-.098.181-.016.399.188.486.063.028.124.04.185.04zm4.651-7.714c.14 0 .278-.066.355-.181a121.57 121.57 0 012.556-3.724c.122-.169.063-.395-.127-.503a.443.443 0 00-.566.113 119.328 119.328 0 00-2.572 3.748c-.114.174-.048.397.148.498a.461.461 0 00.206.049zm5.28-7.388a.426.426 0 00.338-.157 122.413 122.413 0 012.855-3.55c.135-.162.098-.39-.085-.51a.445.445 0 00-.574.075 125.354 125.354 0 00-2.874 3.572c-.127.167-.082.392.106.505a.426.426 0 00.233.065zm5.87-7.025a.43.43 0 00.321-.137 127.16 127.16 0 013.136-3.358c.148-.152.127-.382-.045-.514a.45.45 0 00-.58.038 122.97 122.97 0 00-3.154 3.379.338.338 0 00.064.512c.079.054.169.08.259.08zm6.426-6.634c.11 0 .22-.04.301-.118a128.801 128.801 0 013.4-3.149.335.335 0 00-.002-.514.446.446 0 00-.58.003 127.041 127.041 0 00-3.418 3.167.337.337 0 00.024.515.428.428 0 00.275.096zm6.943-6.209c.1 0 .201-.033.28-.099a131.445 131.445 0 013.647-2.923.338.338 0 00.04-.514.45.45 0 00-.58-.036 133.369 133.369 0 00-3.667 2.943.334.334 0 00-.019.514.43.43 0 00.3.115zm7.43-5.746c.09 0 .183-.026.257-.082a132.99 132.99 0 013.874-2.682c.18-.12.217-.35.082-.509a.447.447 0 00-.574-.073c-1.31.876-2.622 1.782-3.895 2.698-.177.127-.204.357-.061.512a.42.42 0 00.318.136zm7.875-5.255a.431.431 0 00.233-.066 139.6 139.6 0 014.08-2.428c.191-.108.247-.334.122-.503a.44.44 0 00-.566-.108 142.78 142.78 0 00-4.107 2.443c-.185.115-.23.342-.103.507a.448.448 0 00.341.155zm8.285-4.737a.444.444 0 00.21-.051c1.4-.74 2.836-1.466 4.268-2.161.198-.096.272-.317.164-.493-.109-.176-.357-.242-.556-.145-1.44.697-2.884 1.43-4.292 2.172-.196.103-.26.326-.143.498.072.117.21.18.35.18zm8.645-4.194a.45.45 0 00.183-.037c1.453-.646 2.943-1.28 4.43-1.883.206-.085.296-.301.2-.482-.095-.183-.338-.263-.542-.178a143.398 143.398 0 00-4.456 1.895c-.204.089-.283.307-.182.488a.427.427 0 00.367.197zm8.958-3.64a.47.47 0 00.156-.027c1.503-.555 3.04-1.095 4.57-1.602.211-.07.32-.28.24-.47-.079-.188-.314-.284-.529-.213a157.978 157.978 0 00-4.596 1.61c-.21.078-.307.292-.222.477a.421.421 0 00.38.226zm9.224-3.07a.492.492 0 00.13-.02c1.54-.46 3.114-.904 4.68-1.32.218-.058.342-.26.276-.453-.066-.192-.294-.302-.51-.244-1.578.418-3.16.865-4.708 1.327-.215.063-.331.27-.257.46a.41.41 0 00.389.25zm9.439-2.506a.511.511 0 00.103-.012c1.572-.366 3.178-.716 4.771-1.038.22-.045.36-.24.31-.437-.05-.195-.273-.32-.493-.275-1.603.325-3.217.677-4.797 1.046-.22.051-.35.25-.291.443.047.165.214.273.397.273zm9.605-1.945a.453.453 0 00.08-.007 175.71 175.71 0 014.837-.765c.225-.033.376-.219.338-.418-.037-.197-.243-.334-.47-.3-1.625.232-3.263.492-4.864.767-.222.038-.368.23-.323.428.037.176.21.295.402.295zm9.725-1.397c.018 0 .034 0 .053-.002 1.609-.186 3.252-.355 4.882-.498.225-.021.389-.197.368-.4-.024-.199-.225-.344-.45-.326-1.638.146-3.29.315-4.906.5-.225.026-.384.21-.355.41.027.182.204.316.408.316zm6.165 182.6a.406.406 0 00.378-.254c.598-1.459.87-2.292.88-2.326a.41.41 0 10-.78-.251c-.002.008-.274.84-.859 2.268a.409.409 0 00.381.563zm81.141-107.542c.77 0 1.548-.027 2.313-.082a.291.291 0 00.269-.309.293.293 0 00-.309-.269 32.39 32.39 0 01-4.589-.003.288.288 0 00-.309.27.289.289 0 00.269.309c.78.057 1.575.084 2.356.084zm-6.925-.732a.29.29 0 00.06-.574 31.384 31.384 0 01-1.074-.246.29.29 0 00-.352.211.293.293 0 00.212.352c.364.09.73.174 1.092.249a.278.278 0 00.062.008zm13.799-.01c.02 0 .043-.003.063-.008a32.024 32.024 0 004.474-1.331.289.289 0 10-.207-.541c-1.426.541-2.904.98-4.394 1.309a.29.29 0 00-.222.344.3.3 0 00.286.227zm8.633-3.273a.296.296 0 00.142-.038 32.292 32.292 0 003.906-2.567.29.29 0 00-.352-.461 32.018 32.018 0 01-3.834 2.52.29.29 0 00-.112.394.28.28 0 00.25.152zm7.335-5.619c.075 0 .15-.03.207-.087a33.569 33.569 0 003.021-3.562.288.288 0 10-.466-.341 32.858 32.858 0 01-2.968 3.499.287.287 0 00.005.409.28.28 0 00.201.082zm5.472-7.443a.289.289 0 00.254-.152 36.222 36.222 0 001.952-4.24.29.29 0 00-.541-.207 35.557 35.557 0 01-1.919 4.173.289.289 0 00.117.394.312.312 0 00.137.032zm3.32-8.624c.13 0 .249-.088.282-.22.366-1.488.65-3.033.845-4.589a.29.29 0 00-.576-.072 39.412 39.412 0 01-.833 4.522.294.294 0 00.212.351c.023.003.045.008.07.008zm1.157-9.176a.29.29 0 00.289-.287c.002-.221.005-.446.005-.668 0-1.311-.058-2.652-.175-3.99a.29.29 0 10-.578.05c.115 1.321.172 2.647.172 3.94 0 .222-.003.442-.005.661a.29.29 0 00.287.294h.005zm-.781-9.225c.018 0 .035-.003.053-.005a.292.292 0 00.234-.337 55.368 55.368 0 00-.424-2.116 19.142 19.142 0 01-.381-2.418.294.294 0 00-.314-.264.291.291 0 00-.264.314c.069.793.202 1.63.393 2.493.155.698.297 1.403.422 2.094a.283.283 0 00.281.239zm-.438-9.128a.294.294 0 00.279-.21c.414-1.438 1.119-2.699 2.159-3.856a.289.289 0 00-.023-.409.289.289 0 00-.409.023c-1.096 1.224-1.844 2.56-2.283 4.083a.29.29 0 00.277.369zm5.828-6.825a.299.299 0 00.147-.04c1.174-.69 2.53-1.336 4.14-1.97a.29.29 0 00-.212-.54c-1.64.645-3.021 1.301-4.223 2.009a.29.29 0 00-.102.396.29.29 0 00.25.145zm8.567-3.502a.344.344 0 00.085-.013c1.533-.473 3.11-.92 4.451-1.291a.289.289 0 10-.154-.558c-1.346.374-2.929.82-4.469 1.296a.29.29 0 00-.192.361.297.297 0 00.279.205zm8.936-2.535a.307.307 0 00.08-.01 155.14 155.14 0 004.462-1.317.29.29 0 00-.175-.553c-1.294.404-2.704.82-4.447 1.311a.287.287 0 00-.199.357.294.294 0 00.279.212zm8.849-2.812a.292.292 0 00.102-.018 56.074 56.074 0 004.3-1.802.288.288 0 00.137-.386.288.288 0 00-.386-.137 55.1 55.1 0 01-4.255 1.785.289.289 0 00-.17.373.291.291 0 00.272.185zm8.35-3.998a.281.281 0 00.152-.045 30.659 30.659 0 003.769-2.75.292.292 0 00.033-.408.292.292 0 00-.409-.033 30.566 30.566 0 01-3.699 2.697.29.29 0 00-.092.4.291.291 0 00.246.139zm6.957-6.025a.291.291 0 00.225-.107 24.327 24.327 0 002.57-3.889.291.291 0 00-.12-.391.29.29 0 00-.391.12 23.613 23.613 0 01-2.508 3.796.289.289 0 00.224.47zM97.647 73.869a.287.287 0 00.276-.21 113.89 113.89 0 011.391-4.406.289.289 0 10-.548-.184 110.508 110.508 0 00-1.398 4.429.288.288 0 00.279.371zm123.805-.174c.122 0 .237-.08.277-.202a30.654 30.654 0 001.047-4.532.292.292 0 00-.242-.331.292.292 0 00-.332.241 29.927 29.927 0 01-1.027 4.445.292.292 0 00.277.379zm-120.829-8.6c.117 0 .227-.07.269-.184a101.89 101.89 0 011.767-4.27.29.29 0 00-.528-.235 102.99 102.99 0 00-1.777 4.293.288.288 0 00.164.374c.033.017.07.022.105.022zm122.277-.481a.29.29 0 00.29-.282 48.209 48.209 0 00-.095-4.658.289.289 0 00-.309-.27.288.288 0 00-.269.31 50.49 50.49 0 01.114 3.297c0 .436-.007.875-.02 1.304a.292.292 0 00.282.299h.007zm-46.882-2.533c.855 0 1.72-.052 2.573-.157a.29.29 0 10-.072-.575 20.538 20.538 0 01-4.562.05.288.288 0 00-.317.259c-.017.16.1.301.26.316.7.073 1.413.107 2.118.107zm-6.605-1.096a.29.29 0 00.274-.197.29.29 0 00-.179-.37 20.16 20.16 0 01-4.116-1.96.29.29 0 00-.399.091.291.291 0 00.093.4 20.666 20.666 0 004.235 2.016c.03.015.062.02.092.02zm13.642-.125a.264.264 0 00.097-.017 20.77 20.77 0 004.211-2.064.291.291 0 00-.315-.489 20.124 20.124 0 01-4.092 2.007.29.29 0 00.099.563zm-78.693-4.24a.29.29 0 00.259-.16 96.857 96.857 0 012.164-4.08.29.29 0 00-.504-.284 92.548 92.548 0 00-2.178 4.105.29.29 0 00.259.419zm57.291-.538a.29.29 0 00.215-.484c-1.05-1.16-1.835-2.45-2.331-3.839a.29.29 0 00-.546.197 12.041 12.041 0 002.448 4.033c.057.06.135.093.214.093zm29.119-.202a.29.29 0 00.212-.09 17.649 17.649 0 002.747-3.811.29.29 0 10-.511-.272 17.026 17.026 0 01-2.654 3.684c-.11.117-.105.3.012.409a.26.26 0 00.194.08zm31.535-.504c.015 0 .028 0 .043-.002a.287.287 0 00.244-.33 75.543 75.543 0 00-.818-4.58.29.29 0 10-.568.119c.324 1.553.598 3.083.81 4.544.025.147.15.25.289.25zm-113.393-6.825a.29.29 0 00.244-.134 82.918 82.918 0 012.58-3.83.29.29 0 00-.471-.337 86.343 86.343 0 00-2.598 3.858.29.29 0 00.245.443zm86.126-.763a.292.292 0 00.284-.231c.229-1.11.344-2.259.344-3.415 0-.419-.015-.848-.045-1.272a.292.292 0 00-.309-.269.292.292 0 00-.269.31c.03.41.045.824.045 1.23a16.29 16.29 0 01-.334 3.299.287.287 0 00.224.341c.02.005.04.008.06.008zm-36.438-.199a.29.29 0 00.289-.277c.06-1.425.354-2.921.875-4.447a.29.29 0 10-.548-.186c-.538 1.577-.843 3.13-.905 4.611a.29.29 0 00.277.302c.002-.003.007-.003.012-.003zm61.813-1.281a.289.289 0 00.279-.366 61.172 61.172 0 00-1.396-4.44.29.29 0 10-.545.197 60.875 60.875 0 011.383 4.397c.035.127.15.212.279.212zm-106.112-5.292a.297.297 0 00.227-.107 75.311 75.311 0 013.001-3.507.29.29 0 10-.429-.39 77.158 77.158 0 00-3.024 3.535.29.29 0 00.045.407.28.28 0 00.18.062zm47.136-2.154c.1 0 .197-.052.249-.144a30.136 30.136 0 012.625-3.764.292.292 0 00-.042-.409.287.287 0 00-.407.042 30.664 30.664 0 00-2.674 3.837.29.29 0 00.102.396.27.27 0 00.147.042zm33.005-.221a.291.291 0 00.277-.376 25.057 25.057 0 00-1.847-4.303.291.291 0 00-.394-.117.293.293 0 00-.117.393 24.373 24.373 0 011.804 4.203c.04.122.155.2.277.2zm22.823-1.038a.291.291 0 00.262-.414 41.467 41.467 0 00-2.204-4.11.289.289 0 00-.399-.094.288.288 0 00-.094.398 40.88 40.88 0 012.173 4.051c.05.107.152.17.262.17zm-96.733-3.437a.29.29 0 00.202-.082 72.288 72.288 0 013.413-3.106.289.289 0 00.032-.409.29.29 0 00-.409-.032 74.049 74.049 0 00-3.442 3.13.288.288 0 00-.005.41c.06.06.135.09.209.09zm46.703-2.507a.29.29 0 00.199-.08 41.6 41.6 0 013.5-2.991.29.29 0 00-.352-.462 42.177 42.177 0 00-3.549 3.034.29.29 0 00.202.498zm22.875-1.165a.29.29 0 00.232-.463 40.094 40.094 0 00-2.107-2.58 28.567 28.567 0 00-.909-.982.29.29 0 00-.409-.008.29.29 0 00-.008.41c.304.313.606.64.893.964a39.26 39.26 0 012.076 2.542.284.284 0 00.232.117zm22.282-.742a.292.292 0 00.224-.476 28.495 28.495 0 00-3.258-3.353.29.29 0 10-.379.439 27.845 27.845 0 013.191 3.285c.057.07.14.105.222.105zm-84.805-1.588a.283.283 0 00.172-.058 65.585 65.585 0 013.801-2.614.291.291 0 00.09-.4.29.29 0 00-.399-.089 67.125 67.125 0 00-3.834 2.637.29.29 0 00.17.524zm46.999-2.126a.271.271 0 00.149-.043 41.635 41.635 0 014.063-2.166.289.289 0 10-.242-.526 42.525 42.525 0 00-4.117 2.196.29.29 0 00.147.539zm9.08-2.167a.29.29 0 00.177-.518 33.294 33.294 0 00-3.891-2.585.286.286 0 00-.393.11c-.08.14-.03.316.109.394a32.49 32.49 0 013.824 2.54c.05.042.112.06.174.06zm21.746-.137a.29.29 0 00.145-.541 23.786 23.786 0 00-4.258-1.949.29.29 0 00-.189.549 23.225 23.225 0 014.153 1.902c.05.027.1.04.149.04zm-70.008-.54c.047 0 .092-.01.137-.035a59.457 59.457 0 014.142-2.027.289.289 0 00.148-.381c-.065-.147-.235-.212-.382-.147a61.268 61.268 0 00-4.183 2.046.286.286 0 00-.117.391c.05.098.15.152.255.152zm47.584-1.04c.03 0 .06-.005.09-.015a34.615 34.615 0 014.455-1.142.288.288 0 00.231-.336.288.288 0 00-.336-.232 35.19 35.19 0 00-4.527 1.162.29.29 0 00-.184.366c.037.12.149.197.271.197zm13.718-1.418a.29.29 0 00.039-.576 27.22 27.22 0 00-4.671-.244.288.288 0 00-.279.299c.005.16.147.286.299.279 1.563-.05 3.096.03 4.572.24a.226.226 0 00.04.002zm-52.832-1.284a.243.243 0 00.094-.018 54.673 54.673 0 014.412-1.336.29.29 0 10-.144-.563 54.556 54.556 0 00-4.457 1.351.286.286 0 00-.177.369c.04.122.152.197.272.197zm31.761-.15a.29.29 0 00.11-.558 37.57 37.57 0 00-4.435-1.466.289.289 0 00-.354.207.29.29 0 00.207.354 36.95 36.95 0 014.365 1.444c.035.012.072.02.107.02zm-22.795-2.148c.015 0 .032 0 .047-.005a49.126 49.126 0 014.574-.531.29.29 0 10-.04-.578 49.35 49.35 0 00-4.629.538.29.29 0 00.048.576zm13.851-.22a.29.29 0 00.287-.249.287.287 0 00-.247-.326 43.681 43.681 0 00-4.646-.402.284.284 0 00-.299.28.29.29 0 00.279.299c1.545.05 3.088.184 4.584.396l.042.002z" fill="#2E2E46"/><path d="M224.958 214.637l-.387.166.083-.415.386-.166-.082.415z" fill="#4F2E16"/><path d="M242.005 195.96l-1.686-1.326-5.47-4.282-5.995 2.376-.995.387-.11.055-.912.359-6.52 2.597 4.973 3.923.497.387.083.083.801.635.802.636 5.359 4.227 6.465-2.597.94-.387.11-.055.967-.387 6.023-2.404-5.332-4.227z" fill="#FFDDA8"/><path d="M232.888 206.017l-1.962 13.621-5.359-4.2-.028-.027-.939-.746-.332-.249-.414-.304-.498-.414-4.973-3.868 1.962-13.704 5.498 4.338.414.304.304.248.967.774 5.36 4.227z" fill="#BC7C46"/><path d="M241.37 202.619l-.525.221-.387.138-.083.028-.11.027-.94.359-6.464 2.597-1.962 13.621 6.465-2.569 1.105-.443.387-.165.525-.194 6.023-2.376 1.961-13.648-5.995 2.404z" fill="#DDA866"/><path d="M232.501 216.902l-.083.028.221-1.575.111-.055-.249 1.602z" fill="#4F2E16"/><path d="M233.054 215.521l-.083.083-.276-.249-.387.525-.055-.028.47-.635.331.304zm.442.994l-.083.028.221-1.602.111-.028-.249 1.602z" fill="#4F2E16"/><path d="M234.049 215.106l-.083.111-.277-.249-.386.525-.083-.055.497-.608.332.276zm-.167 1.299l-1.851.746c-.027 0-.055 0-.027-.028 0-.027.027-.055.055-.082l1.851-.746c.028 0 .055 0 .028.027 0 .028-.028.083-.056.083z" fill="#4F2E16"/><path d="M233.799 216.847l-1.823.718c-.194.083-.332-.027-.304-.221l.276-1.934c.028-.193.221-.442.415-.497l1.823-.718c.194-.083.332.027.304.221l-.276 1.934c-.028.193-.221.414-.415.497zm-1.436-1.851c-.138.055-.277.221-.277.359l-.276 1.934c-.028.138.083.221.221.166l1.824-.718c.138-.056.276-.221.276-.36l.276-1.934c.028-.138-.083-.221-.221-.165l-1.823.718zm4.642.58l-1.879.746c-.193.083-.331-.028-.304-.249l.277-1.989c.027-.221.221-.442.414-.525l1.879-.746c.193-.083.331.028.304.249l-.277 1.989c-.027.221-.221.442-.414.525zm-1.492-1.906a.55.55 0 00-.304.387l-.276 1.989c-.028.138.083.221.221.166l1.879-.746a.551.551 0 00.304-.387l.276-1.989c.027-.138-.083-.221-.221-.166l-1.879.746z" fill="#4F2E16"/><path d="M236.149 215.41c-.028 0-.056 0-.056-.027l.194-1.437c0-.028.027-.055.055-.083.028 0 .055 0 .055.028l-.193 1.436c0 .028-.028.056-.055.083z" fill="#4F2E16"/><path d="M236.397 215.3l-.47.193c-.027 0-.055 0-.055-.027 0-.028.028-.056.055-.083l.47-.194c.028 0 .055 0 .055.028 0 .055-.027.083-.055.083zm.497-1.768l-.083.663c-.027.165-.193.386-.359.442l-.387.138c-.165.083-.276-.028-.248-.194l.083-.663.193-.082-.11.718c0 .027.027.055.055.027.027 0 .055-.055.055-.082l.111-.719.69-.248z" fill="#4F2E16"/><path d="M234.821 190.545l-14.117 5.636 12.211 9.56 14.09-5.581-12.184-9.615z" fill="#F9C98A"/><path d="M247.365 200.353v.111l-14.505 5.802.028-.111 14.477-5.802zm-6.935 2.652l-.11.028-12.543-9.863.11-.028 12.543 9.863z" fill="#BC7C46"/><path d="M240.403 203.005l-.027.222h-.111l.027-.166.111-.056z" fill="#BC7C46"/><path d="M241.369 202.619l-1.962 13.648-2.016.801 1.989-13.648 1.989-.801z" fill="#9B7451"/><path d="M241.369 202.619l-.939.386-.111.028-.939.387-12.516-9.891.912-.359.11-.055.995-.387 12.488 9.891z" fill="#CAAF8F"/><path d="M227.527 201.79l-1.962 13.648-.027-.028-1.685-1.298 1.989-13.676 1.685 1.354z" fill="#9B7451"/><path d="M242.005 195.96l-14.477 5.83-.802-.636-.083-.082-.718-.553-.083-.055 12.157-4.89.911-.387 1.382-.553.663.525.442.332.608.469z" fill="#CAAF8F"/><path d="M245.9 205.409l-4.2 1.685.498-3.315 4.171-1.685-.469 3.315z" fill="#E5E0DC"/><path d="M245.872 203.033l-3.398 1.354.055-.359 3.398-1.354-.055.359z" fill="#4F2E16"/><path d="M245.761 203.696l-3.37 1.382.027-.166 3.371-1.354-.028.138zm-.055.442l-3.398 1.354.027-.166 3.398-1.354-.027.166zm-.055.47l-3.398 1.354.028-.166 3.398-1.354-.028.166zm-.083.442l-3.371 1.354.028-.166 3.37-1.354-.027.166z" fill="#B2AEAB"/><path d="M204.992 33.034l-.18.38-.212-.366.181-.38.211.366z" fill="#4F2E16"/><path d="M205.427 7.752l-2.141.12-6.935.405-2.926 5.747-.49.948-.047.115-.446.872-3.173 6.26 6.325-.346.628-.039.117.008 1.022-.054 1.021-.053 6.816-.374 3.131-6.223.449-.912.047-.114.469-.93 2.928-5.786-6.795.356z" fill="#FFDDA8"/><path d="M205.239 21.325l7.537 11.514-6.798.394-.039-.002-1.198.062-.413.032-.512.046-.647.018-6.288.388-7.591-11.576 6.992-.382.512-.046.392-.015 1.237-.06 6.816-.373z" fill="#BC7C46"/><path d="M209.354 13.166l-.247.513-.199.36-.044.075-.064.094-.468.89-3.131 6.224 7.536 11.514 3.15-6.203.537-1.062.18-.38.266-.493 2.946-5.765L212.262 7.4l-2.908 5.767z" fill="#DDA866"/><path d="M212.148 29.745l-.044.076-.876-1.327.047-.115.873 1.366z" fill="#4F2E16"/><path d="M211.649 28.344l-.007.117-.372-.004.057.65-.06.015-.068-.787.45.009zm.988.454l-.044.075-.894-1.348.065-.094.873 1.367z" fill="#4F2E16"/><path d="M212.12 27.375l.011.138-.372-.004.057.65-.099.013-.029-.785.432-.012zm.736 1.084l-.896 1.784c-.02.018-.041.036-.039-.003-.018-.02-.015-.06-.013-.098l.895-1.784c.021-.018.042-.037.039.002.019.021.034.08.014.099z" fill="#4F2E16"/><path d="M213.085 28.845l-.893 1.745c-.09.19-.266.198-.374.035l-1.071-1.633c-.108-.164-.127-.478-.018-.647l.892-1.745c.09-.19.267-.199.374-.035l1.072 1.633c.107.163.108.457.018.647zm-2.302-.438c-.067.133-.061.348.031.452l1.071 1.633c.071.122.209.111.276-.021l.893-1.745c.067-.133.061-.349-.031-.452l-1.072-1.634c-.07-.122-.208-.11-.275.022l-.893 1.745zm3.865-2.635l-.916 1.802c-.09.19-.267.199-.393.015l-1.108-1.675c-.125-.184-.126-.478-.036-.668l.916-1.802c.09-.19.267-.198.392-.014l1.108 1.675c.126.183.127.477.037.667zm-2.38-.443a.548.548 0 00.028.491l1.108 1.675c.071.122.208.11.276-.022l.915-1.802a.551.551 0 00-.027-.491l-1.109-1.675c-.07-.122-.208-.11-.275.022l-.916 1.802z" fill="#4F2E16"/><path d="M213.897 26.214c-.021.019-.042.037-.06.016l-.805-1.205c-.018-.021-.016-.06-.013-.1.02-.017.041-.036.059-.015l.805 1.206c.019.02.016.06.014.098z" fill="#4F2E16"/><path d="M214.009 25.967l-.224.456c-.021.018-.042.036-.06.015-.018-.02-.016-.06-.013-.098l.224-.456c.021-.018.042-.037.06-.016.036.042.034.08.013.099zm-.796-1.655l.377.552c.088.143.11.418.023.57l-.199.358c-.07.172-.226.162-.315.02l-.376-.552.09-.19.392.611c.019.021.058.024.06-.015.021-.019.005-.078-.013-.099l-.392-.612.353-.643z" fill="#4F2E16"/><path d="M196.458 8.44l-6.862 13.565 15.482-.906 6.878-13.504-15.498.846z" fill="#F9C98A"/><path d="M212.352 7.502l.073.083-7.042 13.944-.053-.1 7.022-13.927zm-3.447 6.576l-.065.093-15.931.897.065-.093 15.931-.897z" fill="#BC7C46"/><path d="M208.884 14.095l.126.185-.083.074-.089-.143.046-.116z" fill="#BC7C46"/><path d="M209.354 13.166l7.555 11.535-.983 1.935-7.534-11.553.962-1.917z" fill="#9B7451"/><path d="M209.354 13.166l-.449.912-.064.093-.449.912-15.929.858.446-.873.047-.114.49-.948 15.908-.84z" fill="#CAAF8F"/><path d="M198.423 21.699l7.555 11.534-.039-.002-2.123.14-7.552-11.573 2.159-.1z" fill="#9B7451"/><path d="M205.427 7.752l-7.003 13.947-1.022.053-.117-.008-.904.061-.098.014 5.884-11.708.428-.893.671-1.328.844-.045.551-.044.766-.05z" fill="#CAAF8F"/><path d="M214.598 12.263l-2.035 4.041-1.82-2.815 2.015-4.024 1.84 2.798z" fill="#E5E0DC"/><path d="M213.006 10.499l-1.654 3.263-.196-.306 1.654-3.263.196.306z" fill="#4F2E16"/><path d="M213.361 11.07l-1.615 3.264-.089-.142 1.633-3.245.071.122zm.252.367l-1.654 3.263-.089-.142 1.654-3.263.089.142zm.268.389l-1.653 3.263-.089-.143 1.653-3.262.089.142zm.231.387l-1.633 3.244-.089-.142 1.633-3.245.089.143z" fill="#B2AEAB"/></svg>