<svg width="284" height="240" fill="none" xmlns="http://www.w3.org/2000/svg"><path d="M71.707 221.236c-39.081-39.082-39.081-102.447 0-141.529 39.082-39.081 102.447-39.081 141.529 0 39.082 39.082 39.082 102.447 0 141.529-39.082 39.082-102.446 39.082-141.529 0z" fill="#FFA982"/><path d="M133.545 50.772c-.404.26-.832.529-1.282.803-.041-.284-21.091 6.379-23.248 7.365-6.244 2.857-10.078 3.882-3.228 6.049-2.977-.943-9.698 17.353-14.424 16.595-4.596-.738-5.95 4.433-7.17 7.988-.644 1.883-2.655 2.982-1.902 5.248.238.72 3.521 2.196 3.271 2.672-1.378 2.622-7.658 2.922-7.694 6.775.606.967 1.527 1.432 2.764 1.395 2.91 1.177.153 3.529-.405 5.35-1.347 4.394-5.553 8.297-8.598 3.297-3.062-5.027 3.947-9.948-.303-15.075-2.492-3.007-9.154 2.385-7.574-3.358.452-1.645 7.38-8.916 3.54-9.986-.185-.053-.315-.428-.394-1.047 11.389-13.137 26.349-23.477 44.048-29.35 7.49-2.49 15.064-4.04 22.599-4.721zm-80.15 54.08c.486-.948 5.431 4.495 6.456 5.06 3.747 2.066 4.567-2.01 7.71 2.295.554.758 6.242 8.312 6.273 7.466-.103 2.802 1.056 5.58-.293 8.271-1.21 2.412 1.636 4.599 1.462 7.143-.226 3.341 2.831 5.616 2.06 8.943-.67 2.886-2.406 4.988-2.41 8.064-.008 4.892.88 7.12-3.05 10.624-2.528 2.254-5.816 10.039-10.256 5.652-.816-.806-8.926-7.302-8.447-7.81-2.88 3.06-.344 1.054-4.438.864-1.108-.053.828 28.15 2.52 27.503-.268.103-.584.077-.937-.063a101.562 101.562 0 01-2.562-6.871c-8.795-26.515-5.887-54.095 5.912-77.141zm46.855 93.72c-.031-2.884 5.364-5.573 8.286-5.453 6.265.255 7.925-1.772 13.748-3.273 4.887-1.261 4.134-9.585 11.554-9.943 3.952-.193 11.403-10.937 15.299-7.723 2.579 2.126 7.545-3.582 9.277-3.603 3.998-.048.765 2.326 3.377-.652 1.72-1.958 6.441 2.162 7.437 3.331 1.931 2.261 10.344-1.133 11.658-4.38.464-1.149-2.228-5.772-.224-9.062.77-1.265 6.342-.337 7.206-1.179 1.162-1.133-2.985-5.296-2.518-6.162 1.945-3.608 8.331 5.441 11.116-1.84 2.264-5.919-.685-8.141-1.27-13.846-.274-2.685-4.844-3.998-7.059-3.026-3.552 1.561-3.076.106-5.767-.188-2.127-.231-4.385 2.179-6.437 2.533-2.419.418-.762 7.208-3.045 8.834-1.325.943-1.294-9.132-1.38-9.375-1.448-4.084-7.776-3.714-8.786-7.144-2.49-8.449-8.216-7.816-15.143-10.799-3.302-1.421-11.468-3.071-13.534-6.308-3.851-6.037 6.27-15.042 8.911-19.297.031-.05 2.34 2.602 2.874 2.624 1.963.082 3.784-10.977 7.541-4.628.716 1.21 3.465 1.571 1.931 3.356-2.997 3.485 2.809 4.32 4.618 3.824 1.835-.503 10.847-5.722 7.679-8.632-6.46-5.939-7.927-2.865-14.633-2.894-7.686-.033-7.965 7.194-14.322-.536-1.758-2.138 9.729-8.25 7.461-10.96-8.024-9.587-12.44 11.703-15.449 15.397-4.397 5.4-7.227 2.552-6.879-3.408.166-2.806-5.808-5.42-6.217-8.451-.084-.619 3.851-6.206 4.435-6.581 2.073-1.335 2.552-2.74 3.617-4.067 1.343-1.674 3.447.832 4.645-.664.553-.693 10.638-.305 11.713-.293 5.299-.202 11.23-.027 16.569.055 2.191-.084 13.787 5.582 14.094.945.152-2.3-2.604-6.337 2.319-4.473 1.575.596 2.571-.282 2.254-.347 3.398.693 9.753 3.064 12.475 5.508 1.508 1.354-2.104 1.98-2.352 3.141-.476 2.24 5.166 6.408 6.429 7.858 4.488 5.171 4.286 12.052 10.333 17.081 6.982 5.809 7.371 14.304 7.439 22.306.034 3.884 3.362 5.52 1.26 9.914-1.794 3.75-5.13 5.546-5.686 10.099-.365 2.99 1.977 5.765.847 8.676-1.393 3.581-4.041 6.761-7.285 8.464-6.92 3.631-11.449 6.354-15.884 13.009-5.501 8.25-15.302 4.649-12.091 12.976 1.352 3.509 4.799 5.176 6.21 8.923 1.691 4.493-1.558 7.74-3.648 11.386-2.105 3.673-2.884 8.079-6.571 10.58-2.641 1.792-7.451 3.281-8.132 6.923-1.082 5.794 3.81 13.036 3.29 18.339-.351 3.569-.416 7.239-3.521 9.568-5.594 4.194-4.267-1.653-7.742-4.416-3.259-2.593-7.103-1.826-10.826-2.858-3.415-.947.654-2.2-.729-2.977-2.932-1.648-4.67.825-7.465-1.684-2.545-2.287-5.989-2.939-7.175-6.511-1.938-5.844-10.749-3.703-14.419-8.247-2.263-2.799-3.244-5.779-4.259-9.171-1.251-4.175-7.406-6.087-7.454-10.599-.034-3.019.031 3.016 0 0z" fill="#E24949"/><path d="M158.163 41.49c.946 1.67 10.444 16.238 8.455 30.489l-10.336-3.702-4.724-19.209 6.605-7.577z" fill="#FFA982"/><path d="M116.888 35.52s6.352-11.28 21.81-8.163c15.459 3.119 23.895 25.031 19.703 68.435 0 0-24.56-9.67-56.493-1.875 0 .002 5.256-42.034 14.98-58.398z" fill="#42A9D1"/><path d="M105.098 30.961l10.866 10.744s27.859 7.455 35.595 7.365c7.737-.09 10.782-5.69 10.782-5.69s-6.531-10.243-19.744-14.875a39.054 39.054 0 00-3.899-1.146 40.161 40.161 0 00-6.904-.99c-13.675-.808-26.696 4.592-26.696 4.592z" fill="#42A9D1"/><path d="M105.098 30.961c-1.737 1.87.942 3.913 3.942 6.88s6.1 4.696 6.923 3.864c.822-.832-.942-3.913-3.942-6.88s-6.126-4.722-6.923-3.864z" fill="#2E2E46"/><path d="M114.518 41.748s.162-2.146-2.561-4.886c-1.64-1.649-3.716-2.727-5.108-3.326a1.592 1.592 0 00-2.113.884l-.872 2.224 4.057 2.587 6.597 2.517z" fill="#FFA982"/><path d="M133.721 81.541s-33.524-17.992-45.54 1.636c-8.895 14.528 4.477 28.059 54.071 26.685 0 0 4.901-2.273 3.708-14.066-.474-4.675-12.239-14.255-12.239-14.255z" fill="#000"/><path d="M133.721 81.541s44.648-18.113 53.483-6.79c10.153 13.013.417 35.109-46.646 27.21l-5.736-6.169-1.101-14.25z" fill="#000"/><path d="M146.244 99.038s8.229.332 12.093 2.209c3.866 1.877 1.802 6.461-6.047 6.338-7.849-.123-7.252-1.279-7.252-1.279s1.491-4.024 1.206-7.268z" fill="#2E2E46"/><path d="M142.305 109.936c5.505-3.891 3.764-14.058 3.745-14.16l-.01-.052-.051-.017-33.892-12.216-.064.175 33.841 12.198c.129.798 1.527 10.243-3.678 13.922l.109.15z" fill="#020202"/><path d="M135.711 82.403c2.725 0 4.964-.682 6.779-2.04 3.427-2.56 4.064-6.643 3.567-9.36l-3.279-1.89c-.164-.89-6.492 2.421-6.48 2.418-.029.01-3.02.867-13.393-4.383-7.221-3.655-10.861-8.84-11.126-15.855-.201-5.29 2.179-8.258 2.741-9.547.074-.172-3.49-3.71-3.388-4.07l-2.673-1.346c.086-.304-2.57-1.341-2.531-1.427l-2.062 1.74c-1.018 2.33-3.182 7.682-2.903 15.057.29 7.662 3.484 18.236 17.054 25.102 7.399 3.749 13.204 5.601 17.694 5.601z" fill="#FFA982"/><path d="M137.912 82.834h28.931c.606 0 1.142-.382 1.335-.948l6.013-17.781c.302-.895-.375-1.82-1.336-1.82h-27.821c-1.267 0-2.394.8-2.794 1.984l-5.661 16.746c-.304.895.374 1.819 1.333 1.819z" fill="#C4C4C4"/><path d="M139.727 82.834h28.931c.606 0 1.144-.382 1.335-.948l6.013-17.781c.302-.895-.375-1.82-1.336-1.82h-27.821c-1.268 0-2.394.8-2.794 1.984l-5.661 16.746c-.303.895.374 1.819 1.333 1.819z" fill="#C4C4C4"/><path d="M160 71.979c0-.675-.785-.95-1.474-.95-.686 0-1.807.741-1.799 1.687.008 1.021.813 1.154 1.499 1.154.686-.002 1.774-1.033 1.774-1.891z" fill="#DEEBE9"/><path d="M129.075 80.32h39.599v2.514h-40.417a.846.846 0 01-.847-.846c0-.92.745-1.667 1.665-1.667z" fill="#C4C4C4"/><path d="M141.784 71.275c.013-.052 1.433-5.324 2.353-6.962.906-1.614 2.021-1.933 2.033-1.937l-.049-.182c-.048.014-1.202.343-2.148 2.026-.93 1.659-2.312 6.788-2.371 7.005l.182.05zm-4.275 9.14c1.072 0 1.339-.47 1.349-.49l.006-.013 2.255-6.67-.177-.06-2.252 6.66c-.029.044-.292.387-1.181.387v.186z" fill="#2E2E46"/><path d="M109.705 66.988a.926.926 0 00.462-.119c.707-.41.688-1.725-.045-2.994-.339-.589-.782-1.072-1.244-1.367-.499-.316-.971-.376-1.328-.171-.707.409-.688 1.725.045 2.994.589 1.022 1.433 1.657 2.11 1.657zm-1.691-4.396c.193 0 .423.078.665.232.414.261.809.7 1.119 1.236.609 1.053.692 2.191.182 2.484-.509.294-1.453-.347-2.061-1.4-.608-1.053-.69-2.191-.181-2.484a.558.558 0 01.276-.068z" fill="#F18C7E"/><path d="M131.557 26.34c1.9-.054 3.343-.249 4.435-1.522l3.384-3.942.985-1.148 5.792-6.747-3.042 7.89-1.826 4.735-.577 1.5c-.392 1.017.126 1.49.491 2.682.148.481 1.146 3.45-1.454 3.468-3.241.023-7.336-3.706-8.237-6.927a.143.143 0 00.049.012z" fill="#FFA982"/><path d="M138.437 18.344s-6.377-6.069-2.698-11.192c3.678-5.124 4.598 8.223 4.598 8.223l-1.027 3.084-.873-.115zm.972 2.396c-.012.045-.023.09-.031.136-.593 2.661 1.887 4.74 1.887 4.74l.021-.01 1.827-4.736c-.776-.575-1.918-1.27-2.751-1.142-.434.068-.783.36-.953 1.012z" fill="#2E2E46"/><path d="M152.91 17.443c1.439-4.743-.585-9.556-4.519-10.747-3.934-1.194-8.289 1.686-9.726 6.43-1.439 4.742.585 9.556 4.519 10.749 3.932 1.189 8.287-1.689 9.726-6.432z" fill="#FFA982"/><path d="M140.012 12.439s2.031 1.462 3.733.226 2.907-2.408 6.718-.509c3.811 1.9 7.983 1.047 8.755-1.091.77-2.14-1.045-3.779-3.439-3.671-2.394.105.507-1.194-1.158-3.443-1.665-2.248-5.889.068-7.983-1.047-2.094-1.115-9.555-2.082-10.896 4.246l4.27 5.289z" fill="#2E2E46"/><path d="M138.416 13.706c.49.749 1.429 1 2.098.564.669-.437.815-1.4.324-2.149-.49-.748-1.429-1-2.098-.563-.667.438-.813 1.4-.324 2.148z" fill="#FFA982"/><path d="M155.005 10.324c.143 0 .279-.016.41-.049.858-.215 1.097-.66 1.037-1.004-.07-.396-.554-.776-1.318-.698-1.137.115-1.758-.263-1.764-.267l-.148.234c.027.017.699.435 1.941.31.568-.057.969.199 1.016.47.049.282-.269.546-.833.688-1.467.368-4.002-1.891-4.029-1.915l-.185.207c.101.09 2.273 2.024 3.873 2.024zm-6.584-5.299c1.546 0 2.936-.663 3.057-.801l-.208-.184.105.092-.098-.1c-.142.12-2.409 1.205-4.349.453-.649-.252-1.218-.55-1.768-.838-1.127-.591-2.102-1.1-3.213-.885l.053.272c1.015-.196 1.951.293 3.031.86.558.293 1.133.593 1.798.85.516.203 1.064.28 1.592.28zm-10.757 1.797c.41 0 1.168-.633 1.367-1.033.144-.294-.004-.429-.076-.472-.558-.347-1.365.74-1.521.961l-.013.02-.006.023c-.092.338.052.447.146.484a.277.277 0 00.103.017zm1.049-1.294c.035 0 .066.008.094.025.013.026-.014.176-.297.458-.376.379-.768.562-.853.535.001-.002-.006-.037.015-.13.287-.395.766-.888 1.041-.888z" fill="#fff"/><path d="M93.725 94.496c.553 0 1.09-.14 1.567-.415.817-.472 1.37-1.283 1.558-2.287.185-.992-.01-2.053-.55-2.989-1.121-1.942-3.396-2.733-5.073-1.764-1.676.969-2.129 3.335-1.008 5.275.54.936 1.363 1.636 2.314 1.971.398.14.8.209 1.192.209zM92.797 87c1.202 0 2.454.733 3.181 1.99.495.858.675 1.829.505 2.734-.168.892-.657 1.614-1.378 2.031-.722.415-1.591.48-2.449.177-.867-.306-1.618-.947-2.113-1.805-1.018-1.762-.626-3.899.871-4.764A2.76 2.76 0 0192.796 87z" fill="#2E2E46"/><path d="M147.215 15.517a.15.15 0 00.053-.28c-.043-.024-.985-.671-1.993.185a.151.151 0 00-.021.212c.052.064.138.059.212.022.747-.375 1.62-.176 1.655-.156a.15.15 0 00.094.017zm-1.394 1.493c-.056.355.106.677.365.72.257.04.513-.213.569-.57.057-.354-.105-.676-.364-.717-.258-.043-.511.213-.57.567zm6.666.4a.111.111 0 00.106-.035.183.183 0 00.031-.21c-.022-.037-.46-.946-1.474-.476-.064.03-.105.113-.09.19.014.079.076.1.143.09.658-.107 1.206.363 1.224.394a.097.097 0 00.06.047zm-1.891.842c-.19.306-.16.667.062.803.222.137.556-.001.745-.308.187-.306.16-.666-.063-.803-.224-.138-.557 0-.744.308z" fill="#060633"/><path d="M146.279 22.032c.531 0 .903-.091.913-.093a.107.107 0 00.076-.129.106.106 0 00-.129-.076c-.103.027-2.56.62-3.768-1.495a.106.106 0 00-.145-.04.106.106 0 00-.039.145c.815 1.423 2.184 1.688 3.092 1.688z" fill="#020202"/><path d="M142.973 20.713a.101.101 0 00.099-.073c.049-.146.191-.366.601-.598a.17.17 0 01.031-.018.104.104 0 00.029-.146.104.104 0 00-.144-.029l-.019.012c-.375.212-.609.454-.694.715a.105.105 0 00.066.133.08.08 0 00.031.004z" fill="#020202"/><path d="M141.183 36.83l.014-.467c-8.307-.236-11.303-7.357-11.333-7.43l-.433.176c.032.076.786 1.897 2.613 3.773 1.688 1.729 4.644 3.82 9.139 3.947z" fill="#2E2E46"/><path d="M137.228 40.818l.245-.396c-.043-.027-4.281-2.717-4.829-7.53l-.464.052c.574 5.041 5.003 7.845 5.048 7.874zm17.708 2.136l1.707 5.142-.442.146-1.707-5.142.442-.146z" fill="#2E2E46"/><path d="M151.443 23.337c.102 0 .205-.008.31-.022 1.117-.15 2.277-1.086 3.106-2.505 1.347-2.308 1.408-5.203.135-6.453a2.026 2.026 0 00-1.743-.571c-1.117.15-2.277 1.086-3.106 2.505-1.347 2.308-1.407 5.203-.134 6.453.397.39.889.593 1.432.593zm2.114-9.257c.462 0 .879.172 1.216.501 1.178 1.157 1.094 3.878-.185 6.071-.78 1.336-1.854 2.215-2.877 2.353a1.722 1.722 0 01-1.482-.483c-1.178-1.156-1.094-3.88.185-6.071.78-1.335 1.854-2.215 2.878-2.353.089-.012.177-.018.265-.018z" fill="#E24949"/><path opacity=".3" d="M142.564 12.901c-1.09 2.296-.79 5.088.672 6.238 1.462 1.15 3.531.22 4.621-2.074 1.089-2.296.789-5.088-.673-6.238-1.462-1.15-3.53-.22-4.62 2.074zm7.472 3.577c-1.094 2.307-.945 5.106.33 6.252 1.276 1.147 3.199.205 4.292-2.101 1.094-2.306.946-5.106-.329-6.252-1.277-1.147-3.199-.205-4.293 2.101z" fill="#fff"/><path d="M144.874 19.757c.21 0 .425-.025.643-.076 1.168-.277 2.232-1.253 2.917-2.678 1.177-2.45.82-5.46-.794-6.71a2.565 2.565 0 00-2.23-.48c-1.168.277-2.232 1.253-2.917 2.678-1.177 2.451-.82 5.461.794 6.71a2.557 2.557 0 001.587.556zm1.175-9.706c.503 0 .979.165 1.398.49 1.505 1.163 1.821 4.001.704 6.325-.634 1.32-1.645 2.258-2.706 2.51a2.268 2.268 0 01-1.967-.422c-1.505-1.164-1.821-4.002-.704-6.326.634-1.32 1.646-2.258 2.706-2.509a2.4 2.4 0 01.569-.068z" fill="#E24949"/><path d="M150.221 17.46a.291.291 0 00.232-.47c-.031-.04-.791-1.001-2.413-1.042a.29.29 0 00-.3.285.292.292 0 00.284.3c1.33.033 1.94.785 1.965.817a.306.306 0 00.232.11z" fill="#E24949"/><path d="M163.237 56.983a.282.282 0 00.224-.109c.348-.443.71-.884 1.078-1.31a.287.287 0 00-.03-.403.285.285 0 00-.402.03c-.373.431-.741.88-1.094 1.33a.287.287 0 00.224.462zm38.97 127.179a.285.285 0 00.004-.568 105.02 105.02 0 01-3.386-.088.285.285 0 00-.296.272.283.283 0 00.272.296c1.142.048 2.287.077 3.404.088h.002zm3.395-.025h.007a94.304 94.304 0 003.404-.146.286.286 0 00.267-.301.285.285 0 00-.302-.266c-1.11.068-2.248.117-3.382.145a.284.284 0 00.006.568zm-10.179-.259a.286.286 0 00.02-.57c-1.112-.081-2.248-.18-3.375-.296a.284.284 0 10-.058.566 122.053 122.053 0 003.413.3zm16.957-.16c.01 0 .019 0 .03-.002a81.605 81.605 0 003.382-.41.285.285 0 00-.079-.564c-1.099.156-2.23.294-3.36.406a.288.288 0 00-.256.312.284.284 0 00.283.258zm-23.712-.528a.285.285 0 00.035-.568 124.172 124.172 0 01-3.354-.481.285.285 0 00-.089.562 134.615 134.615 0 003.408.487zm30.434-.432a.327.327 0 00.053-.005 76.17 76.17 0 003.335-.706.284.284 0 00-.131-.553c-1.081.255-2.195.49-3.308.7a.285.285 0 00.051.564zm-37.145-.617a.285.285 0 00.05-.565c-1.099-.2-2.218-.419-3.327-.648a.284.284 0 10-.115.556c1.112.232 2.235.451 3.339.653.019.002.037.004.053.004zm43.751-.945a.307.307 0 00.079-.011 66.587 66.587 0 003.25-1.029.285.285 0 00-.186-.539 62.689 62.689 0 01-3.222 1.02.285.285 0 00.079.559zm-50.4-.436a.285.285 0 00.064-.562 160.9 160.9 0 01-3.294-.803.287.287 0 00-.347.205.287.287 0 00.206.348c1.097.281 2.209.553 3.306.807a.44.44 0 00.065.005zm-6.581-1.683a.285.285 0 00.078-.559 146.68 146.68 0 01-3.254-.952.283.283 0 00-.354.189.283.283 0 00.189.355c1.079.329 2.178.65 3.266.956.024.007.05.011.075.011zm63.396-.103a.306.306 0 00.108-.022 60.4 60.4 0 003.121-1.377.285.285 0 00-.246-.515 59.756 59.756 0 01-3.092 1.364.285.285 0 00.109.55zm-69.895-1.879a.285.285 0 00.088-.555 134.54 134.54 0 01-3.207-1.103.284.284 0 00-.364.173.284.284 0 00.173.364 140.3 140.3 0 003.22 1.107.264.264 0 00.09.014zm76.021-1.036a.278.278 0 00.136-.035 57.924 57.924 0 002.939-1.732.285.285 0 10-.305-.481 58.424 58.424 0 01-2.91 1.715.284.284 0 00-.112.386.295.295 0 00.252.147zm5.74-3.621a.274.274 0 00.165-.054 55.147 55.147 0 002.708-2.075.285.285 0 00-.361-.441c-.869.71-1.77 1.401-2.679 2.055a.285.285 0 00.167.515zm5.255-4.29c.07 0 .138-.026.193-.076.213-.196.426-.397.638-.597a57.29 57.29 0 001.797-1.79.285.285 0 10-.412-.394 56.19 56.19 0 01-2.409 2.366.286.286 0 00-.017.403.299.299 0 00.21.088zm4.692-4.9a.288.288 0 00.219-.102 48.33 48.33 0 002.106-2.687.284.284 0 10-.459-.334 49.703 49.703 0 01-2.081 2.656.283.283 0 00.035.4.27.27 0 00.18.067zm3.983-5.489c.096 0 .19-.048.243-.136a41.095 41.095 0 001.672-2.979.284.284 0 10-.507-.258 41.361 41.361 0 01-1.65 2.939.284.284 0 00.242.434zm3.068-6.047a.29.29 0 00.265-.178 38.62 38.62 0 001.134-3.226.285.285 0 10-.546-.163 37.781 37.781 0 01-1.116 3.176.285.285 0 00.263.391zm1.95-6.494a.285.285 0 00.279-.227 36.28 36.28 0 00.515-3.382.284.284 0 10-.566-.059 36.179 36.179 0 01-.507 3.328.285.285 0 00.222.337l.057.003zm.7-6.741a.286.286 0 00.285-.283l.002-.302c0-1.033-.046-2.081-.134-3.115a.285.285 0 10-.568.049c.088 1.019.132 2.05.132 3.066 0 .099 0 .199-.002.298a.284.284 0 00.284.287h.001zm-.579-6.755a.286.286 0 00.282-.337 38.376 38.376 0 00-.758-3.334.284.284 0 00-.351-.198.283.283 0 00-.198.351 37.15 37.15 0 01.746 3.284.285.285 0 00.279.234zm-24.063-.017c.777 0 1.566-.049 2.347-.147a.286.286 0 00-.07-.566 18.204 18.204 0 01-3.336.11.283.283 0 00-.301.269.285.285 0 00.266.301c.362.022.73.033 1.094.033zm-4.424-.562a.287.287 0 00.276-.212.283.283 0 00-.203-.347 14.755 14.755 0 01-3.1-1.198.283.283 0 00-.384.119.282.282 0 00.119.384c.996.524 2.081.943 3.22 1.245a.355.355 0 00.072.009zm10.052-.292a.266.266 0 00.083-.013 20.87 20.87 0 003.191-1.278.282.282 0 00.126-.382.283.283 0 00-.382-.127 20.225 20.225 0 01-3.104 1.243.285.285 0 00-.19.356.292.292 0 00.276.201zm-15.982-2.873a.287.287 0 00.195-.495 10.982 10.982 0 01-2.064-2.567.284.284 0 10-.492.286 11.593 11.593 0 002.17 2.7c.052.05.122.076.191.076zm22.031-.14a.273.273 0 00.165-.053 23.17 23.17 0 002.631-2.206.284.284 0 00-.397-.408 22.587 22.587 0 01-2.564 2.152.285.285 0 00-.067.397.28.28 0 00.232.118zm10.591-2.654a.285.285 0 00.266-.384 39.266 39.266 0 00-1.332-3.149.286.286 0 00-.515.247 39.37 39.37 0 011.314 3.102.286.286 0 00.267.184zm-5.737-2.053a.284.284 0 00.224-.11 27.642 27.642 0 001.927-2.835.283.283 0 00-.1-.389.284.284 0 00-.389.099 26.802 26.802 0 01-1.886 2.775.283.283 0 00.05.399.276.276 0 00.174.061zm-30.222-.939c.02 0 .04-.002.06-.008a.281.281 0 00.217-.338 11.71 11.71 0 01-.263-2.489c0-.266.009-.536.026-.805a.285.285 0 00-.568-.035c-.018.282-.026.563-.026.842 0 .895.092 1.774.276 2.61a.284.284 0 00.278.223zm33.047-3.134a.282.282 0 00.245-.428 38.273 38.273 0 00-1.859-2.871.284.284 0 10-.463.33 38.284 38.284 0 011.831 2.829c.053.09.149.14.246.14zm.64-1.743a.283.283 0 00.259-.167 34.046 34.046 0 001.246-3.185.283.283 0 00-.178-.36.283.283 0 00-.36.178 33.968 33.968 0 01-1.226 3.132.286.286 0 00.259.402zm-33.331-1.832a.287.287 0 00.274-.206 23.48 23.48 0 011.167-3.139.284.284 0 10-.516-.237 24.28 24.28 0 00-1.088 2.86c-.039.119-.074.239-.109.358a.284.284 0 00.272.364zm28.754-1.948a.285.285 0 00.217-.471 35.462 35.462 0 00-2.354-2.485.286.286 0 00-.394.412 34.54 34.54 0 012.316 2.444c.055.067.134.1.215.1zm6.751-2.638a.284.284 0 00.276-.217 44.2 44.2 0 00.674-3.347.285.285 0 10-.562-.092 43.627 43.627 0 01-.667 3.303.285.285 0 00.279.353zm-32.641-1.533a.285.285 0 00.231-.119 13.025 13.025 0 012.241-2.439.284.284 0 10-.364-.438 13.555 13.555 0 00-2.34 2.546.284.284 0 00.232.45zm20.979-.503a.28.28 0 00.226-.113.283.283 0 00-.053-.398 27.229 27.229 0 00-2.846-1.916.284.284 0 10-.286.493 26.786 26.786 0 012.784 1.875.31.31 0 00.175.059zm-5.863-3.379c.114 0 .22-.068.264-.182a.284.284 0 00-.161-.369 17.572 17.572 0 00-3.313-.947.285.285 0 00-.101.561c1.046.185 2.125.494 3.204.917a.32.32 0 00.107.02zm-9.929-.351a.306.306 0 00.106-.02 10.814 10.814 0 013.208-.744.285.285 0 00-.046-.568 11.347 11.347 0 00-3.377.784.287.287 0 00-.158.372.295.295 0 00.267.176zm28.559-.923c.145 0 .268-.11.283-.257a58.6 58.6 0 00.222-3.402.284.284 0 10-.568-.02 59.455 59.455 0 01-.218 3.369.283.283 0 00.257.31h.024zm.252-6.778h.005a.284.284 0 00.28-.289 75.62 75.62 0 00-.135-3.406.284.284 0 00-.301-.266.286.286 0 00-.267.301 74.51 74.51 0 01.135 3.379.283.283 0 00.283.28zm-.419-6.777c.011 0 .02 0 .031-.002a.286.286 0 00.253-.314 66.322 66.322 0 00-.448-3.378.284.284 0 10-.562.088c.174 1.097.325 2.224.444 3.349a.284.284 0 00.282.257zm-1.072-6.696a.285.285 0 00.279-.346 60.744 60.744 0 00-.812-3.31.286.286 0 00-.55.153c.296 1.072.568 2.174.805 3.277.03.134.148.226.278.226zm-1.809-6.536a.288.288 0 00.271-.377 56.57 56.57 0 00-1.199-3.19.283.283 0 10-.525.216 55.475 55.475 0 011.185 3.16c.04.116.151.191.268.191zm-2.576-6.271c.042 0 .084-.01.124-.03a.285.285 0 00.133-.38 53.891 53.891 0 00-1.588-3.018.285.285 0 00-.388-.107.286.286 0 00-.107.388c.552.97 1.081 1.976 1.572 2.985a.275.275 0 00.254.162zm-3.351-5.895a.285.285 0 00.237-.441 52.266 52.266 0 00-1.965-2.788.285.285 0 00-.454.344 51.14 51.14 0 011.943 2.757.288.288 0 00.239.128zm-4.084-5.413a.273.273 0 00.185-.07.285.285 0 00.03-.402 54.167 54.167 0 00-2.309-2.51.284.284 0 10-.406.398 53.01 53.01 0 012.285 2.483.273.273 0 00.215.101zm-4.75-4.841a.282.282 0 00.212-.094.286.286 0 00-.022-.402 55.789 55.789 0 00-2.605-2.195.286.286 0 00-.401.046.286.286 0 00.046.4 54.063 54.063 0 012.577 2.173.3.3 0 00.193.072zm-77.812-1.809a.286.286 0 00.198-.08 40.066 40.066 0 012.513-2.245.285.285 0 00.04-.4.286.286 0 00-.401-.04c-.884.723-1.74 1.49-2.547 2.275a.285.285 0 00-.006.402.275.275 0 00.203.088zm72.499-2.396a.284.284 0 00.161-.518 57.737 57.737 0 00-2.854-1.864.284.284 0 10-.298.485 56.05 56.05 0 012.825 1.845.3.3 0 00.166.052zm-67.261-1.906a.283.283 0 00.162-.052 43.738 43.738 0 012.841-1.812.283.283 0 00.101-.39.282.282 0 00-.389-.1 45.424 45.424 0 00-2.879 1.835.286.286 0 00-.071.397.29.29 0 00.235.122zm61.478-1.633c.101 0 .2-.055.252-.15a.286.286 0 00-.118-.386 61.04 61.04 0 00-3.051-1.522.285.285 0 00-.241.516c1.022.474 2.039.982 3.022 1.507.044.024.09.035.136.035zm-55.631-1.799a.28.28 0 00.125-.03 49.21 49.21 0 013.075-1.385.284.284 0 10-.217-.526 50.113 50.113 0 00-3.11 1.402.284.284 0 00-.129.383.29.29 0 00.256.156zm49.477-1.057a.284.284 0 00.265-.18.283.283 0 00-.16-.37 63.022 63.022 0 00-3.2-1.174.284.284 0 10-.182.538 62.23 62.23 0 013.171 1.164.254.254 0 00.106.022zm-43.206-1.524a.307.307 0 00.09-.014 55.101 55.101 0 013.23-.978.283.283 0 00.2-.35.283.283 0 00-.349-.2c-1.101.298-2.199.63-3.263.99a.282.282 0 00-.178.36c.04.119.151.192.27.192zm36.779-.643a.285.285 0 00.075-.559 63.97 63.97 0 00-3.306-.829.285.285 0 00-.124.557c1.098.245 2.201.522 3.278.822a.36.36 0 00.077.01zM190.55 41.11a.326.326 0 00.059-.005 59.448 59.448 0 013.325-.592.283.283 0 00.239-.324.283.283 0 00-.323-.239 59.28 59.28 0 00-3.357.598.282.282 0 00-.22.336.286.286 0 00.277.226zm23.613-.353a.288.288 0 00.282-.237.288.288 0 00-.234-.329 65.068 65.068 0 00-3.373-.481.286.286 0 00-.066.566c1.114.13 2.239.29 3.344.478a.237.237 0 00.047.003zm-16.902-.648c.009 0 .018 0 .027-.002a63.883 63.883 0 013.371-.223.285.285 0 10-.022-.57 63.017 63.017 0 00-3.4.227.285.285 0 00.024.568zm10.166-.138a.287.287 0 00.285-.267.286.286 0 00-.267-.303 65.606 65.606 0 00-3.404-.133h-.003a.284.284 0 00-.285.282.284.284 0 00.281.288c1.119.015 2.255.06 3.375.133h.018zM155.703 174.75a.284.284 0 00.265-.18.286.286 0 00-.16-.37c-1.013-.398-1.568-.639-1.574-.641a.284.284 0 10-.227.522c.005.002.568.246 1.589.649.037.014.072.02.107.02zM140.469 60.454a.264.264 0 00.347-.223 18.06 18.06 0 00.092-1.604.265.265 0 00-.26-.267.265.265 0 00-.268.26 17.38 17.38 0 01-.089 1.556.265.265 0 00.178.278zM49.59 108.455a.264.264 0 00.252-.454 22.842 22.842 0 01-2.247-2.125.263.263 0 10-.387.358c.735.794 1.51 1.525 2.299 2.173a.23.23 0 00.083.048zm-4.253-4.571a.258.258 0 00.239-.037.262.262 0 00.06-.368 25.34 25.34 0 01-1.652-2.617.264.264 0 10-.463.253 26.004 26.004 0 001.685 2.673.277.277 0 00.131.096zm-2.996-5.476c.057.02.121.02.181-.003a.264.264 0 00.15-.342 23.688 23.688 0 01-.944-2.943.264.264 0 00-.512.127c.253 1.014.577 2.027.964 3.01.03.073.089.127.161.151zm-1.506-6.053a.263.263 0 00.345-.279 23.039 23.039 0 01-.132-3.087.263.263 0 00-.258-.27.262.262 0 00-.27.258 23.546 23.546 0 00.136 3.156c.013.107.085.19.179.222zm.144-6.235c.014.005.03.008.045.012a.264.264 0 00.3-.22c.154-1.001.376-2.019.658-3.023a.265.265 0 00-.509-.142 26.283 26.283 0 00-.671 3.084.266.266 0 00.177.29zm1.678-6.009a.266.266 0 00.329-.151c.377-.935.815-1.883 1.301-2.815a.264.264 0 00-.468-.244 32.332 32.332 0 00-1.322 2.862.264.264 0 00.147.344l.013.004zm2.878-5.546a.262.262 0 00.306-.109 41.847 41.847 0 011.764-2.558.263.263 0 10-.422-.315c-.639.857-1.24 1.73-1.788 2.59a.265.265 0 00.082.365c.018.01.037.02.058.027zm3.695-5.045a.262.262 0 00.295-.093 29.793 29.793 0 001.752-2.623.263.263 0 10-.453-.27 29.062 29.062 0 01-1.722 2.577.263.263 0 00.054.368.247.247 0 00.074.041zm3.182-5.373a.264.264 0 00.325-.143 27.2 27.2 0 001.132-2.947.265.265 0 00-.167-.33l-.005-.002a.262.262 0 00-.33.17l-.135.411a27.3 27.3 0 01-.975 2.48.267.267 0 00.155.36zm1.892-5.947a.264.264 0 00.343-.199c.198-1.03.337-2.083.411-3.13a.262.262 0 00-.245-.282.262.262 0 00-.281.245 25.96 25.96 0 01-.403 3.069.26.26 0 00.175.297zm-20.597-7.358a.265.265 0 00.332-.16.265.265 0 00-.159-.338 24.43 24.43 0 01-2.844-1.216.265.265 0 00-.239.471 24.869 24.869 0 002.91 1.244zm3.001.876a30.03 30.03 0 003.132.557.264.264 0 10.065-.525 29.92 29.92 0 01-3.053-.54.264.264 0 00-.144.508zm-8.55-3.722c.106.036.228 0 .297-.096a.265.265 0 00-.06-.369 15.388 15.388 0 01-2.313-2.02.264.264 0 00-.386.358 15.821 15.821 0 002.391 2.09.241.241 0 00.07.037zm14.749 4.495a.25.25 0 00.078.014 32.657 32.657 0 003.151-.084.262.262 0 00.243-.283.262.262 0 00-.283-.242c-1.03.077-2.072.105-3.1.082a.264.264 0 00-.27.258.264.264 0 00.18.255zm6.23-.47a.26.26 0 00.129.01c1.03-.18 2.066-.412 3.075-.69a.263.263 0 10-.14-.508c-.993.274-2.011.503-3.026.678a.264.264 0 00-.039.51zm-25.125-8.63a.267.267 0 00.201-.013.265.265 0 00.12-.353c-.475-.954-.74-1.927-.795-2.89a.266.266 0 00-.277-.25.263.263 0 00-.248.278c.057 1.036.342 2.078.847 3.096a.26.26 0 00.152.132zm30.736 8.584a.264.264 0 00.347-.264 26.932 26.932 0 00-.332-3.14.264.264 0 10-.522.087c.168 1.017.277 2.053.326 3.078a.268.268 0 00.181.24zm.412-1.61a.267.267 0 00.177-.004 33.77 33.77 0 002.889-1.257.264.264 0 10-.233-.473c-.927.456-1.885.873-2.844 1.237a.263.263 0 00.01.496zm-31.434-13.02a.26.26 0 00.326-.148c.364-.873.917-1.727 1.648-2.537a.264.264 0 10-.393-.353c-.77.854-1.357 1.758-1.743 2.686a.264.264 0 00.162.353zm30.004 8.472a.265.265 0 00.337-.325 27.6 27.6 0 00-1.048-2.979.264.264 0 00-.487.204c.396.947.742 1.93 1.028 2.92.025.088.09.153.17.18zm7.038 1.797a.268.268 0 00.222-.024 36.03 36.03 0 002.614-1.755.265.265 0 00-.313-.425 35.626 35.626 0 01-2.577 1.728.262.262 0 00-.087.362.26.26 0 00.14.114zm-33.002-14.94a.263.263 0 00.238-.035 16.206 16.206 0 012.652-1.552.265.265 0 00.13-.35.265.265 0 00-.349-.13c-.933.428-1.854.968-2.74 1.602a.264.264 0 00.069.465zm23.546 7.386a.264.264 0 00.315-.38 25.14 25.14 0 00-1.73-2.645.264.264 0 00-.371-.053.264.264 0 00-.053.37c.61.814 1.18 1.685 1.694 2.589a.27.27 0 00.145.119zm14.49 3.855a.266.266 0 00.259-.052 40.246 40.246 0 002.287-2.16.264.264 0 00-.376-.369 39.532 39.532 0 01-2.259 2.132.264.264 0 00.09.449zM47.56 35.074a.264.264 0 00.272-.435 20.724 20.724 0 00-2.389-2.076.264.264 0 10-.313.424c.807.597 1.59 1.28 2.33 2.024a.25.25 0 00.1.063zM33.424 30.11a.283.283 0 00.139.01 12.987 12.987 0 013.047-.274.263.263 0 10.015-.527 13.551 13.551 0 00-3.17.284.264.264 0 00-.03.507zm9.117 1.278a.265.265 0 00.2-.488c-.968-.48-1.972-.86-2.97-1.123a.264.264 0 00-.322.188.262.262 0 00.188.322c.965.254 1.934.62 2.87 1.086l.034.015zm27.64 8.068a.26.26 0 00.285-.08 47.778 47.778 0 001.948-2.468.264.264 0 00-.425-.313 45.305 45.305 0 01-1.925 2.44.262.262 0 00.03.37.22.22 0 00.086.051zM74 34.51a.262.262 0 00.288-.083 33.432 33.432 0 012.072-2.308.263.263 0 10-.375-.37 33.913 33.913 0 00-2.103 2.344.265.265 0 00.118.417zm66.339 21.249a.265.265 0 00.345-.29 22.902 22.902 0 00-.693-3.084.264.264 0 00-.329-.177.263.263 0 00-.177.329c.301 1.012.529 2.024.678 3.012.013.1.085.18.176.21zM78.39 30.069c.084.028.18.014.253-.048a29.139 29.139 0 012.485-1.849.264.264 0 00-.292-.44 30.188 30.188 0 00-2.528 1.883.264.264 0 00-.035.371.241.241 0 00.117.083zm60.192 19.703c.059.02.126.02.188-.009a.264.264 0 00.138-.346 31.593 31.593 0 00-1.396-2.829.264.264 0 10-.461.256 30.31 30.31 0 011.372 2.781.264.264 0 00.159.147zm-3.026-5.466a.26.26 0 00.231-.032.262.262 0 00.07-.366 40.863 40.863 0 00-1.869-2.534.263.263 0 10-.412.328 40.26 40.26 0 011.844 2.501.26.26 0 00.136.103zm-51.965-17.69c.064.022.14.018.204-.015a28.257 28.257 0 012.825-1.268.264.264 0 00-.188-.493c-.98.377-1.948.81-2.877 1.291a.264.264 0 00.036.485zm48.071 12.795a.263.263 0 00.279-.427c-.7-.76-1.442-1.516-2.205-2.244a.264.264 0 00-.364.382c.755.72 1.489 1.468 2.181 2.22a.278.278 0 00.109.07zM89.418 24.378c.047.016.1.02.151.004a30.32 30.32 0 013.032-.634.263.263 0 00.22-.301.263.263 0 00-.301-.22 30.453 30.453 0 00-3.086.644.265.265 0 00-.016.507zm37.722 10.715a.264.264 0 00.254-.452 52.064 52.064 0 00-2.464-1.952.264.264 0 00-.315.422c.833.62 1.652 1.271 2.439 1.933a.24.24 0 00.086.049zM95.587 23.41a.29.29 0 00.1.014 34.15 34.15 0 013.103-.031.263.263 0 00.272-.255.263.263 0 00-.255-.273 35.225 35.225 0 00-3.152.031.263.263 0 00-.248.278.26.26 0 00.18.236zm26.539 7.944a.263.263 0 00.305-.105.263.263 0 00-.075-.365 54.41 54.41 0 00-2.676-1.651.264.264 0 10-.265.457 55.75 55.75 0 012.651 1.634.228.228 0 00.06.03zm-20.293-7.733c.016.006.034.01.053.013 1.012.121 2.044.287 3.069.492a.263.263 0 00.104-.517 41.152 41.152 0 00-3.11-.498.262.262 0 00-.293.23.26.26 0 00.177.28zm14.875 4.608a.264.264 0 00.201-.486c-.939-.47-1.9-.914-2.855-1.32a.265.265 0 00-.347.139.265.265 0 00.139.346c.944.402 1.895.843 2.825 1.307.013.006.026.01.037.014zm-8.741-3.386l.014.005c.988.273 1.986.588 2.968.932a.263.263 0 00.336-.161.262.262 0 00-.161-.337 47.135 47.135 0 00-3.002-.943.263.263 0 00-.324.183.261.261 0 00.169.321zm-54.301 86.049a.263.263 0 10.168-.5 9.25 9.25 0 01-1.405-.624.264.264 0 00-.25.465c.522.28 1.022.502 1.487.659zm78.209-48.351h.021c.597-.04 1.203-.08 1.805-.113a.301.301 0 10-.033-.602c-.604.033-1.214.072-1.813.115a.3.3 0 00.02.6z" fill="#2E2E46"/><path d="M74.703 215.88c.252 0 .506-.002.76-.006.167-.001.3-.124.296-.273-.002-.147-.139-.263-.302-.263h-.006a49.73 49.73 0 01-3.608-.077c-.168-.01-.31.103-.322.25-.012.147.115.275.283.285.96.056 1.933.084 2.9.084zm4.38-.189c.01 0 .02 0 .03-.002 1.2-.104 2.418-.251 3.623-.438.164-.026.275-.164.246-.31-.029-.145-.185-.244-.349-.218-1.19.185-2.394.331-3.578.433-.166.014-.29.145-.272.292.016.139.149.243.3.243zm-10.867-.239c.146 0 .277-.095.298-.229.026-.147-.09-.284-.254-.304a47.604 47.604 0 01-3.539-.61c-.162-.035-.326.055-.365.199-.039.144.063.289.225.324 1.18.249 2.388.457 3.59.618l.045.002zm18.029-.836a.317.317 0 00.068-.007 74.084 74.084 0 003.532-.812c.16-.042.253-.191.206-.333-.046-.142-.214-.225-.374-.183a74.706 74.706 0 01-3.5.805c-.163.033-.266.176-.227.322.033.123.158.208.295.208zm-25.089-.655c.127 0 .246-.071.287-.185.053-.141-.033-.293-.193-.34a46.194 46.194 0 01-3.376-1.129c-.154-.058-.331.006-.396.142-.064.137.006.295.16.352 1.12.422 2.271.807 3.423 1.144a.3.3 0 00.095.016zm32.064-1.136a.343.343 0 00.1-.015 68.162 68.162 0 003.407-1.164c.154-.057.226-.215.161-.352-.064-.136-.242-.2-.396-.143a66.84 66.84 0 01-3.373 1.151c-.158.049-.24.203-.186.343.047.111.162.18.287.18zm-38.743-1.385c.11 0 .213-.052.268-.144.078-.131.021-.292-.127-.362a45.72 45.72 0 01-3.122-1.607.325.325 0 00-.418.084c-.09.124-.048.291.094.37a46.502 46.502 0 003.163 1.629c.047.02.093.03.142.03zm45.442-1.107a.325.325 0 00.132-.027 62.212 62.212 0 003.228-1.517c.144-.073.195-.237.113-.365s-.268-.174-.412-.101a61.691 61.691 0 01-3.194 1.501c-.15.066-.213.227-.139.359.051.095.158.15.272.15zm-51.568-2.347a.316.316 0 00.242-.108c.101-.118.074-.287-.059-.376a45.575 45.575 0 01-2.792-2.027.33.33 0 00-.427.022.249.249 0 00.025.38 45.924 45.924 0 002.83 2.053.326.326 0 00.18.056zm57.878-.842a.345.345 0 00.166-.043 60.258 60.258 0 002.995-1.855c.134-.088.162-.256.062-.375a.327.327 0 00-.423-.056 60.106 60.106 0 01-2.966 1.836c-.141.081-.18.247-.088.37a.312.312 0 00.254.123zm-63.309-3.43a.32.32 0 00.211-.075.247.247 0 00.008-.379 44.286 44.286 0 01-2.404-2.388.33.33 0 00-.425-.036.25.25 0 00-.041.378 43.693 43.693 0 002.435 2.419.322.322 0 00.216.081zm69.137-.417a.329.329 0 00.195-.063c.925-.692 1.84-1.42 2.722-2.162a.248.248 0 00.012-.38.334.334 0 00-.428-.01 57.442 57.442 0 01-2.694 2.14.248.248 0 00-.037.378.31.31 0 00.23.097zm5.266-4.442c.08 0 .162-.027.221-.085a58.272 58.272 0 002.415-2.431.246.246 0 00-.039-.377.327.327 0 00-.425.035 61.024 61.024 0 01-2.392 2.408.249.249 0 00.013.379.333.333 0 00.207.071zm-79.025-.109c.06 0 .121-.015.174-.048.136-.085.17-.253.074-.374a40.93 40.93 0 01-1.957-2.693c-.086-.128-.271-.169-.414-.095-.144.076-.191.241-.107.367a40.126 40.126 0 001.984 2.727c.057.076.15.116.246.116zm83.673-4.85a.319.319 0 00.244-.109 58.287 58.287 0 002.088-2.659c.091-.125.052-.291-.088-.373a.327.327 0 00-.42.078 56.85 56.85 0 01-2.068 2.636c-.099.119-.07.287.063.375a.341.341 0 00.181.052zm-87.367-.699c.045 0 .09-.009.133-.028.15-.064.213-.225.14-.358a36.368 36.368 0 01-1.443-2.935c-.06-.139-.236-.206-.39-.154-.157.053-.233.209-.174.346.435.997.927 2 1.463 2.976.05.097.16.153.271.153zm91.351-4.698a.306.306 0 00.262-.135 51.395 51.395 0 001.729-2.859c.074-.133.013-.294-.137-.36-.15-.066-.332-.012-.406.121a50.629 50.629 0 01-1.713 2.83c-.084.128-.033.292.111.367a.364.364 0 00.154.036zm-93.967-1.312a.346.346 0 00.084-.011c.16-.041.253-.19.207-.332a31.506 31.506 0 01-.843-3.112c-.032-.145-.19-.24-.354-.213-.163.028-.27.168-.24.314a32.23 32.23 0 00.857 3.158c.035.119.156.196.289.196zm-1.358-6.327c.01 0 .017 0 .027-.002.166-.014.289-.144.273-.291a26.88 26.88 0 01-.136-3.193c.002-.149-.131-.27-.297-.272h-.006c-.164 0-.3.118-.302.265-.002.158-.004.315-.004.473 0 .914.049 1.847.142 2.777.016.137.149.243.303.243zm.125-6.436c.15 0 .279-.099.298-.234a24.02 24.02 0 01.677-3.132c.041-.144-.056-.29-.218-.328-.162-.036-.326.05-.369.194a24.044 24.044 0 00-.69 3.197c-.022.147.095.282.26.301l.042.002zm1.807-6.23a.303.303 0 00.28-.17c.441-.987.96-1.957 1.54-2.88.082-.129.03-.292-.117-.365a.323.323 0 00-.412.104 24.01 24.01 0 00-1.574 2.944c-.063.138.013.294.17.348a.373.373 0 00.113.019zm23.205-2.889c.937 0 1.817-.126 2.619-.375.158-.049.24-.203.185-.341-.055-.141-.228-.213-.384-.165-1.02.317-2.192.416-3.454.293-.166-.018-.316.09-.334.237-.017.147.102.28.268.296.372.036.743.055 1.1.055zm-4.576-.858a.303.303 0 00.281-.17c.061-.139-.015-.294-.171-.348a23.618 23.618 0 01-3.208-1.413c-.144-.076-.33-.033-.414.093-.086.129-.037.293.106.368a24.517 24.517 0 003.295 1.449.313.313 0 00.111.021zm9.998-1.361c.092 0 .18-.037.24-.104a6.379 6.379 0 001.448-3.067c.026-.147-.086-.284-.252-.306-.163-.023-.32.076-.345.223a5.88 5.88 0 01-1.329 2.822.25.25 0 00.055.376.316.316 0 00.183.056zm-25.1-.511a.321.321 0 00.244-.109 26.42 26.42 0 012.32-2.435.247.247 0 00-.01-.379.33.33 0 00-.427.009 27.274 27.274 0 00-2.37 2.486c-.1.12-.073.288.062.376a.343.343 0 00.181.052zm8.835-1.358a.32.32 0 00.242-.105c.102-.118.074-.286-.058-.376a15.792 15.792 0 01-2.584-2.175.328.328 0 00-.425-.029c-.127.097-.142.265-.033.377a16.56 16.56 0 002.679 2.255.332.332 0 00.18.053zm-3.822-3.291a.33.33 0 00.191-.061 44.666 44.666 0 012.882-1.927c.137-.085.172-.251.076-.374a.33.33 0 00-.421-.068 47.72 47.72 0 00-2.586 1.713c-.113.08-.224.161-.335.242-.13.094-.149.263-.041.378a.32.32 0 00.234.097zm21.254-.979a.355.355 0 00.084-.01c.16-.042.254-.189.207-.332a6.854 6.854 0 00-1.84-2.894.33.33 0 00-.427-.008.247.247 0 00-.01.379 6.303 6.303 0 011.696 2.67c.038.119.16.195.29.195zm-22.14-.583c.05 0 .103-.012.15-.036.145-.073.195-.238.114-.366a19.86 19.86 0 01-1.528-2.878c-.06-.138-.234-.207-.39-.154-.157.054-.235.208-.174.347a20.367 20.367 0 001.569 2.95.3.3 0 00.259.137zm6.874-2.076a.338.338 0 00.144-.033 24.83 24.83 0 013.265-1.313c.158-.05.24-.202.183-.342-.056-.141-.228-.213-.386-.163a25.175 25.175 0 00-3.35 1.345c-.147.071-.201.234-.121.364a.31.31 0 00.265.142zm10.433-1.785c.129 0 .25-.075.289-.191.049-.142-.041-.291-.201-.334-1.12-.303-2.375-.4-3.713-.284-.166.014-.289.145-.271.293.015.147.163.256.33.24 1.26-.107 2.434-.019 3.478.263.03.009.06.013.088.013zm-19.94-2.13a.255.255 0 00.073-.009c.162-.036.261-.182.22-.325a28.428 28.428 0 01-.68-3.14c-.024-.147-.176-.247-.342-.228-.166.021-.28.156-.257.303a28.32 28.32 0 00.692 3.193c.035.124.158.206.295.206zm-1.035-6.376h.017c.166-.008.295-.135.285-.282a37.778 37.778 0 01-.06-3.205c.004-.149-.129-.27-.297-.273-.172-.006-.304.114-.308.263a38.816 38.816 0 00.06 3.245c.01.142.143.252.303.252zm.13-6.444c.157 0 .287-.106.301-.246.1-1.044.238-2.118.41-3.19.023-.147-.092-.282-.256-.303-.166-.02-.318.082-.341.227a48.806 48.806 0 00-.414 3.221c-.014.147.11.277.275.289l.026.002zm1.025-6.386c.14 0 .267-.088.296-.217.23-1.033.496-2.088.79-3.135.042-.144-.058-.29-.22-.326-.162-.036-.326.052-.367.196a59.894 59.894 0 00-.796 3.162c-.033.145.075.285.238.315a.364.364 0 00.059.005zm1.752-6.261c.13 0 .25-.075.289-.192a68.698 68.698 0 011.11-3.06c.055-.14-.03-.293-.187-.341-.158-.049-.33.026-.385.166a69.729 69.729 0 00-1.12 3.082c-.046.142.043.291.203.334.033.007.06.011.09.011zm2.377-6.097a.303.303 0 00.28-.17c.438-.987.906-1.984 1.394-2.967.068-.136-.002-.295-.154-.354-.153-.059-.332.002-.398.137a74.201 74.201 0 00-1.403 2.989c-.06.138.015.294.171.348.035.01.073.017.11.017zm2.926-5.906c.112 0 .22-.056.272-.151a83.21 83.21 0 011.648-2.864c.079-.13.024-.292-.124-.363a.323.323 0 00-.41.109 83.474 83.474 0 00-1.66 2.881c-.073.133-.012.294.138.358.047.021.092.03.136.03zm3.43-5.688a.315.315 0 00.262-.134 89.843 89.843 0 011.885-2.746c.09-.124.047-.291-.094-.37a.326.326 0 00-.417.083 88.526 88.526 0 00-1.897 2.763c-.084.128-.035.293.11.367a.32.32 0 00.152.037zm3.893-5.448a.312.312 0 00.25-.116c.681-.879 1.39-1.76 2.105-2.618.1-.12.072-.287-.062-.375a.328.328 0 00-.424.055 91.625 91.625 0 00-2.119 2.634c-.093.123-.06.289.078.372a.311.311 0 00.172.048zm4.33-5.18a.318.318 0 00.236-.1 93.292 93.292 0 012.312-2.477.248.248 0 00-.033-.379.332.332 0 00-.427.028 91.181 91.181 0 00-2.326 2.491.25.25 0 00.047.378c.058.04.125.059.19.059zm4.737-4.892a.33.33 0 00.223-.086 93.537 93.537 0 012.507-2.322.247.247 0 00-.002-.38.33.33 0 00-.427.002c-.85.76-1.7 1.546-2.521 2.336a.248.248 0 00.018.38.314.314 0 00.202.07zm5.12-4.578a.324.324 0 00.207-.073 96.264 96.264 0 012.689-2.155.25.25 0 00.03-.38.332.332 0 00-.428-.025 97.245 97.245 0 00-2.705 2.17.246.246 0 00-.013.378.32.32 0 00.22.085zm5.48-4.237a.317.317 0 00.189-.06 97.679 97.679 0 012.856-1.978.25.25 0 00.06-.376.33.33 0 00-.423-.053 99.607 99.607 0 00-2.872 1.99.248.248 0 00-.045.377.31.31 0 00.234.1zm5.806-3.875a.32.32 0 00.172-.048 99.272 99.272 0 013.008-1.79c.141-.08.182-.247.09-.371a.324.324 0 00-.417-.08 106.57 106.57 0 00-3.028 1.8c-.137.085-.17.253-.077.375a.33.33 0 00.252.114zm6.11-3.492a.326.326 0 00.153-.039c1.033-.545 2.092-1.08 3.148-1.593.146-.07.2-.233.12-.363-.08-.13-.263-.179-.41-.108a104.94 104.94 0 00-3.164 1.602c-.144.076-.191.24-.105.367a.298.298 0 00.257.133zm6.374-3.093a.335.335 0 00.134-.028c1.072-.476 2.17-.943 3.267-1.388.152-.063.218-.222.148-.355-.07-.135-.25-.194-.4-.132a105.78 105.78 0 00-3.286 1.397c-.15.066-.209.227-.134.36.052.09.16.146.27.146zm6.605-2.684a.33.33 0 00.115-.02c1.108-.41 2.242-.807 3.369-1.181.156-.052.237-.207.178-.347-.059-.138-.232-.21-.39-.157-1.134.377-2.273.777-3.39 1.187-.154.058-.226.215-.163.352.05.104.163.166.28.166zm6.801-2.265a.364.364 0 00.096-.014 119.26 119.26 0 013.452-.973c.16-.043.251-.192.203-.334-.049-.142-.217-.223-.377-.18-1.163.308-2.33.637-3.471.978-.158.047-.244.2-.189.34.043.112.16.183.286.183zm6.96-1.847a.37.37 0 00.076-.009c1.159-.27 2.344-.528 3.518-.765.162-.033.266-.177.229-.322-.037-.144-.201-.236-.363-.203-1.183.24-2.373.499-3.538.77-.162.039-.257.186-.214.328.035.121.158.2.292.2zm7.083-1.434c.02 0 .039-.002.059-.005 1.174-.203 2.374-.393 3.566-.565.166-.024.278-.16.25-.308-.027-.145-.179-.246-.347-.221a130.66 130.66 0 00-3.586.566c-.164.028-.272.17-.238.315.027.13.154.218.296.218zm7.171-1.03c.013 0 .025 0 .039-.002 1.186-.137 2.398-.261 3.6-.367.166-.015.287-.145.271-.294-.018-.148-.166-.255-.332-.241-1.208.107-2.425.232-3.617.369-.166.019-.283.154-.262.301.02.135.151.234.301.234zm4.546 134.644c.119 0 .232-.07.278-.187.441-1.076.642-1.69.65-1.715a.302.302 0 10-.575-.186c-.002.006-.203.62-.634 1.673a.302.302 0 00.281.415zm59.831-79.298c.568 0 1.141-.02 1.705-.061a.215.215 0 00.199-.228.216.216 0 00-.228-.198 23.888 23.888 0 01-3.384-.002.213.213 0 00-.228.198.213.213 0 00.199.228c.575.043 1.161.063 1.737.063zm-5.106-.541a.213.213 0 00.044-.422c-.263-.055-.53-.118-.792-.182a.214.214 0 00-.26.156.217.217 0 00.157.259c.268.066.538.129.805.184a.185.185 0 00.046.005zm10.175-.007a.24.24 0 00.046-.005 23.769 23.769 0 003.299-.982.213.213 0 00.123-.276.213.213 0 00-.275-.123 23.29 23.29 0 01-3.241.965.215.215 0 00-.163.254.22.22 0 00.211.167zm6.365-2.413a.212.212 0 00.105-.028c1-.557 1.968-1.195 2.88-1.893a.214.214 0 00-.259-.34 23.456 23.456 0 01-2.827 1.858.215.215 0 00-.083.291.207.207 0 00.184.112zm5.409-4.143a.218.218 0 00.153-.064 24.909 24.909 0 002.228-2.627.214.214 0 00-.344-.252 24.179 24.179 0 01-2.189 2.581.212.212 0 00.152.362zm4.035-5.488a.212.212 0 00.187-.113 26.528 26.528 0 001.439-3.126.213.213 0 10-.398-.153 26.18 26.18 0 01-1.416 3.077.214.214 0 00.087.291.234.234 0 00.101.024zm2.448-6.36a.214.214 0 00.208-.162c.27-1.097.479-2.237.623-3.384a.214.214 0 00-.425-.053 28.923 28.923 0 01-.614 3.334.217.217 0 00.157.26c.016.001.033.005.051.005zm.853-6.766a.214.214 0 00.213-.211 34.026 34.026 0 00-.125-3.435.213.213 0 00-.232-.195.215.215 0 00-.194.231 33.97 33.97 0 01.123 3.393.214.214 0 00.211.217h.004zm-.575-6.802a.215.215 0 00.211-.252 41.254 41.254 0 00-.313-1.56 14.17 14.17 0 01-.281-1.784.216.216 0 00-.231-.194.215.215 0 00-.195.231c.051.585.149 1.202.29 1.838.114.515.219 1.035.311 1.544a.208.208 0 00.208.177zm-.324-6.731c.092 0 .178-.06.206-.154a7.11 7.11 0 011.592-2.844.213.213 0 10-.318-.285 7.569 7.569 0 00-1.684 3.01.214.214 0 00.204.273zm4.297-5.033a.217.217 0 00.109-.029c.865-.51 1.865-.985 3.053-1.452a.214.214 0 10-.156-.399c-1.21.476-2.228.96-3.114 1.481a.213.213 0 00-.075.293.21.21 0 00.183.106zm6.318-2.582c.02 0 .042-.004.062-.01 1.13-.349 2.294-.677 3.283-.951a.214.214 0 10-.114-.412c-.993.276-2.16.605-3.296.956a.214.214 0 00-.141.266.22.22 0 00.206.151zm6.589-1.87a.227.227 0 00.059-.007 116.76 116.76 0 003.29-.97.214.214 0 00-.129-.408c-.954.298-1.994.605-3.279.967a.212.212 0 00-.147.263.218.218 0 00.206.156zm6.525-2.073a.21.21 0 00.075-.013 41.256 41.256 0 003.171-1.328.214.214 0 10-.184-.386c-.972.46-1.998.89-3.137 1.316a.212.212 0 00-.125.275.214.214 0 00.2.136zm6.157-2.948a.208.208 0 00.112-.033 22.641 22.641 0 002.779-2.027.213.213 0 10-.277-.325 22.5 22.5 0 01-2.728 1.988.215.215 0 00.114.397zm5.13-4.442a.215.215 0 00.166-.08 17.941 17.941 0 001.895-2.867.214.214 0 00-.377-.2 17.405 17.405 0 01-1.849 2.8.212.212 0 00.165.347zm-88.113-5.838a.21.21 0 00.204-.154 84.787 84.787 0 011.026-3.25.211.211 0 00-.134-.27.213.213 0 00-.27.134 80.656 80.656 0 00-1.032 3.266.213.213 0 00.146.265c.02.007.04.01.06.01zm91.291-.129c.09 0 .175-.058.204-.148a22.5 22.5 0 00.772-3.342.215.215 0 00-.178-.244.216.216 0 00-.245.178 22.152 22.152 0 01-.757 3.277.215.215 0 00.204.28zM161.413 48a.21.21 0 00.198-.137 74.7 74.7 0 011.304-3.148.214.214 0 00-.39-.173 76.019 76.019 0 00-1.311 3.165.212.212 0 00.122.276.162.162 0 00.077.016zm90.164-.355c.116 0 .21-.092.213-.208.009-.322.015-.649.015-.974 0-.794-.029-1.621-.085-2.461a.212.212 0 00-.228-.199.213.213 0 00-.198.228c.055.829.085 1.647.085 2.432 0 .321-.006.645-.015.961a.215.215 0 00.208.22h.005zm-34.569-1.868c.63 0 1.268-.038 1.896-.116a.213.213 0 00.186-.239.215.215 0 00-.239-.185 15.143 15.143 0 01-3.364.036.212.212 0 00-.233.192.212.212 0 00.191.233c.517.053 1.042.08 1.563.08zm-4.871-.809a.214.214 0 00.202-.145.213.213 0 00-.132-.272 14.879 14.879 0 01-3.035-1.446.214.214 0 00-.294.068.214.214 0 00.068.294 15.22 15.22 0 003.123 1.487.15.15 0 00.068.014zm10.059-.092a.198.198 0 00.072-.012 15.305 15.305 0 003.104-1.522.214.214 0 10-.231-.36c-.938.6-1.952 1.099-3.018 1.48a.214.214 0 00.073.414zM164.17 41.75a.214.214 0 00.191-.118 71.247 71.247 0 011.595-3.008.211.211 0 00-.08-.29.214.214 0 00-.291.08 67.734 67.734 0 00-1.606 3.027.214.214 0 00.191.31zm42.245-.397a.212.212 0 00.143-.055.212.212 0 00.015-.302 8.436 8.436 0 01-1.718-2.83.215.215 0 00-.403.145 8.88 8.88 0 001.805 2.974.218.218 0 00.158.068zm21.472-.149a.215.215 0 00.156-.066 13 13 0 002.025-2.81.212.212 0 00-.088-.289.212.212 0 00-.288.088 12.575 12.575 0 01-1.958 2.717.213.213 0 00.009.301c.037.04.09.06.144.06zm23.253-.371c.011 0 .02 0 .031-.002a.212.212 0 00.18-.243 54.991 54.991 0 00-.603-3.378.214.214 0 00-.419.088c.239 1.145.441 2.274.597 3.351a.22.22 0 00.214.184zM167.526 35.8c.07 0 .14-.035.18-.099a61.785 61.785 0 011.903-2.823.214.214 0 00-.348-.248 63.669 63.669 0 00-1.915 2.843.214.214 0 00.18.327zm63.507-.562c.1 0 .188-.07.21-.171a12.47 12.47 0 00.254-2.518c0-.309-.011-.625-.033-.938a.216.216 0 00-.228-.198.215.215 0 00-.199.228 12.061 12.061 0 01-.213 3.34.213.213 0 00.165.251c.015.004.03.006.044.006zm-26.868-.147c.114 0 .208-.09.213-.204.045-1.051.261-2.154.646-3.28a.215.215 0 00-.135-.271.212.212 0 00-.27.134c-.397 1.163-.621 2.309-.667 3.4a.214.214 0 00.204.223c.002-.002.006-.002.009-.002zm45.58-.945a.213.213 0 00.205-.27 45.194 45.194 0 00-1.029-3.274.214.214 0 00-.402.146 45.12 45.12 0 011.02 3.242c.025.094.11.156.206.156zM171.5 30.244a.217.217 0 00.167-.079 56.056 56.056 0 012.213-2.586.212.212 0 00-.015-.302.212.212 0 00-.301.015 56.238 56.238 0 00-2.229 2.606.213.213 0 00.165.346zm34.757-1.588a.213.213 0 00.184-.107 22.288 22.288 0 011.935-2.775.215.215 0 00-.031-.302.212.212 0 00-.3.032 22.682 22.682 0 00-1.972 2.828.214.214 0 00.184.324zm24.337-.164a.272.272 0 00.065-.009.214.214 0 00.139-.268 18.415 18.415 0 00-1.362-3.173.214.214 0 00-.377.204 17.938 17.938 0 011.331 3.1c.03.09.114.146.204.146zm16.829-.764a.214.214 0 00.193-.305c-.5-1.07-1.048-2.09-1.625-3.031a.213.213 0 00-.294-.07.213.213 0 00-.07.294 29.99 29.99 0 011.603 2.987.212.212 0 00.193.125zm-71.328-2.535c.053 0 .107-.02.149-.06a53.264 53.264 0 012.516-2.29.213.213 0 10-.277-.326 54.127 54.127 0 00-2.539 2.309.213.213 0 00-.003.301.217.217 0 00.154.066zm34.437-1.849c.053 0 .107-.02.147-.059a30.611 30.611 0 012.581-2.205.213.213 0 00.04-.3.213.213 0 00-.299-.04 31.1 31.1 0 00-2.618 2.237.215.215 0 00-.007.3.218.218 0 00.156.067zm16.868-.858c.044 0 .09-.015.127-.043a.217.217 0 00.044-.3 30.362 30.362 0 00-1.553-1.902 21.681 21.681 0 00-.671-.724.215.215 0 00-.302-.005.215.215 0 00-.005.301c.224.232.446.473.658.712a29.13 29.13 0 011.531 1.874.21.21 0 00.171.087zm16.43-.548a.215.215 0 00.165-.351 20.977 20.977 0 00-2.402-2.472.214.214 0 10-.279.323 20.578 20.578 0 012.352 2.423.21.21 0 00.164.077zm-62.533-1.17a.203.203 0 00.126-.043 49.042 49.042 0 012.803-1.928.214.214 0 00.067-.294.215.215 0 00-.295-.066 49.507 49.507 0 00-2.826 1.944.215.215 0 00.125.386zm34.655-1.569a.21.21 0 00.111-.03 30.596 30.596 0 012.996-1.598.215.215 0 00.105-.283.216.216 0 00-.284-.105 31.286 31.286 0 00-3.036 1.62.215.215 0 00-.072.293.21.21 0 00.18.103zm6.696-1.597a.214.214 0 00.131-.382 24.66 24.66 0 00-2.869-1.906.212.212 0 00-.291.08.212.212 0 00.081.291c.987.56 1.936 1.19 2.82 1.873a.194.194 0 00.128.044zm16.035-.101a.212.212 0 00.184-.107.213.213 0 00-.077-.292 17.534 17.534 0 00-3.139-1.437.214.214 0 00-.14.404c1.06.364 2.092.837 3.062 1.403a.23.23 0 00.11.029zm-51.622-.399a.202.202 0 00.101-.026 43.532 43.532 0 013.055-1.494c.108-.048.156-.175.108-.281-.048-.108-.173-.156-.281-.108a44.812 44.812 0 00-3.084 1.508.211.211 0 00-.087.29c.037.07.11.111.188.111zm35.087-.766a.207.207 0 00.067-.011 25.35 25.35 0 013.284-.842.213.213 0 10-.077-.42 25.96 25.96 0 00-3.338.857.214.214 0 00-.136.27c.028.089.11.146.2.146zm10.115-1.046a.213.213 0 00.211-.184.212.212 0 00-.182-.24 20.075 20.075 0 00-3.444-.18.212.212 0 00-.206.22.216.216 0 00.221.206 19.594 19.594 0 013.371.176c.011.002.02.002.029.002zm-38.957-.947a.183.183 0 00.07-.012 40.163 40.163 0 013.253-.986.215.215 0 00.155-.26.216.216 0 00-.261-.155 40.29 40.29 0 00-3.287.996.21.21 0 00-.13.272.21.21 0 00.2.145zm23.42-.11a.213.213 0 00.081-.412 27.615 27.615 0 00-3.27-1.08.213.213 0 00-.261.152.215.215 0 00.153.261 27.25 27.25 0 013.218 1.064c.026.01.054.015.079.015zm-16.808-1.584c.011 0 .023 0 .035-.004a36.123 36.123 0 013.372-.391.214.214 0 00.199-.228.212.212 0 00-.228-.199c-1.127.077-2.276.21-3.413.397a.214.214 0 00-.177.245c.019.106.111.18.212.18zm10.213-.162a.214.214 0 00.212-.184.212.212 0 00-.182-.24 32.27 32.27 0 00-3.426-.297.21.21 0 00-.221.206.214.214 0 00.206.22c1.14.038 2.277.137 3.38.293l.031.002z" fill="#2E2E46"/><path d="M253.094 158.268l-.285.122.061-.306.285-.122-.061.306z" fill="#4F2E16"/><path d="M265.664 144.496l-1.242-.978-4.034-3.157-4.421 1.752-.733.285-.082.04-.672.265-4.808 1.915 3.667 2.893.367.285.061.061.591.469.59.469 3.953 3.116 4.767-1.915.692-.285.082-.04.713-.286 4.441-1.772-3.932-3.117z" fill="#FFDDA8"/><path d="M258.942 151.912l-1.447 10.043-3.952-3.097-.02-.02-.693-.55-.244-.183-.306-.224-.367-.306-3.667-2.852 1.447-10.105 4.054 3.199.305.224.224.183.713.571 3.953 3.117z" fill="#BC7C46"/><path d="M265.196 149.406l-.387.163-.285.102-.061.02-.082.02-.692.265-4.767 1.915-1.447 10.044 4.767-1.895.815-.326.285-.122.387-.143 4.441-1.752 1.447-10.064-4.421 1.773z" fill="#DDA866"/><path d="M258.657 159.938l-.062.02.163-1.161.082-.04-.183 1.181z" fill="#4F2E16"/><path d="M259.064 158.919l-.061.062-.204-.184-.285.387-.041-.02.347-.469.244.224zm.326.734l-.061.02.163-1.181.081-.021-.183 1.182z" fill="#4F2E16"/><path d="M259.797 158.614l-.061.081-.203-.183-.286.387-.061-.041.367-.448.244.204zm-.122.957l-1.365.551c-.02 0-.041 0-.02-.021 0-.02.02-.041.04-.061l1.365-.55c.021 0 .041 0 .021.02 0 .021-.021.061-.041.061z" fill="#4F2E16"/><path d="M259.614 159.897l-1.345.53c-.142.061-.244-.02-.224-.163l.204-1.426c.02-.143.163-.326.305-.367l1.345-.529c.143-.062.244.02.224.163l-.204 1.426c-.02.142-.163.305-.305.366zm-1.06-1.365c-.101.041-.203.163-.203.265l-.204 1.426c-.02.102.061.163.163.123l1.344-.53c.102-.041.204-.163.204-.265l.204-1.426c.02-.102-.061-.163-.163-.122l-1.345.529zm3.423.428l-1.385.55c-.142.061-.244-.02-.224-.183l.204-1.467a.539.539 0 01.305-.387l1.386-.55c.142-.061.244.02.224.183l-.204 1.467a.538.538 0 01-.306.387zm-1.1-1.405a.407.407 0 00-.224.285l-.203 1.467c-.021.101.061.163.163.122l1.385-.55a.404.404 0 00.224-.285l.204-1.467c.02-.102-.061-.163-.163-.123l-1.386.551z" fill="#4F2E16"/><path d="M261.346 158.838c-.02 0-.041 0-.041-.02l.143-1.06c0-.02.02-.041.041-.061.02 0 .04 0 .04.02l-.142 1.06c0 .02-.021.041-.041.061z" fill="#4F2E16"/><path d="M261.529 158.756l-.346.143c-.021 0-.041 0-.041-.02 0-.021.02-.041.041-.061l.346-.143c.021 0 .041 0 .041.02 0 .041-.02.061-.041.061zm.367-1.303l-.061.489c-.021.122-.143.285-.265.325l-.285.102c-.123.061-.204-.02-.184-.142l.061-.489.143-.061-.082.529c0 .021.021.041.041.021.021 0 .041-.041.041-.061l.081-.53.51-.183z" fill="#4F2E16"/><path d="M260.367 140.503l-10.41 4.156 9.005 7.049 10.389-4.115-8.984-7.09z" fill="#F9C98A"/><path d="M269.617 147.735v.082l-10.696 4.278.021-.082 10.675-4.278zm-5.114 1.956l-.081.02-9.249-7.273.081-.02 9.249 7.273z" fill="#BC7C46"/><path d="M264.483 149.691l-.02.164h-.082l.021-.123.081-.041z" fill="#BC7C46"/><path d="M265.196 149.406l-1.447 10.064-1.487.59 1.467-10.063 1.467-.591z" fill="#9B7451"/><path d="M265.195 149.406l-.692.285-.082.02-.692.285-9.229-7.293.672-.265.082-.04.733-.286 9.208 7.294z" fill="#CAAF8F"/><path d="M254.989 148.795l-1.447 10.063-.02-.02-1.243-.957 1.467-10.085 1.243.999z" fill="#9B7451"/><path d="M265.664 144.496l-10.675 4.299-.591-.469-.061-.061-.53-.408-.061-.04 8.964-3.606.672-.285 1.019-.408.489.387.326.245.448.346z" fill="#CAAF8F"/><path d="M268.536 151.463l-3.096 1.243.366-2.445 3.077-1.242-.347 2.444z" fill="#E5E0DC"/><path d="M268.516 149.711l-2.506.998.041-.264 2.506-.999-.041.265z" fill="#4F2E16"/><path d="M268.434 150.2l-2.485 1.019.02-.122 2.486-.999-.021.102zm-.041.326l-2.506.998.021-.122 2.506-.998-.021.122zm-.04.347l-2.506.998.021-.122 2.505-.999-.02.123zm-.061.325l-2.486.999.021-.123 2.485-.998-.02.122z" fill="#B2AEAB"/><path d="M249.077 38.14l-.133.28-.156-.27.133-.28.156.27z" fill="#4F2E16"/><path d="M249.398 19.498l-1.579.088-5.114.3-2.157 4.237-.362.699-.034.084-.329.644-2.34 4.616 4.664-.256.463-.028.087.005.753-.04.753-.038 5.026-.276 2.309-4.59.331-.671.034-.085.346-.685 2.159-4.267-5.01.263z" fill="#FFDDA8"/><path d="M249.259 29.506l5.558 8.49-5.013.291-.029-.002-.883.046-.305.024-.377.034-.477.013-4.637.286-5.597-8.536 5.156-.282.377-.034.289-.01.912-.044 5.026-.276z" fill="#BC7C46"/><path d="M252.294 23.49l-.183.379-.146.265-.033.055-.048.07-.344.656-2.309 4.59 5.557 8.49 2.323-4.575.395-.783.134-.28.196-.363 2.172-4.252-5.571-8.505-2.143 4.253z" fill="#DDA866"/><path d="M254.353 35.715l-.032.056-.646-.979.034-.084.644 1.007z" fill="#4F2E16"/><path d="M253.986 34.682l-.006.086-.274-.003.042.48-.044.01-.05-.58.332.007zm.728.334l-.032.056-.659-.994.047-.07.644 1.008z" fill="#4F2E16"/><path d="M254.333 33.968l.008.101-.274-.003.042.48-.073.01-.021-.58.318-.008zm.542.799l-.66 1.315c-.015.013-.03.027-.029-.002-.013-.015-.011-.044-.009-.073l.66-1.315c.015-.013.03-.027.028.002.014.015.025.06.01.073z" fill="#4F2E16"/><path d="M255.045 35.051l-.659 1.287c-.066.14-.196.146-.275.026l-.791-1.204c-.079-.12-.093-.353-.013-.478l.658-1.286c.067-.14.197-.147.276-.026l.79 1.204c.079.12.08.337.014.477zm-1.698-.323c-.049.098-.045.257.023.334l.79 1.204c.052.09.154.082.203-.016l.658-1.287c.05-.098.045-.257-.022-.333l-.79-1.204c-.052-.09-.154-.082-.203.016l-.659 1.286zm2.85-1.942l-.676 1.328c-.066.14-.196.147-.289.011l-.817-1.235a.54.54 0 01-.027-.492l.675-1.33c.067-.14.197-.146.29-.01l.817 1.235a.54.54 0 01.027.493zm-1.755-.327a.405.405 0 00.021.362l.817 1.235c.052.09.153.082.203-.016l.675-1.329a.405.405 0 00-.02-.362l-.818-1.235c-.052-.09-.153-.082-.203.016l-.675 1.329z" fill="#4F2E16"/><path d="M255.643 33.111c-.015.014-.03.028-.044.012l-.593-.889c-.014-.015-.012-.044-.01-.073.015-.013.03-.026.044-.011l.593.889c.014.015.012.044.01.072z" fill="#4F2E16"/><path d="M255.726 32.93l-.165.335c-.016.014-.031.027-.044.012-.014-.016-.012-.044-.01-.073l.165-.336c.015-.014.031-.027.044-.012.027.03.025.06.01.073zm-.587-1.221l.278.407c.065.105.081.308.016.42l-.146.264c-.051.127-.166.12-.232.015l-.277-.407.066-.14.289.45c.014.016.043.018.044-.011.016-.014.004-.057-.01-.073l-.289-.451.261-.474z" fill="#4F2E16"/><path d="M242.784 20.006l-5.06 10.002 11.416-.668 5.072-9.958-11.428.624z" fill="#F9C98A"/><path d="M254.504 19.314l.054.06-5.193 10.283-.039-.075 5.178-10.268zm-2.542 4.848l-.048.07-11.747.66.048-.068 11.747-.662z" fill="#BC7C46"/><path d="M251.947 24.175l.093.137-.062.054-.065-.106.034-.085z" fill="#BC7C46"/><path d="M252.293 23.49l5.571 8.506-.725 1.426-5.555-8.518.709-1.414z" fill="#9B7451"/><path d="M252.293 23.49l-.331.672-.047.07-.331.671-11.746.633.329-.643.035-.085.361-.699 11.73-.619z" fill="#CAAF8F"/><path d="M244.233 29.782l5.571 8.505-.029-.002-1.565.104-5.569-8.534 1.592-.073z" fill="#9B7451"/><path d="M249.398 19.498l-5.164 10.284-.753.039-.087-.005-.666.044-.073.01 4.339-8.633.315-.658.495-.98.623-.032.406-.033.565-.036z" fill="#CAAF8F"/><path d="M256.16 22.824l-1.501 2.98-1.342-2.076 1.486-2.967 1.357 2.063z" fill="#E5E0DC"/><path d="M254.986 21.523l-1.219 2.406-.145-.225 1.219-2.406.145.225z" fill="#4F2E16"/><path d="M255.248 21.944l-1.191 2.408-.065-.105 1.204-2.393.052.09zm.186.271l-1.22 2.406-.065-.105 1.219-2.406.066.105zm.198.287l-1.22 2.406-.065-.105 1.219-2.406.066.105zm.17.285l-1.204 2.393-.066-.106 1.204-2.392.066.105z" fill="#B2AEAB"/><path d="M64.405 159.105l-.133.28-.156-.27.133-.28.156.27z" fill="#4F2E16"/><path d="M64.725 140.462l-1.578.088-5.114.3-2.157 4.237-.362.699-.034.085-.33.643-2.339 4.616 4.664-.255.463-.029.087.006.753-.04.753-.039 5.026-.276 2.309-4.589.33-.672.035-.084.346-.686 2.16-4.266-5.011.262z" fill="#FFDDA8"/><path d="M64.587 150.47l5.558 8.49-5.013.291-.029-.001-.883.045-.304.024-.378.034-.477.014-4.637.285-5.597-8.535 5.156-.282.377-.034.29-.011.912-.044 5.025-.276z" fill="#BC7C46"/><path d="M67.621 144.455l-.182.378-.147.265-.032.056-.048.069-.344.656-2.31 4.59 5.557 8.49 2.323-4.574.396-.784.133-.28.196-.363 2.172-4.251-5.57-8.505-2.144 4.253z" fill="#DDA866"/><path d="M69.682 156.68l-.032.055-.646-.978.034-.085.644 1.008z" fill="#4F2E16"/><path d="M69.314 155.646l-.006.086-.274-.002.042.479-.044.011-.05-.58.332.006zm.728.335l-.032.055-.66-.994.049-.069.643 1.008z" fill="#4F2E16"/><path d="M69.661 154.932l.008.101-.274-.002.042.479-.073.009-.021-.578.318-.009zm.542.799l-.66 1.315c-.015.014-.03.027-.029-.002-.013-.015-.011-.044-.01-.072l.66-1.316c.016-.013.031-.027.03.002.013.016.024.06.01.073z" fill="#4F2E16"/><path d="M70.373 156.016l-.659 1.286c-.066.141-.196.147-.275.026l-.79-1.204c-.08-.12-.094-.352-.014-.477l.658-1.287c.067-.14.197-.146.276-.026l.79 1.205c.08.12.08.337.014.477zm-1.698-.323c-.049.098-.045.257.023.333l.79 1.204c.052.09.154.082.203-.016l.658-1.286c.05-.098.045-.257-.022-.334l-.79-1.204c-.052-.09-.154-.082-.203.016l-.659 1.287zm2.85-1.943l-.676 1.329c-.066.14-.197.146-.289.01l-.817-1.235a.538.538 0 01-.027-.492l.675-1.329c.067-.14.197-.146.29-.01l.817 1.235a.539.539 0 01.027.492zm-1.755-.327a.404.404 0 00.02.362l.818 1.235c.052.09.153.082.203-.016l.675-1.329a.404.404 0 00-.02-.362l-.818-1.235c-.052-.09-.153-.082-.203.016l-.675 1.329z" fill="#4F2E16"/><path d="M70.971 154.076c-.015.013-.03.027-.044.012l-.594-.889c-.013-.016-.011-.044-.01-.073.016-.014.031-.027.045-.012l.593.889c.014.015.012.044.01.073z" fill="#4F2E16"/><path d="M71.055 153.894l-.166.336c-.015.013-.03.026-.044.011-.013-.015-.011-.044-.01-.073l.166-.336c.015-.013.03-.027.044-.011.027.03.025.059.01.073zm-.588-1.221l.278.407c.065.105.081.308.017.42l-.147.265c-.051.127-.166.119-.232.014l-.277-.407.066-.14.29.451c.013.015.042.017.043-.012.016-.013.004-.057-.01-.072l-.289-.452.261-.474z" fill="#4F2E16"/><path d="M58.112 140.97l-5.06 10.002 11.416-.668 5.072-9.958-11.428.624z" fill="#F9C98A"/><path d="M69.832 140.278l.054.061-5.193 10.282-.038-.074 5.177-10.269zm-2.542 4.849l-.047.069-11.748.661.048-.069 11.747-.661z" fill="#BC7C46"/><path d="M67.275 145.14l.093.136-.061.054-.066-.105.034-.085z" fill="#BC7C46"/><path d="M67.621 144.455l5.571 8.505-.725 1.427-5.555-8.519.71-1.413z" fill="#9B7451"/><path d="M67.622 144.455l-.331.672-.048.069-.33.672-11.746.632.329-.643.034-.084.361-.699 11.73-.619z" fill="#CAAF8F"/><path d="M59.562 150.746l5.57 8.505-.028-.001-1.566.103-5.569-8.534 1.593-.073z" fill="#9B7451"/><path d="M64.726 140.462l-5.164 10.284-.753.039-.087-.005-.666.045-.073.009 4.339-8.632.315-.659.495-.979.623-.033.406-.032.565-.037z" fill="#CAAF8F"/><path d="M71.487 143.788l-1.5 2.98-1.342-2.076 1.486-2.966 1.356 2.062z" fill="#E5E0DC"/><path d="M70.314 142.488l-1.22 2.406-.144-.226 1.22-2.406.144.226z" fill="#4F2E16"/><path d="M70.576 142.908l-1.19 2.408-.066-.105 1.204-2.393.052.09zm.184.272l-1.219 2.406-.065-.106 1.22-2.405.065.105zm.2.286l-1.22 2.406-.065-.105 1.22-2.406.065.105zm.17.285l-1.205 2.393-.066-.105 1.205-2.393.065.105z" fill="#B2AEAB"/><path d="M40.301 78.882l-.31-.007.182-.253.31.007-.182.253z" fill="#4F2E16"/><path d="M57.44 71.538l-.728-1.404-2.368-4.543-4.75-.232-.785-.043-.091.003-.722-.037-5.169-.243 2.143 4.15.216.41.03.082.345.67.344.671 2.31 4.472 5.133.227.748.027.092-.004.767.035 4.776.222-2.292-4.463z" fill="#FFDDA8"/><path d="M48.252 75.511l-5.468 8.548-2.319-4.454-.01-.027-.403-.787-.147-.268-.186-.33-.207-.43-2.16-4.113 5.493-8.603 2.37 4.588.185.33.129.26.413.814 2.31 4.472z" fill="#BC7C46"/><path d="M54.983 75.815l-.42-.012-.301-.025-.064-.007-.083-.015-.74-.045-5.132-.227-5.469 8.548 5.124.245.877.04.31.007.411.03 4.768.24 5.477-8.566-4.758-.213z" fill="#DDA866"/><path d="M44.675 82.702l-.064-.007.628-.99.091-.003-.655 1z" fill="#4F2E16"/><path d="M45.467 81.943l-.081.03-.11-.25-.42.234-.028-.036.509-.283.13.305zm-.007.802l-.063-.006.636-1.009.083.015-.655 1z" fill="#4F2E16"/><path d="M46.26 81.968l-.089.049-.11-.251-.42.234-.038-.062.52-.257.138.287zm-.506.822l-1.47-.064c-.02-.008-.038-.017-.01-.027.008-.019.035-.029.062-.039l1.47.064c.019.008.037.016.01.026-.008.019-.044.048-.062.04z" fill="#4F2E16"/><path d="M45.563 83.06l-1.443-.073c-.155-.003-.214-.12-.137-.24l.775-1.215c.078-.121.283-.23.43-.208l1.443.074c.155.003.215.12.137.24l-.775 1.215c-.077.122-.275.211-.43.208zm-.4-1.68c-.11-.005-.253.064-.295.157l-.775 1.214c-.06.084-.012.174.098.179l1.443.073c.11.005.253-.064.295-.157l.775-1.214c.06-.084.012-.174-.098-.179l-1.443-.073zm2.94 1.804l-1.489-.072c-.155-.003-.214-.12-.128-.26l.792-1.25a.54.54 0 01.438-.227l1.489.072c.155.003.214.12.128.26l-.792 1.251a.54.54 0 01-.438.226zm-.42-1.734a.405.405 0 00-.323.167l-.791 1.251c-.061.084-.012.174.097.179l1.49.072a.404.404 0 00.321-.168l.792-1.251c.06-.084.012-.174-.098-.179l-1.489-.072z" fill="#4F2E16"/><path d="M47.578 82.812c-.018-.008-.037-.017-.028-.035l.568-.906c.008-.019.035-.029.062-.039.018.008.037.017.029.035l-.568.906c-.009.019-.036.029-.063.039z" fill="#4F2E16"/><path d="M47.78 82.813l-.375-.013c-.018-.008-.037-.017-.029-.035.009-.019.036-.029.063-.04l.374.014c.019.009.037.017.029.036-.017.037-.044.047-.063.038zm.872-1.035l-.258.42c-.069.103-.248.2-.376.187l-.302-.025c-.136.005-.177-.103-.108-.206l.258-.42.155.004-.293.448c-.008.019.002.046.029.036.018.008.054-.02.062-.04l.293-.448.54.044z" fill="#4F2E16"/><path d="M54.267 65.713l-11.197-.52 5.286 10.141 11.161.548-5.25-10.17z" fill="#F9C98A"/><path d="M59.7 76.121l-.035.074-11.507-.525.052-.066 11.49.517zm-5.465-.333l-.083-.015-5.415-10.446.082.016 5.416 10.445z" fill="#BC7C46"/><path d="M54.216 75.78l-.086.14-.074-.034.069-.103.091-.003z" fill="#BC7C46"/><path d="M54.983 75.815l-5.477 8.566-1.598-.077 5.495-8.558 1.58.069z" fill="#9B7451"/><path d="M54.983 75.815l-.748-.027-.083-.015-.748-.027-5.389-10.455.722.036.09-.003.786.043 5.37 10.448z" fill="#CAAF8F"/><path d="M45.942 71.04l-5.477 8.565-.01-.027-.736-1.385 5.504-8.576.72 1.422z" fill="#9B7451"/><path d="M57.44 71.538l-11.498-.499-.344-.67-.03-.082-.314-.59-.04-.062 9.654.422.73.018 1.096.05.285.555.195.357.265.5z" fill="#CAAF8F"/><path d="M57.176 79.07l-3.334-.15 1.345-2.073 3.315.14-1.326 2.082z" fill="#E5E0DC"/><path d="M57.88 77.465l-2.693-.126.146-.225 2.695.127-.147.224z" fill="#4F2E16"/><path d="M57.605 77.877l-2.684-.1.069-.103 2.676.119-.06.084zm-.172.28l-2.694-.127.07-.103 2.693.127-.069.103zm-.181.299l-2.694-.127.07-.103 2.694.127-.07.103zm-.19.271l-2.675-.118.069-.103 2.675.118-.069.103z" fill="#B2AEAB"/></svg>