<svg width="140" height="22" fill="none" xmlns="http://www.w3.org/2000/svg"><path d="M9.57 16.516c-.352.22-.785.389-1.298.506a7.001 7.001 0 01-1.606.176c-1.555 0-2.75-.381-3.586-1.144-.836-.763-1.254-1.9-1.254-3.41V8.64H.088V5.516h1.738V2.414h4.18v3.102h2.728V8.64H6.006v3.96c0 .425.11.763.33 1.012.235.235.543.352.924.352.484 0 .91-.125 1.276-.374l1.034 2.926zm5.594-10.01a3.82 3.82 0 011.65-1.21c.69-.279 1.474-.418 2.354-.418V8.64a8.544 8.544 0 00-.946-.066c-.895 0-1.599.242-2.112.726-.499.484-.748 1.225-.748 2.222V17h-4.18V5.076h3.982v1.43zm10.725-1.628c1.98 0 3.49.455 4.532 1.364 1.041.895 1.562 2.273 1.562 4.136V17h-3.894v-1.54c-.601 1.159-1.775 1.738-3.52 1.738-.924 0-1.723-.161-2.398-.484-.675-.323-1.188-.755-1.54-1.298-.337-.557-.506-1.188-.506-1.892 0-1.13.433-2.002 1.298-2.618.865-.63 2.2-.946 4.004-.946h2.376c-.073-1.261-.917-1.892-2.53-1.892a5.6 5.6 0 00-1.738.286c-.587.176-1.085.425-1.496.748L20.63 6.264c.66-.44 1.46-.777 2.398-1.012.953-.25 1.907-.374 2.86-.374zm-.154 9.68c.484 0 .91-.117 1.276-.352.367-.235.63-.58.792-1.034v-1.034h-1.804c-1.217 0-1.826.403-1.826 1.21 0 .367.14.66.418.88.278.22.66.33 1.144.33zm15.152 2.64c-1.32 0-2.5-.264-3.542-.792-1.041-.528-1.855-1.261-2.442-2.2-.572-.939-.858-2.002-.858-3.19 0-1.188.286-2.244.858-3.168.587-.939 1.4-1.665 2.442-2.178 1.041-.528 2.222-.792 3.542-.792 1.35 0 2.516.293 3.498.88.983.572 1.68 1.371 2.09 2.398l-3.234 1.65C42.7 8.736 41.907 8.2 40.865 8.2c-.748 0-1.371.25-1.87.748-.484.499-.726 1.188-.726 2.068 0 .895.242 1.599.726 2.112.499.499 1.122.748 1.87.748 1.041 0 1.834-.535 2.376-1.606l3.234 1.65c-.41 1.027-1.107 1.833-2.09 2.42-.982.572-2.148.858-3.498.858zm12.531-4.378l-1.232 1.254V17h-4.18V.676h4.18v8.558l4.268-4.158h4.95l-4.95 5.104L61.822 17h-5.06l-3.344-4.18zm11.645 4.378c-.704 0-1.298-.235-1.782-.704-.484-.47-.726-1.063-.726-1.782 0-.733.235-1.327.704-1.782.484-.455 1.085-.682 1.804-.682.733 0 1.335.227 1.804.682.47.455.704 1.049.704 1.782 0 .719-.242 1.313-.726 1.782-.47.47-1.063.704-1.782.704z" fill="#E24949"/><path d="M82.36 5.076v9.746c0 2.215-.602 3.872-1.805 4.972-1.202 1.115-2.933 1.672-5.192 1.672-1.173 0-2.273-.132-3.3-.396-1.026-.264-1.899-.653-2.618-1.166l1.518-2.926c.484.396 1.093.704 1.826.924a7.324 7.324 0 002.2.352c1.1 0 1.907-.242 2.42-.726.514-.484.77-1.203.77-2.156v-.396c-.806.939-1.987 1.408-3.542 1.408a6.203 6.203 0 01-2.926-.704 5.55 5.55 0 01-2.134-2.024c-.528-.88-.792-1.892-.792-3.036 0-1.13.264-2.127.792-2.992a5.343 5.343 0 012.134-2.024 6.051 6.051 0 012.926-.726c1.702 0 2.948.55 3.74 1.65V5.076h3.982zm-6.733 7.986c.748 0 1.364-.227 1.848-.682.5-.455.748-1.041.748-1.76 0-.719-.242-1.298-.726-1.738-.484-.455-1.107-.682-1.87-.682-.762 0-1.393.227-1.892.682-.484.44-.726 1.02-.726 1.738 0 .719.25 1.305.748 1.76.5.455 1.122.682 1.87.682zM85.045.676h4.18V17h-4.18V.676zm12.88 16.522c-1.275 0-2.427-.264-3.453-.792-1.027-.528-1.834-1.261-2.42-2.2-.572-.939-.858-2.002-.858-3.19 0-1.173.286-2.23.858-3.168A5.935 5.935 0 0194.45 5.67c1.026-.528 2.185-.792 3.476-.792 1.29 0 2.449.264 3.476.792 1.026.513 1.826 1.24 2.398 2.178.572.924.858 1.98.858 3.168 0 1.188-.286 2.251-.858 3.19-.572.939-1.372 1.672-2.398 2.2-1.027.528-2.186.792-3.476.792zm0-3.322c.734 0 1.335-.25 1.805-.748.469-.513.704-1.217.704-2.112 0-.88-.235-1.57-.704-2.068-.47-.499-1.071-.748-1.804-.748-.734 0-1.335.25-1.804.748-.47.499-.704 1.188-.704 2.068 0 .895.234 1.599.704 2.112.469.499 1.07.748 1.804.748zm16.171-8.998c1.085 0 2.068.25 2.948.748.895.499 1.599 1.217 2.112 2.156.528.924.792 2.002.792 3.234 0 1.232-.264 2.317-.792 3.256a5.485 5.485 0 01-2.112 2.178c-.88.499-1.863.748-2.948.748-1.569 0-2.743-.462-3.52-1.386V17h-3.982V.676h4.18V6.11c.807-.821 1.914-1.232 3.322-1.232zm-.88 8.998c.733 0 1.335-.25 1.804-.748.469-.513.704-1.217.704-2.112 0-.88-.235-1.57-.704-2.068-.469-.499-1.071-.748-1.804-.748-.733 0-1.335.25-1.804.748-.469.499-.704 1.188-.704 2.068 0 .895.235 1.599.704 2.112.469.499 1.071.748 1.804.748zm13.499-8.998c1.98 0 3.491.455 4.532 1.364 1.041.895 1.562 2.273 1.562 4.136V17h-3.894v-1.54c-.601 1.159-1.775 1.738-3.52 1.738-.924 0-1.723-.161-2.398-.484-.675-.323-1.188-.755-1.54-1.298-.337-.557-.506-1.188-.506-1.892 0-1.13.433-2.002 1.298-2.618.865-.63 2.2-.946 4.004-.946h2.376c-.073-1.261-.917-1.892-2.53-1.892-.572 0-1.151.095-1.738.286-.587.176-1.085.425-1.496.748l-1.408-2.838c.66-.44 1.459-.777 2.398-1.012.953-.25 1.907-.374 2.86-.374zm-.154 9.68c.484 0 .909-.117 1.276-.352s.631-.58.792-1.034v-1.034h-1.804c-1.217 0-1.826.403-1.826 1.21 0 .367.139.66.418.88.279.22.66.33 1.144.33zM135.447.676h4.18V17h-4.18V.676z" fill="#000"/></svg>