<svg width="50" height="63" fill="none" xmlns="http://www.w3.org/2000/svg"><path d="M21.336 0c11.718.046 21.215 9.623 21.17 21.347v.232c-.159 8.378-5.187 15.33-9.376 19.687a51.483 51.483 0 01-3.77 3.556c-.783.67-1.96.578-2.63-.207a1.87 1.87 0 01.209-2.633 48.22 48.22 0 003.5-3.304c3.728-3.875 8.198-10.001 8.334-17.167.037-9.843-7.79-17.74-17.452-17.779h-.068c-9.63 0-17.483 7.82-17.52 17.46a22.868 22.868 0 004.65 13.088c3.359 4.481 8.454 9.226 13.298 12.385a1.864 1.864 0 01.544 2.583 1.861 1.861 0 01-2.582.545C14.457 46.413 9 41.329 5.401 36.53A26.597 26.597 0 010 21.323C.046 9.483 9.572 0 21.253 0h.083z" fill="#000"/><path d="M25.048 38.71h9.108v9.109h-9.108V38.71z" fill="#fff"/><path fill-rule="evenodd" clip-rule="evenodd" d="M10.299 41.117c-1.003-.542-1.003-1.423 0-1.966l8.477-4.588c1.003-.543 2.63-.543 3.633 0l8.478 4.588c1.003.543 1.003 1.423 0 1.966l-8.478 4.588c-1.003.543-2.63.543-3.633 0L10.3 41.117zm12.535 17.905c-.956.467-1.731.006-1.732-1.03l-.007-8.753c0-1.036.774-2.255 1.73-2.723l8.075-3.95c.955-.468 1.73-.007 1.731 1.029l.007 8.753c.001 1.036-.773 2.255-1.729 2.723l-8.075 3.95zm-2.948-1.03c-.001 1.036-.777 1.497-1.732 1.03l-8.076-3.951c-.955-.468-1.73-1.687-1.729-2.723l.007-8.753c.001-1.036.776-1.497 1.732-1.03l8.075 3.951c.956.468 1.73 1.687 1.73 2.723l-.007 8.753z" fill="#E24949"/><path fill-rule="evenodd" clip-rule="evenodd" d="M5.751 40.134c0-2.315 1.61-3.708 2.742-4.32l8.477-4.588c1.194-.646 2.512-.865 3.623-.865 1.11 0 2.429.219 3.623.865l-1.807 3.337c-1.003-.543-2.63-.543-3.633 0L10.3 39.151c-1.003.543-1.003 1.423 0 1.966l8.477 4.588c1.003.543 2.63.543 3.633 0l8.478-4.588c1.003-.543 1.003-1.423 0-1.966l-8.478-4.588 1.807-3.337 8.477 4.587c1.132.613 2.741 2.006 2.741 4.321 0 .114-.004.226-.011.336.733.978 1.003 2.142 1.003 3.122l.007 8.753c.002 1.406-.497 2.668-1.097 3.612-.603.95-1.523 1.918-2.759 2.523l-8.075 3.95c-1.043.51-2.524.828-4.008.293-1.485.535-2.966.217-4.008-.292L8.41 58.48c-1.236-.605-2.156-1.573-2.76-2.523-.6-.944-1.098-2.206-1.097-3.612l.007-8.753c0-1.059.316-2.334 1.191-3.356v-.102zm12.403 18.887c.955.468 1.73.008 1.732-1.028l.006-8.754c.001-.987-.701-2.14-1.593-2.651a2.337 2.337 0 00-.136-.072l-8.075-3.95a1.817 1.817 0 00-.485-.163c-.72-.125-1.246.338-1.247 1.192l-.007 8.753c0 1.036.774 2.255 1.73 2.723l8.075 3.95zm2.948-1.029v.001c.001 1.035.776 1.496 1.732 1.028l8.075-3.95c.956-.468 1.73-1.687 1.73-2.723l-.008-8.753c0-.778-.437-1.231-1.06-1.212a1.664 1.664 0 00-.672.182l-8.075 3.951c-.956.468-1.73 1.687-1.729 2.723l.007 8.753z" fill="#fff"/><path d="M24.365 27.808a1.897 1.897 0 112.672-2.695l16.17 16.032a1.898 1.898 0 01-2.672 2.695l-16.17-16.032z" fill="#000"/><path fill-rule="evenodd" clip-rule="evenodd" d="M29.71 22.418L45.88 38.45a5.693 5.693 0 11-8.017 8.085l-16.17-16.032a5.693 5.693 0 018.016-8.085zm-2.673 2.695l16.17 16.032a1.897 1.897 0 11-2.672 2.695l-16.17-16.032a1.898 1.898 0 112.672-2.695z" fill="#fff"/><path fill-rule="evenodd" clip-rule="evenodd" d="M20.873 25.807a5.693 5.693 0 100-11.386 5.693 5.693 0 000 11.386zm0 3.795a9.488 9.488 0 100-18.976 9.488 9.488 0 000 18.976z" fill="#000"/></svg>