<svg width="16" height="16" fill="none" xmlns="http://www.w3.org/2000/svg"><rect width="16" height="16" rx="8" fill="#E24949"/><path d="M4.759 7.904a.433.433 0 00-.629 0 .474.474 0 000 .653l2.222 2.308c.174.18.455.18.629 0l4.889-5.077a.474.474 0 000-.653.433.433 0 00-.629 0l-4.574 4.75-1.908-1.98z" fill="#fff"/><mask id="mask0_346_21804" style="mask-type:alpha" maskUnits="userSpaceOnUse" x="4" y="5" width="8" height="6"><path d="M4.759 7.904a.433.433 0 00-.629 0 .474.474 0 000 .653l2.222 2.308c.174.18.455.18.629 0l4.889-5.077a.474.474 0 000-.653.433.433 0 00-.629 0l-4.574 4.75-1.908-1.98z" fill="#fff"/></mask></svg>