<svg width="28" height="28" fill="none" xmlns="http://www.w3.org/2000/svg"><path d="M21.383 5.02c-.907 0-1.633.734-1.633 1.634a1.63 1.63 0 001.633 1.633c.906 0 1.633-.733 1.633-1.633 0-.907-.734-1.633-1.633-1.633z" fill="url(#paint0_linear_66_2307)"/><path d="M14.102 7.118c-3.792 0-6.872 3.086-6.872 6.872 0 3.792 3.087 6.872 6.872 6.872 3.793 0 6.872-3.087 6.872-6.872.007-3.793-3.08-6.872-6.872-6.872zm0 11.273a4.404 4.404 0 01-4.4-4.401 4.404 4.404 0 014.4-4.402 4.404 4.404 0 014.402 4.402 4.404 4.404 0 01-4.402 4.401z" fill="url(#paint1_linear_66_2307)"/><path d="M19.563 27.948H8.42c-4.623 0-8.388-3.758-8.388-8.38V8.425C.033 3.803 3.791.038 8.421.038h11.142c4.623 0 8.387 3.758 8.387 8.388v11.141c0 4.616-3.764 8.381-8.387 8.381zM8.42 2.661a5.762 5.762 0 00-5.758 5.758V19.56a5.762 5.762 0 005.758 5.757h11.142a5.762 5.762 0 005.758-5.757V8.419a5.762 5.762 0 00-5.758-5.758H8.42z" fill="url(#paint2_linear_66_2307)"/><defs><linearGradient id="paint0_linear_66_2307" x1="7.596" y1="-7.13" x2="33.842" y2="19.115" gradientUnits="userSpaceOnUse"><stop offset=".001" stop-color="#FFE185"/><stop offset=".209" stop-color="#FFBB36"/><stop offset=".377" stop-color="#FF5176"/><stop offset=".524" stop-color="#F63395"/><stop offset=".739" stop-color="#A436D2"/><stop offset="1" stop-color="#5F4EED"/></linearGradient><linearGradient id="paint1_linear_66_2307" x1=".291" y1=".176" x2="26.536" y2="26.421" gradientUnits="userSpaceOnUse"><stop offset=".001" stop-color="#FFE185"/><stop offset=".209" stop-color="#FFBB36"/><stop offset=".377" stop-color="#FF5176"/><stop offset=".524" stop-color="#F63395"/><stop offset=".739" stop-color="#A436D2"/><stop offset="1" stop-color="#5F4EED"/></linearGradient><linearGradient id="paint2_linear_66_2307" x1=".233" y1=".233" x2="26.479" y2="26.479" gradientUnits="userSpaceOnUse"><stop offset=".001" stop-color="#FFE185"/><stop offset=".209" stop-color="#FFBB36"/><stop offset=".377" stop-color="#FF5176"/><stop offset=".524" stop-color="#F63395"/><stop offset=".739" stop-color="#A436D2"/><stop offset="1" stop-color="#5F4EED"/></linearGradient></defs></svg>