<svg width="21" height="23" fill="none" xmlns="http://www.w3.org/2000/svg"><path d="M11.016 5.154a2.577 2.577 0 100-5.154 2.577 2.577 0 000 5.154zm0 16.876a1.546 1.546 0 100-3.091 1.546 1.546 0 000 3.092zM4.684 7.518a2.32 2.32 0 100-4.639 2.32 2.32 0 000 4.64zM17.348 19.15a1.289 1.289 0 100-2.577 1.289 1.289 0 000 2.577zM2.061 13.592a2.061 2.061 0 100-4.122 2.061 2.061 0 000 4.122zM19.97 12.56a1.03 1.03 0 100-2.06 1.03 1.03 0 000 2.06zM3.409 16.588a1.802 1.802 0 102.55 0 1.795 1.795 0 00-2.55 0zM17.347 5.971a.773.773 0 100-1.545.773.773 0 000 1.545z" fill="#fff"/></svg>