<svg width="40" height="40" fill="none" xmlns="http://www.w3.org/2000/svg"><rect width="40" height="40" rx="3" fill="#0055A5"/><path d="M7.5 21.548v6.38h1.052v-1.853c.206.179.432.286.675.286.347 0 .633-.183.857-.549.252-.407.377-1.008.377-1.795 0-.549-.1-1.043-.297-1.463l-.034-.069-.035-.057-.023-.057-.034-.046-.034-.057-.046-.057-.034-.046-.035-.046-.046-.045-.034-.046-.046-.046-.045-.034-.046-.046-.046-.034-.046-.035-.045-.034-.057-.023-.046-.034-.046-.023-.057-.023-.057-.023-.057-.023-.057-.022-.057-.012-.057-.011-.057-.011-.069-.023h-.057l-.068-.011h-.057l-.07-.012H7.5zm.995.903h.103c.265 0 .47.153.617.446.146.293.217.745.217 1.372 0 .338-.041.606-.137.789-.091.183-.21.274-.343.274-.128 0-.233-.087-.32-.252-.087-.16-.137-.39-.137-.697v-1.932zm23.753-1.214l-.086.087s-2.2 2.296-2.365 2.47v-2.25H28.77v6.393h1.028v-2.625c.028-.032 1.35-1.432 1.5-1.591.01.233.151 4.216.151 4.216H32.5l-.252-6.7zm-5.018.087l-.004.01-.009.004-.01.014-.013.013-.018.019-.019.018-.023.023-.022.023-.028.027-.027.033-.032.032-.032.031-.032.037-.037.037-.041.04-.082.088-.087.091-.091.096-.096.1-.101.106-.105.105-.105.11-.106.114-.215.224-.104.11-.106.105-.1.105-.096.106-.096.096-.087.091-.082.087-.041.041-.037.041-.036.037-.033.037-.032.032-.027.032-.027.027-.028.028-.023.023-.018.018-.018.018-.014.019-.014.009-.009.014v-2.25h-1.034v6.393h1.034v-2.625c.027-.032 1.349-1.431 1.5-1.591l.15 4.216h1.048l-.252-6.7-.082.086zm-5.981 5.026l-.064-.077-.055-.078-.055-.087-.046-.087-.045-.09-.042-.092-.041-.096-.032-.096-.027-.105-.028-.101-.023-.11-.018-.11-.014-.114-.01-.115-.004-.119-.005-.119c0-.672.165-1.207.485-1.6.352-.43.865-.645 1.532-.645h.05v-1.116h-.05c-1.042 0-1.843.32-2.387.965-.494.581-.745 1.39-.745 2.406 0 .978.274 1.788.81 2.396.566.64 1.348.97 2.336.97h.05v-1.12h-.05c-.648-.001-1.16-.22-1.522-.66zm-8.272-4.962c-.553 0-.995.313-1.315.926-.311.603-.469 1.406-.469 2.39 0 1.015.149 1.836.446 2.435.302.612.752.926 1.338.926.6 0 1.072-.332 1.406-.972.311-.6.469-1.409.469-2.401 0-.98-.16-1.78-.48-2.379l-.035-.057-.034-.057-.023-.057-.046-.046-.023-.045-.046-.046-.034-.046-.035-.046-.034-.045-.046-.046-.034-.034-.046-.035-.034-.034-.046-.035-.034-.034-.046-.034-.046-.023-.046-.023-.045-.023-.046-.023-.046-.023-.046-.023-.045-.01-.057-.024-.046-.011-.057-.012-.046-.011h-.046l-.057-.011-.057-.012h-.113zm0 1.029c.293 0 .508.208.64.628.128.38.183.933.183 1.647 0 .69-.064 1.264-.206 1.703l-.023.046-.011.035-.011.034-.012.034-.011.035-.023.034-.011.035-.023.023-.011.034-.024.023-.01.034-.012.023-.023.023-.023.023-.011.023-.023.01-.011.024-.023.022-.023.012-.023.022-.023.012-.023.011-.011.011-.024.012h-.023l-.023.011-.022.011h-.023l-.024.012h-.08c-.251 0-.441-.215-.583-.64-.147-.444-.218-1.014-.218-1.681 0-.682.071-1.244.218-1.67.133-.406.328-.616.584-.616zm4.307 3.933l-.027-.036-.033-.041-.06-.078-.05-.087-.05-.087-.046-.09-.04-.092-.037-.096-.037-.096-.027-.105-.028-.101-.018-.11-.018-.11-.014-.114-.009-.115-.01-.119v-.119c0-.672.16-1.207.486-1.6.347-.43.86-.645 1.527-.645h.055v-1.116h-.055c-1.038 0-1.843.32-2.382.965-.5.581-.746 1.39-.746 2.406 0 .978.27 1.788.81 2.396.562.64 1.349.97 2.337.97h.05v-1.12h-.05c-.655-.001-1.167-.22-1.528-.66zM7.51 12.168v6.426h1.185v-5.36h1.463v5.36h1.18v-6.426H7.51zM14.966 12c-.627 0-1.13.316-1.486.938-.353.609-.526 1.413-.526 2.401 0 1.02.164 1.855.503 2.458.342.618.85.926 1.509.926.672 0 1.203-.322 1.578-.971.352-.604.537-1.42.537-2.413 0-.988-.192-1.798-.549-2.4l-.034-.058-.035-.057-.034-.057-.046-.046-.034-.057-.046-.046-.034-.045-.046-.046-.046-.046-.034-.034-.046-.046-.046-.034-.045-.035-.046-.034-.057-.035-.046-.023-.045-.034-.046-.023-.057-.023-.046-.023-.057-.023-.057-.023-.046-.011-.057-.023-.057-.012-.057-.011-.057-.011-.057-.012h-.126L15.035 12h-.07zm.012 1.087c.32 0 .546.206.697.617.137.375.206.922.206 1.635 0 .682-.08 1.251-.24 1.681-.156.421-.37.617-.663.617h-.104l-.023-.01-.023-.012h-.023l-.023-.012-.022-.01-.024-.012-.023-.012-.023-.01-.023-.024-.022-.011-.023-.023-.023-.011-.012-.023-.023-.023-.023-.023-.011-.023-.023-.023-.023-.035-.012-.023-.023-.023-.011-.034-.023-.035-.011-.023-.011-.045-.023-.035-.012-.034-.011-.035-.023-.034c-.16-.444-.24-1.006-.24-1.67 0-.68.08-1.236.24-1.657.153-.406.365-.605.654-.605zm8.544-.919v1.066h.983v5.36h1.185v-5.36h.997v-1.066h-3.165zm-2.593 2.237h-.645c-.265 0-.466-.06-.59-.179-.091-.082-.133-.196-.133-.343v-1.715h-1.184v1.834c0 .42.169.782.498 1.066.325.279.728.42 1.19.42h.864v3.105h1.184v-6.425H20.93v2.237zm7.3-2.233l-.217 6.426h1.177l.115-3.145h1.475c.013.133.342 3.145.342 3.145h1.19l-.55-4.7v-.171l-.01-.057v-.057l-.012-.046v-.057l-.011-.046-.012-.057-.011-.045-.011-.046-.012-.046-.011-.045-.023-.046-.011-.046-.012-.046-.023-.045-.023-.035-.023-.046-.011-.034-.023-.046-.023-.034-.035-.034-.023-.046-.023-.023-.034-.046-.023-.023-.035-.034-.034-.035-.035-.023-.023-.034-.045-.035c-.297-.233-.7-.343-1.212-.343h-1.748zm1.132 1.063h.423c.306 0 .512.099.64.286.106.155.176.452.218.869h-1.315v-.183l.011-.034v-.457l.011-.046v-.332l.012-.023v-.08z" fill="#fff"/></svg>