<svg width="32" height="26" fill="none" xmlns="http://www.w3.org/2000/svg"><path d="M30.924 3.57c-.955.43-2.014.693-3.045.866.491-.083 1.21-.969 1.494-1.329a5.571 5.571 0 001.01-1.84c.029-.056.05-.118-.006-.16-.07-.028-.11-.014-.16.014a15.65 15.65 0 01-3.612 1.384.236.236 0 01-.249-.07c-.104-.117-.2-.227-.318-.324a6.342 6.342 0 00-1.751-1.073 6.03 6.03 0 00-2.685-.43 6.335 6.335 0 00-2.547.72A6.596 6.596 0 0017 3.004a6.18 6.18 0 00-1.225 2.457c-.215.865-.194 1.716-.063 2.595.021.146.007.166-.124.146-4.955-.74-9.066-2.513-12.408-6.312-.146-.166-.222-.166-.34.014-1.46 2.187-.754 5.702 1.073 7.433.242.228.491.463.761.67-.097.022-1.315-.11-2.394-.67-.145-.09-.215-.042-.229.124a3.65 3.65 0 00.042.713c.277 2.221 1.813 4.27 3.924 5.073.249.104.526.2.796.242-.478.104-.976.18-2.346.076-.173-.035-.236.055-.173.214 1.03 2.817 3.26 3.655 4.934 4.132.221.042.45.042.671.09-.014.02-.027.02-.041.041-.554.845-2.478 1.475-3.37 1.786-1.627.567-3.398.823-5.115.657-.277-.041-.332-.034-.408 0-.076.049-.007.111.076.187.346.229.706.436 1.066.63a16.969 16.969 0 003.419 1.37c6.145 1.696 13.072.45 17.681-4.138 3.627-3.599 4.893-8.568 4.893-13.537 0-.193.228-.304.367-.4.941-.707 1.702-1.558 2.408-2.506.16-.215.16-.401.16-.478v-.027c.013-.097.006-.07-.111-.014z" fill="url(#paint0_linear_66_2278)"/><defs><linearGradient id="paint0_linear_66_2278" x1="26.244" y1="22.418" x2="8.272" y2="4.445" gradientUnits="userSpaceOnUse"><stop stop-color="#0CF"/><stop offset="1" stop-color="#0080FF"/></linearGradient></defs></svg>