<svg width="28" height="29" fill="none" xmlns="http://www.w3.org/2000/svg"><path d="M.181 28.138l1.986-7.404a13.656 13.656 0 01-1.716-6.61C.451 6.588 6.583.45 14.126.45 21.669.45 27.8 6.58 27.8 14.125c0 7.543-6.132 13.674-13.675 13.674-2.263 0-4.498-.574-6.498-1.654L.18 28.138zm7.813-4.768l.47.277a11.099 11.099 0 005.662 1.571c6.118 0 11.086-4.976 11.086-11.086 0-6.118-4.975-11.087-11.086-11.087-6.118 0-11.087 4.976-11.087 11.087 0 2.02.56 4.006 1.62 5.75l.29.47-1.107 4.132 4.152-1.114z" fill="url(#paint0_linear_66_2287)"/><path fill-rule="evenodd" clip-rule="evenodd" d="M19.212 16.035c-.56-.34-1.294-.713-1.958-.443-.505.207-.83 1.003-1.163 1.411-.166.208-.374.243-.63.139-1.91-.761-3.37-2.035-4.429-3.793-.18-.27-.145-.49.07-.74.318-.374.72-.803.802-1.308.083-.505-.152-1.094-.36-1.543-.27-.575-.567-1.391-1.141-1.717-.533-.297-1.225-.131-1.696.25-.816.664-1.204 1.702-1.197 2.733 0 .29.041.582.11.865.167.678.478 1.315.831 1.917.263.457.554.893.865 1.322 1.024 1.384 2.29 2.595 3.765 3.495.733.45 1.53.844 2.346 1.114.92.305 1.737.623 2.733.429 1.038-.2 2.063-.837 2.478-1.84.124-.298.18-.63.118-.942-.146-.657-1.018-1.038-1.544-1.35z" fill="url(#paint1_linear_66_2287)"/><defs><linearGradient id="paint0_linear_66_2287" x1="22.98" y1="27.297" x2="3.083" y2="7.4" gradientUnits="userSpaceOnUse"><stop stop-color="#00FB73"/><stop offset="1" stop-color="#00B25B"/></linearGradient><linearGradient id="paint1_linear_66_2287" x1="24.532" y1="25.746" x2="4.635" y2="5.848" gradientUnits="userSpaceOnUse"><stop stop-color="#00FB73"/><stop offset="1" stop-color="#00B25B"/></linearGradient></defs></svg>