<svg width="222" height="180" fill="none" xmlns="http://www.w3.org/2000/svg"><path d="M146.625 82.892c0 13.217-4.262 25.438-11.493 35.369 0 0 0 .007-.007.007-10.941 15.02-28.661 24.788-48.664 24.788-33.228 0-60.158-26.937-60.158-60.157 0-19.897 9.655-37.532 24.541-48.488a59.915 59.915 0 0135.624-11.677c1.647 0 3.286.064 4.905.198a59.707 59.707 0 0126.322 8.532 60.229 60.229 0 0116.066 14.242 59.957 59.957 0 0112.864 37.186z" fill="#EBEBEB"/><path d="M99.452 111.292c-.757 2.021.509 2.106.586 2.947.085.841 0 2.446-2.445 4.884-2.446 2.446-6.489 1.937-7.33 2.948-.841 1.01-2.276 5.308-4.297 6.743-2.022 1.435-2.361.586-5.224 1.18-2.862.587-5.053 4.298-5.895 6.065-.84 1.767.17 4.721-1.852 4.799-2.021.085-2.947-4.297-4.799-6.658-1.852-2.361-2.445-4.467-3.032-7.245-.587-2.778.34-8.595 0-10.871s-6.404-6.319-8.595-9.097c-2.191-2.778-5.223-8.34-5.054-10.192.17-1.852 1.52-3.874 2.53-4.637 1.011-.756.587-1.18.757-1.852.17-.671 1.01-.84 1.18-1.682.17-.841-.509-3.372-1.35-3.789-.84-.424-1.435 1.011-1.936.757-.51-.255-2.022-2.022-2.616-2.191-.586-.17-.424 1.095-1.265-.51-.841-1.597-1.265-5.647-1.936-6.318-.672-.672-1.18 1.18-2.778 0s-2.276-3.457-2.948-3.789c-.671-.34-1.597.085-2.29-1.265-.693-1.35.608-3.789 0-3.541-.608.254-1.922 2.19-2.255.339-.339-1.852 1.683-8.086 1.35-11.457-.339-3.372.842-6.906 3.202-9.776 0 0 .34-1.852.672-3.032.339-1.18 7.584-5.895 8.425-7.245.354-.566.467-1.449.594-2.396a59.915 59.915 0 0135.624-11.677c1.646 0 3.286.064 4.905.198.056.078.113.149.17.226.728.926 1.52 1.52 3.654 2.304 2.134.785 2.636 1.796 2.19 2.637-.452.841-1.18 1.01-2.02 1.067-.842.057-1.633-.396-2.531.17-.898.558-1.795 3.598-2.976 3.76-1.18.17-3.258-2.693-3.71-3.541-.453-.841 1.01-2.643.325-3.485-.693-.84-1.895-.671-3.803-.84-1.909-.17-6.347.565-6.178 1.293.17.728 6.517-.113 6.687 1.35.17 1.463-4.658 3.93-5.506 3.71-.841-.226-1.965-1.682-3.202-1.851-1.237-.17-2.248.84-3.025.954-.778.113-1.697-.841-2.877-.615-1.18.226-1.463 1.237-2.078 1.633-.615.396-2.078.396-2.248 1.293-.17.898 1.852 1.407 2.36 1.965.51.559-.621 2.474-.112 2.863.509.396 3.654-2.361 4.439-3.032.784-.672 1.456-3.598 3.145-3.542 1.682.057 2.248 2.92 2.806 3.202.558.283 1.795-.671 3.654-.283 1.852.396 3.146 4.44 3.485 5.676.34 1.237 1.124 2.474.452 2.976-.671.509-3.71-.34-4.1-1.124-.395-.784 2.022-1.965 1.853-2.248-.17-.282-1.577-.671-2.305-.233-.728.439-1.067 1.357-1.852 1.584-.784.226-2.862-2.135-3.428-1.464-.565.672.559 2.806 1.124 3.315.566.51 2.644.785 2.806 1.35.17.559-1.406 1.796-3.315 1.683-1.908-.113-3.484-1.577-4.212-.955-.728.615-.34 2.248-.841 2.806-.51.559-3.259.17-4.609 1.626-1.35 1.463-1.965 3.654-3.315 4.884-1.35 1.237-1.965-.339-3.76 1.407-1.796 1.739-2.078 5.62-2.135 6.962-.056 1.35 0 2.417-.445 2.248-.452-.17-1.067-1.35-1.237-2.078-.17-.728.396-1.965.396-2.418 0-.452-2.587-2.756-4.1-2.975-1.52-.227-2.862 1.01-3.986 1.908-1.124.898-3.146.728-3.874 1.463-.728.728-1.293 7.189-.728 8.708.566 1.52 1.294 1.52 3.09.728 1.794-.784.784-2.304 1.851-1.965 1.067.34 1.626 1.463 1.626 2.361 0 .898-2.135 3.032-1.852 3.654.283.622 2.134-.113 3.032.17.898.283 1.35.841 1.068 3.145-.283 2.305-.114 4.1 1.236 4.856 1.35.757 2.107-1.095 2.693-.84.587.254 1.435 1.604 2.276 1.519.841-.085.424-.841 2.022-1.35 1.597-.51 1.01-.841 1.35-1.852.34-1.01 1.35-1.852 2.445-1.35 1.096.509.34 1.265.425 2.106.084.841 2.021.926 3.54 1.435 1.52.509 2.362 0 5.394 1.01 3.032 1.011 3.202 4.044 4.467 4.553 1.265.509 5.478-.34 8.51 1.852 3.032 2.19 2.191 6.234 3.71 7.414 1.52 1.18 7.16 2.778 9.352 3.202 2.191.424 2.53-1.096 4.297-.671 1.768.424 2.778.925 3.372 3.371.474 2.142-6.114 6.651-6.87 8.673z" fill="#DBDBDB"/><path d="M54.18 68.204c.056.474 1.463.671 3.145 1.626 1.682.954 2.304 3.76 3.202 3.71.898-.056.615-1.35.954-1.682.34-.34.898-1.067 0-1.795s-1.774-2.304-3.414-2.53c-1.64-.227-1.922-.898-2.65-.842-.735.057-1.35.559-1.237 1.513zm9.266 4.721c-.247.686 0 1.18 1.796 1.626 1.795.453 3.484-.452 2.919-.813-.559-.367-1.407-.198-1.068-.813.34-.614.22-1.52-1.237-1.35-1.456.17-2.184.728-2.41 1.35zm6.291.191c-.615.092-.954 1.16-.34 1.83.616.672.616.56 1.35 0 .729-.557 1.853-.84 1.577-1.406-.283-.558-1.965-.516-2.587-.424zm4.891 2.297c.275-.84 1.682-.014 2.304.884.615.898.34 2.191 0 3.145-.34.955-.558 2.078-1.35 1.626-.784-.452.057-1.795-.056-2.587-.114-.784-1.124-2.382-.898-3.068zm24.209-46.862c-.297.707 1.067.955 1.851 1.407.785.452 1.407.728 1.852 0 .453-.728-.169-1.576-.784-1.739-.615-.177-2.644-.346-2.92.332zm10.616 6.567c.516.544 1.407.452 2.022 1.237.615.784.396 2.134 1.18 2.53.785.396 1.35 0 1.407-.558.056-.559-1.124-1.965-1.011-2.248.113-.283 1.626.396 1.965 1.237.339.841-.339 2.021.452 2.248.785.226.615-.785.955-1.011.339-.226 1.067-.113 1.01-.785-.056-.671-.954-2.134-1.682-2.643-.728-.51-1.293-1.068-2.53-1.35-1.237-.283-2.418-.057-3.033.452-.622.502-1.053.559-.735.89zm24.302 10.588c-.071.282-.17.487-.319.594-1.18.84-2.587-2.078-4.212-2.637-1.633-.565-2.361-2.643-2.693-2.191-.339.445-.226 1.067-.728 1.795-.509.728-1.237.566-1.569 1.965-.34 1.407 1.569 3.987 1.123 4.835-.452.841-1.01.558-1.908.509-.898-.057-.728.728-1.908.396-1.181-.34-.17-1.796-2.022-3.541-1.852-1.74-2.474-2.079-2.078-2.863.396-.785-.17-1.909.672-2.022.841-.113 1.519 1.124 2.078 1.464.558.339 1.293-.672 1.35-1.577.056-.897-1.965-2.134-2.693-2.834-.728-.7-.785-3.237-.509-3.74.275-.501 1.124-.339 1.35-1.568.134-.728-1.018-1.937-1.986-2.813a60.32 60.32 0 0116.052 14.228zm8.388 50.361c.17-1.796-.728-1.909.17-5.224.898-3.315-.954-6.856-1.626-7.584-.671-.728-2.134-.509-3.315.226-1.18.728-.339 1.294-1.123 1.57-.785.282-1.57-.17-2.305-.114-.728.057-1.406 1.909-2.975 1.852-1.57-.056-2.58-2.304-3.761-3.901-1.18-1.598-3.597-2.616-4.382-4.58-.785-1.965.728-4.998.396-7.302-.339-2.304-1.852-1.795-2.135-3.089-.282-1.293.226-.671.622-1.908.396-1.237-.452-1.909.34-4.043.784-2.135 2.191-3.202 1.851-4.156-.339-.955-1.406-2.53-1.463-3.648-.056-1.116 1.068-1.067 3.202-2.643 2.135-1.57 2.693-1.456 4.326-.898 1.633.559 2.643.841 3.598 1.011.954.17 2.247 2.643 2.643 2.53.396-.113.452-.84.622-1.908.071-.452.375-.876.7-1.209 5.775 9.239 9.111 20.152 9.111 31.85 0 13.217-4.262 25.438-11.493 35.369 5.718-8.75 6.828-20.406 6.997-22.201z" fill="#DBDBDB"/><path d="M50.292 48.583s.233-.071.671-.198" stroke="#C7C7C7" stroke-width=".75" stroke-miterlimit="10"/><path d="M52.341 48.003c9.705-2.552 51.605-11.634 77.694 13.854" stroke="#C7C7C7" stroke-width=".75" stroke-miterlimit="10" stroke-dasharray="2.03 2.03"/><path d="M130.544 62.366c.17.17.333.332.495.501M64.004 84.934c-.036-.134-.043-.374-.036-.7" stroke="#C7C7C7" stroke-width=".75" stroke-miterlimit="10"/><path d="M64.046 82.87c.396-6.057 1.647-23.197-12.61-33.496" stroke="#C7C7C7" stroke-width=".75" stroke-miterlimit="10" stroke-dasharray="1.93 1.93"/><path d="M50.878 48.978c-.19-.134-.388-.268-.586-.395m14.369 34.309s.163-.184.488-.51" stroke="#C7C7C7" stroke-width=".75" stroke-miterlimit="10"/><path d="M66.174 81.386c5.79-5.442 27.99-23.502 63.452-18.717" stroke="#C7C7C7" stroke-width=".75" stroke-miterlimit="10" stroke-dasharray="2.03 2.03"/><path d="M130.346 62.761l.7.106M84.502 92.83s.042-.248.092-.7" stroke="#C7C7C7" stroke-width=".75" stroke-miterlimit="10"/><path d="M84.714 90.751c.438-7.287-.63-31.729-33.072-41.766" stroke="#C7C7C7" stroke-width=".75" stroke-miterlimit="10" stroke-dasharray="1.97 1.97"/><path d="M50.97 48.78a24.72 24.72 0 00-.678-.197m80.754 14.284s-.24.043-.686.149" stroke="#C7C7C7" stroke-width=".75" stroke-miterlimit="10"/><path d="M128.975 63.362c-9.09 2.417-45.385 14.836-52.566 60.271" stroke="#C7C7C7" stroke-width=".75" stroke-miterlimit="10" stroke-dasharray="2.01 2.01"/><path d="M76.303 124.34l-.106.699" stroke="#C7C7C7" stroke-width=".75" stroke-miterlimit="10"/><path d="M64.004 84.934s18.356 17.989 12.193 40.105" stroke="#C7C7C7" stroke-width=".75" stroke-miterlimit="10" stroke-dasharray="2 2"/><path d="M54.06 42.292c-.191-1.887-1.485-3.76-3.775-3.76-2.283 0-3.583 1.88-3.767 3.76-.29 2.912 1.675 5.548 3.767 7.952 2.1-2.404 4.065-5.04 3.775-7.952zm-3.768 2.092a2.066 2.066 0 01-2.064-2.064 2.068 2.068 0 014.135 0 2.072 2.072 0 01-2.07 2.064zm37.278 41.95c-.19-1.887-1.484-3.76-3.774-3.76-2.283 0-3.584 1.88-3.768 3.76-.29 2.912 1.675 5.548 3.768 7.951 2.099-2.403 4.064-5.04 3.774-7.951zm-3.774 2.092a2.066 2.066 0 01-2.064-2.064 2.068 2.068 0 014.135 0 2.068 2.068 0 01-2.071 2.064zm-16.66-10.277c-.19-1.887-1.484-3.76-3.774-3.76-2.284 0-3.584 1.88-3.768 3.76-.29 2.912 1.675 5.548 3.768 7.952 2.099-2.404 4.064-5.04 3.774-7.952zm-3.774 2.092a2.066 2.066 0 01-2.064-2.064 2.068 2.068 0 014.135 0 2.068 2.068 0 01-2.071 2.064zm71.452-23.028c-.191-1.887-1.484-3.76-3.774-3.76-2.283 0-3.584 1.88-3.768 3.76-.29 2.912 1.675 5.548 3.768 7.952 2.099-2.404 4.064-5.04 3.774-7.952zm-3.767 2.092a2.066 2.066 0 01-2.064-2.064 2.068 2.068 0 014.135 0 2.072 2.072 0 01-2.071 2.064zm-51.075 60.843c-.19-1.887-1.484-3.76-3.774-3.76-2.283 0-3.584 1.88-3.768 3.76-.29 2.912 1.675 5.549 3.768 7.952 2.099-2.403 4.064-5.047 3.774-7.952zm-3.774 2.092a2.066 2.066 0 01-2.064-2.064 2.067 2.067 0 014.135 0 2.068 2.068 0 01-2.071 2.064z" fill="#A6A6A6"/><path d="M94.97 70.41l-3.281 72.829H31.987l6.178-29.559 19.896-6.279a3.735 3.735 0 002.258-2.215l11.897-30.55L94.97 70.41z" fill="#E24949"/><path d="M88.397 78.077l-1.49 26.274-21.547 2.019 9.282-27.333 13.755-.96z" fill="#455A64"/><path opacity=".3" d="M87.581 92.47l-.341 5.994-6.46 6.459-6.24.588 13.041-13.04zM83.99 78.387L70.17 92.204l1.454-4.284 9.325-9.326 3.041-.207zm4.23 2.779l-.039.725-21.97 21.97.357-1.042L88.22 81.166zm-1.105 19.508l-.044.729-3.233 3.234-.757.071 4.034-4.034z" fill="#fff"/><path d="M88.397 78.077l-13.755.96-9.282 27.333 1.443-.137 8.772-25.84 12.755-1.168.067-1.148z" fill="#263238"/><path d="M38.365 93.803a.153.153 0 00-.115-.068 19.635 19.635 0 01-.906-.09.153.153 0 00-.038.304c.305.038.614.068.92.091a.153.153 0 00.14-.237zm45.08-55.311a.153.153 0 00-.254.168c.326.498.653 1.015.97 1.535a.153.153 0 00.21.051.152.152 0 00.05-.21 57.325 57.325 0 00-.976-1.544zm-1.024-1.506l-.002-.003a51.443 51.443 0 00-1.08-1.475.153.153 0 00-.243.185c.361.475.723.967 1.073 1.465a.152.152 0 00.252-.172zm2.92 4.615a.153.153 0 00-.26.16c.296.521.59 1.057.875 1.594a.153.153 0 10.27-.143 65.687 65.687 0 00-.879-1.6l-.005-.01zm-5.129-7.512c-.003-.005-.005-.009-.01-.013-.39-.473-.79-.94-1.191-1.386a.153.153 0 00-.228.204c.397.443.796.906 1.183 1.377.054.065.15.074.216.02a.152.152 0 00.03-.202zm6.838 10.73a.153.153 0 00-.264.154c.266.535.53 1.086.786 1.638a.153.153 0 00.277-.128 71.764 71.764 0 00-.8-1.665zm-9.27-13.441a40.17 40.17 0 00-1.328-1.298.152.152 0 10-.208.223c.436.406.873.832 1.299 1.266.06.06.156.062.216.003a.153.153 0 00.02-.194zm10.804 16.745a.153.153 0 00-.266.146c.238.55.474 1.114.702 1.677.031.078.12.116.199.084a.152.152 0 00.084-.198 75.418 75.418 0 00-.705-1.684l-.014-.025zM75.112 28.9a.16.16 0 00-.028-.032c-.469-.395-.95-.78-1.429-1.142a.152.152 0 10-.184.243c.476.36.952.74 1.416 1.133a.153.153 0 00.225-.202zm14.84 22.6a.153.153 0 00-.27.14c.212.562.423 1.137.624 1.708a.154.154 0 00.196.093.154.154 0 00.093-.195 76.85 76.85 0 00-.626-1.715.193.193 0 00-.017-.03zm1.212 3.437a.153.153 0 00-.272.132c.188.574.371 1.158.546 1.734a.152.152 0 10.292-.088c-.175-.58-.36-1.165-.549-1.741a.139.139 0 00-.017-.037zM72.208 26.7a.157.157 0 00-.042-.041 32.373 32.373 0 00-1.545-.981.153.153 0 00-.156.263c.513.306 1.028.633 1.53.972a.153.153 0 00.213-.213zm20.011 31.723a.153.153 0 00-.274.126c.165.592.32 1.184.465 1.76a.152.152 0 00.186.11.152.152 0 00.11-.185 73.49 73.49 0 00-.466-1.766.143.143 0 00-.02-.045zM69.081 24.84a.15.15 0 00-.056-.05 30.94 30.94 0 00-1.649-.794.153.153 0 00-.124.28 30.72 30.72 0 011.633.785c.075.039.166.01.206-.065a.158.158 0 00-.01-.156zm-3.327-1.48a.149.149 0 00-.073-.057 29.811 29.811 0 00-1.733-.588.153.153 0 00-.19.101.153.153 0 00.101.19c.576.177 1.153.372 1.716.583a.153.153 0 00.18-.229zm-3.48-1.063a.154.154 0 00-.091-.063 30.456 30.456 0 00-1.791-.374.153.153 0 10-.052.3 30.932 30.932 0 011.773.37.152.152 0 00.184-.113.157.157 0 00-.023-.12zm-3.584-.63a.155.155 0 00-.11-.068 26.242 26.242 0 00-1.827-.137.153.153 0 00-.012.304c.592.024 1.2.07 1.805.136a.152.152 0 00.144-.235zm-3.635-.139a.151.151 0 00-.133-.068c-.615.023-1.23.07-1.828.143a.152.152 0 10.037.303c.59-.07 1.196-.118 1.803-.14a.152.152 0 00.12-.238zm-3.611.436a.155.155 0 00-.159-.065c-.6.126-1.197.28-1.776.457a.153.153 0 10.09.292c.57-.175 1.158-.325 1.748-.45a.153.153 0 00.096-.234zm-3.477 1.068a.154.154 0 00-.185-.057c-.565.233-1.123.495-1.662.78a.153.153 0 00.143.27c.53-.28 1.08-.538 1.635-.767a.153.153 0 00.084-.2l-.015-.026zm-3.215 1.698a.153.153 0 00-.211-.042l-.135.089c-.46.308-.914.641-1.35.989a.153.153 0 10.192.238 19.099 19.099 0 011.46-1.061.152.152 0 00.044-.212zm-2.84 2.273a.153.153 0 00-.234-.025 20.9 20.9 0 00-1.26 1.332.152.152 0 00.017.216c.064.056.16.048.215-.016.394-.456.812-.898 1.242-1.312a.153.153 0 00.02-.195zm7.171 10.734a10.337 10.337 0 00-.765-1.003.154.154 0 00-.216-.015.154.154 0 00-.016.215 9.81 9.81 0 011.044 1.455.153.153 0 00.264-.154 9.772 9.772 0 00-.31-.498zm1.07 2.14a.154.154 0 00-.177-.06.151.151 0 00-.095.194 7.87 7.87 0 01.39 1.74.152.152 0 10.304-.032 8.25 8.25 0 00-.406-1.807.173.173 0 00-.017-.035zm-3.13-4.394a.142.142 0 00-.03-.033 11.175 11.175 0 00-1.521-1.042.152.152 0 00-.209.058.152.152 0 00.058.208c.523.298 1.02.639 1.48 1.013a.153.153 0 00.215-.022.156.156 0 00.008-.182zm3.487 7.982a.153.153 0 00-.279.06 5.899 5.899 0 01-.529 1.687.153.153 0 00.275.134c.27-.55.458-1.147.556-1.773a.147.147 0 00-.023-.108zm-6.634-9.78a.149.149 0 00-.073-.059 12.472 12.472 0 00-1.768-.514.153.153 0 10-.064.298 12.15 12.15 0 011.725.502c.08.03.167-.011.197-.09a.15.15 0 00-.017-.138zm-4.342-3.93a.153.153 0 00-.25-.004 20.951 20.951 0 00-1.008 1.532.153.153 0 00.264.156c.308-.517.642-1.025.991-1.511a.153.153 0 00.003-.174zm.795 3.17a.152.152 0 00-.116-.068 14.842 14.842 0 00-1.838-.013.152.152 0 10.016.304 14.44 14.44 0 011.8.013.152.152 0 00.138-.237zm8.597 13.754a.151.151 0 00-.237-.02 6.261 6.261 0 01-1.398 1.088.152.152 0 10.154.264 6.918 6.918 0 001.464-1.142.153.153 0 00.017-.19zM37.67 32.88a.152.152 0 00-.264.019 21.114 21.114 0 00-.726 1.685c-.03.08.01.167.089.197.08.03.167-.01.197-.089.212-.56.452-1.118.715-1.66a.154.154 0 00-.011-.151zm-.968.235a.152.152 0 00-.152-.066c-.589.1-1.19.231-1.792.395a.153.153 0 00.08.294c.59-.16 1.183-.29 1.762-.387a.153.153 0 00.102-.236zm9.125 15.407a.154.154 0 00-.173-.06 12.657 12.657 0 01-1.748.416.152.152 0 10.048.3 13.108 13.108 0 001.6-.367l.192-.059a.152.152 0 00.081-.23zm-9.446-12.239a.151.151 0 00-.085-.062.154.154 0 00-.189.106 18.895 18.895 0 00-.406 1.791.153.153 0 10.301.053 18.58 18.58 0 01.4-1.762.149.149 0 00-.02-.126zm-3.19-2.223a.153.153 0 00-.178-.058c-.558.205-1.128.439-1.694.698a.153.153 0 10.127.278c.558-.255 1.12-.487 1.672-.688a.153.153 0 00.074-.23zm9.054 15.01a.154.154 0 00-.123-.067 6.98 6.98 0 01-1.755-.271.152.152 0 10-.087.293c.57.168 1.186.263 1.833.283a.152.152 0 00.157-.148.155.155 0 00-.025-.09zm-6.483-9.203a.153.153 0 00-.28.075c-.04.628-.04 1.247-.004 1.84a.153.153 0 00.305-.018c-.036-.58-.034-1.186.005-1.801a.162.162 0 00-.026-.096zm.243 3.622a.153.153 0 00-.276.119c.138.626.328 1.218.566 1.759a.153.153 0 00.28-.122 9.086 9.086 0 01-.547-1.702.172.172 0 00-.023-.054zm2.805 4.532a.167.167 0 00-.04-.042 5.797 5.797 0 01-1.289-1.208.153.153 0 10-.24.19c.394.5.85.927 1.358 1.271.07.048.164.03.212-.04a.158.158 0 000-.171zm-8.93-12.458a.153.153 0 00-.199-.05c-.524.283-1.056.59-1.583.916a.152.152 0 10.16.26 32.028 32.028 0 011.567-.908.153.153 0 00.062-.208c-.002-.001-.004-.006-.007-.01zm-3.097 1.91l-.002-.003a.152.152 0 00-.212-.038c-.489.338-.986.7-1.478 1.075a.152.152 0 10.185.243 39.74 39.74 0 011.466-1.067.152.152 0 00.04-.21zm-2.897 2.208l-.01-.014a.154.154 0 00-.216-.019c-.47.393-.931.799-1.372 1.208a.153.153 0 10.207.224c.437-.405.895-.808 1.36-1.197a.152.152 0 00.031-.202zm-2.665 2.475a.153.153 0 00-.237-.021c-.426.439-.84.893-1.234 1.349a.153.153 0 00.232.2c.389-.452.8-.902 1.22-1.337a.153.153 0 00.019-.191zm-2.375 2.756a.154.154 0 00-.249-.008c-.37.484-.729.985-1.065 1.486a.152.152 0 10.254.17c.333-.496.688-.992 1.055-1.471a.154.154 0 00.005-.177zm-2.027 3.02a.153.153 0 00-.26.008 29.03 29.03 0 00-.872 1.607.153.153 0 00.068.205.153.153 0 00.205-.068 28.79 28.79 0 01.862-1.591.147.147 0 00-.003-.161zm-1.63 3.252a.153.153 0 00-.267.026 28.612 28.612 0 00-.657 1.707.153.153 0 10.29.1c.196-.567.415-1.136.649-1.688a.155.155 0 00-.014-.145zm-1.194 3.435a.153.153 0 00-.275.045 28.97 28.97 0 00-.43 1.778.153.153 0 10.298.063 28.43 28.43 0 01.426-1.76.146.146 0 00-.02-.126zm-.742 3.562a.153.153 0 00-.278.064 29.44 29.44 0 00-.201 1.815.153.153 0 00.305.025 28.2 28.2 0 01.2-1.797.16.16 0 00-.026-.107zm22.404 35.232a.153.153 0 00-.095-.064 21.608 21.608 0 01-1.75-.45.153.153 0 00-.09.292c.587.178 1.184.33 1.775.456a.153.153 0 00.181-.117.146.146 0 00-.02-.117zm-22.693-31.61a.152.152 0 00-.28.083c-.01.604-.004 1.22.021 1.828a.152.152 0 00.159.147.152.152 0 00.146-.158 30.217 30.217 0 01-.02-1.81.163.163 0 00-.026-.09zM32.177 92.36a.15.15 0 00-.071-.056 23.597 23.597 0 01-1.656-.727.152.152 0 00-.203.071.152.152 0 00.07.204c.553.268 1.117.515 1.678.736a.153.153 0 00.198-.087.155.155 0 00-.016-.14zM13.111 65.437a.153.153 0 00-.28.1c.06.601.139 1.212.232 1.814.014.084.092.14.175.128a.153.153 0 00.128-.174 32.19 32.19 0 01-.23-1.797.152.152 0 00-.025-.071zm15.792 25.34a.148.148 0 00-.05-.047 26.249 26.249 0 01-1.535-.958.152.152 0 10-.17.254c.509.342 1.031.667 1.553.968a.153.153 0 00.209-.056.155.155 0 00-.007-.16zm-15.23-21.744a.152.152 0 00-.159-.065.151.151 0 00-.117.182c.127.591.272 1.19.431 1.777a.15.15 0 00.187.107.153.153 0 00.107-.187 33.294 33.294 0 01-.427-1.76.134.134 0 00-.022-.054zM25.882 88.75a.166.166 0 00-.033-.036c-.473-.364-.944-.75-1.4-1.148a.152.152 0 00-.215.015.151.151 0 00.015.215c.46.402.937.792 1.414 1.16a.15.15 0 00.213-.028.152.152 0 00.006-.178zM14.624 72.545a.153.153 0 00-.271.133c.189.575.396 1.154.617 1.721a.153.153 0 10.285-.11 34.945 34.945 0 01-.612-1.707.203.203 0 00-.019-.037zm8.517 13.815a.184.184 0 00-.02-.025 31.83 31.83 0 01-1.255-1.305.152.152 0 00-.216-.01.152.152 0 00-.01.215c.41.452.836.895 1.267 1.318.06.06.157.059.216-.002a.154.154 0 00.018-.191zm-7.2-10.423a.154.154 0 00-.19-.054.154.154 0 00-.077.202c.248.553.514 1.108.791 1.647a.153.153 0 10.272-.14 35.294 35.294 0 01-.797-1.655zm4.752 7.73l-.01-.012a35.667 35.667 0 01-1.104-1.436.153.153 0 00-.247.18c.358.492.734.98 1.115 1.448a.153.153 0 00.246-.18zm-3.094-4.492a.153.153 0 00-.26.162 35.41 35.41 0 00.958 1.559.153.153 0 00.255-.168 34.602 34.602 0 01-.953-1.553zM93.12 62.033a.152.152 0 00-.276.117c.124.57.183.89.184.893a.153.153 0 00.3-.054c0-.003-.06-.327-.185-.902a.15.15 0 00-.022-.054z" fill="#2E2E46"/><path d="M58.967 108.055v34.075" stroke="#263238" stroke-miterlimit="10"/><path d="M35.539 113.755l4.853-.769-2.83 10-2.501-.267a1.035 1.035 0 01-.921-1.105l.529-6.923c.039-.47.4-.858.87-.936z" fill="#fff"/><path d="M62.687 99.306c1.16.988.113 9.91-.718 9.761-.827-.149-2.599-.49-3.316-1.055-.717-.564-4.747-7.784-3.767-9.282.98-1.493 6.903-.188 7.8.576z" fill="#E24949"/><path opacity=".1" d="M62.687 99.306c1.16.988.113 9.91-.718 9.761-.827-.149-2.599-.49-3.316-1.055-.717-.564-4.747-7.784-3.767-9.282.98-1.493 6.903-.188 7.8.576zm15.624 12.716h7.393v-2.077l-7.393.403v1.674z" fill="#000"/><path d="M93.343 143.235h122.739l-6.495-87.52L97.765 49.78l-4.422 93.455z" fill="#E24949"/><path opacity=".1" d="M93.34 143.235h122.738l-.348-4.696-121.806-7.647-.585 12.343z" fill="#000"/><path d="M216.7 147.174H29.247v-5.578H216.7v5.578z" fill="#EBEBEB"/><path d="M25.343 138.915l18.701 1.149v7.957H23.952l1.391-9.106zm183.283 9.106v-7.789l11.803-1.219 1.45 9.008h-13.253z" fill="#DBDBDB"/><path d="M166.955 148.86s1.744-12.916 14.523-12.916c12.778 0 14.671 12.916 14.671 12.916" stroke="#C7C7C7" stroke-width="10" stroke-miterlimit="10"/><path d="M181.552 136.364c18.277 0 18.309 28.402 0 28.402-18.274.004-18.306-28.402 0-28.402z" fill="#263238"/><path d="M181.552 144.121c8.294 0 8.309 12.892 0 12.892-8.295 0-8.306-12.892 0-12.892z" fill="#C7C7C7"/><path d="M57.47 148.86s1.744-12.916 14.523-12.916c12.782 0 14.671 12.916 14.671 12.916" stroke="#C7C7C7" stroke-width="10" stroke-miterlimit="10"/><path d="M71.996 136.364c18.277 0 18.309 28.402 0 28.402-18.274.004-18.306-28.402 0-28.402z" fill="#263238"/><path d="M71.995 144.121c8.295 0 8.31 12.892 0 12.892-8.294 0-8.31-12.892 0-12.892z" fill="#C7C7C7"/><path d="M163.749 113.681a.193.193 0 00-.008.048.221.221 0 00.203.239c.442.035.896.05 1.348.046a.224.224 0 00.219-.224.223.223 0 00-.224-.22c-.438.005-.879-.009-1.308-.044a.224.224 0 00-.23.155zM121.648 38.32a.224.224 0 00.075.241.223.223 0 00.312-.038c.516-.66 1.101-1.31 1.739-1.928a.221.221 0 10-.308-.318 19.513 19.513 0 00-1.779 1.974.194.194 0 00-.039.07zm3.754-3.66a.22.22 0 00.036.2.22.22 0 00.31.042 21.231 21.231 0 012.165-1.438.222.222 0 00-.222-.384c-.761.44-1.505.936-2.21 1.468a.24.24 0 00-.079.112zm4.539-2.624a.222.222 0 00.296.27 19.912 19.912 0 012.453-.85.222.222 0 00-.117-.428c-.847.233-1.69.525-2.508.87a.22.22 0 00-.124.138zm5.053-1.385a.22.22 0 00.241.285 19.332 19.332 0 012.59-.172.22.22 0 00.221-.222.22.22 0 00-.221-.221c-.886-.001-1.777.06-2.648.176a.223.223 0 00-.183.154zm5.238-.002l-.009.038a.222.222 0 00.191.248c.843.11 1.702.276 2.551.493.118.03.237-.04.27-.16a.222.222 0 00-.161-.27 22.048 22.048 0 00-2.603-.503.222.222 0 00-.239.154zm5.079 1.29a.223.223 0 00.133.274c.793.298 1.598.647 2.39 1.037a.22.22 0 00.296-.101.22.22 0 00-.101-.297A26.997 26.997 0 00145.6 31.8a.222.222 0 00-.286.13l-.003.01zm4.714 2.307a.219.219 0 00.097.255c.725.436 1.46.92 2.183 1.431a.22.22 0 00.308-.052.22.22 0 00-.052-.309 36.705 36.705 0 00-2.21-1.45.223.223 0 00-.326.125zm4.308 3.003a.221.221 0 00.084.246c.726.516 1.479.994 2.238 1.42a.222.222 0 10.217-.386 24.332 24.332 0 01-2.197-1.395.22.22 0 00-.308.052.203.203 0 00-.034.063zm4.575 2.566a.222.222 0 00.126.27 22.978 22.978 0 002.497.892.222.222 0 00.275-.146l.001-.005a.22.22 0 00-.15-.274 22.35 22.35 0 01-2.448-.874.225.225 0 00-.292.118.072.072 0 00-.009.02zm5.031 1.471a.222.222 0 00.173.285c.87.145 1.756.241 2.637.283a.22.22 0 00.232-.211.22.22 0 00-.211-.232 21.79 21.79 0 01-2.585-.277.218.218 0 00-.246.152zm5.771-17.44a.223.223 0 00.142.276.223.223 0 00.28-.14c.277-.84.602-1.654.965-2.412a.223.223 0 00-.401-.192 20.909 20.909 0 00-.985 2.465l-.001.003zm-.676 2.538l-.005.02a25.03 25.03 0 00-.4 2.62.221.221 0 10.441.044c.088-.87.22-1.734.394-2.574a.222.222 0 00-.43-.11zm2.956-7.254a.222.222 0 00.395.19 12.913 12.913 0 011.652-1.981.221.221 0 00-.309-.317 13.28 13.28 0 00-1.708 2.048.192.192 0 00-.03.06zm-3.483 12.474a.237.237 0 00-.01.066c.002.877.046 1.767.133 2.644a.22.22 0 00.242.198.22.22 0 00.198-.242 26.974 26.974 0 01-.13-2.602.222.222 0 00-.222-.222.226.226 0 00-.211.158zm.518 5.22a.222.222 0 00-.005.11c.171.862.386 1.726.639 2.569a.222.222 0 00.425-.128 26.87 26.87 0 01-.63-2.528.222.222 0 00-.429-.022zm6.75-21.266a.223.223 0 00.015.17.223.223 0 00.299.092 6.236 6.236 0 012.411-.724.223.223 0 00.204-.238.22.22 0 00-.238-.203c-.869.069-1.738.329-2.583.773a.218.218 0 00-.108.13zm-6.601 25.978a.189.189 0 00-.008.082.22.22 0 00.237.205 22.601 22.601 0 002.63-.342.222.222 0 10-.083-.436c-.851.16-1.718.273-2.579.334a.226.226 0 00-.197.157zm1.361.314a.218.218 0 00.007.148c.33.811.704 1.619 1.112 2.402a.222.222 0 00.393-.204 27.94 27.94 0 01-1.096-2.365.22.22 0 00-.288-.121.222.222 0 00-.128.14zm10.311-26.652a.22.22 0 00.131.272c.74.288 1.468.736 2.162 1.333a.22.22 0 00.313-.024.22.22 0 00-.024-.313c-.732-.63-1.503-1.105-2.29-1.41a.222.222 0 00-.292.142zm-6.52 25.362a.222.222 0 00.279.277 23.3 23.3 0 002.481-.94.223.223 0 00-.182-.405 22.71 22.71 0 01-2.431.922.22.22 0 00-.147.146zm-1.371 5.944a.228.228 0 00.025.186c.471.734.983 1.462 1.525 2.161a.222.222 0 00.351-.271 29.897 29.897 0 01-1.502-2.13.22.22 0 00-.306-.066.222.222 0 00-.093.12zM184.848 18.5c-.02.065-.01.14.034.199.534.71.989 1.448 1.356 2.196.054.11.186.156.296.103a.223.223 0 00.102-.296 14.007 14.007 0 00-1.399-2.269.222.222 0 00-.389.067zm-5.736 19.916a.215.215 0 00.022.18.22.22 0 00.304.077c.765-.46 1.5-.965 2.186-1.505a.221.221 0 00.037-.312.222.222 0 00-.312-.037 20.854 20.854 0 01-2.14 1.473.222.222 0 00-.097.124zm-2.951 12.244a.226.226 0 00.048.216c.586.64 1.212 1.273 1.859 1.878a.222.222 0 00.303-.324 33.106 33.106 0 01-1.835-1.854.221.221 0 00-.375.084zm7.063-15.492a.225.225 0 00.057.226.222.222 0 00.314-.006 17.413 17.413 0 001.695-2.047.221.221 0 10-.362-.255 17.132 17.132 0 01-1.653 1.996.213.213 0 00-.051.086zm3.888-11.968a.22.22 0 00-.005.117c.197.837.294 1.695.29 2.553a.221.221 0 10.442.003 11.377 11.377 0 00-.301-2.657.221.221 0 00-.426-.016zm-.893 7.68a.22.22 0 00.118.266.223.223 0 00.296-.107c.384-.823.682-1.673.884-2.516a.221.221 0 10-.43-.103 12.698 12.698 0 01-.856 2.431l-.012.03zm-6.229 23.368a.22.22 0 00.073.238 40.242 40.242 0 002.111 1.587c.101.07.239.046.309-.054a.223.223 0 00-.054-.309 38.015 38.015 0 01-2.087-1.568.22.22 0 00-.311.033.205.205 0 00-.041.073zm4.231 3.11a.22.22 0 00.075.24c.692.54 1.358 1.11 1.979 1.695a.22.22 0 10.303-.322 28.317 28.317 0 00-2.009-1.72.222.222 0 00-.348.107zm-16.532 56.123a.222.222 0 00.251.284 19.341 19.341 0 002.575-.643.22.22 0 00.142-.28.22.22 0 00-.279-.142c-.843.273-1.689.485-2.516.629a.22.22 0 00-.173.152zm20.348-52.524a.22.22 0 00.045.211 24.7 24.7 0 011.601 2.05.222.222 0 00.364-.253 25.446 25.446 0 00-1.631-2.087.222.222 0 00-.379.079zm-15.355 50.93a.212.212 0 00.011.158c.05.111.182.16.294.109.78-.358 1.569-.772 2.347-1.228a.22.22 0 00.079-.303.22.22 0 00-.303-.079c-.764.45-1.54.855-2.308 1.207a.225.225 0 00-.12.136zm4.53-2.649a.219.219 0 00.031.194c.07.1.208.123.309.051a34.138 34.138 0 002.091-1.619.22.22 0 10-.284-.339 33.92 33.92 0 01-2.063 1.597.218.218 0 00-.084.116zm13.826-43.983a.22.22 0 00.017.171c.414.758.791 1.547 1.12 2.347a.222.222 0 00.289.12.222.222 0 00.121-.288 23.94 23.94 0 00-1.141-2.39.222.222 0 00-.406.04zm-9.794 40.617a.221.221 0 00.364.225 40.32 40.32 0 001.84-1.896.221.221 0 10-.328-.298 39.44 39.44 0 01-1.82 1.875.24.24 0 00-.056.094zm11.788-35.768a.212.212 0 000 .127c.238.824.437 1.676.592 2.532a.22.22 0 00.257.18.22.22 0 00.179-.258 25.504 25.504 0 00-.602-2.578.223.223 0 00-.426-.003zm-8.251 31.885a.222.222 0 00.384.205 43.676 43.676 0 001.59-2.108.22.22 0 10-.36-.256 44.071 44.071 0 01-1.575 2.086.207.207 0 00-.039.073zm9.185-26.725a.257.257 0 00-.01.084c.068.852.098 1.728.088 2.605a.22.22 0 00.219.224.22.22 0 00.224-.22c.01-.89-.02-1.78-.088-2.646a.222.222 0 00-.433-.047zm-6.146 22.44c-.03.095.007.2.094.255a.22.22 0 00.305-.07 46.11 46.11 0 001.334-2.28.222.222 0 10-.389-.214c-.416.761-.86 1.52-1.32 2.26a.173.173 0 00-.024.05zm6.092-17.191a.292.292 0 00-.009.044 33.61 33.61 0 01-.353 2.587.221.221 0 10.436.077c.153-.876.273-1.758.357-2.621a.22.22 0 00-.199-.242.22.22 0 00-.232.155zm-3.575 12.58a.221.221 0 00.412.16c.376-.798.73-1.613 1.052-2.423a.222.222 0 00-.411-.166c-.319.801-.67 1.608-1.042 2.399a.562.562 0 00-.011.03zm2.67-7.406l-.004.012c-.209.835-.454 1.68-.724 2.51a.221.221 0 10.422.138c.273-.842.521-1.696.733-2.54a.22.22 0 00-.161-.268.22.22 0 00-.266.148zm-73.324-43.895a.222.222 0 10.424.131c.114-.37.281-.77.495-1.192a.222.222 0 00-.395-.2 8.209 8.209 0 00-.524 1.26z" fill="#2E2E46"/><path d="M120.217 179.692c.749.243 22.147-.035 22.954-.564.31-.196.451-3.316.513-7.091v-.117c.016-.777.024-1.58.028-2.391 0-.114 0-.224.004-.334l-1.039-11.1-14.315.145 1.411 10.995.016.435.086 2.277.008.235s-8.141 3.771-8.968 4.445c-.816.667-1.447 2.826-.698 3.065z" fill="#FFA982"/><path d="M120.217 179.692c.749.243 22.146-.035 22.954-.564.31-.196.451-3.316.513-7.091v-.117c.016-.777.024-1.58.028-2.391 0-.114 0-.224.004-.334l-13.939.04.016.435.086 2.277.008.235s-8.141 3.771-8.969 4.445c-.819.667-1.45 2.826-.701 3.065z" fill="#EBEBEB"/><path d="M120.216 179.689c.388.125 6.201.109 11.881-.004 1.14-.024 2.277-.051 3.363-.079 4.053-.11 7.4-.278 7.71-.482.31-.192.447-3.226.51-6.934 0-.051.004-.106.004-.157 0-.039 0-.082.003-.121h-.015l-13.79.027.008.235s-8.145 3.767-8.968 4.441c-.824.679-1.459 2.834-.706 3.074z" fill="#42A9D1"/><path d="M120.447 178.858c3.606-.138 18.16-.341 21.735-.2.027 0 .031.019 0 .023-3.571.212-18.129.298-21.735.235-.075 0-.075-.055 0-.058zm7.898-6.856c1.415-.282 3.155-.086 4.253.909.043.039-.012.098-.059.087a19.965 19.965 0 00-4.186-.816c-.106-.008-.11-.16-.008-.18zm-1.019.631c1.415-.282 3.156-.086 4.253.909.043.04-.012.098-.059.087a19.965 19.965 0 00-4.186-.816c-.102-.008-.11-.16-.008-.18zm-1.015.631c1.415-.282 3.155-.086 4.253.909.043.04-.012.098-.059.087a19.977 19.977 0 00-4.186-.816c-.102-.011-.11-.16-.008-.18z" fill="#263238"/><path d="M132.097 179.685c1.14-.024 2.277-.051 3.363-.079 4.053-.11 7.4-.278 7.71-.482.31-.192.447-3.226.51-6.934l.003-.157c0-.039 0-.082.004-.121h-.015c-1.89 1.329-8.549 5.762-11.575 7.773z" fill="#263238"/><path d="M128.883 171.99h15.413s-3.105-35.991-2.983-36.622c.153-.804 1.062-4.449 2.273-9.207a5320.138 5320.138 0 014.735-18.372c1.658-6.382 2.948-11.336 2.948-11.336h-13.061s-1.521 4.825-3.441 11.104c-3.124 10.204-7.303 24.244-7.714 27.658-.667 5.511 1.83 36.775 1.83 36.775z" fill="#263238"/><path d="M129.624 169.36c2.352-.047 1.678-.067 4.03-.09 1.152-.012 8.721-.079 9.799.102.024.004.024.043 0 .047-1.078.176-8.647.113-9.799.102-2.356-.024-1.678-.043-4.03-.09-.043 0-.043-.067 0-.071zm8.848-36.191c.505-2.226 1.262-4.41 1.916-6.597 1.337-4.441 2.681-8.882 4.03-13.323a1406.968 1406.968 0 013.073-10.011c.345-1.094.733-2.18 1.043-3.281.125-.45.196-.204.035.368-.326 1.149-.647 2.301-.98 3.446-.663 2.269-1.333 4.539-2.003 6.809-1.337 4.515-2.689 9.023-4.041 13.534-.678 2.262-1.361 4.52-2.039 6.782-.325 1.081-.642 2.167-.835 3.28-.199 1.161-.207 2.337-.137 3.509.149 2.359.42 4.711.639 7.063.22 2.356.435 4.715.655 7.071.435 4.692.87 9.384 1.289 14.076.055.596.106 1.188.153 1.783.016.2-.286.185-.305-.007-.506-4.637-.898-9.294-1.333-13.939-.435-4.621-.866-9.247-1.298-13.868-.109-1.16-.231-2.324-.231-3.489a13.957 13.957 0 01.369-3.206z" fill="#37474F"/><path d="M139.749 96.453c.905 7.016 2.634 20.167 3.896 29.708 2.948-11.56 7.683-29.708 7.683-29.708h-11.579z" fill="#37474F"/><path d="M136.544 179.896c.749.243 22.146.047 22.958-.478.309-.196.462-3.312.541-7.087v-.117c.015-.777.031-1.58.035-2.391 0-.114 0-.224.004-.334.051-5.448-.345-11.1-.345-11.1l-13.986.09.392 10.999.016.435.078 2.277.008.235s-8.157 3.74-8.984 4.41c-.827.662-1.466 2.822-.717 3.061z" fill="#FFA982"/><path d="M136.544 179.896c.749.243 22.146.047 22.958-.478.309-.196.462-3.312.541-7.087v-.117c.015-.777.031-1.58.035-2.391 0-.114 0-.224.004-.334l-13.939-.011.016.435.078 2.277.008.235s-8.157 3.74-8.984 4.41c-.827.662-1.466 2.822-.717 3.061z" fill="#EBEBEB"/><path d="M136.544 179.896c.749.243 22.146.047 22.958-.478.309-.196.462-3.312.541-7.087v-.117l-13.806-.028.008.235s-8.157 3.74-8.984 4.41c-.827.666-1.466 2.826-.717 3.065z" fill="#42A9D1"/><path d="M136.779 179.065c3.606-.121 18.164-.274 21.739-.121.028 0 .028.019 0 .023-3.571.2-18.129.235-21.739.157-.074 0-.078-.055 0-.059zm7.923-6.828c1.415-.278 3.155-.074 4.249.925.043.039-.012.098-.059.086a20.279 20.279 0 00-4.182-.831c-.106-.007-.11-.16-.008-.18zm-1.02.627c1.415-.278 3.156-.078 4.249.925.043.04-.012.098-.059.087a20.148 20.148 0 00-4.182-.831c-.106-.008-.11-.161-.008-.181zm-1.02.627c1.415-.278 3.156-.078 4.249.926.044.039-.011.097-.058.086a20.17 20.17 0 00-4.183-.831c-.106-.008-.109-.161-.008-.181z" fill="#263238"/><path d="M138.527 96.453s.302 6.248 1.733 11.198c.113.408.239.812.372 1.2 0 0 1.489.541 3.763 1.936 0 0 .149 5.029.302 10.635.168 6.267.341 13.26.306 14.742-.13 5.546.693 36.054.693 36.054l15.409.062s-2.787-34.066-2.768-36.101c.032-3.265-.744-17.705-1.344-28.234-.368-6.487-.666-11.488-.666-11.488h-17.8v-.004z" fill="#263238"/><path d="M146.386 169.478c2.352-.04 1.677-.063 4.033-.075 1.153-.008 8.722-.039 9.796.141.023.004.023.043 0 .047-1.078.173-8.647.075-9.8.059-2.355-.031-1.677-.047-4.029-.11-.043.004-.043-.062 0-.062zm8.807-70.791c.282 8.596.584 17.192.968 25.784.384 8.624.906 17.239 1.627 25.839.404 4.806.784 11.563 1.301 16.357.004.031-.047.043-.051.012-1.121-8.526-1.748-19.07-2.297-27.65-.552-8.58-.925-17.172-1.219-25.764-.164-4.861-.29-9.721-.439-14.582 0-.07.106-.067.11.004zm-15.04 9.792c1.533.607 3.003 1.442 4.406 2.308.055.036.012.122-.047.09-1.485-.721-3.002-1.419-4.449-2.222-.113-.063-.027-.224.09-.176z" fill="#37474F"/><path d="M139.264 101.082c.133.717.305 1.427.462 2.136.145.667.251 1.349.427 2.011.173.639.443 1.227.937 1.686.263.243.553.458.831.682.149.121.314.235.471.356-.02-.094-.036-.192-.055-.29l-.141-.815c-.102-.604-.196-1.207-.29-1.815-.181-1.188-.349-2.391-.596-3.567-.012-.047.062-.067.074-.019.298 1.168.623 2.32.882 3.496.126.576.576 3.426.6 3.626.019.207.039.415.047.627.008.208.047.435 0 .639-.012.051-.075.043-.098.008l-.004.004c-.102-.181-.129-.42-.18-.62a8.519 8.519 0 01-.134-.615 17.944 17.944 0 00-.035-.228c-.282-.172-.541-.395-.803-.584-.283-.203-.573-.403-.839-.631-.514-.431-.831-.96-1.023-1.599-.2-.662-.259-1.364-.337-2.046-.091-.807-.157-1.623-.271-2.43-.004-.039.067-.059.075-.012z" fill="#37474F"/><path d="M144.367 78.16c-.693 2.7-3.457 8.87-8.09 13.958-1.791 1.963-15.977 4.04-17.474 3.61-1.047-.302-4.12-9.372-3.12-10.133 1.873-1.43 15.177.235 15.706-.11.804-.529 6.068-4.813 9.353-8.721 2.399-2.854 4.778-3.1 3.625 1.395z" fill="#FFA982"/><path d="M141.338 86.234l-8.577-2.52s6.833-7.072 9.427-8.585c2.921-1.7 3.152.165 2.36 3.277-.796 3.116-3.21 7.828-3.21 7.828z" fill="#42A9D1"/><path d="M134.416 82.546c.309.039 2.994.783 3.574.956.58.172 2.96.862 3.544 1.094.027.011.015.047-.012.043-.615-.114-3.014-.804-3.61-.968-.596-.165-3.234-.96-3.512-1.086-.024-.012-.008-.043.016-.04z" fill="#263238"/><path d="M138.03 85.258l3.308.972s2.414-4.708 3.21-7.82c.58-2.277.612-3.888-.553-3.923l-5.965 10.771z" fill="#263238"/><path d="M157.755 102.666l-22.241-.106c0 .435 4.825-24.86 7.15-27.893.497-.647 3.896-1.466 5.428-.04 6.727 6.26 9.663 28.321 9.663 28.039z" fill="#42A9D1"/><path opacity=".1" d="M140.483 81.597l2.842.196-.168 3.751-1.956.517-1.118-.885.4-3.58z" fill="#000"/><path d="M144.151 77.709c1.059.254 2.626-1.752 3.387-3.262.051-.102-.141-1.172-.314-2.477a27.206 27.206 0 01-.223-2.493c-.004-.168-5.068 1.411-5.068 1.411s.56 1.69.599 3.112c.004.118-.008.232-.023.338 0 .015-.004.035-.004.055-.082.635.513 3.041 1.646 3.316z" fill="#FFA982"/><path d="M142.509 74.334c0 .015-.004.035-.004.054.161.016.333.02.525.012 3.007-.168 3.673-3.959 3.795-4.915-.902.16-4.888 1.403-4.888 1.403s.56 1.694.599 3.112c0 .118-.007.228-.027.334z" fill="#263238"/><path d="M147.954 63.362c.432 1.846-.874 7.005-2.238 8.087-1.979 1.564-5.04 1.52-6.326-.816-1.247-2.265.572-8.96 2.081-9.924 2.219-1.42 5.845-.07 6.483 2.653z" fill="#FFA982"/><path d="M142.772 66.15c.008-.013.024.023.02.038-.098.345-.149.757.137.949.008.008.004.024-.008.02-.372-.15-.294-.694-.149-1.008z" fill="#263238"/><path d="M143.175 65.863c.569.098.337 1.23-.192 1.14-.521-.085-.286-1.218.192-1.14zm-2.293-.074c0-.016-.031.011-.035.023-.063.353-.192.749-.533.8-.012 0-.012.02 0 .02.4.027.564-.498.568-.843z" fill="#263238"/><path d="M140.643 65.358c-.556-.161-.835.964-.317 1.113.505.145.784-.98.317-1.114zm3.086.082c-.145-.07-.271-.16-.408-.247-.157-.094-.29-.157-.368-.33-.044-.094.011-.23.098-.282.199-.113.419-.047.611.063a.88.88 0 01.423.482c.09.216-.164.404-.356.314zm-3.407-.745c.16.008.313-.016.474-.023.18-.012.329 0 .478-.118.082-.063.098-.212.047-.294-.121-.196-.349-.24-.568-.235a.9.9 0 00-.604.223c-.172.15-.039.44.173.447zm2.207 4.782c-.102.067-.208.16-.337.145-.125-.016-.255-.098-.361-.164-.011-.008-.023.004-.019.015a.483.483 0 00.407.282c.165.004.271-.117.341-.254.008-.02-.015-.036-.031-.024z" fill="#263238"/><path d="M142.375 68.348a1.228 1.228 0 01-.909.369 1.507 1.507 0 01-.514-.098c-.023-.008-.047-.016-.074-.028-.039-.015-.055-.05-.055-.094v-.004c.004-.011.004-.023.012-.035v-.004l.008-.031c.047-.27.16-.678.16-.678-.109.027-.658.152-.623.011.31-1.156.659-2.438 1.211-3.523.016-.036.075-.016.063.023-.255 1.121-.706 2.191-.98 3.312.172-.027.459-.086.6-.055.035.02-.228.78-.239.906v.012c.443.152.811.086 1.317-.13.027-.004.051.024.023.047z" fill="#263238"/><path d="M141.223 68.544s.173.373.479.557a.673.673 0 00.384.106c.294-.016.356-.27.349-.502-.004-.188-.055-.365-.055-.365s-.494.298-1.157.204z" fill="#263238"/><path d="M141.698 69.1a.673.673 0 00.384.107c.294-.016.356-.27.348-.502-.305-.035-.646.11-.732.396z" fill="#FF98B9"/><path d="M140.366 62.277c.282-.408.596-.812.886-.843.29-.031.329.658.929.823.811.223 1.368-.45 2.536-.294 1.677.223 2.124 1.756 1.681 4.112-.396 2.105.831 2.563.831 2.563s1.717-4.468.725-6.267c-.991-1.8-3.841-3.09-6.15-2.039-.839.38-1.438 1.945-1.438 1.945z" fill="#263238"/><path d="M146.343 67.592s1.325-1.584 2.054-1.098c.729.486-.372 2.854-1.297 3.112-.929.255-1.18-.6-1.18-.6l.423-1.414z" fill="#FFA982"/><path d="M148.064 67.168c.015 0 .015.02.004.024-.651.2-1.035.756-1.321 1.34.207-.215.474-.321.768-.07.016.012-.004.04-.02.031-.254-.078-.443-.05-.635.141-.137.138-.235.314-.341.475-.035.055-.133.015-.106-.047.004-.004.004-.008.008-.016.051-.804.776-1.874 1.643-1.878z" fill="#263238"/><path d="M140.714 61.261c.51-.023 3.218.588 4.336 1.353 1.121.764 2.947 2.943 3.041 3.057.094.114 1.525-4.26-1.952-5.786-3.79-1.665-5.425 1.376-5.425 1.376z" fill="#42A9D1"/><path d="M147.919 65.444s-1.788-3.638-2.983-4.622c-1.196-.983-4.108-1.975-6.115-1.52-1.564.352 1.595 2.896 1.595 2.896s.196-.494.698-.588c.972-.18 2.626.427 3.539.945 1.145.647 3.266 2.889 3.266 2.889z" fill="#42A9D1"/><path opacity=".2" d="M147.919 65.444s-1.788-3.638-2.983-4.622c-1.196-.983-4.108-1.975-6.115-1.52-1.564.352 1.595 2.896 1.595 2.896s.196-.494.698-.588c.972-.18 2.626.427 3.539.945 1.145.647 3.266 2.889 3.266 2.889z" fill="#000"/><path d="M158.604 89.076h-17.541v19.426h17.541V89.076z" fill="#FFC727"/><path opacity=".1" d="M158.604 89.076h-17.541v19.426h17.541V89.076z" fill="#000"/><path d="M132.002 108.501h9.059V89.075h-9.059v19.426z" fill="#FFC727"/><path opacity=".32" d="M132.002 108.501h9.059V89.075h-9.059v19.426z" fill="#000"/><path d="M148.342 93.274h.651l.161-.325.223.325.302-.666.29.666h1.196l.133-.443.129.443h.243v-4.198h-3.328v4.198z" fill="#fff"/><path d="M132.628 107.162c.67-1.38 1.337-2.768 1.995-4.159l1.964-4.179 1.94-4.198a367.46 367.46 0 001.909-4.217c-.67 1.38-1.337 2.767-1.995 4.158l-1.964 4.179-1.94 4.198a549.89 549.89 0 00-1.909 4.218z" fill="#FFC727"/><path d="M132.628 90.413a452.219 452.219 0 001.909 4.217l1.94 4.198 1.964 4.179a512.199 512.199 0 001.995 4.159 438.56 438.56 0 00-1.909-4.218l-1.94-4.198-1.964-4.179a499.672 499.672 0 00-1.995-4.158z" fill="#FFC727"/><path d="M152.137 76.294c4.28 3.218 12.582 10.43 13.307 14.33.953 5.12-3.406 15.189-5.268 17.133-1.254 1.313-6.781-3.512-7.114-4.723-.329-1.211 4.155-9.356 4.194-10.293.039-.937-5.707-9.51-8.2-13.312-3.14-4.797-.541-5.864 3.081-3.135z" fill="#FFA982"/><path d="M150.863 103.728c.392-.455.156-.663-.886-.459-1.059.204-5.002 1.893-5.476.463-.478-1.435 5.147-3.736 6.91-3.94 1.764-.211 4.688.079 4.688.079-1.003.67-3.284 2.52-5.236 3.857z" fill="#FFA982"/><path d="M160.694 107.107c-1.772 2.955-6.907 4.817-10.741 4.891-.752.016-1.191-.356-1.191-.356-1.717.063-2.262-.729-2.262-.729-1.619-.431-2.062-1.317-2.062-1.317s-2.018.051-2.25-1.164c-.266-1.361 2.619-1.169 4.273-2.031 3.786-1.979 8.612-5.848 9.646-6.526l4.587 7.232z" fill="#FFA982"/><path d="M151.878 107.114c-1.125.561-2.214 1.141-3.41 1.545-1.313.443-2.65.651-4.002.897-.043.008-.035.067.008.067 2.524-.055 5.354-1.035 7.436-2.454.043-.039.023-.082-.032-.055zm1.525 2.109c-1.125.486-3.108 1.321-6.91 1.647-.012 0-.016.023 0 .023 2.496.118 4.746-.447 6.934-1.615.066-.035.051-.086-.024-.055zm.8 1.153c-1.944.748-3.265.976-5.433 1.258-.012 0-.012.023 0 .023 2.497-.058 3.398-.364 5.468-1.215.071-.035.039-.098-.035-.066z" fill="#263238"/><path d="M152.38 85.81l8.122-3.735s-7.785-6.005-10.572-7.126c-3.136-1.262-3.096.62-1.858 3.587 1.235 2.967 4.308 7.275 4.308 7.275z" fill="#42A9D1"/><path d="M158.695 81.158c-.302.086-2.85 1.211-3.398 1.466-.549.255-2.803 1.282-3.348 1.595-.023.016-.012.051.016.04.592-.204 2.865-1.231 3.43-1.482.564-.251 3.061-1.42 3.32-1.584.023-.015 0-.043-.02-.035z" fill="#263238"/><path d="M153.019 85.509a20.53 20.53 0 00-.639.259c-.6-1.098-1.317-2.14-1.964-3.207-.658-1.09-1.348-2.152-2.018-3.234-.012-.015-.036 0-.028.016.341.635.682 1.266 1.031 1.897-.059-.07-.114-.14-.172-.211-.204-.251-.412-.498-.608-.76-.016-.024-.051 0-.035.023.172.278.353.552.56.803.145.177.302.345.463.51.204.36.4.721.611 1.074.647 1.09 1.286 2.348 2.015 3.382 0 0 .553-.313.811-.501.04-.02.012-.063-.027-.051z" fill="#263238"/><path d="M130.382 97.66l-13.359 1.102-4.484-18.27 13.359-1.102 4.484 18.27z" fill="#37474F"/><path d="M122.707 80.754l-6.334.518-.494-2.019 6.334-.513.494 2.014z" fill="#A6A6A6"/><path d="M120.774 78.857l-.78.063-.227-.93-1.893.154.223.933-.776.062-.415-1.693 3.465-.282.403 1.693z" fill="#A6A6A6"/><path d="M110.584 88.798a1.46 1.46 0 001.129 1.324s-1.09.89-.78 2.02c.156.58 1.227.838 1.227.838s-.843.752-.506 1.736c.266.784 1.297.925 1.297.925s-.47 1.098.059 1.811c1.074 1.447 8.024-.125 8.518-2.932.231-1.305-1.447-.83-1.447-.83s2.246-1.267 1.96-2.71c-.286-1.442-2.43-.689-2.43-.689s2.164-1.246 1.717-2.712c-.467-1.525-2.481-.408-2.481-.408s1.309-1.4.709-2.438c-.992-1.721-3.975 1.391-5.582 1.376l-.631-2.38c-.008 0-2.892 3.806-2.759 5.069z" fill="#FFA982"/><path d="M113.104 95.689a.02.02 0 000 .039c2.41.039 5.076-.655 7.063-2.046.067-.047.02-.173-.063-.134-2.32 1.035-4.464 1.776-7 2.14zm-.98-2.689c-.027.004-.019.05.008.05 2.485.028 5.464-.838 7.565-2.712.071-.063.071-.196-.015-.125-1.49 1.136-5.272 2.473-7.558 2.787zm6.828-6.01c-2.085 1.717-4.511 2.596-7.137 3.136-.036.008-.02.055.007.055 1.357.087 2.991-.435 4.23-.948 1.188-.49 2.16-1.172 2.955-2.172.036-.035-.011-.106-.055-.07zm23.146-11.735c.074.396.18.78.325 1.152.137.373.298.737.498 1.074.2.334.427.659.717.89.145.11.302.196.467.224.133.02.329-.04.498-.106.701-.29 1.281-.863 1.799-1.45.129-.15.251-.306.376-.463.114-.16.235-.322.345-.486.11-.165.227-.33.333-.498.102-.172.212-.341.322-.51a9.347 9.347 0 01-1.176 2.117c-.494.643-1.082 1.258-1.874 1.588-.204.07-.4.152-.67.117a1.313 1.313 0 01-.604-.298c-.333-.282-.56-.639-.741-1.007-.36-.741-.592-1.537-.615-2.344z" fill="#263238"/></svg>