<svg width="331" height="295" fill="none" xmlns="http://www.w3.org/2000/svg"><path d="M256.166 98.44c0 21.628-6.975 41.626-18.807 57.877 0 0 0 .011-.011.011-17.905 24.579-46.901 40.563-79.633 40.563-54.373 0-98.44-44.079-98.44-98.44 0-32.558 15.8-61.416 40.158-79.344C115.753 7.102 135.912 0 157.726 0c2.695 0 5.378.104 8.027.324a97.71 97.71 0 0143.073 13.96 98.573 98.573 0 0126.289 23.306 99.423 99.423 0 016.142 8.732c9.438 15.117 14.909 32.987 14.909 52.118z" fill="#EBEBEB"/><path d="M178.973 144.913c-1.238 3.308.832 3.446.96 4.823.138 1.376 0 4.002-4.002 7.992-4.002 4.002-10.618 3.169-11.994 4.823-1.377 1.654-3.725 8.686-7.033 11.034-3.308 2.348-3.863.96-8.547 1.932-4.684.96-8.27 7.032-9.646 9.923-1.377 2.892.277 7.727-3.031 7.854-3.308.139-4.823-7.032-7.853-10.895-3.03-3.864-4.002-7.31-4.962-11.856-.96-4.545.555-14.064 0-17.789-.555-3.724-10.479-10.34-14.064-14.885-3.586-4.546-8.548-13.648-8.27-16.679.277-3.03 2.487-6.338 4.14-7.587 1.654-1.238.96-1.932 1.238-3.03.278-1.099 1.654-1.377 1.932-2.753.277-1.376-.833-5.517-2.209-6.2-1.377-.694-2.348 1.654-3.17 1.238-.832-.416-3.308-3.308-4.28-3.586-.96-.277-.693 1.793-2.07-.832-1.376-2.614-2.07-9.242-3.169-10.34-1.098-1.1-1.931 1.931-4.545 0-2.614-1.932-3.724-5.656-4.823-6.2-1.099-.555-2.614.139-3.748-2.07-1.133-2.21.995-6.2 0-5.795-.994.416-3.146 3.586-3.69.555-.554-3.03 2.754-13.231 2.21-18.748-.555-5.518 1.376-11.3 5.24-15.996 0 0 .554-3.03 1.098-4.962.555-1.932 12.41-9.647 13.787-11.856.578-.925.763-2.37.972-3.92C115.763 7.101 135.923 0 157.737 0c2.695 0 5.378.104 8.027.324.093.127.185.243.278.37 1.191 1.515 2.486 2.487 5.979 3.77 3.493 1.284 4.315 2.938 3.586 4.315-.74 1.376-1.932 1.654-3.308 1.746-1.376.093-2.672-.647-4.141.278-1.469.913-2.938 5.887-4.869 6.153-1.932.278-5.332-4.407-6.072-5.795-.741-1.376 1.654-4.325.532-5.702-1.134-1.376-3.1-1.099-6.223-1.376-3.123-.278-10.386.925-10.109 2.116.278 1.192 10.664-.185 10.942 2.21.277 2.394-7.622 6.43-9.01 6.072-1.377-.37-3.216-2.753-5.24-3.03-2.024-.278-3.678 1.376-4.95 1.56-1.272.186-2.776-1.375-4.707-1.005-1.932.37-2.395 2.024-3.401 2.671-1.006.648-3.4.648-3.678 2.117-.278 1.469 3.03 2.302 3.863 3.215.833.914-1.018 4.049-.185 4.685.833.648 5.98-3.863 7.264-4.962 1.284-1.099 2.382-5.887 5.147-5.795 2.752.093 3.678 4.777 4.591 5.24.914.462 2.938-1.1 5.98-.463 3.03.648 5.147 7.264 5.702 9.288.555 2.024 1.839 4.048.74 4.87-1.098.832-6.072-.556-6.708-1.84-.648-1.284 3.308-3.215 3.03-3.678-.277-.463-2.579-1.099-3.77-.382-1.191.717-1.747 2.221-3.031 2.591-1.283.37-4.684-3.493-5.609-2.394-.925 1.099.914 4.592 1.839 5.424.925.833 4.326 1.284 4.592 2.21.277.913-2.302 2.937-5.425 2.752-3.123-.185-5.702-2.579-6.893-1.561-1.192 1.006-.555 3.678-1.377 4.592-.832.913-5.332.277-7.541 2.66-2.209 2.394-3.215 5.98-5.424 7.992-2.209 2.024-3.216-.555-6.154 2.302-2.937 2.845-3.4 9.195-3.493 11.393-.092 2.209 0 3.955-.728 3.677-.74-.277-1.747-2.209-2.024-3.4-.278-1.191.647-3.215.647-3.955 0-.74-4.233-4.511-6.708-4.87-2.487-.37-4.684 1.654-6.523 3.123-1.84 1.469-5.147 1.191-6.338 2.394-1.192 1.191-2.117 11.763-1.192 14.25.925 2.486 2.117 2.486 5.055 1.191 2.937-1.284 1.283-3.77 3.03-3.215 1.746.555 2.66 2.394 2.66 3.863 0 1.469-3.493 4.962-3.03 5.98.462 1.017 3.493-.186 4.962.277 1.469.463 2.209 1.376 1.746 5.147-.462 3.77-.185 6.708 2.024 7.946 2.209 1.238 3.447-1.793 4.407-1.376.96.416 2.348 2.625 3.724 2.486 1.377-.138.694-1.376 3.308-2.209 2.614-.833 1.654-1.376 2.209-3.03.556-1.654 2.209-3.03 4.002-2.21 1.793.833.555 2.071.694 3.447.139 1.377 3.308 1.516 5.795 2.348 2.487.833 3.863 0 8.825 1.654s5.239 6.616 7.31 7.449c2.07.833 8.963-.555 13.925 3.03 4.962 3.586 3.586 10.202 6.073 12.133 2.486 1.932 11.716 4.546 15.302 5.24 3.585.694 4.14-1.793 7.032-1.099 2.891.694 4.545 1.515 5.517 5.517.775 3.504-10.005 10.884-11.242 14.192z" fill="#DBDBDB"/><path d="M104.892 74.405c.092.775 2.394 1.099 5.147 2.66 2.752 1.562 3.77 6.154 5.239 6.073 1.469-.093 1.006-2.21 1.562-2.753.555-.555 1.468-1.747 0-2.938-1.469-1.191-2.904-3.77-5.587-4.14-2.683-.37-3.146-1.47-4.337-1.377-1.203.093-2.209.914-2.024 2.475zm15.163 7.726c-.405 1.122 0 1.932 2.938 2.66 2.937.74 5.702-.74 4.777-1.33-.914-.6-2.302-.323-1.747-1.33.555-1.006.359-2.486-2.024-2.209-2.383.278-3.574 1.192-3.944 2.21zm10.294.313c-1.006.15-1.562 1.897-.555 2.995 1.006 1.1 1.006.914 2.209 0 1.191-.913 3.03-1.376 2.579-2.301-.463-.914-3.215-.845-4.233-.694zm8.003 3.759c.451-1.377 2.752-.023 3.77 1.445 1.006 1.47.555 3.586 0 5.147-.555 1.562-.913 3.4-2.209 2.66-1.284-.74.093-2.937-.092-4.233-.185-1.283-1.839-3.897-1.469-5.02zm39.614-76.684c-.485 1.156 1.747 1.561 3.031 2.302 1.284.74 2.301 1.19 3.03 0 .74-1.192-.277-2.58-1.284-2.846-1.006-.289-4.325-.566-4.777.544zm17.372 10.745c.845.89 2.302.74 3.308 2.024 1.006 1.284.648 3.493 1.932 4.14 1.284.648 2.209 0 2.301-.913.093-.914-1.839-3.216-1.654-3.678.186-.463 2.661.648 3.216 2.024.555 1.376-.555 3.308.74 3.678 1.284.37 1.006-1.284 1.562-1.654.555-.37 1.746-.185 1.654-1.284-.093-1.099-1.562-3.493-2.753-4.326-1.192-.832-2.117-1.746-4.141-2.209-2.024-.462-3.956-.092-4.962.74-1.018.822-1.723.914-1.203 1.458zm39.765 17.326c-.115.463-.277.798-.52.971-1.932 1.377-4.233-3.4-6.894-4.314-2.671-.925-3.863-4.325-4.406-3.585-.555.729-.37 1.746-1.192 2.938-.832 1.19-2.024.925-2.567 3.215-.555 2.302 2.567 6.523 1.839 7.911-.741 1.377-1.654.914-3.123.833-1.469-.092-1.191 1.191-3.123.648-1.932-.555-.278-2.938-3.308-5.795-3.03-2.845-4.048-3.4-3.4-4.684.647-1.284-.278-3.123 1.098-3.308 1.377-.185 2.487 1.839 3.401 2.394.914.555 2.116-1.099 2.209-2.58.093-1.468-3.215-3.492-4.407-4.637-1.191-1.145-1.284-5.298-.832-6.119.451-.82 1.839-.555 2.209-2.567.219-1.192-1.666-3.17-3.25-4.604a98.681 98.681 0 0126.266 23.283zm13.729 82.409c.277-2.938-1.192-3.123.277-8.547 1.469-5.425-1.561-11.22-2.66-12.41-1.099-1.192-3.493-.834-5.424.37-1.932 1.191-.556 2.116-1.839 2.567-1.284.463-2.568-.278-3.771-.185-1.191.092-2.302 3.123-4.869 3.03-2.568-.092-4.222-3.77-6.154-6.384-1.931-2.614-5.887-4.28-7.171-7.495-1.283-3.216 1.192-8.177.648-11.948-.555-3.77-3.03-2.938-3.493-5.054-.462-2.117.37-1.1 1.018-3.123.648-2.024-.74-3.123.555-6.616 1.284-3.493 3.586-5.24 3.031-6.801-.556-1.561-2.302-4.14-2.395-5.968-.092-1.828 1.747-1.747 5.24-4.326 3.493-2.568 4.407-2.383 7.078-1.469 2.672.914 4.326 1.377 5.887 1.654 1.562.278 3.679 4.326 4.326 4.14.648-.184.74-1.376 1.018-3.122.116-.74.613-1.434 1.145-1.978 9.45 15.117 14.909 32.975 14.909 52.117 0 21.629-6.974 41.627-18.807 57.877 9.357-14.319 11.173-33.391 11.451-36.329z" fill="#DBDBDB"/><path d="M98.53 42.297s.382-.115 1.1-.323" stroke="#C7C7C7" stroke-width=".75" stroke-miterlimit="10"/><path d="M101.884 41.349c15.88-4.175 84.444-19.038 127.135 22.67" stroke="#C7C7C7" stroke-width=".75" stroke-miterlimit="10" stroke-dasharray="2.03 2.03"/><path d="M229.853 64.851c.277.278.543.544.809.822m-109.693 36.109c-.058-.219-.069-.613-.058-1.145" stroke="#C7C7C7" stroke-width=".75" stroke-miterlimit="10"/><path d="M121.038 98.405c.648-9.912 2.695-37.96-20.634-54.812" stroke="#C7C7C7" stroke-width=".75" stroke-miterlimit="10" stroke-dasharray="1.93 1.93"/><path d="M99.49 42.945a27.86 27.86 0 00-.96-.648m23.513 56.143s.266-.301.799-.833" stroke="#C7C7C7" stroke-width=".75" stroke-miterlimit="10"/><path d="M124.519 95.976c9.473-8.906 45.802-38.458 103.83-30.627" stroke="#C7C7C7" stroke-width=".75" stroke-miterlimit="10" stroke-dasharray="2.03 2.03"/><path d="M229.528 65.5l1.145.173m-76.163 49.029s.07-.405.151-1.145" stroke="#C7C7C7" stroke-width=".75" stroke-miterlimit="10"/><path d="M154.857 111.301c.717-11.925-1.029-51.92-54.118-68.344" stroke="#C7C7C7" stroke-width=".75" stroke-miterlimit="10" stroke-dasharray="1.97 1.97"/><path d="M99.64 42.621c-.37-.115-.74-.22-1.11-.324m132.145 23.376s-.393.07-1.122.243" stroke="#C7C7C7" stroke-width=".75" stroke-miterlimit="10"/><path d="M227.286 66.483c-14.874 3.955-74.267 24.277-86.018 98.624" stroke="#C7C7C7" stroke-width=".75" stroke-miterlimit="10" stroke-dasharray="2.01 2.01"/><path d="M141.095 166.264l-.174 1.145" stroke="#C7C7C7" stroke-width=".75" stroke-miterlimit="10"/><path d="M120.968 101.782s30.038 29.436 19.952 65.627" stroke="#C7C7C7" stroke-width=".75" stroke-miterlimit="10" stroke-dasharray="2 2"/><path d="M101.634 24.83c-.407-4.051-3.17-8.071-8.064-8.071-4.877 0-7.656 4.035-8.049 8.07-.619 6.25 3.58 11.91 8.05 17.068 4.484-5.159 8.683-10.817 8.063-17.068zm-8.049 4.49c-2.43 0-4.41-1.988-4.41-4.43 0-2.442 1.98-4.43 4.41-4.43a4.428 4.428 0 014.425 4.43 4.438 4.438 0 01-4.425 4.43zm76.108 64.167c-.566-5.653-4.399-11.265-11.186-11.265-6.766 0-10.62 5.633-11.165 11.266-.858 8.724 4.965 16.622 11.165 23.822 6.221-7.2 12.044-15.098 11.186-23.823zm-11.186 6.269c-3.372 0-6.116-2.775-6.116-6.184 0-3.41 2.744-6.183 6.116-6.183 3.393 0 6.137 2.774 6.137 6.183 0 3.41-2.744 6.183-6.137 6.183z" fill="#E24949"/><path d="M126.092 90.679c-.312-3.088-2.428-6.154-6.176-6.154-3.736 0-5.864 3.077-6.165 6.154-.474 4.765 2.741 9.08 6.165 13.012 3.435-3.933 6.651-8.247 6.176-13.012zm-6.176 3.423a3.381 3.381 0 01-3.377-3.377 3.384 3.384 0 016.766 0 3.384 3.384 0 01-3.389 3.377z" fill="#A6A6A6"/><path d="M240.82 65.332c-.312-3.088-2.429-6.153-6.176-6.153-3.736 0-5.864 3.076-6.165 6.153-.474 4.765 2.741 9.08 6.165 13.012 3.435-3.932 6.65-8.247 6.176-13.012zm-6.165 3.424a3.381 3.381 0 01-3.377-3.378 3.384 3.384 0 016.766 0c0 1.862-1.527 3.378-3.389 3.378z" fill="#E24949"/><path d="M147.097 159.405c-.312-3.088-2.429-6.153-6.177-6.153-3.735 0-5.864 3.076-6.164 6.153-.475 4.765 2.741 9.079 6.164 13.012 3.436-3.933 6.651-8.258 6.177-13.012zm-6.177 3.424a3.382 3.382 0 01-3.377-3.378 3.384 3.384 0 016.766 0 3.384 3.384 0 01-3.389 3.378z" fill="#A6A6A6"/><path d="M64.793 121.454a.5.5 0 00-.76.19 33.563 33.563 0 00-1.149 2.831.503.503 0 00.946.336 33.02 33.02 0 011.113-2.749.501.501 0 00-.15-.608zm193.106-30.822a.5.5 0 00-.731.664 43.078 43.078 0 012.746 5.204.502.502 0 00.916-.409 44.432 44.432 0 00-2.811-5.322.422.422 0 00-.12-.137zm4.862 10.838a.495.495 0 00-.452-.08.499.499 0 00-.332.627 48.113 48.113 0 011.372 5.727.501.501 0 10.989-.174 49.784 49.784 0 00-1.4-5.846.53.53 0 00-.177-.254zm2.044 11.699a.503.503 0 00-.806.419 44.84 44.84 0 01-.102 5.881.503.503 0 001 .083 46.32 46.32 0 00.106-6.012.502.502 0 00-.198-.371zm-.993 11.827a.502.502 0 00-.793.291c-.42 1.9-.975 3.8-1.652 5.642a.5.5 0 00.298.644.498.498 0 00.644-.298 44.863 44.863 0 001.689-5.77.506.506 0 00-.186-.509zm-4.077 11.143a.501.501 0 00-.75.165 48.532 48.532 0 01-3.036 5.042.503.503 0 00.829.568 49.932 49.932 0 003.099-5.145.506.506 0 00-.142-.63zm-6.702 9.798a.506.506 0 00-.686.071 61.279 61.279 0 01-4.068 4.274.501.501 0 10.693.725 61.012 61.012 0 004.135-4.345.503.503 0 00-.054-.709l-.02-.016zm-8.581 8.229a.498.498 0 00-.618.008 79.723 79.723 0 01-4.745 3.529.502.502 0 00.568.825 82.01 82.01 0 004.807-3.571.505.505 0 00-.012-.791zm-9.745 6.825a.498.498 0 00-.589-.014 56.498 56.498 0 00-4.763 3.653.501.501 0 10.652.763 55.305 55.305 0 014.68-3.586.501.501 0 00.128-.697.462.462 0 00-.108-.119zm-9.024 7.731a.502.502 0 00-.672.057 52.42 52.42 0 00-3.34 3.946c-.169.221-.337.447-.504.67a.504.504 0 00.106.705.499.499 0 00.7-.105 51.319 51.319 0 013.768-4.528.506.506 0 00-.023-.711c-.009-.015-.022-.024-.035-.034zm-7.049 9.553a.503.503 0 00-.74.148 50.512 50.512 0 00-2.657 5.388.498.498 0 00.268.657.498.498 0 00.657-.268 49.467 49.467 0 012.604-5.282.496.496 0 00-.132-.643zm32.599 25.867a.505.505 0 00-.698.087.504.504 0 00.08.705 46.58 46.58 0 014.379 3.932.503.503 0 00.719-.702 47.284 47.284 0 00-4.475-4.018l-.005-.004zm-4.871-3.414a57.109 57.109 0 00-5.301-2.921.503.503 0 00-.438.904 57.08 57.08 0 015.168 2.844.498.498 0 00.69-.162.502.502 0 00-.119-.665zm13.124 11.941a.505.505 0 00-.595-.011.504.504 0 00-.116.702c1.191 1.668 2.175 3.369 2.927 5.057a.5.5 0 10.916-.409c-.777-1.747-1.796-3.508-3.027-5.231a.448.448 0 00-.105-.108zm-23.817-17.13a.485.485 0 00-.132-.073 62.065 62.065 0 00-5.729-1.779.498.498 0 00-.61.361.499.499 0 00.361.61 60.879 60.879 0 015.637 1.751.503.503 0 00.644-.299.51.51 0 00-.171-.571zm-11.51-2.968a.488.488 0 00-.227-.096 62.668 62.668 0 00-5.962-.642.501.501 0 10-.06 1.002c1.958.114 3.932.326 5.868.631a.502.502 0 00.381-.895zm39.976 30.932a.504.504 0 00-.372-.1.503.503 0 00-.43.563c.271 2.009.153 3.924-.338 5.693a.506.506 0 00.346.619.502.502 0 00.617-.348c.531-1.901.656-3.954.369-6.097a.495.495 0 00-.192-.33zm-50.113-34.286a.503.503 0 00-.788.262 51.183 51.183 0 00-1.323 5.862.502.502 0 00.993.163 50.636 50.636 0 011.299-5.745.512.512 0 00-.181-.542zm-1.728 2.65a.513.513 0 00-.321-.102 64.333 64.333 0 00-5.974.494.502.502 0 00.129.995 63.329 63.329 0 015.882-.487.499.499 0 00.284-.9zm48.654 42.701a.499.499 0 00-.679.068c-1.19 1.349-2.709 2.549-4.522 3.561a.501.501 0 00-.192.684.501.501 0 00.684.193c1.912-1.067 3.521-2.336 4.785-3.772a.504.504 0 00-.076-.734zm-48.863-33.633a.504.504 0 00-.807.378c-.093 2-.072 4.021.065 6.009a.502.502 0 101.003-.07 51.19 51.19 0 01-.065-5.89.504.504 0 00-.196-.427zm-11.577-7.548a.512.512 0 00-.415-.092 68.767 68.767 0 00-5.785 1.56.503.503 0 00.304.958 67.32 67.32 0 015.7-1.535.5.5 0 00.38-.599.495.495 0 00-.184-.292zm50.301 47.123a.498.498 0 00-.45-.083 30.893 30.893 0 01-5.728 1.171.505.505 0 00-.449.55c.03.276.276.476.55.449 1.942-.2 3.932-.608 5.916-1.208a.503.503 0 00.161-.879zm-37.893-27.724a.503.503 0 00-.801.493 48.006 48.006 0 001.498 5.824.502.502 0 10.957-.313 47.23 47.23 0 01-1.466-5.701.514.514 0 00-.188-.303zm-23.744-15.818a.507.507 0 00-.496-.065 76.894 76.894 0 00-5.444 2.49.502.502 0 00.453.896 75.117 75.117 0 015.374-2.457.503.503 0 00.113-.864zm27.449 27.098a.501.501 0 00-.756.616 39.35 39.35 0 003.032 5.203.502.502 0 10.825-.573 38.798 38.798 0 01-2.958-5.071.47.47 0 00-.143-.175zm22.426 17.596a.512.512 0 00-.244-.102 24.694 24.694 0 01-5.656-1.373.5.5 0 10-.35.939 25.796 25.796 0 005.885 1.43.5.5 0 00.365-.894zm-15.64-7.884a.503.503 0 00-.659.756 30.035 30.035 0 004.662 3.842.5.5 0 10.553-.837 28.76 28.76 0 01-4.504-3.713c-.018-.018-.034-.035-.052-.048zm-44.851-31.46a.499.499 0 00-.563-.031 90.295 90.295 0 00-5.02 3.253.503.503 0 00.573.824 86.216 86.216 0 014.962-3.215.497.497 0 00.172-.688.423.423 0 00-.124-.143zm-9.913 6.574a.5.5 0 00-.57-.027 63.696 63.696 0 01-5.145 2.888.502.502 0 00.448.897 64.57 64.57 0 005.225-2.934.505.505 0 00.042-.824zM62.151 129.991a.504.504 0 00-.8.31 43.47 43.47 0 00-.638 5.981.5.5 0 00.483.52.5.5 0 00.52-.484c.078-2.007.286-3.971.623-5.841a.495.495 0 00-.188-.486zm95.865 84.213a.498.498 0 00-.486-.069 55.333 55.333 0 01-5.608 1.809.5.5 0 00-.355.614c.07.265.346.427.612.357a57.682 57.682 0 005.708-1.843c.259-.1.387-.39.29-.647a.46.46 0 00-.161-.221zM61.65 141.852a.483.483 0 00-.343-.099.501.501 0 00-.462.54c.153 1.939.419 3.939.783 5.949a.502.502 0 10.988-.179 57.51 57.51 0 01-.77-5.849.507.507 0 00-.196-.362zm2.105 11.699a.496.496 0 00-.437-.084.498.498 0 00-.35.617 77.52 77.52 0 001.814 5.71.501.501 0 00.944-.339 76.923 76.923 0 01-1.79-5.634.504.504 0 00-.181-.27zm82.78 63.687a.505.505 0 00-.378-.097 53.751 53.751 0 01-5.864.554.502.502 0 00.037 1.002 53.97 53.97 0 005.974-.564.5.5 0 00.42-.571.488.488 0 00-.189-.324zm-78.762-52.486a.5.5 0 00-.763.599 92.188 92.188 0 002.598 5.392.501.501 0 10.89-.466 90.177 90.177 0 01-2.57-5.333.534.534 0 00-.155-.192zm66.894 52.95a.487.487 0 00-.27-.101 57.611 57.611 0 01-5.849-.714.5.5 0 00-.581.408.5.5 0 00.408.581c1.978.345 3.982.592 5.953.728a.504.504 0 00.339-.902zm-61.392-42.401a.5.5 0 00-.563-.031.504.504 0 00-.172.689 99.503 99.503 0 003.245 5.026.5.5 0 00.697.128.499.499 0 00.128-.696 99.646 99.646 0 01-3.21-4.976.474.474 0 00-.125-.14zm49.688 40.365a.545.545 0 00-.17-.086 65.032 65.032 0 01-5.611-1.844.501.501 0 10-.354.94 66.93 66.93 0 005.697 1.873.5.5 0 00.616-.348.492.492 0 00-.178-.535zM80.02 185.104a.502.502 0 00-.703.706 103.543 103.543 0 003.809 4.613.503.503 0 00.757-.66 106.006 106.006 0 01-3.775-4.567.412.412 0 00-.088-.092zm31.821 26.357a.586.586 0 00-.089-.055 76.578 76.578 0 01-5.227-2.766.502.502 0 00-.503.867 78.857 78.857 0 005.297 2.803.499.499 0 00.668-.235.496.496 0 00-.146-.614zm-23.975-17.409a.502.502 0 00-.66.752 96.085 96.085 0 004.335 4.126.503.503 0 00.709-.037.503.503 0 00-.037-.709 99.443 99.443 0 01-4.29-4.084c-.019-.018-.04-.034-.057-.048zm13.673 11.452l-.023-.018a87.638 87.638 0 01-4.775-3.497.501.501 0 10-.62.79 89.054 89.054 0 004.829 3.538.5.5 0 00.696-.132.498.498 0 00-.107-.681zm150.51-121.757a.5.5 0 00-.704.094.5.5 0 00.094.704c.698.532 1.42 1.198 2.149 1.983a.503.503 0 00.736-.685 18.712 18.712 0 00-2.275-2.096z" fill="#2E2E46"/><path d="M63.219 177.909l-.543 1.142-.637-1.099.543-1.143.637 1.1z" fill="#4F2E16"/><path d="M64.524 101.914l-6.435.36-20.847 1.219-8.794 17.275-1.473 2.85-.14.344-1.341 2.622-9.538 18.817 19.01-1.041 1.89-.116.353.022 3.07-.16 3.069-.16 20.487-1.124 9.414-18.707 1.349-2.74.139-.344 1.411-2.794 8.802-17.393-20.426 1.07z" fill="#FFDDA8"/><path d="M63.96 142.712l22.654 34.609-20.432 1.187-.117-.008-3.601.186-1.242.098-1.538.139-1.945.054-18.902 1.165-22.818-34.796 21.018-1.149 1.539-.139 1.18-.043 3.717-.179 20.488-1.124z" fill="#BC7C46"/><path d="M76.328 118.189l-.744 1.542-.597 1.08-.132.227-.195.282-1.403 2.677-9.414 18.707 22.654 34.609 9.468-18.644 1.613-3.194.543-1.143.799-1.479 8.856-17.33-22.709-34.671-8.739 17.337z" fill="#DDA866"/><path d="M84.725 168.024l-.132.227-2.632-3.99.14-.344 2.624 4.107z" fill="#4F2E16"/><path d="M83.225 163.811l-.023.351-1.117-.011.172 1.952-.18.048-.204-2.367 1.352.027zm2.975 1.363l-.133.227-2.687-4.052.195-.282 2.624 4.107z" fill="#4F2E16"/><path d="M84.645 160.899l.033.414-1.117-.012.171 1.953-.297.04-.087-2.359 1.297-.036zm2.207 3.258l-2.69 5.361c-.063.055-.125.11-.118-.007-.054-.063-.047-.18-.04-.297l2.691-5.362c.062-.054.125-.109.117.008.055.062.103.242.04.297z" fill="#4F2E16"/><path d="M87.544 165.317l-2.683 5.245c-.271.571-.802.597-1.125.106l-3.221-4.91c-.322-.491-.38-1.436-.054-1.945l2.683-5.244c.271-.572.802-.597 1.124-.106l3.222 4.909c.322.491.326 1.374.054 1.945zM80.625 164c-.201.399-.183 1.047.091 1.359l3.222 4.909c.212.367.626.334.828-.065l2.683-5.244c.202-.4.184-1.048-.09-1.359l-3.222-4.91c-.213-.366-.627-.334-.828.066L80.625 164zm11.618-7.92l-2.753 5.417c-.27.571-.802.597-1.18.044l-3.33-5.035c-.378-.553-.38-1.436-.11-2.007l2.753-5.417c.272-.571.803-.596 1.18-.043l3.331 5.034c.377.553.38 1.436.11 2.007zm-7.153-1.332c-.202.399-.184 1.048.084 1.476l3.331 5.035c.213.366.626.333.828-.066l2.753-5.417c.201-.399.183-1.047-.084-1.476l-3.331-5.034c-.213-.366-.626-.334-.828.066l-2.753 5.416z" fill="#4F2E16"/><path d="M89.985 157.409c-.062.055-.125.11-.18.048l-2.42-3.624c-.055-.062-.047-.179-.04-.296.063-.055.125-.11.18-.048l2.42 3.624c.055.062.047.179.04.296z" fill="#4F2E16"/><path d="M90.324 156.666l-.674 1.369c-.063.055-.125.11-.18.048-.055-.062-.047-.179-.04-.297l.674-1.369c.063-.055.125-.11.18-.048.11.125.102.242.04.297zm-2.394-4.975l1.132 1.659c.267.429.333 1.257.069 1.711l-.598 1.08c-.209.517-.677.487-.945.059l-1.131-1.66.271-.571 1.18 1.839c.054.062.171.07.179-.048.062-.055.014-.234-.04-.296l-1.18-1.84 1.064-1.933z" fill="#4F2E16"/><path d="M37.564 103.985l-20.627 40.772 46.536-2.723 20.674-40.593-46.583 2.544z" fill="#F9C98A"/><path d="M85.34 101.163l.22.249-21.17 41.915-.156-.304 21.106-41.86zm-10.362 19.765l-.194.282-47.887 2.697.194-.282 47.887-2.697z" fill="#BC7C46"/><path d="M74.916 120.983l.377.554-.249.22-.268-.429.14-.345z" fill="#BC7C46"/><path d="M76.327 118.19l22.708 34.671-2.954 5.815-22.646-34.726 2.892-5.76z" fill="#9B7451"/><path d="M76.328 118.189l-1.349 2.739-.194.282-1.349 2.74-47.88 2.579 1.342-2.622.14-.345 1.473-2.849 47.817-2.524z" fill="#CAAF8F"/><path d="M43.472 143.836l22.709 34.671-.117-.007-6.381.422-22.702-34.788 6.491-.298z" fill="#9B7451"/><path d="M64.525 101.914l-21.052 41.922-3.07.16-.351-.022-2.718.182-.297.04 17.687-35.191 1.287-2.684 2.016-3.992 2.538-.135 1.656-.131 2.304-.149z" fill="#CAAF8F"/><path d="M92.09 115.473l-6.118 12.148-5.47-8.463 6.056-12.093 5.532 8.408z" fill="#E5E0DC"/><path d="M87.305 110.171l-4.971 9.808-.59-.92 4.971-9.807.59.919z" fill="#4F2E16"/><path d="M88.374 111.886l-4.853 9.815-.267-.429 4.908-9.752.212.366zm.755 1.106l-4.971 9.808-.267-.429 4.97-9.807.267.428zm.808 1.169l-4.97 9.808-.268-.429 4.97-9.807.268.428zm.691 1.162l-4.909 9.753-.267-.429 4.909-9.753.267.429z" fill="#B2AEAB"/></svg>