<svg width="104" height="138" fill="none" xmlns="http://www.w3.org/2000/svg"><path d="M61.107 130.241a.34.34 0 00.166-.645 29.228 29.228 0 01-3.476-1.911.337.337 0 10-.364.569 29.96 29.96 0 003.556 1.955c.038.02.079.029.118.032zm-6.756-4.299a.335.335 0 00.284-.123.337.337 0 00-.045-.476 32.323 32.323 0 01-2.896-2.716.338.338 0 10-.492.465c.92.977 1.917 1.91 2.955 2.773a.364.364 0 00.194.077zm-5.489-5.829a.339.339 0 00.298-.535 30.473 30.473 0 01-2.123-3.349.339.339 0 00-.594.324 31.112 31.112 0 002.17 3.424c.06.081.151.129.249.136zm-3.827-7.028a.338.338 0 00.339-.457 29.517 29.517 0 01-1.162-3.79.338.338 0 10-.659.155 30.29 30.29 0 001.189 3.875.34.34 0 00.293.217zM43.2 105.3h.06a.339.339 0 00.3-.371 32.767 32.767 0 01-.16-3.965.34.34 0 00-.332-.345.34.34 0 00-.345.333 33.704 33.704 0 00.163 4.046c.02.165.153.29.314.302zm.14-8.002a.341.341 0 00.36-.294 40.81 40.81 0 01.706-3.915.338.338 0 10-.66-.151 41.294 41.294 0 00-.716 3.98.34.34 0 00.293.379h.017zm1.78-7.815a.336.336 0 00.345-.234 53.734 53.734 0 011.363-3.746.337.337 0 10-.626-.254 55.433 55.433 0 00-1.382 3.793.34.34 0 00.3.441zm2.956-7.457c.142.01.281-.07.337-.21a38.22 38.22 0 001.327-3.823.337.337 0 00-.231-.42.337.337 0 00-.419.232 37.255 37.255 0 01-1.305 3.754.337.337 0 00.186.44c.036.016.07.025.105.028zm2.214-7.699a.339.339 0 00.357-.281 35.104 35.104 0 00.453-4.025.34.34 0 00-.315-.356h-.006a.335.335 0 00-.355.318 34.39 34.39 0 01-.443 3.946.341.341 0 00.277.392.07.07 0 00.032.006zm.426-7.992c.016 0 .031.002.046 0a.339.339 0 00.317-.358 34.188 34.188 0 00-.503-4.02.337.337 0 00-.394-.27.337.337 0 00-.27.395 33.3 33.3 0 01.492 3.94c.01.169.145.3.312.313zM22.77 63.859a.34.34 0 00.36-.308.34.34 0 00-.306-.367 31.356 31.356 0 01-3.923-.59.34.34 0 00-.145.662 31.941 31.941 0 004.014.602zm4.009.116c.01 0 .021.002.033 0a38.512 38.512 0 004.035-.321.339.339 0 10-.09-.672c-1.323.174-2.654.28-3.964.316a.339.339 0 00-.015.678zM14.96 62.12a.34.34 0 00.34-.215.34.34 0 00-.196-.439 19.74 19.74 0 01-3.523-1.761.338.338 0 00-.364.57 20.3 20.3 0 003.644 1.822c.032.014.064.02.1.023zm19.762.812a.32.32 0 00.102-.008 41.838 41.838 0 003.885-1.122.336.336 0 00.21-.43.336.336 0 00-.43-.21c-1.254.43-2.538.801-3.823 1.105a.338.338 0 00-.252.407.343.343 0 00.308.258zm7.581-2.597a.334.334 0 00.164-.03 42.194 42.194 0 003.595-1.85.338.338 0 10-.338-.586 40.89 40.89 0 01-3.538 1.821.338.338 0 00.117.645zM8.326 57.742a.342.342 0 00.246-.081.34.34 0 00.033-.477c-.897-1.03-1.54-2.153-1.92-3.33a.34.34 0 00-.425-.22.338.338 0 00-.218.424c.406 1.267 1.097 2.47 2.053 3.57a.33.33 0 00.23.114zm40.93.722a.339.339 0 00.346-.44 34.57 34.57 0 00-1.43-3.79.339.339 0 10-.619.275 34.252 34.252 0 011.4 3.717.344.344 0 00.302.238zm-.011-2.133a.342.342 0 00.218-.062 43.328 43.328 0 003.18-2.493.338.338 0 10-.44-.513 42.55 42.55 0 01-3.132 2.456.337.337 0 00.174.612zm-43.229-6a.337.337 0 00.358-.29c.17-1.201.58-2.44 1.225-3.682a.338.338 0 10-.602-.312c-.68 1.31-1.116 2.621-1.295 3.898a.34.34 0 00.288.382l.026.004zM46 51.148a.34.34 0 00.314-.512 35.633 35.633 0 00-2.264-3.36.339.339 0 10-.54.412 34.714 34.714 0 012.222 3.292c.058.1.162.16.268.168zm9.317-.044a.344.344 0 00.268-.102 46.418 46.418 0 002.679-3.023.34.34 0 00-.526-.427 45.758 45.758 0 01-2.64 2.979.337.337 0 00.007.477c.06.06.136.09.212.096zM9.522 43.225a.337.337 0 00.284-.12 20.794 20.794 0 012.791-2.784.34.34 0 00.049-.476.34.34 0 00-.476-.048c-1.02.832-1.99 1.8-2.883 2.873a.339.339 0 00.235.555zm31.616 1.558a.338.338 0 00.268-.574 32.24 32.24 0 00-3.003-2.724.338.338 0 00-.477.054.338.338 0 00.054.477c1.02.814 2.008 1.71 2.94 2.666.06.062.14.096.218.101zm19.234.102a.341.341 0 00.303-.148 52.07 52.07 0 002.142-3.42.339.339 0 00-.587-.337 50.7 50.7 0 01-2.115 3.377.339.339 0 00.257.528zm-25.503-5.079a.338.338 0 00.197-.628 26.578 26.578 0 00-3.636-1.804.338.338 0 10-.252.628 26.134 26.134 0 013.545 1.759.322.322 0 00.146.045zm-19.152-1.59a.353.353 0 00.176-.034 16.66 16.66 0 013.693-1.324.337.337 0 10-.15-.659 17.383 17.383 0 00-3.845 1.377.338.338 0 00.126.64zm11.73-1.362a.34.34 0 00.09-.67 20.306 20.306 0 00-4.05-.434.34.34 0 00-.338.337c0 .186.147.339.337.339a19.445 19.445 0 013.961.428zm36.918 1.082a.337.337 0 00.329-.191 61.331 61.331 0 001.62-3.693.339.339 0 00-.628-.252 58.036 58.036 0 01-1.602 3.65.336.336 0 00.159.451c.04.023.08.032.122.035zm3.144-7.378a.336.336 0 00.33-.195 42.862 42.862 0 011.827-3.535.338.338 0 00-.585-.339 43.51 43.51 0 00-1.854 3.59.34.34 0 00.282.48zm89.217 4.936a.34.34 0 00.335-.471 29.39 29.39 0 00-1.858-3.605.337.337 0 00-.465-.113.336.336 0 00-.113.465 28.606 28.606 0 011.815 3.52c.049.12.164.195.286.204zM71.523 23.627a.335.335 0 00.299-.141 37.376 37.376 0 012.487-3.099.34.34 0 00-.505-.451 38.718 38.718 0 00-2.53 3.155.339.339 0 00.076.471.31.31 0 00.173.065zm81.087 5.003a.339.339 0 00.29-.547 40.806 40.806 0 00-2.647-3.06.339.339 0 00-.49.468c.936.978 1.811 1.99 2.602 3.008a.34.34 0 00.245.13zm-5.524-5.807a.332.332 0 00.277-.114.335.335 0 00-.032-.477 52.25 52.25 0 00-3.138-2.543.338.338 0 00-.406.541 51.423 51.423 0 013.097 2.509c.06.052.13.079.202.084zM76.861 17.66a.339.339 0 00.25-.085 36.236 36.236 0 013.096-2.487.34.34 0 00.079-.471.34.34 0 00-.472-.08 36.457 36.457 0 00-3.154 2.534.338.338 0 00.202.59zm63.81.346a.338.338 0 00.207-.62 62.264 62.264 0 00-3.462-2.073.337.337 0 00-.46.132.337.337 0 00.132.46 61.271 61.271 0 013.424 2.05c.051.03.104.047.159.05zM83.371 13a.325.325 0 00.19-.044 38.889 38.889 0 013.558-1.767.337.337 0 00.176-.445.337.337 0 00-.445-.176 39.085 39.085 0 00-3.622 1.798.34.34 0 00.144.634zm50.29 1.107a.339.339 0 00.17-.643 66.987 66.987 0 00-3.691-1.626.337.337 0 10-.254.626c1.235.5 2.462 1.044 3.652 1.61a.32.32 0 00.123.033zM90.716 9.806a.371.371 0 00.128-.015 43.835 43.835 0 013.843-1.042.337.337 0 00.256-.405.337.337 0 00-.405-.256c-1.327.297-2.64.654-3.902 1.058a.338.338 0 00-.218.424.334.334 0 00.298.236zm35.512 1.283a.338.338 0 00.134-.658c-1.27-.43-2.567-.83-3.855-1.185a.339.339 0 10-.181.653 71.12 71.12 0 013.818 1.171c.028.01.056.017.084.02zm-27.69-3.04a.396.396 0 00.07-.002 51.463 51.463 0 013.969-.38.338.338 0 10-.038-.676 52.826 52.826 0 00-4.022.386.337.337 0 00-.289.38c.02.162.153.28.31.292zm19.955.911a.337.337 0 00.092-.667 64.446 64.446 0 00-3.971-.716.339.339 0 00-.101.669 66.98 66.98 0 013.93.709.384.384 0 00.05.005zm-11.946-1.377l.02.001c1.314.02 2.656.088 3.985.199a.338.338 0 10.056-.675 60.288 60.288 0 00-4.031-.201.338.338 0 00-.03.676zM66.955 131.948a.337.337 0 00.36-.314.337.337 0 00-.313-.361 11.645 11.645 0 01-1.946-.32.338.338 0 00-.409.249.34.34 0 00.25.41c.738.178 1.43.292 2.058.336z" fill="#2E2E46"/><path d="M80.662 37.37l-2.333 2.797-7.534 9.08 3.744 10.292.609 1.707.088.19.566 1.566 4.094 11.194 6.9-8.253.68-.826.145-.136 1.118-1.33 1.117-1.33 7.435-8.894-4.096-11.1-.612-1.614-.088-.19-.61-1.66-3.79-10.341-7.433 8.848z" fill="#FFDDA8"/><path d="M97.294 53.333l23.028 3.988-7.388 8.896-.048.045-1.312 1.559-.438.55-.536.69-.727.824-6.807 8.255-23.168-3.991 7.629-9.124.536-.69.437-.503 1.36-1.604 7.434-8.895z" fill="#BC7C46"/><path d="M91.934 38.77l.35.902.216.663.043.142.042.19.564 1.611 4.097 11.1 23.028 3.988-4.05-11.099-.697-1.897-.263-.665-.303-.9-3.743-10.34-23.074-3.989 3.79 10.294z" fill="#DDA866"/><path d="M71.123 49.302l8.886 24.24 16.818-20.27-8.794-24.189-16.91 20.22z" fill="#F9C98A"/><path d="M88.378 28.483l.187.005 9.15 24.904-.187-.052-9.15-24.857zm4.167 11.9l.042.19-17.35 20.817-.041-.19 17.35-20.817z" fill="#BC7C46"/><path d="M92.544 40.43l.375.058-.006.188-.28-.056-.089-.19z" fill="#BC7C46"/><path d="M91.934 38.77l23.075 3.99 1.263 3.462-23.074-4.036-1.264-3.416z" fill="#9B7451"/><path d="M91.934 38.77l.612 1.613.041.19.611 1.612-17.395 20.77-.565-1.566-.089-.19-.609-1.707L91.934 38.77z" fill="#CAAF8F"/><path d="M89.86 62.228l23.074 3.99-.048.045-2.286 2.798-23.12-4.037 2.38-2.796z" fill="#9B7451"/><path d="M80.662 37.37l9.197 24.858-1.117 1.329-.145.137-.972 1.192-.098.139-7.715-20.873-.612-1.567-.872-2.372.923-1.1.584-.734.827-1.01z" fill="#CAAF8F"/><path d="M96.89 31.213l2.658 7.21-5.604-1.004-2.66-7.163 5.606.957z" fill="#E5E0DC"/><path d="M92.855 31.145l2.134 5.835-.607-.111-2.134-5.835.607.111z" fill="#4F2E16"/><path d="M93.976 31.365l2.182 5.789-.28-.055-2.135-5.788.233.054zm.747.115l2.134 5.834-.28-.055-2.134-5.834.28.055zm.795.117l2.134 5.834-.28-.055-2.134-5.834.28.055zm.746.163l2.135 5.787-.28-.055-2.135-5.788.28.055z" fill="#B2AEAB"/></svg>