<svg width="270" height="184" fill="none" xmlns="http://www.w3.org/2000/svg"><path d="M241.459 88.89c0 19.025-6.946 36.615-18.73 50.909 0 0 0 .01-.011.01-17.831 21.619-46.709 35.679-79.307 35.679-54.15 0-98.035-38.772-98.035-86.588 0-28.638 15.734-54.021 39.992-69.79 16.253-10.56 36.33-16.807 58.055-16.807 2.684 0 5.356.092 7.994.285 15.619 1.11 30.202 5.453 42.895 12.28 10.068 5.402 18.937 12.36 26.183 20.5a88.626 88.626 0 016.116 7.68c9.399 13.297 14.848 29.015 14.848 45.842z" fill="#EBEBEB"/><path d="M164.583 129.768c-1.233 2.909.829 3.031.956 4.242.138 1.211 0 3.52-3.986 7.03-3.985 3.52-10.574 2.788-11.945 4.242-1.371 1.455-3.709 7.641-7.003 9.706-3.295 2.065-3.847.844-8.513 1.699-4.665.844-8.235 6.185-9.606 8.729-1.371 2.543.276 6.796-3.018 6.908-3.294.122-4.803-6.186-7.821-9.584-3.018-3.398-3.986-6.43-4.942-10.428-.956-3.998.553-12.371 0-15.647s-10.436-9.095-14.007-13.093c-3.57-3.998-8.512-12.005-8.235-14.67.276-2.666 2.476-5.575 4.123-6.674 1.647-1.089.956-1.699 1.233-2.666.276-.966 1.647-1.21 1.923-2.42.277-1.212-.829-4.854-2.2-5.454-1.37-.61-2.338 1.455-3.156 1.089-.83-.367-3.294-2.91-4.262-3.154-.956-.244-.69 1.577-2.062-.733-1.37-2.299-2.061-8.128-3.156-9.095-1.094-.966-1.923 1.7-4.527 0-2.603-1.699-3.709-4.975-4.803-5.453-1.094-.488-2.603.122-3.732-1.82-1.129-1.944.99-5.454 0-5.098-.99.366-3.133 3.154-3.674.488-.553-2.665 2.741-11.638 2.2-16.49-.553-4.854 1.37-9.94 5.218-14.07 0 0 .553-2.666 1.094-4.365.553-1.7 12.36-8.485 13.73-10.428.576-.814.76-2.086.968-3.449 16.253-10.56 36.33-16.807 58.054-16.807 2.684 0 5.356.092 7.994.285.092.112.184.214.277.326 1.186 1.332 2.476 2.187 5.955 3.316 3.478 1.13 4.296 2.584 3.571 3.795-.738 1.21-1.924 1.455-3.295 1.536-1.371.082-2.661-.57-4.124.244-1.462.804-2.925 5.179-4.849 5.413-1.923.244-5.31-3.876-6.047-5.097-.737-1.21 1.647-3.805.53-5.016-1.129-1.21-3.087-.966-6.197-1.21-3.11-.245-10.344.813-10.068 1.861.277 1.048 10.62-.162 10.897 1.943.276 2.106-7.591 5.657-8.973 5.342-1.371-.326-3.202-2.422-5.218-2.666-2.016-.244-3.663 1.21-4.93 1.373-1.267.163-2.765-1.21-4.688-.885-1.924.326-2.385 1.78-3.387 2.35-1.002.57-3.386.57-3.663 1.862-.276 1.292 3.018 2.025 3.848 2.829.829.803-1.014 3.56-.185 4.12.83.57 5.955-3.398 7.234-4.365 1.279-.966 2.373-5.178 5.126-5.097 2.741.082 3.663 4.202 4.573 4.609.91.407 2.926-.966 5.955-.407 3.018.57 5.126 6.39 5.679 8.17.553 1.78 1.831 3.56.737 4.282-1.094.733-6.047-.488-6.681-1.617-.645-1.13 3.294-2.828 3.018-3.235-.277-.407-2.569-.967-3.755-.336-1.187.63-1.74 1.953-3.018 2.279-1.279.325-4.665-3.072-5.587-2.106-.921.966.91 4.039 1.832 4.771.921.733 4.308 1.13 4.573 1.944.276.803-2.292 2.584-5.403 2.42-3.11-.162-5.678-2.268-6.865-1.373-1.186.886-.553 3.236-1.37 4.04-.83.803-5.311.243-7.511 2.34-2.2 2.105-3.202 5.259-5.402 7.03-2.2 1.78-3.202-.49-6.128 2.024-2.926 2.502-3.386 8.088-3.478 10.02-.093 1.944 0 3.48-.726 3.236-.737-.244-1.74-1.943-2.016-2.991s.645-2.828.645-3.48c0-.65-4.216-3.967-6.68-4.283-2.477-.325-4.666 1.455-6.497 2.747-1.832 1.292-5.126 1.048-6.313 2.106-1.186 1.048-2.108 10.347-1.186 12.534.921 2.187 2.108 2.187 5.034 1.048 2.925-1.13 1.278-3.317 3.018-2.828 1.739.488 2.649 2.106 2.649 3.397 0 1.293-3.479 4.365-3.018 5.26.46.895 3.479-.162 4.942.244 1.462.407 2.2 1.211 1.739 4.528-.46 3.316-.184 5.9 2.016 6.989 2.2 1.088 3.432-1.577 4.388-1.21.956.365 2.338 2.309 3.71 2.186 1.37-.122.69-1.21 3.294-1.943 2.603-.732 1.647-1.21 2.2-2.665.553-1.455 2.2-2.666 3.985-1.943 1.786.732.553 1.82.691 3.031.138 1.211 3.295 1.333 5.771 2.066 2.477.732 3.847 0 8.789 1.454 4.941 1.455 5.218 5.82 7.28 6.552 2.062.733 8.927-.488 13.868 2.666 4.942 3.154 3.571 8.973 6.048 10.672 2.476 1.699 11.668 3.998 15.239 4.608 3.571.611 4.124-1.576 7.003-.966 2.88.61 4.527 1.333 5.495 4.853.771 3.082-9.964 9.573-11.196 12.483z" fill="#DBDBDB"/><path d="M90.805 67.75c.092.681 2.385.966 5.126 2.34 2.742 1.373 3.755 5.412 5.218 5.34 1.463-.08 1.002-1.942 1.555-2.42.553-.489 1.463-1.537 0-2.585-1.463-1.047-2.891-3.316-5.563-3.642-2.673-.325-3.134-1.292-4.32-1.21-1.198.081-2.2.803-2.016 2.177zm15.101 6.796c-.403.986 0 1.699 2.926 2.34 2.926.65 5.678-.651 4.757-1.17-.91-.53-2.292-.285-1.739-1.17.553-.885.357-2.188-2.016-1.944-2.373.245-3.559 1.048-3.928 1.944zm10.252.274c-1.002.133-1.555 1.669-.553 2.635 1.002.967 1.002.804 2.2 0 1.186-.803 3.018-1.21 2.569-2.024-.461-.804-3.203-.743-4.216-.61zm7.97 3.307c.45-1.211 2.742-.02 3.755 1.271 1.003 1.292.553 3.154 0 4.528-.552 1.373-.91 2.99-2.2 2.34-1.278-.652.092-2.585-.092-3.724-.184-1.13-1.831-3.428-1.463-4.415zm39.452-67.451c-.483 1.017 1.74 1.373 3.018 2.025 1.279.65 2.292 1.047 3.018 0 .737-1.048-.276-2.27-1.278-2.503-1.003-.254-4.308-.499-4.758.478zm17.301 9.451c.841.784 2.292.652 3.295 1.78 1.002 1.13.645 3.073 1.923 3.643 1.279.57 2.2 0 2.292-.804.093-.803-1.831-2.828-1.647-3.235.185-.407 2.65.57 3.202 1.78.553 1.211-.552 2.91.738 3.236 1.278.325 1.002-1.13 1.555-1.455.553-.326 1.739-.163 1.647-1.13-.092-.966-1.555-3.072-2.742-3.804-1.186-.733-2.107-1.537-4.123-1.944-2.016-.406-3.94-.081-4.942.652-1.013.722-1.716.803-1.198 1.281zm39.602 15.24c-.115.407-.277.702-.518.855-1.924 1.21-4.216-2.991-6.866-3.795-2.66-.814-3.847-3.805-4.388-3.154-.553.641-.369 1.537-1.187 2.584-.829 1.048-2.015.814-2.557 2.829-.553 2.024 2.557 5.737 1.832 6.958-.738 1.211-1.648.804-3.11.733-1.463-.082-1.187 1.048-3.11.57-1.924-.489-.277-2.585-3.295-5.097-3.018-2.503-4.031-2.991-3.386-4.12.645-1.13-.277-2.747 1.094-2.91 1.371-.163 2.477 1.617 3.387 2.106.909.488 2.107-.967 2.2-2.27.092-1.291-3.203-3.072-4.389-4.079-1.186-1.007-1.279-4.66-.829-5.382.449-.722 1.831-.488 2.2-2.258.219-1.048-1.659-2.788-3.237-4.05 10.033 5.383 18.902 12.341 26.159 20.48zm13.672 72.487c.277-2.584-1.186-2.747.277-7.518 1.462-4.772-1.555-9.869-2.65-10.917-1.094-1.047-3.478-.732-5.402.326-1.924 1.048-.553 1.862-1.832 2.258-1.278.407-2.557-.244-3.755-.162-1.186.081-2.292 2.747-4.849 2.665-2.557-.081-4.204-3.316-6.128-5.616-1.924-2.299-5.863-3.764-7.142-6.592-1.278-2.828 1.187-7.193.645-10.51-.552-3.316-3.017-2.584-3.478-4.445-.461-1.862.368-.967 1.013-2.747.646-1.78-.737-2.747.553-5.82 1.279-3.072 3.571-4.608 3.018-5.981-.553-1.374-2.292-3.642-2.384-5.25-.092-1.607 1.739-1.536 5.218-3.805 3.479-2.258 4.389-2.096 7.049-1.292 2.661.804 4.308 1.21 5.863 1.455 1.555.244 3.663 3.805 4.308 3.642.645-.163.738-1.21 1.014-2.747.115-.65.611-1.261 1.14-1.74 9.411 13.297 14.848 29.005 14.848 45.842 0 19.025-6.946 36.615-18.729 50.909 9.318-12.595 11.127-29.371 11.403-31.955z" fill="#DBDBDB"/><path d="M84.47 39.508s.38-.102 1.094-.285" stroke="#C7C7C7" stroke-width=".75" stroke-miterlimit="10"/><path d="M87.81 38.674c15.816-3.674 84.1-16.746 126.614 19.94" stroke="#C7C7C7" stroke-width=".75" stroke-miterlimit="10" stroke-dasharray="2.03 2.03"/><path d="M215.254 59.346c.276.245.541.479.806.723M106.817 91.83c-.058-.193-.069-.539-.058-1.007" stroke="#C7C7C7" stroke-width=".75" stroke-miterlimit="10"/><path d="M106.886 88.86c.645-8.719 2.683-33.39-20.55-48.213" stroke="#C7C7C7" stroke-width=".75" stroke-miterlimit="10" stroke-dasharray="1.93 1.93"/><path d="M85.426 40.078a28.357 28.357 0 00-.956-.57m23.418 49.382s.265-.264.794-.732" stroke="#C7C7C7" stroke-width=".75" stroke-miterlimit="10"/><path d="M110.353 86.723c9.434-7.833 45.614-33.827 103.403-26.94" stroke="#C7C7C7" stroke-width=".75" stroke-miterlimit="10" stroke-dasharray="2.03 2.03"/><path d="M214.931 59.916l1.14.153m-75.85 43.125s.069-.356.15-1.007" stroke="#C7C7C7" stroke-width=".75" stroke-miterlimit="10"/><path d="M140.566 100.203c.714-10.489-1.025-45.669-53.896-60.115" stroke="#C7C7C7" stroke-width=".75" stroke-miterlimit="10" stroke-dasharray="1.97 1.97"/><path d="M85.576 39.793a40.822 40.822 0 00-1.106-.285m131.601 20.561s-.392.06-1.117.213" stroke="#C7C7C7" stroke-width=".75" stroke-miterlimit="10"/><path d="M212.696 60.78c-14.813 3.48-73.962 21.355-85.665 86.751" stroke="#C7C7C7" stroke-width=".75" stroke-miterlimit="10" stroke-dasharray="2.01 2.01"/><path d="M126.859 148.548l-.173 1.007" stroke="#C7C7C7" stroke-width=".75" stroke-miterlimit="10"/><path d="M106.816 91.83s29.914 25.892 19.87 57.725" stroke="#C7C7C7" stroke-width=".75" stroke-miterlimit="10" stroke-dasharray="2 2"/><path d="M87.56 24.143c-.405-3.563-3.157-7.099-8.03-7.099-4.858 0-7.625 3.55-8.016 7.1-.617 5.497 3.564 10.474 8.016 15.011 4.466-4.537 8.647-9.514 8.03-15.012zm-8.015 3.95c-2.421 0-4.392-1.748-4.392-3.896 0-2.149 1.97-3.897 4.392-3.897 2.436 0 4.406 1.748 4.406 3.896 0 2.149-1.985 3.897-4.406 3.897zm75.795 56.441c-.563-4.973-4.381-9.909-11.14-9.909-6.738 0-10.576 4.955-11.119 9.91-.855 7.673 4.944 14.62 11.119 20.954 6.196-6.333 11.995-13.28 11.14-20.955zm-11.14 5.514c-3.359 0-6.091-2.44-6.091-5.44 0-2.998 2.732-5.438 6.091-5.438 3.38 0 6.112 2.44 6.112 5.439s-2.732 5.439-6.112 5.439z" fill="#E24949"/><path d="M111.919 82.064c-.311-2.716-2.419-5.412-6.151-5.412-3.721 0-5.84 2.706-6.14 5.412-.472 4.191 2.73 7.986 6.14 11.445 3.421-3.459 6.623-7.254 6.151-11.445zm-6.151 3.011c-1.855 0-3.364-1.332-3.364-2.97 0-1.638 1.509-2.971 3.364-2.971 1.866 0 3.375 1.333 3.375 2.97 0 1.639-1.509 2.971-3.375 2.971z" fill="#A6A6A6"/><path d="M226.175 59.769c-.311-2.716-2.419-5.412-6.151-5.412-3.72 0-5.84 2.706-6.139 5.412-.472 4.192 2.73 7.986 6.139 11.445 3.421-3.459 6.624-7.253 6.151-11.445zm-6.139 3.011c-1.855 0-3.364-1.332-3.364-2.97 0-1.638 1.509-2.971 3.364-2.971 1.866 0 3.375 1.333 3.375 2.97 0 1.639-1.521 2.971-3.375 2.971z" fill="#E24949"/><path d="M132.837 142.515c-.311-2.716-2.419-5.412-6.151-5.412-3.721 0-5.84 2.706-6.14 5.412-.472 4.192 2.73 7.986 6.14 11.445 3.421-3.459 6.623-7.263 6.151-11.445zm-6.151 3.012c-1.855 0-3.363-1.333-3.363-2.971 0-1.638 1.508-2.971 3.363-2.971 1.866 0 3.375 1.333 3.375 2.971 0 1.638-1.509 2.971-3.375 2.971z" fill="#A6A6A6"/><path d="M225.59 153.666a.4.4 0 00.215-.036 73.884 73.884 0 003.682-1.901c.166-.092.214-.285.107-.428-.108-.144-.331-.186-.497-.094a71.982 71.982 0 01-3.645 1.882c-.171.083-.233.272-.136.421a.37.37 0 00.274.156zm7.184-3.973a.4.4 0 00.252-.057 69.251 69.251 0 003.385-2.273c.152-.109.172-.304.045-.436a.401.401 0 00-.506-.041 71.987 71.987 0 01-3.35 2.253c-.16.1-.194.294-.076.433a.387.387 0 00.25.121zm6.563-4.703a.4.4 0 00.289-.082 57.372 57.372 0 003.014-2.638.28.28 0 00-.023-.436.4.4 0 00-.507.017 58.295 58.295 0 01-2.977 2.608.28.28 0 00-.012.437.367.367 0 00.216.094zm5.757-5.428a.386.386 0 00.323-.116 45.833 45.833 0 002.511-3.009c.109-.142.062-.336-.104-.429-.167-.095-.389-.055-.496.087a45.768 45.768 0 01-2.478 2.968c-.122.134-.094.328.063.435a.41.41 0 00.181.064zm4.686-6.147a.38.38 0 00.357-.16 39.037 39.037 0 001.87-3.342c.079-.157-.007-.339-.19-.407-.182-.069-.392.004-.471.162a38.689 38.689 0 01-1.841 3.291c-.093.149-.029.339.147.421.04.018.085.03.128.035zm3.349-6.771c.166.017.328-.069.382-.211a35.4 35.4 0 001.116-3.589c.042-.167-.081-.332-.275-.37-.196-.037-.384.068-.427.235a34.71 34.71 0 01-1.099 3.533c-.061.162.043.338.232.391a.647.647 0 00.071.011zm1.816-7.196c.196.02.373-.101.397-.27l.044-.325c.144-1.116.232-2.254.266-3.383.005-.171-.151-.315-.351-.319-.198-.006-.362.128-.368.301a33.602 33.602 0 01-.261 3.329c-.014.107-.028.214-.044.321-.024.171.117.326.315.346h.002zm.215-7.371a.353.353 0 00.065 0c.198-.01.347-.158.334-.328a36.443 36.443 0 00-.484-3.698c-.032-.17-.216-.285-.413-.259-.197.027-.329.184-.298.355.223 1.207.385 2.432.478 3.642.013.153.15.271.318.288zm-30.157-3.05c.974.098 1.97.144 2.962.137.199-.002.357-.141.356-.312-.004-.172-.166-.309-.364-.309a26.65 26.65 0 01-4.197-.301c-.199-.03-.382.083-.415.252-.033.168.097.33.292.36.451.069.91.127 1.366.173zm-5.467-1.165c.159.016.314-.061.375-.194.072-.159-.019-.34-.205-.4a20.016 20.016 0 01-3.719-1.686.393.393 0 00-.498.081c-.112.141-.069.333.096.43a20.801 20.801 0 003.863 1.75.462.462 0 00.088.019zm12.64.951a.373.373 0 00.105-.004 29.44 29.44 0 004.177-.978c.187-.058.283-.235.212-.397-.068-.16-.274-.245-.461-.185a28.596 28.596 0 01-4.064.951c-.195.031-.323.193-.287.362.034.136.163.235.318.251zm-19.63-5.118a.394.394 0 00.275-.073.282.282 0 00.038-.437 11.958 11.958 0 01-2.23-3.034c-.08-.157-.292-.228-.474-.16-.181.068-.263.251-.183.408a12.656 12.656 0 002.345 3.191c.057.06.141.096.229.105zm27.631 2.625a.39.39 0 00.214-.037 29.848 29.848 0 003.604-2.051c.156-.106.186-.3.063-.435a.4.4 0 00-.504-.056 29.055 29.055 0 01-3.513 2.002c-.174.083-.234.272-.138.421.058.09.161.145.274.156zm13.643-1.533a.394.394 0 00.127-.008c.192-.041.309-.208.26-.374a38.517 38.517 0 00-1.231-3.57c-.066-.161-.269-.248-.459-.192-.186.055-.286.23-.221.394.463 1.155.87 2.338 1.215 3.518.038.126.164.217.309.232zm-6.904-2.941a.395.395 0 00.296-.091 31.577 31.577 0 002.809-2.82c.121-.137.087-.331-.07-.433a.397.397 0 00-.502.058 30.817 30.817 0 01-2.75 2.761.28.28 0 00.007.437.38.38 0 00.21.088zm-37.748-4.823a.336.336 0 00.077 0c.198-.017.341-.17.319-.338a10.941 10.941 0 01.017-2.723c.037-.288.086-.578.144-.866.034-.168-.097-.33-.292-.36-.197-.03-.381.083-.415.25-.062.302-.11.605-.149.907a11.423 11.423 0 00-.018 2.855c.018.146.153.258.317.275zm41.856.778a.41.41 0 00.185-.024c.181-.068.263-.251.181-.408a40.796 40.796 0 00-1.929-3.336c-.098-.15-.315-.205-.489-.122-.174.083-.235.27-.138.42a39.936 39.936 0 011.901 3.288c.054.104.167.17.289.182zm1.044-1.802a.375.375 0 00.348-.148 35.79 35.79 0 002.006-3.285c.083-.154.006-.34-.174-.412-.179-.072-.393-.007-.476.148a35.32 35.32 0 01-1.973 3.23c-.1.146-.043.337.128.424a.396.396 0 00.141.043zm-41.519-6.18c.154.016.308-.057.372-.188a24.507 24.507 0 011.9-3.245c.103-.146.046-.337-.123-.424-.17-.09-.391-.042-.492.103a25.403 25.403 0 00-1.947 3.327c-.077.157.01.339.195.406a.389.389 0 00.095.021zm36.309 1.518a.403.403 0 00.243-.05c.164-.096.205-.29.095-.431a39.84 39.84 0 00-2.605-2.982.4.4 0 00-.506-.04c-.152.109-.172.304-.044.436a39.2 39.2 0 012.562 2.933c.06.078.154.124.255.134zm8.829-2c.161.017.319-.064.376-.199.477-1.13.919-2.317 1.311-3.531.054-.164-.057-.336-.249-.383-.19-.047-.389.047-.443.213a42.363 42.363 0 01-1.296 3.484c-.067.16.029.34.215.398a.342.342 0 00.086.019zM214.99 83.57a.391.391 0 00.307-.1 15.842 15.842 0 013.148-2.353c.166-.094.211-.285.101-.428a.394.394 0 00-.497-.09 16.536 16.536 0 00-3.287 2.455c-.133.128-.12.322.028.437a.397.397 0 00.2.079zm26.364 2.099c.108.01.22-.02.299-.093a.28.28 0 00-.011-.437 33.992 33.992 0 00-3.3-2.428.397.397 0 00-.502.062c-.118.137-.085.331.074.434a33.279 33.279 0 013.229 2.376.414.414 0 00.211.086zm-6.878-4.389a.37.37 0 00.357-.163c.092-.152.025-.34-.152-.42a24.41 24.41 0 00-4.019-1.44c-.19-.049-.39.043-.447.207-.056.163.053.337.242.386a23.51 23.51 0 013.888 1.395.49.49 0 00.131.035zm-12.396-1.63a.46.46 0 00.137-.009 15.661 15.661 0 014.123-.4c.198.006.364-.126.37-.298.006-.171-.151-.315-.348-.321a16.426 16.426 0 00-4.341.422c-.191.046-.303.215-.25.382.045.123.169.21.309.224zm35.923 2.601c.182.019.352-.085.39-.242.286-1.18.539-2.406.753-3.648.029-.17-.107-.327-.302-.352-.198-.026-.378.09-.407.259a57.023 57.023 0 01-.743 3.612c-.041.167.083.332.279.368.007-.001.018.002.03.003zm1.259-7.292h.007c.199.019.373-.107.391-.276a71.4 71.4 0 00.306-3.697c.01-.17-.144-.318-.341-.326-.197-.01-.366.122-.376.292a69.156 69.156 0 01-.302 3.667c-.02.17.122.32.315.34zm.419-7.375c.014.001.025.003.039.002.198.002.361-.137.362-.308a62.282 62.282 0 00-.092-3.706c-.008-.172-.178-.304-.375-.297-.199.006-.351.151-.342.321.066 1.208.098 2.444.091 3.675-.002.162.137.295.317.313zm-.411-7.37a.336.336 0 00.077 0c.198-.016.342-.169.321-.338a58.352 58.352 0 00-.557-3.679c-.032-.168-.215-.285-.412-.259-.195.027-.33.185-.298.355.222 1.195.409 2.42.553 3.642.018.149.152.263.316.28zm-1.357-7.29a.475.475 0 00.118-.004c.193-.037.315-.201.273-.369a54.393 54.393 0 00-1.057-3.598c-.056-.165-.254-.261-.444-.214-.191.047-.301.217-.245.382.386 1.167.74 2.366 1.046 3.563.034.13.162.226.309.24zm-2.356-7.1a.4.4 0 00.161-.016c.186-.056.284-.233.218-.395a54.282 54.282 0 00-1.57-3.46c-.078-.157-.29-.23-.471-.165-.181.067-.265.25-.188.406a53.09 53.09 0 011.554 3.423c.044.117.162.193.296.207zm-3.379-6.791a.409.409 0 00.202-.03c.178-.077.246-.263.157-.417a55.588 55.588 0 00-2.075-3.26.393.393 0 00-.492-.11c-.17.087-.227.277-.125.424a54.338 54.338 0 012.051 3.224.373.373 0 00.282.169zm-4.365-6.363a.388.388 0 00.242-.052c.165-.097.206-.29.093-.432a60.335 60.335 0 00-2.543-3.003.4.4 0 00-.504-.055c-.156.105-.184.3-.061.434a59.616 59.616 0 012.518 2.971c.059.08.154.127.255.137zm-5.278-5.83c.099.01.2-.014.278-.074.147-.114.161-.31.028-.438a65.835 65.835 0 00-2.959-2.7.401.401 0 00-.508 0 .282.282 0 00.001.439 64.481 64.481 0 012.928 2.672.4.4 0 00.232.101zm-97.274-11.758a.4.4 0 00.26-.062 51.372 51.372 0 013.462-2.109c.166-.092.214-.284.107-.428a.397.397 0 00-.497-.094 51.12 51.12 0 00-3.51 2.138c-.156.105-.185.3-.063.434.059.07.149.112.241.121zm91.199 6.545a.389.389 0 00.31-.102c.131-.127.116-.324-.035-.438a71.684 71.684 0 00-3.318-2.373.397.397 0 00-.504.052c-.122.134-.093.328.063.435a70.234 70.234 0 013.284 2.35c.062.044.131.07.2.076zm-84.034-10.534a.403.403 0 00.21-.035 58.854 58.854 0 013.814-1.6c.181-.069.263-.251.181-.409-.081-.157-.293-.228-.475-.158a61.378 61.378 0 00-3.863 1.621c-.174.081-.24.268-.145.42.06.093.165.15.278.161zm77.28 5.983a.385.385 0 00.336-.132c.112-.14.071-.332-.093-.431a79.917 79.917 0 00-3.613-2.03c-.17-.089-.391-.042-.493.102-.103.147-.048.337.12.427a78.245 78.245 0 013.577 2.009.403.403 0 00.166.055zM160.232 8.12c.053.005.107 0 .16-.016a68.935 68.935 0 014.047-1.11c.191-.045.301-.217.246-.382-.056-.164-.254-.26-.444-.213a70.295 70.295 0 00-4.093 1.123c-.187.058-.283.235-.215.397a.362.362 0 00.299.2zm62.159 5.092a.373.373 0 00.357-.161c.094-.152.027-.34-.149-.42a85.561 85.561 0 00-3.848-1.672c-.179-.074-.393-.007-.476.148-.083.154-.006.339.173.411a83.855 83.855 0 013.812 1.657.358.358 0 00.131.037zm-53.94-7.09a.449.449 0 00.115-.005 80.753 80.753 0 014.184-.65c.196-.024.331-.181.299-.351-.029-.17-.212-.287-.409-.26a81.164 81.164 0 00-4.227.657c-.194.034-.317.199-.274.366.034.134.162.228.312.243zm46.186 3.939c.156.016.311-.06.372-.19.074-.158-.015-.34-.2-.404a89.288 89.288 0 00-4.029-1.313c-.186-.057-.391.03-.456.192-.066.162.036.337.224.395 1.341.402 2.685.84 3.993 1.3.032.01.063.017.096.02zm-37.736-5.025a.481.481 0 00.074.002c1.4-.107 2.828-.183 4.25-.221.199-.006.352-.148.344-.32-.008-.171-.173-.304-.372-.298a86.481 86.481 0 00-4.29.222c-.197.015-.343.165-.323.336.016.146.153.263.317.28zm29.644 2.594c.17.017.336-.075.385-.22.054-.164-.057-.336-.247-.386a92.64 92.64 0 00-4.16-.945c-.191-.04-.386.064-.431.23-.045.167.076.334.269.373a94.14 94.14 0 014.124.938.278.278 0 00.06.01zM185.451 4.8a93.355 93.355 0 014.29.186c.197.013.37-.115.385-.286.015-.172-.134-.317-.333-.333a92.15 92.15 0 00-4.293-.184c-.198-.004-.362.13-.366.303-.006.158.132.295.317.313zm12.76 1.131c.187.019.36-.09.394-.252.036-.167-.095-.33-.291-.361a95.57 95.57 0 00-4.248-.572h-.005c-.196-.02-.372.099-.396.268-.024.17.114.325.312.347 1.401.157 2.819.347 4.211.568l.023.002zM47.297 56.962a.197.197 0 00.002-.057c-.01-.145-.15-.253-.312-.243-.59.032-1.19.09-1.784.172-.16.021-.271.155-.247.297.025.141.177.24.337.217a21.735 21.735 0 011.731-.167c.14-.008.251-.101.273-.219zm69.723 80.619c.019-.104-.035-.211-.145-.267-.141-.071-.322-.028-.402.096a22.438 22.438 0 01-1.926 2.535c-.1.113-.076.277.053.365a.32.32 0 00.413-.048 23.13 23.13 0 001.97-2.592.229.229 0 00.037-.089zm-4.251 4.887a.243.243 0 00-.084-.227.322.322 0 00-.417.003 27.288 27.288 0 01-2.58 2.036c-.127.089-.149.252-.048.365a.32.32 0 00.414.043 28.28 28.28 0 002.633-2.077.263.263 0 00.082-.143zm-5.48 3.811a.237.237 0 00-.038-.175.318.318 0 00-.404-.09c-.991.526-2.022.998-3.069 1.4-.149.058-.218.211-.153.343.065.132.239.192.388.135a28.728 28.728 0 003.139-1.431.263.263 0 00.137-.182zm-6.393 2.456a.268.268 0 00-.007-.112c-.044-.138-.207-.218-.365-.179-1.1.276-2.236.49-3.378.634-.161.019-.274.153-.25.295.023.142.172.242.334.22a29.357 29.357 0 003.454-.648.277.277 0 00.212-.21zm-6.898.879l.004-.045c-.003-.144-.136-.26-.298-.257a32.461 32.461 0 01-3.453-.146c-.161-.016-.305.086-.325.231-.018.142.099.271.262.287 1.182.112 2.367.164 3.523.15.145-.004.264-.097.287-.22zm-6.934-.651c.024-.134-.075-.266-.228-.296a39.848 39.848 0 01-3.343-.806c-.156-.044-.321.029-.371.167-.05.136.033.284.19.328 1.136.327 2.28.602 3.398.819.158.031.317-.057.352-.199l.002-.013zm-6.645-1.895c.02-.116-.048-.233-.177-.28a50.076 50.076 0 01-3.146-1.299c-.144-.067-.323-.015-.396.112-.074.129-.017.285.127.35 1.064.482 2.136.924 3.186 1.317.15.055.323-.006.387-.14a.312.312 0 00.019-.06zm-6.244-2.772c.02-.108-.04-.22-.157-.273a36.04 36.04 0 00-3.216-1.277c-.152-.052-.322.015-.381.149-.059.135.016.285.168.337 1.062.362 2.124.784 3.159 1.255.144.067.322.015.395-.112a.234.234 0 00.032-.079zm-6.511-2.22c.023-.131-.07-.258-.217-.293a34.329 34.329 0 00-3.458-.62c-.16-.021-.309.077-.334.217v.005c-.025.143.088.274.249.294a33.268 33.268 0 013.39.607c.158.036.32-.047.362-.186.005-.007.006-.016.008-.024zm-6.904-.87a.207.207 0 00.005-.035c.004-.144-.126-.262-.288-.266a33.2 33.2 0 00-3.526.112c-.162.012-.282.14-.265.284.014.143.159.248.322.234a32.948 32.948 0 013.456-.11c.148.004.273-.091.296-.219zm-4.298 21.253c.026-.139-.081-.272-.239-.297-.16-.025-.313.069-.342.21a21.818 21.818 0 01-.814 2.967c-.048.138.038.282.194.327.156.042.32-.034.37-.171.342-.966.62-1.985.83-3.033l.001-.003zm.41-3.065c.001-.008.003-.016.002-.025a26.05 26.05 0 00.032-3.114c-.007-.144-.145-.256-.308-.25-.163.006-.288.126-.282.272.05 1.026.039 2.054-.031 3.06-.01.143.113.268.276.276.154.008.287-.088.31-.219zm-2.52 8.932c.02-.109-.043-.222-.16-.274-.147-.063-.324-.01-.396.119a14.999 14.999 0 01-1.8 2.581c-.099.114-.075.277.054.365a.32.32 0 00.413-.047 15.42 15.42 0 001.862-2.669.223.223 0 00.027-.075zm2.225-15.092a.217.217 0 000-.078 28.93 28.93 0 00-.675-3.055c-.038-.139-.198-.225-.356-.189-.159.033-.256.175-.215.315.275.99.5 2 .664 3.005.023.143.173.24.334.22.13-.019.228-.109.248-.218zm-1.671-5.987a.23.23 0 00-.014-.128 30.572 30.572 0 00-1.328-2.881c-.07-.13-.244-.187-.392-.126-.147.06-.212.215-.143.345.486.923.926 1.877 1.308 2.836.054.135.223.206.376.158a.27.27 0 00.193-.204zm-4.862 25.868a.241.241 0 00-.052-.195.323.323 0 00-.411-.058 8.84 8.84 0 01-3.038 1.246c-.158.032-.258.171-.224.311.037.139.194.228.352.196a9.458 9.458 0 003.256-1.331.256.256 0 00.117-.169zm3.773-31.324a.203.203 0 00-.004-.096c-.034-.14-.192-.229-.351-.199a33.16 33.16 0 00-3.4.838c-.154.046-.235.195-.183.331.052.137.22.209.375.162a33.256 33.256 0 013.333-.82.28.28 0 00.23-.216zm-1.852-.137a.236.236 0 00-.036-.171 33.198 33.198 0 00-1.92-2.607.32.32 0 00-.41-.06c-.133.083-.163.246-.068.363.674.829 1.31 1.692 1.89 2.567.081.124.263.167.403.093a.264.264 0 00.141-.185zm-8.53 32.727c.023-.134-.075-.264-.225-.293-1.03-.212-2.073-.611-3.1-1.19a.319.319 0 00-.408.081c-.088.122-.048.282.09.36 1.085.61 2.19 1.033 3.283 1.257.158.033.317-.056.354-.195l.005-.02zm3.783-30.592a.23.23 0 00-.027-.153c-.07-.129-.246-.185-.394-.122-1.06.449-2.099.956-3.089 1.508-.137.077-.18.236-.092.359a.319.319 0 00.407.082 31.343 31.343 0 013.028-1.479.267.267 0 00.167-.195zm.678-7.144a.243.243 0 00-.067-.212 38.282 38.282 0 00-2.418-2.259.324.324 0 00-.418.006.24.24 0 00.007.368 37.504 37.504 0 012.382 2.227.322.322 0 00.415.026.253.253 0 00.1-.156zm-10.358 34.567a.241.241 0 00-.083-.226 16.637 16.637 0 01-2.201-2.329.322.322 0 00-.41-.069c-.134.081-.169.243-.078.361a17.072 17.072 0 002.272 2.405.323.323 0 00.416-.001.246.246 0 00.084-.141zm3.782-24.128a.236.236 0 00-.063-.206.322.322 0 00-.415-.038 27.072 27.072 0 00-2.594 2.117.24.24 0 00.01.369c.117.1.305.095.418-.009a26.67 26.67 0 012.54-2.072.26.26 0 00.104-.161zm1.567-14.736a.246.246 0 00-.104-.242 44.745 44.745 0 00-2.804-1.874.32.32 0 00-.41.064c-.093.118-.06.281.073.363a44.03 44.03 0 012.767 1.85.322.322 0 00.416-.037.232.232 0 00.062-.124zm-6.368 19.203a.25.25 0 00-.118-.253.322.322 0 00-.411.059 20.261 20.261 0 00-1.846 2.665c-.073.128-.017.285.13.35.144.065.322.015.396-.114a19.826 19.826 0 011.799-2.598.236.236 0 00.05-.109zm-2.853 14.572a.242.242 0 00-.016-.137 11.636 11.636 0 01-.865-2.921c-.022-.143-.17-.242-.331-.222-.162.02-.274.15-.252.293a12.14 12.14 0 00.9 3.04c.058.134.23.199.381.147a.264.264 0 00.183-.2zm-.28-9.083c.024-.127-.062-.253-.205-.29-.156-.042-.32.037-.369.175a14.01 14.01 0 00-.688 3.074c-.015.143.105.27.267.283.161.012.305-.09.32-.236.102-.981.325-1.984.666-2.97.004-.013.008-.025.01-.036zm3.778-28.225c.019-.102-.033-.208-.14-.264a55.454 55.454 0 00-3.081-1.493c-.146-.065-.323-.013-.396.114-.074.128-.015.286.129.35 1.043.465 2.067.962 3.045 1.476.14.074.321.033.404-.091a.203.203 0 00.04-.092zm-6.16-2.91a.25.25 0 00-.145-.267 38.222 38.222 0 01-2.927-1.64.319.319 0 00-.41.063c-.093.118-.062.281.071.363a39.023 39.023 0 002.973 1.664c.14.071.32.028.402-.096a.23.23 0 00.035-.087zm11.142-68.05a.245.245 0 00-.01-.121c-.051-.137-.219-.212-.373-.167a27.55 27.55 0 00-3.27 1.18c-.147.062-.208.218-.135.348.071.129.248.183.395.118a26.886 26.886 0 013.194-1.152.269.269 0 00.2-.205zm-16.85 64.502a.242.242 0 00-.1-.238 31.185 31.185 0 01-2.497-2.117.322.322 0 00-.416-.011.24.24 0 00-.014.367 32.33 32.33 0 002.543 2.154.322.322 0 00.415-.027.227.227 0 00.07-.128zm10.577-61.812a.23.23 0 00-.044-.182c-.088-.121-.271-.155-.408-.078a35.63 35.63 0 00-2.86 1.821.24.24 0 00-.046.366c.101.113.287.13.414.042a33.998 33.998 0 012.811-1.79.262.262 0 00.133-.18zm-5.464 3.839a.238.238 0 00-.078-.22.32.32 0 00-.417-.008c-.83.7-1.653 1.45-2.447 2.233a.24.24 0 00.022.367.322.322 0 00.416-.02 42.621 42.621 0 012.415-2.203.253.253 0 00.089-.15zm-9.88 53.476a.237.237 0 00-.054-.196 27.861 27.861 0 01-1.92-2.543c-.084-.124-.263-.164-.403-.092-.14.074-.187.232-.105.356a28.18 28.18 0 001.955 2.59.322.322 0 00.413.051.251.251 0 00.115-.166zm5.206-48.885a.246.246 0 00-.109-.247.32.32 0 00-.413.045 48.621 48.621 0 00-2.065 2.513c-.09.12-.056.282.08.362.135.08.318.05.409-.07a47.619 47.619 0 012.043-2.486.262.262 0 00.055-.117zm-8.75 43.578a.22.22 0 00-.024-.147 27.92 27.92 0 01-1.26-2.848c-.05-.136-.218-.211-.372-.165-.155.045-.24.193-.187.33.372.988.803 1.964 1.281 2.898.067.13.242.189.391.13a.27.27 0 00.17-.198zm4.828-38.47a.25.25 0 00-.141-.265c-.141-.073-.322-.032-.404.09a49.953 49.953 0 00-1.695 2.72c-.076.128-.017.284.127.349.144.066.323.015.396-.113a50.208 50.208 0 011.679-2.69c.02-.03.032-.06.038-.092zm-7.035 32.624a.252.252 0 00-.004-.099c-.25-.98-.456-1.994-.608-3.016-.021-.142-.17-.243-.332-.224-.161.018-.276.15-.253.293.155 1.038.364 2.068.617 3.063.037.14.194.228.352.196a.272.272 0 00.228-.213zm3.844-27.132c.02-.115-.047-.232-.173-.28-.15-.058-.324.002-.388.132a50.52 50.52 0 00-1.325 2.875c-.057.135.02.285.172.335.153.05.323-.017.38-.152.404-.954.845-1.91 1.31-2.847a.205.205 0 00.024-.063zm-4.768 21.017a.266.266 0 00.004-.053 34.966 34.966 0 01-.025-3.069c.005-.144-.122-.263-.285-.268-.163-.004-.3.11-.304.252a35.936 35.936 0 00.026 3.109c.007.144.146.255.308.247.141-.004.255-.098.276-.218zm2.326-15.233c.022-.126-.063-.25-.204-.289-.157-.042-.32.035-.369.173a45.237 45.237 0 00-.926 2.995c-.04.14.059.28.216.315.158.034.318-.052.357-.192a46.91 46.91 0 01.917-2.964.273.273 0 00.009-.038zm-2.114 9.063l.002-.015c.119-1.006.28-2.03.479-3.042.024-.146-.08-.276-.24-.3-.162-.025-.314.07-.341.212-.2 1.025-.365 2.06-.485 3.076-.016.144.101.271.262.285.158.016.298-.08.323-.216zm104.885 38.793c.026-.143-.083-.275-.245-.298-.161-.023-.311.073-.337.216-.081.45-.225.943-.428 1.469-.051.138.03.284.185.331.154.046.321-.026.375-.163a8.825 8.825 0 00.45-1.555z" fill="#2E2E46"/></svg>