<svg width="131" height="149" fill="none" xmlns="http://www.w3.org/2000/svg"><path d="M110.051 75.327c0 16.044-5.174 30.878-13.95 42.933 0 0 0 .008-.01.008-13.28 18.232-34.79 30.089-59.07 30.089C-3.312 148.357-36 115.66-36 75.336c0-24.152 11.72-45.558 29.788-58.856C5.894 7.574 20.848 2.306 37.03 2.306c1.999 0 3.99.077 5.954.24a72.48 72.48 0 0131.95 10.356A73.116 73.116 0 0194.436 30.19a73.867 73.867 0 014.556 6.478c7.001 11.213 11.059 24.469 11.059 38.66z" fill="#EBEBEB"/><path d="M52.79 109.8c-.918 2.454.618 2.557.712 3.578.103 1.021 0 2.968-2.968 5.928-2.969 2.969-7.877 2.351-8.898 3.578-1.02 1.227-2.762 6.443-5.216 8.185-2.454 1.742-2.866.712-6.34 1.433-3.475.712-6.135 5.216-7.156 7.361-1.02 2.145.206 5.731-2.247 5.826-2.454.103-3.578-5.217-5.826-8.082-2.248-2.866-2.969-5.423-3.68-8.794-.713-3.372.411-10.433 0-13.196-.412-2.762-7.774-7.67-10.434-11.042-2.66-3.372-6.34-10.124-6.134-12.372.206-2.248 1.845-4.701 3.072-5.628 1.226-.918.712-1.433.918-2.248.206-.815 1.226-1.02 1.432-2.042.206-1.02-.617-4.092-1.638-4.598-1.021-.515-1.742 1.227-2.351.918-.618-.31-2.454-2.454-3.175-2.66-.712-.206-.514 1.33-1.535-.618-1.021-1.939-1.536-6.855-2.351-7.67-.815-.815-1.433 1.433-3.372 0-1.939-1.433-2.763-4.195-3.578-4.598-.815-.412-1.939.102-2.78-1.536-.84-1.639.738-4.599 0-4.299-.737.31-2.333 2.66-2.736.412-.412-2.248 2.042-9.815 1.638-13.907-.411-4.093 1.021-8.383 3.887-11.866 0 0 .412-2.248.815-3.68.412-1.433 9.206-7.156 10.227-8.795.429-.686.566-1.759.72-2.908C5.903 7.574 20.857 2.306 37.039 2.306c1.999 0 3.99.077 5.954.24.069.095.137.18.206.275.884 1.124 1.845 1.845 4.436 2.797 2.59.952 3.2 2.18 2.66 3.2-.55 1.021-1.433 1.227-2.454 1.296-1.021.068-1.982-.48-3.072.206-1.09.677-2.18 4.367-3.612 4.564-1.433.206-3.955-3.269-4.504-4.298-.55-1.021 1.227-3.21.394-4.23-.84-1.021-2.299-.815-4.615-1.021-2.317-.206-7.705.686-7.499 1.57.206.884 7.91-.137 8.116 1.639.206 1.776-5.654 4.77-6.683 4.504-1.021-.275-2.385-2.042-3.887-2.248-1.501-.206-2.728 1.021-3.672 1.158-.944.138-2.059-1.02-3.492-.746-1.432.274-1.776 1.501-2.522 1.982-.747.48-2.523.48-2.729 1.57-.205 1.09 2.248 1.707 2.866 2.385.618.678-.755 3.003-.137 3.475.618.48 4.435-2.866 5.388-3.68.952-.816 1.767-4.368 3.818-4.3 2.042.07 2.728 3.544 3.406 3.887.678.343 2.18-.815 4.436-.343 2.247.48 3.817 5.388 4.23 6.89.411 1.5 1.363 3.002.548 3.611-.815.618-4.504-.411-4.976-1.364-.48-.952 2.454-2.385 2.248-2.728-.206-.343-1.913-.815-2.797-.283-.884.532-1.295 1.647-2.248 1.922-.952.274-3.474-2.591-4.16-1.776-.687.815.677 3.406 1.363 4.024.687.617 3.21.952 3.406 1.638.206.678-1.707 2.18-4.023 2.042-2.317-.137-4.23-1.913-5.114-1.158-.884.746-.412 2.728-1.02 3.406-.619.678-3.956.206-5.595 1.973-1.639 1.776-2.385 4.436-4.024 5.929-1.638 1.501-2.385-.412-4.564 1.707-2.18 2.11-2.522 6.821-2.591 8.451-.069 1.639 0 2.934-.54 2.728-.55-.205-1.296-1.638-1.502-2.522-.206-.884.48-2.385.48-2.934 0-.55-3.14-3.346-4.976-3.612-1.844-.275-3.474 1.227-4.839 2.316-1.364 1.09-3.818.884-4.701 1.776-.884.884-1.57 8.726-.884 10.57.687 1.845 1.57 1.845 3.75.884 2.179-.952.952-2.797 2.247-2.385 1.296.412 1.974 1.776 1.974 2.866s-2.591 3.68-2.248 4.435c.343.755 2.59-.137 3.68.206 1.09.343 1.64 1.021 1.296 3.818-.343 2.797-.137 4.976 1.501 5.894 1.639.918 2.557-1.33 3.27-1.02.711.308 1.74 1.947 2.762 1.844 1.02-.103.515-1.021 2.454-1.639 1.939-.618 1.226-1.02 1.638-2.248.412-1.227 1.639-2.248 2.969-1.638 1.33.617.412 1.535.515 2.556.103 1.021 2.453 1.124 4.298 1.742 1.845.618 2.866 0 6.546 1.227s3.887 4.907 5.422 5.525c1.536.618 6.65-.412 10.33 2.248 3.681 2.66 2.66 7.567 4.505 9 1.844 1.433 8.69 3.372 11.35 3.887 2.66.514 3.072-1.33 5.217-.816 2.145.515 3.372 1.124 4.092 4.093.575 2.6-7.421 8.073-8.339 10.527z" fill="#DBDBDB"/><path d="M-2.163 57.499c.069.575 1.776.815 3.818 1.973 2.042 1.158 2.797 4.565 3.887 4.505 1.09-.07.746-1.64 1.158-2.042.412-.412 1.09-1.296 0-2.18-1.09-.883-2.153-2.797-4.144-3.071-1.99-.275-2.333-1.09-3.217-1.021-.892.069-1.639.678-1.502 1.836zM9.085 63.23c-.3.832 0 1.433 2.18 1.973 2.179.55 4.23-.549 3.543-.986-.678-.446-1.707-.24-1.296-.987.412-.746.266-1.844-1.501-1.639-1.768.206-2.651.884-2.926 1.64zm7.637.232c-.747.111-1.159 1.407-.412 2.222.746.815.746.678 1.639 0 .883-.678 2.247-1.021 1.913-1.707-.343-.678-2.385-.627-3.14-.515zm5.936 2.788c.335-1.02 2.042-.017 2.797 1.073.747 1.09.412 2.66 0 3.818s-.678 2.522-1.639 1.973c-.952-.55.069-2.18-.068-3.14-.138-.953-1.364-2.892-1.09-3.724zM52.044 9.367c-.36.858 1.295 1.159 2.248 1.708.952.549 1.707.883 2.247 0 .55-.884-.206-1.914-.952-2.11-.746-.215-3.209-.421-3.543.402zm12.886 7.971c.626.66 1.707.549 2.453 1.501.747.953.48 2.591 1.433 3.072.953.48 1.639 0 1.707-.678.07-.678-1.364-2.385-1.226-2.728.137-.343 1.973.48 2.385 1.501.412 1.021-.412 2.454.549 2.728.952.275.746-.952 1.158-1.227.412-.274 1.296-.137 1.227-.952-.069-.815-1.158-2.59-2.042-3.209-.884-.617-1.57-1.295-3.071-1.638-1.502-.344-2.935-.069-3.681.549-.755.609-1.278.678-.892 1.08zM94.427 30.19c-.085.343-.206.592-.386.72-1.432 1.022-3.14-2.522-5.113-3.2-1.982-.686-2.866-3.208-3.269-2.66-.412.541-.275 1.296-.884 2.18-.617.884-1.501.686-1.904 2.385-.412 1.707 1.904 4.839 1.364 5.869-.55 1.02-1.227.677-2.317.617-1.09-.068-.883.884-2.316.48-1.433-.411-.206-2.178-2.454-4.298-2.248-2.11-3.003-2.522-2.522-3.474.48-.953-.206-2.317.815-2.454 1.02-.137 1.844 1.364 2.522 1.776.678.412 1.57-.815 1.639-1.913.068-1.09-2.385-2.591-3.269-3.44-.884-.85-.952-3.93-.618-4.54.335-.609 1.364-.411 1.639-1.904.163-.884-1.236-2.35-2.411-3.415a73.208 73.208 0 0119.484 17.27zm10.183 61.13c.206-2.18-.884-2.317.206-6.34 1.09-4.024-1.158-8.323-1.973-9.207-.815-.883-2.591-.617-4.024.275-1.433.884-.412 1.57-1.364 1.905-.953.343-1.905-.206-2.797-.138-.884.07-1.707 2.317-3.612 2.248-1.905-.068-3.132-2.797-4.565-4.736-1.432-1.939-4.366-3.174-5.319-5.56-.952-2.384.884-6.065.48-8.862-.411-2.797-2.247-2.18-2.59-3.75-.344-1.57.274-.814.755-2.316.48-1.501-.55-2.316.411-4.907.953-2.591 2.66-3.887 2.248-5.045-.412-1.158-1.707-3.072-1.776-4.427-.068-1.356 1.296-1.296 3.887-3.209 2.59-1.905 3.269-1.767 5.25-1.09 1.982.678 3.21 1.021 4.368 1.227 1.158.206 2.728 3.21 3.208 3.072.48-.138.55-1.021.755-2.317.086-.549.455-1.063.85-1.467 7.009 11.214 11.059 24.46 11.059 38.66 0 16.044-5.174 30.878-13.95 42.932 6.94-10.621 8.287-24.769 8.493-26.948z" fill="#DBDBDB"/><path d="M-4.393 32.978c11.78-3.097 62.64-14.122 94.308 16.816" stroke="#C7C7C7" stroke-width=".75" stroke-miterlimit="10" stroke-dasharray="2.03 2.03"/><path d="M90.533 50.412c.206.206.403.403.6.61M9.765 77.807c-.043-.163-.052-.455-.043-.85" stroke="#C7C7C7" stroke-width=".75" stroke-miterlimit="10"/><path d="M9.816 75.302c.48-7.353 1.999-28.159-15.306-40.66" stroke="#C7C7C7" stroke-width=".75" stroke-miterlimit="10" stroke-dasharray="1.93 1.93"/><path d="M10.562 75.327s.197-.223.591-.617" stroke="#C7C7C7" stroke-width=".75" stroke-miterlimit="10"/><path d="M12.398 73.5c7.026-6.606 33.975-28.527 77.019-22.719" stroke="#C7C7C7" stroke-width=".75" stroke-miterlimit="10" stroke-dasharray="2.03 2.03"/><path d="M90.292 50.893l.85.128M34.645 87.39s.051-.3.111-.85" stroke="#C7C7C7" stroke-width=".75" stroke-miterlimit="10"/><path d="M34.903 84.868c.532-8.846-.764-38.514-40.144-50.697" stroke="#C7C7C7" stroke-width=".75" stroke-miterlimit="10" stroke-dasharray="1.97 1.97"/><path d="M91.141 51.021s-.291.052-.832.18" stroke="#C7C7C7" stroke-width=".75" stroke-miterlimit="10"/><path d="M88.627 51.622c-11.033 2.934-55.09 18.008-63.806 73.158" stroke="#C7C7C7" stroke-width=".75" stroke-miterlimit="10" stroke-dasharray="2.01 2.01"/><path d="M24.692 125.638l-.128.849" stroke="#C7C7C7" stroke-width=".75" stroke-miterlimit="10"/><path d="M9.764 77.807s22.28 21.835 14.8 48.68" stroke="#C7C7C7" stroke-width=".75" stroke-miterlimit="10" stroke-dasharray="2 2"/><path d="M98.231 129.955a.267.267 0 00.16-.031 52.063 52.063 0 002.743-1.604.256.256 0 00.079-.36.274.274 0 00-.37-.08 52.318 52.318 0 01-2.714 1.588.257.257 0 00-.102.355.272.272 0 00.204.132zm5.351-3.351a.278.278 0 00.188-.048 51.788 51.788 0 002.521-1.917.257.257 0 00.033-.368.271.271 0 00-.376-.034 54.793 54.793 0 01-2.495 1.899.257.257 0 00-.057.365.276.276 0 00.186.103zm4.889-3.966a.277.277 0 00.214-.069 44.944 44.944 0 002.245-2.225.256.256 0 00-.017-.368.273.273 0 00-.377.014c-.7.745-1.446 1.485-2.218 2.199a.257.257 0 00-.009.369.261.261 0 00.162.08zm4.287-4.578a.267.267 0 00.241-.098 37.64 37.64 0 001.87-2.537.258.258 0 00-.077-.362.27.27 0 00-.37.073 37.231 37.231 0 01-1.845 2.503.257.257 0 00.047.367c.04.03.088.049.134.054zm3.491-5.184a.273.273 0 00.266-.134 34.59 34.59 0 001.393-2.819.261.261 0 00-.142-.344.27.27 0 00-.351.137 33.677 33.677 0 01-1.371 2.775.26.26 0 00.109.355c.03.016.064.026.096.03zm2.494-5.71a.268.268 0 00.285-.178 32.67 32.67 0 00.831-3.027.262.262 0 00-.205-.311.265.265 0 00-.318.198 32.435 32.435 0 01-.818 2.979.26.26 0 00.172.33.588.588 0 00.053.009zm1.353-6.068a.266.266 0 00.295-.228l.033-.275c.108-.94.173-1.9.198-2.853a.264.264 0 00-.261-.269.263.263 0 00-.274.254 31.616 31.616 0 01-.195 2.808c-.01.09-.02.181-.032.271a.262.262 0 00.234.291l.002.001zm.16-6.217a.257.257 0 00.049 0 .263.263 0 00.249-.276 34.362 34.362 0 00-.362-3.119.267.267 0 00-.307-.218.26.26 0 00-.221.299c.165 1.018.286 2.051.356 3.072a.265.265 0 00.236.242zM97.794 92.31a18.32 18.32 0 002.206.116.264.264 0 00.265-.264.268.268 0 00-.271-.26 17.602 17.602 0 01-3.126-.254.264.264 0 00-.31.213.264.264 0 00.218.303c.336.059.678.108 1.018.146zm-4.072-.982a.268.268 0 00.28-.164.258.258 0 00-.153-.338 14.083 14.083 0 01-2.77-1.421.27.27 0 00-.371.068.257.257 0 00.071.363c.876.583 1.845 1.08 2.877 1.476a.314.314 0 00.066.016zm9.415.802a.248.248 0 00.078-.003 19.83 19.83 0 003.111-.825.255.255 0 00.158-.335.27.27 0 00-.343-.156c-.989.35-2.007.62-3.027.802a.26.26 0 00-.214.305.273.273 0 00.237.212zm-14.622-4.316a.272.272 0 00.205-.062.258.258 0 00.028-.368 10.133 10.133 0 01-1.66-2.56.271.271 0 00-.353-.134.258.258 0 00-.137.344c.433.962 1.02 1.868 1.746 2.69a.267.267 0 00.171.09zm20.581 2.213a.266.266 0 00.16-.03 21.704 21.704 0 002.684-1.731.257.257 0 00.047-.366.272.272 0 00-.375-.048 21.203 21.203 0 01-2.617 1.689.257.257 0 00-.103.354c.043.077.12.123.204.132zm10.162-1.293a.257.257 0 00.094-.006.258.258 0 00.194-.316 35.004 35.004 0 00-.917-3.01.27.27 0 00-.341-.163.26.26 0 00-.165.333c.345.974.648 1.972.905 2.966a.269.269 0 00.23.196zm-5.142-2.48a.268.268 0 00.22-.077 25.317 25.317 0 002.093-2.377.258.258 0 00-.053-.366.27.27 0 00-.374.049 24.53 24.53 0 01-2.048 2.328.256.256 0 00.005.37.267.267 0 00.157.073zm-28.117-4.067a.22.22 0 00.058 0 .259.259 0 00.237-.286c-.08-.745-.075-1.518.013-2.295.028-.243.064-.488.108-.731a.264.264 0 00-.218-.303.265.265 0 00-.31.21c-.045.255-.082.51-.11.765a10.922 10.922 0 00-.014 2.408.266.266 0 00.236.232zm31.176.656a.271.271 0 00.138-.02.257.257 0 00.135-.344 35.673 35.673 0 00-1.437-2.814.27.27 0 00-.364-.102.257.257 0 00-.103.354c.51.897.986 1.83 1.416 2.772.04.088.124.144.215.154zm.778-1.52a.265.265 0 00.259-.125 30.885 30.885 0 001.494-2.77.259.259 0 00-.129-.347.269.269 0 00-.355.124 30.623 30.623 0 01-1.469 2.724.26.26 0 00.095.358.27.27 0 00.105.036zm-30.925-5.211a.268.268 0 00.277-.159 21.325 21.325 0 011.415-2.736.258.258 0 00-.091-.358.27.27 0 00-.367.087 22.038 22.038 0 00-1.45 2.805.26.26 0 00.145.343.26.26 0 00.07.018zm27.045 1.28a.268.268 0 00.18-.043.26.26 0 00.071-.363 32.692 32.692 0 00-1.94-2.514.272.272 0 00-.377-.035.257.257 0 00-.033.368 31.839 31.839 0 011.908 2.474.264.264 0 00.191.113zm6.576-1.686a.267.267 0 00.28-.168c.355-.954.684-1.955.976-2.979a.262.262 0 00-.185-.323.267.267 0 00-.33.18 38.849 38.849 0 01-.966 2.939.262.262 0 00.16.335c.024.01.044.014.065.016zM90.336 70.84a.27.27 0 00.228-.085 12.046 12.046 0 012.345-1.984.256.256 0 00.076-.361.271.271 0 00-.37-.076 12.557 12.557 0 00-2.449 2.07.258.258 0 00.02.37c.044.037.097.06.15.066zm19.637 1.77c.08.01.163-.017.222-.078a.256.256 0 00-.008-.37 25.706 25.706 0 00-2.457-2.047.272.272 0 00-.375.053.258.258 0 00.056.366c.817.596 1.626 1.27 2.405 2.004a.29.29 0 00.157.072zm-5.123-3.701a.266.266 0 00.266-.138.26.26 0 00-.113-.354 16.871 16.871 0 00-2.994-1.214.268.268 0 00-.333.174.263.263 0 00.181.326c.957.28 1.932.676 2.895 1.176a.309.309 0 00.098.03zm-9.233-1.375a.3.3 0 00.102-.007c.98-.264 2.013-.377 3.07-.338a.263.263 0 00.276-.252.266.266 0 00-.259-.27c-1.113-.042-2.2.079-3.233.356a.26.26 0 00-.186.322.276.276 0 00.23.189zm26.757 2.194a.264.264 0 00.29-.205c.213-.995.402-2.029.561-3.076a.263.263 0 00-.225-.297.264.264 0 00-.303.218 53.186 53.186 0 01-.554 3.047c-.03.14.062.28.208.31l.023.003zm.938-6.15h.005a.262.262 0 00.291-.233c.097-1.012.175-2.06.228-3.117a.265.265 0 00-.254-.275.263.263 0 00-.28.246 67.888 67.888 0 01-.225 3.093.263.263 0 00.235.286zm.311-6.22a.264.264 0 00.299-.258 58.779 58.779 0 00-.068-3.125.267.267 0 00-.279-.25.261.261 0 00-.255.27c.049 1.019.073 2.061.067 3.1a.264.264 0 00.236.263zm-.306-6.215a.225.225 0 00.058 0 .262.262 0 00.239-.285 54.934 54.934 0 00-.415-3.102.27.27 0 00-.307-.219.261.261 0 00-.222.3c.165 1.007.305 2.04.412 3.07a.267.267 0 00.235.236zm-1.01-6.147a.261.261 0 00.291-.315 50.08 50.08 0 00-.788-3.035.268.268 0 00-.33-.18.259.259 0 00-.183.322c.288.985.552 1.995.779 3.005a.27.27 0 00.231.203zm-1.755-5.989c.039.005.08.001.119-.013a.258.258 0 00.163-.333 48.976 48.976 0 00-1.169-2.918.272.272 0 00-.351-.139.258.258 0 00-.14.342c.414.943.804 1.916 1.158 2.887a.26.26 0 00.22.175zm-2.517-5.726a.275.275 0 00.151-.026.257.257 0 00.116-.351 48.129 48.129 0 00-1.545-2.75.272.272 0 00-.367-.092.256.256 0 00-.092.357 47.08 47.08 0 011.527 2.719.274.274 0 00.21.143zm-3.251-5.367a.26.26 0 00.18-.044.257.257 0 00.07-.363 50.245 50.245 0 00-1.895-2.533.273.273 0 00-.376-.046.257.257 0 00-.045.366c.65.814 1.282 1.656 1.876 2.505a.257.257 0 00.19.115zm-3.932-4.916a.265.265 0 00.207-.063.257.257 0 00.021-.369 51.752 51.752 0 00-2.203-2.276.273.273 0 00-.379 0 .257.257 0 00.001.369c.75.728 1.484 1.487 2.18 2.253a.29.29 0 00.173.086zm-72.453-9.916a.272.272 0 00.194-.052c.823-.621 1.69-1.22 2.578-1.778a.258.258 0 00.08-.361.273.273 0 00-.37-.08c-.9.566-1.78 1.174-2.614 1.803a.257.257 0 00-.048.366.26.26 0 00.18.102zm67.929 5.52c.084.01.171-.02.23-.086a.257.257 0 00-.025-.37 54.562 54.562 0 00-2.472-2 .27.27 0 00-.375.043.257.257 0 00.047.367 53.51 53.51 0 012.446 1.981.286.286 0 00.149.065zM43.736 9.718a.269.269 0 00.156-.03 41.836 41.836 0 012.84-1.349.256.256 0 00.135-.344.27.27 0 00-.353-.134c-.981.423-1.95.883-2.877 1.367a.258.258 0 00-.108.355.274.274 0 00.207.135zm57.561 5.045a.27.27 0 00.25-.11.26.26 0 00-.069-.364 58.385 58.385 0 00-2.69-1.711.271.271 0 00-.369.085.26.26 0 00.09.36 55.69 55.69 0 012.664 1.694.274.274 0 00.124.046zM49.55 7.213c.04.004.08 0 .12-.014.98-.341 1.993-.657 3.014-.936a.258.258 0 00.182-.322.269.269 0 00-.33-.18 47.693 47.693 0 00-3.049.947.258.258 0 00-.16.335.272.272 0 00.223.17zm46.298 4.294a.266.266 0 00.266-.136.257.257 0 00-.111-.354 60.32 60.32 0 00-2.865-1.41.267.267 0 00-.355.124.26.26 0 00.129.348c.958.44 1.912.91 2.839 1.396a.241.241 0 00.097.032zm-40.176-5.98a.295.295 0 00.085-.003 52.874 52.874 0 013.117-.548.259.259 0 00.223-.297.266.266 0 00-.306-.22 54.253 54.253 0 00-3.148.555.258.258 0 00-.203.309c.025.113.12.192.232.205zm34.4 3.322a.267.267 0 00.278-.16.26.26 0 00-.15-.34 61.243 61.243 0 00-3-1.107.268.268 0 00-.34.161.26.26 0 00.167.333c1 .34 2 .71 2.974 1.097a.355.355 0 00.072.016zM61.966 4.612a.322.322 0 00.056.001 57.145 57.145 0 013.165-.186.26.26 0 00.257-.27.265.265 0 00-.278-.251 56.913 56.913 0 00-3.195.187.26.26 0 00-.24.283.267.267 0 00.235.236zm22.08 2.187a.268.268 0 00.287-.186.264.264 0 00-.183-.324 62.49 62.49 0 00-3.099-.798.268.268 0 00-.321.195.263.263 0 00.2.314c1.027.238 2.06.503 3.072.79.013.006.029.008.044.01zM68.334 4.412a61.503 61.503 0 013.196.157.264.264 0 00.286-.24.266.266 0 00-.248-.282 60.712 60.712 0 00-3.198-.155.263.263 0 00-.272.256.261.261 0 00.236.264zm9.504.955a.267.267 0 00.294-.213.264.264 0 00-.217-.304 63.268 63.268 0 00-3.164-.483h-.004a.264.264 0 00-.295.226.263.263 0 00.233.293c1.043.132 2.099.293 3.136.479l.017.002z" fill="#2E2E46"/></svg>